<svg preserveAspectRatio="none" width="100%" height="100%" overflow="visible" style="display: block;" viewBox="0 0 42 42" fill="none" xmlns="http://www.w3.org/2000/svg">
<g id="Layer_1">
<path id="Vector" fill-rule="evenodd" clip-rule="evenodd" d="M17.7859 26.2676C17.7859 26.5819 18.0435 26.8395 18.3527 26.8395C18.6619 26.8395 18.9196 26.5819 18.9196 26.2676C18.9196 25.9532 18.6619 25.693 18.3527 25.693C18.0435 25.693 17.7859 25.9532 17.7859 26.2676ZM16.7296 26.2676C16.7296 25.3735 17.451 24.6469 18.3527 24.6469C19.2545 24.6469 19.9759 25.3735 19.9759 26.2676C19.9759 27.1616 19.2545 27.8882 18.3527 27.8882C17.451 27.8882 16.7296 27.1616 16.7296 26.2676ZM24.7423 24.2631C24.9742 24.4306 25.0257 24.7577 24.8454 24.9948L18.1466 34.3782C18.0435 34.5173 17.889 34.5972 17.7343 34.5972C17.2842 34.5972 17.075 34.0909 17.2964 33.7701L23.9951 24.3867C24.1755 24.1497 24.5104 24.0956 24.7423 24.2631ZM34.2235 21.1404C32.5733 16.0356 25.3118 15.9025 23.3767 20.7694C27.0094 21.7459 29.7405 24.9664 29.9724 28.8595H34.3008C34.7131 26.3242 34.8677 23.0676 34.2235 21.1404ZM28.9419 29.385C28.9419 33.716 25.4121 37.2432 21.0837 37.2432C16.7554 37.2432 13.2256 33.716 13.2256 29.385C13.2256 25.0464 16.7554 21.5166 21.0837 21.5166C25.4121 21.5166 28.9419 25.0463 28.9419 29.385ZM12.195 28.8594H7.71204C7.27406 26.3242 7.14521 23.0676 7.76353 21.1404C8.5622 18.7134 10.7522 17.1701 13.3544 17.2139C15.7763 17.2551 17.7859 18.6515 18.6361 20.8106C15.0807 21.8309 12.4012 25.0231 12.195 28.8594ZM11.9632 16.2761C12.854 16.1276 13.6764 16.1237 14.5653 16.2838L15.9309 13.4755H10.5976L11.9632 16.2761ZM15.5959 12.4269C16.4977 9.54131 19.0741 8.49265 21.0837 8.49265C23.0934 8.49265 25.644 9.54131 26.5716 12.4269H25.2318C24.874 12.4269 24.5892 12.8056 24.7681 13.1818L26.417 16.5492C24.5362 17.1984 23.0419 18.6309 22.3462 20.5607C21.4065 20.4315 20.5943 20.437 19.6667 20.5813C18.9711 18.6464 17.4767 17.1984 15.5959 16.5491L17.2448 13.1817C17.3914 12.8733 17.1645 12.4268 16.7552 12.4268L15.5959 12.4269ZM19.7955 7.56512C20.6374 7.40729 21.5301 7.40729 22.372 7.56512L23.7375 4.75684H18.4042L19.7955 7.56512ZM26.082 13.4755H31.3895L30.024 16.2838C29.1666 16.123 28.3184 16.1271 27.4475 16.2838L26.082 13.4755ZM35.2541 29.4803C35.2026 29.7251 34.9707 29.908 34.7389 29.908H29.9725C29.7148 34.574 25.8244 38.2917 21.0837 38.2917C16.3431 38.2917 12.4527 34.5739 12.195 29.908H7.27406C7.01644 29.908 6.8103 29.7251 6.75881 29.4803C6.26926 26.958 6.01163 23.1861 6.75881 20.8183C7.45441 18.7494 8.97456 17.219 10.9326 16.5491L9.28368 13.1817C9.2064 13.0142 9.23219 12.8261 9.30938 12.6716C9.41245 12.517 9.56701 12.4268 9.74736 12.4268H14.488C15.0979 10.216 16.6323 8.59396 18.7391 7.8356L17.116 4.46048C17.0129 4.30072 17.0387 4.10491 17.1418 3.95287C17.2191 3.79831 17.3994 3.7081 17.5798 3.7081H24.5877C24.9488 3.7081 25.2302 4.09273 25.0515 4.4604L23.4026 7.83552C25.5407 8.57564 27.0409 10.2051 27.6537 12.4267H32.2398C32.6374 12.4267 32.8682 12.8354 32.7036 13.1816L31.0546 16.549C33.0128 17.2266 34.5586 18.7493 35.2284 20.8182C36.0013 23.1861 35.7179 26.958 35.2541 29.4803ZM24.3816 32.4999C24.3816 32.1779 24.124 31.9203 23.7891 31.9203C23.4798 31.9203 23.2222 32.1779 23.2222 32.4999C23.2222 32.8143 23.4798 33.0719 23.7891 33.0719C24.124 33.0719 24.3816 32.8143 24.3816 32.4999ZM25.4122 32.4999C25.4122 31.6059 24.6908 30.8716 23.7891 30.8716C22.9131 30.8716 22.1917 31.6059 22.1917 32.4999C22.1917 33.3939 22.9131 34.1205 23.7891 34.1205C24.6908 34.1205 25.4122 33.3939 25.4122 32.4999ZM22.0628 15.2146C22.0628 15.0394 21.9339 14.8719 21.7021 14.7534C21.4702 14.6478 21.2898 14.6349 21.058 14.6143C20.7488 14.5911 20.4138 14.5731 20.0274 14.3773C20.0274 14.3773 20.0274 14.3773 20.0016 14.3773C19.409 14.0681 19.0483 13.5374 19.0483 12.9577C19.0741 12.378 19.4348 11.8601 20.0274 11.569C20.2077 11.4917 20.3881 11.4273 20.5427 11.3938V11.1696C20.5427 10.876 20.8003 10.6441 21.0837 10.6441C21.3672 10.6441 21.599 10.876 21.599 11.1696V11.3655C22.0628 11.435 22.5007 11.5948 22.8357 11.7777C23.0934 11.9168 23.1964 12.2312 23.0419 12.4889C22.9131 12.7414 22.6039 12.8392 22.3463 12.7001C21.831 12.4193 21.0323 12.2467 20.4912 12.5121C19.9307 12.7783 20.0201 13.2123 20.4912 13.4396C20.6973 13.5374 20.8777 13.553 21.1353 13.5736C21.393 13.5941 21.7536 13.6225 22.1401 13.8106C22.1401 13.8106 22.1659 13.8106 22.1659 13.8183C23.6397 14.5424 23.3664 16.4535 21.5991 16.8071V17.0234C21.5991 17.312 21.3672 17.549 21.0838 17.549C20.8004 17.549 20.5428 17.312 20.5428 17.0234V16.8225C20.1048 16.753 19.6668 16.5984 19.3061 16.4154C19.0742 16.2841 18.9711 15.9697 19.0999 15.7095C19.2287 15.4519 19.5379 15.3539 19.7955 15.4879C20.3624 15.7739 21.161 15.9491 21.7021 15.676C21.934 15.5624 22.0628 15.3898 22.0628 15.2146Z" fill="var(--fill-0, #720C10)"/>
</g>
</svg>
