<svg preserveAspectRatio="none" width="100%" height="100%" overflow="visible" style="display: block;" viewBox="0 0 42 42" fill="none" xmlns="http://www.w3.org/2000/svg">
<g id="Layer_1">
<path id="Vector" d="M13.5594 15.2499H13.039C12.8498 15.2496 12.6684 15.1743 12.5345 15.0404C12.4007 14.9066 12.3254 14.7252 12.325 14.5359C12.325 14.3619 12.2559 14.195 12.1328 14.0719C12.0097 13.9488 11.8428 13.8797 11.6688 13.8797C11.4947 13.8797 11.3278 13.9488 11.2047 14.0719C11.0817 14.195 11.0125 14.3619 11.0125 14.5359C11.0132 15.0041 11.1757 15.4577 11.4726 15.8197C11.7694 16.1818 12.1824 16.43 12.6413 16.5224V16.9162C12.6413 17.0902 12.7105 17.2571 12.8336 17.3802C12.9566 17.5033 13.1235 17.5724 13.2976 17.5724C13.4716 17.5724 13.6386 17.5033 13.7616 17.3802C13.8847 17.2571 13.9538 17.0902 13.9538 16.9162V16.5224C14.4135 16.4308 14.8273 16.1829 15.1248 15.8208C15.4223 15.4586 15.5853 15.0046 15.5859 14.5359V14.0976C15.5845 13.5609 15.3705 13.0467 14.9906 12.6675C14.6108 12.2884 14.0961 12.0753 13.5594 12.075H13.039C12.8498 12.0747 12.6684 11.9993 12.5345 11.8655C12.4007 11.7317 12.3254 11.5503 12.325 11.361V10.9226C12.3254 10.7334 12.4007 10.552 12.5345 10.4181C12.6684 10.2843 12.8498 10.209 13.039 10.2086H13.5594C13.7487 10.2088 13.9303 10.2841 14.0641 10.4179C14.198 10.5518 14.2733 10.7333 14.2734 10.9226C14.2734 11.0967 14.3426 11.2636 14.4656 11.3867C14.5887 11.5097 14.7556 11.5789 14.9297 11.5789C15.1037 11.5789 15.2707 11.5097 15.3937 11.3867C15.5168 11.2636 15.5859 11.0967 15.5859 10.9226C15.5853 10.4539 15.4223 9.99994 15.1248 9.63781C14.8273 9.27567 14.4135 9.02774 13.9538 8.93616V8.53847C13.9538 8.36442 13.8847 8.1975 13.7616 8.07443C13.6386 7.95136 13.4716 7.88222 13.2976 7.88222C13.1235 7.88222 12.9566 7.95136 12.8336 8.07443C12.7105 8.1975 12.6413 8.36442 12.6413 8.53847V8.93681C12.1823 9.02893 11.7694 9.27702 11.4725 9.63898C11.1756 10.0009 11.0131 10.4545 11.0125 10.9226V11.361C11.0131 11.8983 11.2267 12.4134 11.6067 12.7934C11.9866 13.1733 12.5017 13.387 13.039 13.3875H13.5594C13.7487 13.3875 13.9302 13.4626 14.0641 13.5964C14.198 13.7302 14.2733 13.9116 14.2734 14.1008V14.5392C14.2724 14.728 14.1967 14.9086 14.063 15.0418C13.9292 15.1749 13.7482 15.2498 13.5594 15.2499Z" fill="var(--fill-0, #720C10)"/>
<path id="Vector_2" d="M37.4633 29.925C36.7402 29.3826 35.9028 29.0125 35.0148 28.8432C34.1269 28.6738 33.212 28.7096 32.34 28.9478V10.7756H35.1028C35.2278 10.7756 35.3501 10.74 35.4555 10.6729C35.5609 10.6057 35.6449 10.5099 35.6977 10.3967C35.7505 10.2834 35.7698 10.1575 35.7535 10.0336C35.7372 9.90973 35.6858 9.7931 35.6055 9.69741L28.7602 1.54678C28.6986 1.4735 28.6217 1.41458 28.5349 1.37415C28.4481 1.33373 28.3535 1.31279 28.2578 1.31279C28.1621 1.31279 28.0675 1.33373 27.9807 1.37415C27.8939 1.41458 27.817 1.4735 27.7554 1.54678L20.9042 9.69741C20.8236 9.79308 20.7721 9.90978 20.7557 10.0338C20.7392 10.1577 20.7586 10.2838 20.8114 10.3972C20.8642 10.5106 20.9483 10.6065 21.0538 10.6736C21.1593 10.7408 21.2818 10.7764 21.4069 10.7763H24.1762V15.8557H17.9878C17.8138 15.8557 17.6468 15.9248 17.5238 16.0479C17.4007 16.1709 17.3316 16.3379 17.3316 16.5119V19.4453H11.1366C10.9625 19.4453 10.7956 19.5145 10.6725 19.6376C10.5495 19.7606 10.4803 19.9275 10.4803 20.1016V28.3651L4.66725 30.9415C4.50808 31.0121 4.38347 31.143 4.32083 31.3055C4.25819 31.4679 4.26264 31.6486 4.33322 31.8078C4.4038 31.967 4.53471 32.0916 4.69716 32.1542C4.85962 32.2168 5.0403 32.2124 5.19947 32.1418L12.5718 28.875C12.9445 28.7086 13.35 28.6285 13.758 28.6406C14.166 28.6526 14.5661 28.7565 14.9284 28.9446L17.7306 30.3883L19.7531 31.4344L19.7603 31.4383L23.6709 33.4576L22.2469 34.4748L17.1655 33.0094C16.9983 32.9612 16.8187 32.9814 16.6663 33.0656C16.514 33.1497 16.4013 33.291 16.3531 33.4583C16.3049 33.6255 16.3251 33.8051 16.4093 33.9574C16.4934 34.1098 16.6347 34.2225 16.802 34.2707L22.1878 35.8221C22.2469 35.8393 22.3081 35.8479 22.3696 35.8477C22.5063 35.8477 22.6396 35.805 22.7509 35.7256L25.2656 33.9281L31.7697 30.5511C32.3904 30.2312 33.0755 30.0561 33.7736 30.0388C34.4717 30.0215 35.1646 30.1626 35.8004 30.4513L21.376 39.3094L11.2619 35.8503C11.1325 35.806 10.9926 35.8033 10.8616 35.8424L7.20956 36.9377C7.04282 36.9877 6.90279 37.102 6.82027 37.2552C6.73775 37.4085 6.71951 37.5883 6.76955 37.755C6.81959 37.9218 6.93381 38.0618 7.0871 38.1443C7.24038 38.2269 7.42017 38.2451 7.58691 38.1951L11.0362 37.1602L21.2441 40.6521C21.3356 40.6834 21.4329 40.6941 21.5289 40.6834C21.625 40.6727 21.7176 40.641 21.8 40.5904L37.4102 31.0052C37.5011 30.9493 37.5771 30.8721 37.6315 30.7803C37.6859 30.6885 37.717 30.5847 37.7223 30.4781C37.7275 30.3715 37.7067 30.2653 37.6615 30.1685C37.6164 30.0718 37.5484 29.9875 37.4633 29.923V29.925ZM22.8158 9.46313L28.2581 2.98922L33.6952 9.46313H31.6837C31.5097 9.46313 31.3428 9.53227 31.2197 9.65534C31.0966 9.77841 31.0275 9.94533 31.0275 10.1194V29.4591L25.4887 32.3354V10.1194C25.4887 9.94533 25.4196 9.77841 25.2965 9.65534C25.1735 9.53227 25.0065 9.46313 24.8325 9.46313H22.8158ZM18.6441 29.3849V29.3022L24.1762 24.8791V26.6956L19.9598 30.0641L18.6441 29.3849ZM18.6441 25.8038L24.1762 21.3754V23.1978L18.6441 27.6209V25.8038ZM24.1762 19.6941L18.6441 24.1224V22.3L24.1762 17.8769V19.6941ZM18.6441 17.1675H22.9602L18.6441 20.6187V17.1675ZM12.0402 27.6734L11.7928 27.7837V20.7572H17.3316V28.707L15.5308 27.7771C14.9942 27.4984 14.4017 27.3443 13.7974 27.3264C13.193 27.3084 12.5924 27.427 12.0402 27.6734ZM21.2369 30.7237L24.1762 28.3756V32.2416L21.2369 30.7237Z" fill="var(--fill-0, #720C10)"/>
</g>
</svg>
