<svg preserveAspectRatio="none" width="100%" height="100%" overflow="visible" style="display: block;" viewBox="0 0 42 42" fill="none" xmlns="http://www.w3.org/2000/svg">
<g id="Layer_1">
<g id="Vector">
<mask id="path-1-outside-1_0_23" maskUnits="userSpaceOnUse" x="4.42325" y="0.312499" width="33" height="41" fill="black">
<rect fill="white" x="4.42325" y="0.312499" width="33" height="41"/>
<path fill-rule="evenodd" clip-rule="evenodd" d="M19.2894 19.9944L28.8145 25.5244C28.9177 25.5842 28.9929 25.6826 29.0236 25.7979C29.0543 25.9132 29.0379 26.0359 28.9781 26.1392C28.9183 26.2424 28.8199 26.3176 28.7046 26.3483C28.5893 26.379 28.4665 26.3627 28.3633 26.3028L18.7605 20.7276L18.9651 21.5996C18.9786 21.6572 18.9805 21.7168 18.9708 21.7752C18.9612 21.8335 18.9402 21.8894 18.9089 21.9396C18.8777 21.9899 18.8368 22.0334 18.7888 22.0679C18.7407 22.1023 18.6863 22.1269 18.6287 22.1404C18.5711 22.1538 18.5114 22.1557 18.4531 22.1461C18.3947 22.1364 18.3388 22.1154 18.2886 22.0841C18.2384 22.0529 18.1948 22.0121 18.1604 21.964C18.1259 21.9159 18.1013 21.8615 18.0879 21.8039L17.6449 19.9172C17.6315 19.8596 17.6295 19.7999 17.6392 19.7416C17.6488 19.6832 17.6699 19.6274 17.7011 19.5772C17.7323 19.5269 17.7731 19.4834 17.8212 19.4489C17.8693 19.4145 17.9237 19.3899 17.9812 19.3764L19.8684 18.9335C19.9847 18.9063 20.107 18.9265 20.2084 18.9896C20.3099 19.0526 20.3821 19.1534 20.4093 19.2697C20.4364 19.386 20.4162 19.5083 20.3532 19.6097C20.2901 19.7112 20.1894 19.7834 20.073 19.8105L19.2892 19.9944H19.2894ZM26.0632 34.0558H28.5976V28.6038H26.0632V34.0558ZM14.93 34.0558H17.4645V24.7259H14.9297V34.0558H14.93ZM23.0309 34.0558V26.6492H20.4967V34.0558H23.0309ZM23.4834 34.9576H30.2435C30.3041 34.9598 30.3645 34.9497 30.4211 34.928C30.4777 34.9063 30.5293 34.8735 30.5729 34.8314C30.6165 34.7893 30.6512 34.7389 30.6749 34.6831C30.6986 34.6273 30.7108 34.5673 30.7108 34.5067C30.7108 34.4461 30.6986 34.3861 30.6749 34.3304C30.6512 34.2746 30.6165 34.2241 30.5729 34.1821C30.5293 34.14 30.4777 34.1071 30.4211 34.0854C30.3645 34.0637 30.3041 34.0537 30.2435 34.0558H29.4993V28.1531C29.4993 28.0335 29.4517 27.9187 29.3671 27.8341C29.2825 27.7495 29.1677 27.702 29.0481 27.702H25.6124C25.4927 27.702 25.378 27.7495 25.2933 27.8341C25.2087 27.9187 25.1612 28.0335 25.1612 28.1531V34.0561H23.9326V26.1984C23.9326 26.0787 23.8851 25.964 23.8005 25.8794C23.7159 25.7948 23.6011 25.7472 23.4814 25.7472H20.0457C19.9261 25.7472 19.8113 25.7948 19.7267 25.8794C19.6421 25.964 19.5946 26.0787 19.5946 26.1984V34.0558H18.3657V24.275C18.3657 24.1554 18.3182 24.0406 18.2336 23.956C18.149 23.8714 18.0342 23.8238 17.9146 23.8238H14.4792C14.3595 23.8238 14.2448 23.8714 14.1601 23.956C14.0755 24.0406 14.028 24.1554 14.028 24.275V34.0558H13.2836C13.1669 34.06 13.0562 34.1093 12.9751 34.1934C12.8939 34.2775 12.8486 34.3899 12.8486 34.5067C12.8486 34.6236 12.8939 34.7359 12.9751 34.82C13.0562 34.9041 13.1669 34.9534 13.2836 34.9576H23.4834ZM26.2172 2.21427H6.32535V36.3629H32.2676V8.26457H26.6684C26.5487 8.26457 26.4339 8.21703 26.3493 8.13242C26.2647 8.04781 26.2172 7.93305 26.2172 7.81339V2.21427ZM31.63 7.36288H27.119V2.85173L31.6302 7.36288H31.63ZM19.0541 8.61861V15.7451H10.3195V8.67349L14.7144 4.2785L19.0545 8.61861H19.0541ZM15.0328 3.32227L21.4892 9.77862C21.5682 9.86425 21.6111 9.97715 21.6088 10.0937C21.6064 10.2102 21.5591 10.3213 21.4767 10.4037C21.3943 10.4861 21.2832 10.5334 21.1667 10.5358C21.0501 10.5381 20.9372 10.4952 20.8516 10.4162L19.9558 9.5203V16.196C19.9558 16.3157 19.9083 16.4304 19.8237 16.515C19.7391 16.5996 19.6243 16.6472 19.5047 16.6472H9.86836C9.7487 16.6472 9.63394 16.5996 9.54933 16.515C9.46472 16.4304 9.41719 16.3157 9.41719 16.196V9.57518L8.57629 10.4162C8.53507 10.4608 8.48525 10.4967 8.42984 10.5216C8.37442 10.5465 8.31454 10.56 8.25379 10.5612C8.19304 10.5624 8.13267 10.5513 8.07631 10.5286C8.01994 10.5059 7.96874 10.4721 7.92578 10.4291C7.88281 10.3862 7.84897 10.335 7.82627 10.2786C7.80358 10.2222 7.79251 10.1619 7.79372 10.1011C7.79493 10.0404 7.8084 9.98048 7.83332 9.92507C7.85824 9.86965 7.8941 9.81984 7.93874 9.77862L14.3953 3.32227C14.4798 3.23781 14.5945 3.19037 14.714 3.19037C14.8336 3.19037 14.9482 3.23781 15.0328 3.32227ZM15.8895 9.44524V13.2973H13.2768V9.44524H15.8895ZM12.8259 8.54355H16.3406C16.4603 8.54355 16.575 8.59109 16.6597 8.6757C16.7443 8.76031 16.7918 8.87507 16.7918 8.99473V13.7484C16.7918 13.8681 16.7443 13.9829 16.6597 14.0675C16.575 14.1521 16.4603 14.1996 16.3406 14.1996H12.8259C12.7063 14.1996 12.5915 14.1521 12.5069 14.0675C12.4223 13.9829 12.3747 13.8681 12.3747 13.7484V8.9944C12.3747 8.87474 12.4223 8.75998 12.5069 8.67537C12.5915 8.59076 12.7063 8.54323 12.8259 8.54323V8.54355ZM22.7112 12.4559C22.5946 12.4514 22.4842 12.402 22.4033 12.3179C22.3224 12.2338 22.2772 12.1217 22.2772 12.005C22.2772 11.8883 22.3224 11.7762 22.4033 11.6921C22.4842 11.6081 22.5946 11.5586 22.7112 11.5542H30.6633C30.7799 11.5586 30.8902 11.6081 30.9711 11.6921C31.052 11.7762 31.0972 11.8883 31.0972 12.005C31.0972 12.1217 31.052 12.2338 30.9711 12.3179C30.8902 12.402 30.7799 12.4514 30.6633 12.4559H22.7112ZM22.7112 14.3537C22.5946 14.3492 22.4842 14.2998 22.4033 14.2157C22.3224 14.1316 22.2772 14.0195 22.2772 13.9028C22.2772 13.7861 22.3224 13.674 22.4033 13.5899C22.4842 13.5059 22.5946 13.4564 22.7112 13.452H30.6633C30.7799 13.4564 30.8902 13.5059 30.9711 13.5899C31.052 13.674 31.0972 13.7861 31.0972 13.9028C31.0972 14.0195 31.052 14.1316 30.9711 14.2157C30.8902 14.2998 30.7799 14.3492 30.6633 14.3537H22.7112ZM22.7112 16.2515C22.5944 16.2474 22.4838 16.198 22.4026 16.1139C22.3214 16.0298 22.2761 15.9175 22.2761 15.8007C22.2761 15.6838 22.3214 15.5715 22.4026 15.4874C22.4838 15.4033 22.5944 15.3539 22.7112 15.3498H30.6633C30.7801 15.3539 30.8907 15.4033 30.9719 15.4874C31.053 15.5715 31.0984 15.6838 31.0984 15.8007C31.0984 15.9175 31.053 16.0298 30.9719 16.1139C30.8907 16.198 30.7801 16.2474 30.6633 16.2515H22.7112ZM22.7112 18.1493C22.5946 18.1449 22.4842 18.0954 22.4033 18.0114C22.3224 17.9273 22.2772 17.8152 22.2772 17.6985C22.2772 17.5818 22.3224 17.4697 22.4033 17.3856C22.4842 17.3015 22.5946 17.2521 22.7112 17.2476H30.6633C30.7799 17.2521 30.8902 17.3015 30.9711 17.3856C31.052 17.4697 31.0972 17.5818 31.0972 17.6985C31.0972 17.8152 31.052 17.9273 30.9711 18.0114C30.8902 18.0954 30.7799 18.1449 30.6633 18.1493H22.7112ZM9.45706 31.897V23.3913C9.45706 23.2716 9.40952 23.1569 9.32491 23.0723C9.2403 22.9877 9.12554 22.9401 9.00588 22.9401H8.58129L10.1214 19.4472L11.6616 22.9401H11.2371C11.1174 22.9401 11.0026 22.9877 10.918 23.0723C10.8334 23.1569 10.7859 23.2716 10.7859 23.3913V31.897H9.45706ZM11.2371 32.7988H9.00588C8.88623 32.7988 8.77147 32.7513 8.68686 32.6667C8.60225 32.582 8.55471 32.4673 8.55471 32.3476V23.8422H7.89026C7.81313 23.8423 7.73727 23.8226 7.66995 23.7849C7.60263 23.7473 7.54609 23.693 7.50576 23.6273C7.46542 23.5615 7.44263 23.4865 7.43958 23.4095C7.43652 23.3324 7.4533 23.2558 7.48831 23.1871L9.7093 18.1504C9.74479 18.0707 9.8026 18.0031 9.87574 17.9556C9.94888 17.9081 10.0342 17.8828 10.1214 17.8828C10.2086 17.8828 10.294 17.9081 10.3671 17.9556C10.4403 18.0031 10.4981 18.0707 10.5336 18.1504L12.7648 23.2102C12.7944 23.2787 12.8065 23.3536 12.8002 23.428C12.7938 23.5024 12.7691 23.5741 12.7283 23.6366C12.6875 23.6992 12.6318 23.7506 12.5663 23.7865C12.5007 23.8223 12.4274 23.8413 12.3527 23.8418L11.6882 23.8423V32.348C11.6882 32.4676 11.6407 32.5824 11.5561 32.667C11.4715 32.7516 11.3567 32.7991 11.2371 32.7991L11.2371 32.7988ZM30.2777 4.73542L26.9898 1.44744C26.948 1.40464 26.898 1.37065 26.8427 1.34747C26.7875 1.32429 26.7282 1.3124 26.6684 1.3125H5.87442C5.75476 1.3125 5.64001 1.36003 5.5554 1.44465C5.47078 1.52926 5.42325 1.64401 5.42325 1.76367V36.8137C5.42325 36.9334 5.47078 37.0482 5.5554 37.1328C5.64001 37.2174 5.75476 37.2649 5.87442 37.2649H8.83058V40.2363C8.83058 40.356 8.87812 40.4707 8.96273 40.5554C9.04734 40.64 9.1621 40.6875 9.28175 40.6875H36.1256C36.2452 40.6875 36.36 40.64 36.4446 40.5554C36.5292 40.4707 36.5768 40.356 36.5768 40.2363V5.18626C36.5768 5.0666 36.5292 4.95185 36.4446 4.86723C36.36 4.78262 36.2452 4.73509 36.1256 4.73509L30.2777 4.73542ZM9.73235 37.2646V39.7857H35.6747V5.63711H31.1793L33.0332 7.49101C33.0763 7.53296 33.1106 7.58313 33.1339 7.63855C33.1573 7.69397 33.1692 7.75351 33.1692 7.81364V36.8137C33.1692 36.9334 33.1216 37.0482 33.037 37.1328C32.9524 37.2174 32.8377 37.2649 32.718 37.2649L9.73235 37.2646Z"/>
</mask>
<path fill-rule="evenodd" clip-rule="evenodd" d="M19.2894 19.9944L28.8145 25.5244C28.9177 25.5842 28.9929 25.6826 29.0236 25.7979C29.0543 25.9132 29.0379 26.0359 28.9781 26.1392C28.9183 26.2424 28.8199 26.3176 28.7046 26.3483C28.5893 26.379 28.4665 26.3627 28.3633 26.3028L18.7605 20.7276L18.9651 21.5996C18.9786 21.6572 18.9805 21.7168 18.9708 21.7752C18.9612 21.8335 18.9402 21.8894 18.9089 21.9396C18.8777 21.9899 18.8368 22.0334 18.7888 22.0679C18.7407 22.1023 18.6863 22.1269 18.6287 22.1404C18.5711 22.1538 18.5114 22.1557 18.4531 22.1461C18.3947 22.1364 18.3388 22.1154 18.2886 22.0841C18.2384 22.0529 18.1948 22.0121 18.1604 21.964C18.1259 21.9159 18.1013 21.8615 18.0879 21.8039L17.6449 19.9172C17.6315 19.8596 17.6295 19.7999 17.6392 19.7416C17.6488 19.6832 17.6699 19.6274 17.7011 19.5772C17.7323 19.5269 17.7731 19.4834 17.8212 19.4489C17.8693 19.4145 17.9237 19.3899 17.9812 19.3764L19.8684 18.9335C19.9847 18.9063 20.107 18.9265 20.2084 18.9896C20.3099 19.0526 20.3821 19.1534 20.4093 19.2697C20.4364 19.386 20.4162 19.5083 20.3532 19.6097C20.2901 19.7112 20.1894 19.7834 20.073 19.8105L19.2892 19.9944H19.2894ZM26.0632 34.0558H28.5976V28.6038H26.0632V34.0558ZM14.93 34.0558H17.4645V24.7259H14.9297V34.0558H14.93ZM23.0309 34.0558V26.6492H20.4967V34.0558H23.0309ZM23.4834 34.9576H30.2435C30.3041 34.9598 30.3645 34.9497 30.4211 34.928C30.4777 34.9063 30.5293 34.8735 30.5729 34.8314C30.6165 34.7893 30.6512 34.7389 30.6749 34.6831C30.6986 34.6273 30.7108 34.5673 30.7108 34.5067C30.7108 34.4461 30.6986 34.3861 30.6749 34.3304C30.6512 34.2746 30.6165 34.2241 30.5729 34.1821C30.5293 34.14 30.4777 34.1071 30.4211 34.0854C30.3645 34.0637 30.3041 34.0537 30.2435 34.0558H29.4993V28.1531C29.4993 28.0335 29.4517 27.9187 29.3671 27.8341C29.2825 27.7495 29.1677 27.702 29.0481 27.702H25.6124C25.4927 27.702 25.378 27.7495 25.2933 27.8341C25.2087 27.9187 25.1612 28.0335 25.1612 28.1531V34.0561H23.9326V26.1984C23.9326 26.0787 23.8851 25.964 23.8005 25.8794C23.7159 25.7948 23.6011 25.7472 23.4814 25.7472H20.0457C19.9261 25.7472 19.8113 25.7948 19.7267 25.8794C19.6421 25.964 19.5946 26.0787 19.5946 26.1984V34.0558H18.3657V24.275C18.3657 24.1554 18.3182 24.0406 18.2336 23.956C18.149 23.8714 18.0342 23.8238 17.9146 23.8238H14.4792C14.3595 23.8238 14.2448 23.8714 14.1601 23.956C14.0755 24.0406 14.028 24.1554 14.028 24.275V34.0558H13.2836C13.1669 34.06 13.0562 34.1093 12.9751 34.1934C12.8939 34.2775 12.8486 34.3899 12.8486 34.5067C12.8486 34.6236 12.8939 34.7359 12.9751 34.82C13.0562 34.9041 13.1669 34.9534 13.2836 34.9576H23.4834ZM26.2172 2.21427H6.32535V36.3629H32.2676V8.26457H26.6684C26.5487 8.26457 26.4339 8.21703 26.3493 8.13242C26.2647 8.04781 26.2172 7.93305 26.2172 7.81339V2.21427ZM31.63 7.36288H27.119V2.85173L31.6302 7.36288H31.63ZM19.0541 8.61861V15.7451H10.3195V8.67349L14.7144 4.2785L19.0545 8.61861H19.0541ZM15.0328 3.32227L21.4892 9.77862C21.5682 9.86425 21.6111 9.97715 21.6088 10.0937C21.6064 10.2102 21.5591 10.3213 21.4767 10.4037C21.3943 10.4861 21.2832 10.5334 21.1667 10.5358C21.0501 10.5381 20.9372 10.4952 20.8516 10.4162L19.9558 9.5203V16.196C19.9558 16.3157 19.9083 16.4304 19.8237 16.515C19.7391 16.5996 19.6243 16.6472 19.5047 16.6472H9.86836C9.7487 16.6472 9.63394 16.5996 9.54933 16.515C9.46472 16.4304 9.41719 16.3157 9.41719 16.196V9.57518L8.57629 10.4162C8.53507 10.4608 8.48525 10.4967 8.42984 10.5216C8.37442 10.5465 8.31454 10.56 8.25379 10.5612C8.19304 10.5624 8.13267 10.5513 8.07631 10.5286C8.01994 10.5059 7.96874 10.4721 7.92578 10.4291C7.88281 10.3862 7.84897 10.335 7.82627 10.2786C7.80358 10.2222 7.79251 10.1619 7.79372 10.1011C7.79493 10.0404 7.8084 9.98048 7.83332 9.92507C7.85824 9.86965 7.8941 9.81984 7.93874 9.77862L14.3953 3.32227C14.4798 3.23781 14.5945 3.19037 14.714 3.19037C14.8336 3.19037 14.9482 3.23781 15.0328 3.32227ZM15.8895 9.44524V13.2973H13.2768V9.44524H15.8895ZM12.8259 8.54355H16.3406C16.4603 8.54355 16.575 8.59109 16.6597 8.6757C16.7443 8.76031 16.7918 8.87507 16.7918 8.99473V13.7484C16.7918 13.8681 16.7443 13.9829 16.6597 14.0675C16.575 14.1521 16.4603 14.1996 16.3406 14.1996H12.8259C12.7063 14.1996 12.5915 14.1521 12.5069 14.0675C12.4223 13.9829 12.3747 13.8681 12.3747 13.7484V8.9944C12.3747 8.87474 12.4223 8.75998 12.5069 8.67537C12.5915 8.59076 12.7063 8.54323 12.8259 8.54323V8.54355ZM22.7112 12.4559C22.5946 12.4514 22.4842 12.402 22.4033 12.3179C22.3224 12.2338 22.2772 12.1217 22.2772 12.005C22.2772 11.8883 22.3224 11.7762 22.4033 11.6921C22.4842 11.6081 22.5946 11.5586 22.7112 11.5542H30.6633C30.7799 11.5586 30.8902 11.6081 30.9711 11.6921C31.052 11.7762 31.0972 11.8883 31.0972 12.005C31.0972 12.1217 31.052 12.2338 30.9711 12.3179C30.8902 12.402 30.7799 12.4514 30.6633 12.4559H22.7112ZM22.7112 14.3537C22.5946 14.3492 22.4842 14.2998 22.4033 14.2157C22.3224 14.1316 22.2772 14.0195 22.2772 13.9028C22.2772 13.7861 22.3224 13.674 22.4033 13.5899C22.4842 13.5059 22.5946 13.4564 22.7112 13.452H30.6633C30.7799 13.4564 30.8902 13.5059 30.9711 13.5899C31.052 13.674 31.0972 13.7861 31.0972 13.9028C31.0972 14.0195 31.052 14.1316 30.9711 14.2157C30.8902 14.2998 30.7799 14.3492 30.6633 14.3537H22.7112ZM22.7112 16.2515C22.5944 16.2474 22.4838 16.198 22.4026 16.1139C22.3214 16.0298 22.2761 15.9175 22.2761 15.8007C22.2761 15.6838 22.3214 15.5715 22.4026 15.4874C22.4838 15.4033 22.5944 15.3539 22.7112 15.3498H30.6633C30.7801 15.3539 30.8907 15.4033 30.9719 15.4874C31.053 15.5715 31.0984 15.6838 31.0984 15.8007C31.0984 15.9175 31.053 16.0298 30.9719 16.1139C30.8907 16.198 30.7801 16.2474 30.6633 16.2515H22.7112ZM22.7112 18.1493C22.5946 18.1449 22.4842 18.0954 22.4033 18.0114C22.3224 17.9273 22.2772 17.8152 22.2772 17.6985C22.2772 17.5818 22.3224 17.4697 22.4033 17.3856C22.4842 17.3015 22.5946 17.2521 22.7112 17.2476H30.6633C30.7799 17.2521 30.8902 17.3015 30.9711 17.3856C31.052 17.4697 31.0972 17.5818 31.0972 17.6985C31.0972 17.8152 31.052 17.9273 30.9711 18.0114C30.8902 18.0954 30.7799 18.1449 30.6633 18.1493H22.7112ZM9.45706 31.897V23.3913C9.45706 23.2716 9.40952 23.1569 9.32491 23.0723C9.2403 22.9877 9.12554 22.9401 9.00588 22.9401H8.58129L10.1214 19.4472L11.6616 22.9401H11.2371C11.1174 22.9401 11.0026 22.9877 10.918 23.0723C10.8334 23.1569 10.7859 23.2716 10.7859 23.3913V31.897H9.45706ZM11.2371 32.7988H9.00588C8.88623 32.7988 8.77147 32.7513 8.68686 32.6667C8.60225 32.582 8.55471 32.4673 8.55471 32.3476V23.8422H7.89026C7.81313 23.8423 7.73727 23.8226 7.66995 23.7849C7.60263 23.7473 7.54609 23.693 7.50576 23.6273C7.46542 23.5615 7.44263 23.4865 7.43958 23.4095C7.43652 23.3324 7.4533 23.2558 7.48831 23.1871L9.7093 18.1504C9.74479 18.0707 9.8026 18.0031 9.87574 17.9556C9.94888 17.9081 10.0342 17.8828 10.1214 17.8828C10.2086 17.8828 10.294 17.9081 10.3671 17.9556C10.4403 18.0031 10.4981 18.0707 10.5336 18.1504L12.7648 23.2102C12.7944 23.2787 12.8065 23.3536 12.8002 23.428C12.7938 23.5024 12.7691 23.5741 12.7283 23.6366C12.6875 23.6992 12.6318 23.7506 12.5663 23.7865C12.5007 23.8223 12.4274 23.8413 12.3527 23.8418L11.6882 23.8423V32.348C11.6882 32.4676 11.6407 32.5824 11.5561 32.667C11.4715 32.7516 11.3567 32.7991 11.2371 32.7991L11.2371 32.7988ZM30.2777 4.73542L26.9898 1.44744C26.948 1.40464 26.898 1.37065 26.8427 1.34747C26.7875 1.32429 26.7282 1.3124 26.6684 1.3125H5.87442C5.75476 1.3125 5.64001 1.36003 5.5554 1.44465C5.47078 1.52926 5.42325 1.64401 5.42325 1.76367V36.8137C5.42325 36.9334 5.47078 37.0482 5.5554 37.1328C5.64001 37.2174 5.75476 37.2649 5.87442 37.2649H8.83058V40.2363C8.83058 40.356 8.87812 40.4707 8.96273 40.5554C9.04734 40.64 9.1621 40.6875 9.28175 40.6875H36.1256C36.2452 40.6875 36.36 40.64 36.4446 40.5554C36.5292 40.4707 36.5768 40.356 36.5768 40.2363V5.18626C36.5768 5.0666 36.5292 4.95185 36.4446 4.86723C36.36 4.78262 36.2452 4.73509 36.1256 4.73509L30.2777 4.73542ZM9.73235 37.2646V39.7857H35.6747V5.63711H31.1793L33.0332 7.49101C33.0763 7.53296 33.1106 7.58313 33.1339 7.63855C33.1573 7.69397 33.1692 7.75351 33.1692 7.81364V36.8137C33.1692 36.9334 33.1216 37.0482 33.037 37.1328C32.9524 37.2174 32.8377 37.2649 32.718 37.2649L9.73235 37.2646Z" fill="var(--fill-0, #720C10)"/>
<path fill-rule="evenodd" clip-rule="evenodd" d="M19.2894 19.9944L28.8145 25.5244C28.9177 25.5842 28.9929 25.6826 29.0236 25.7979C29.0543 25.9132 29.0379 26.0359 28.9781 26.1392C28.9183 26.2424 28.8199 26.3176 28.7046 26.3483C28.5893 26.379 28.4665 26.3627 28.3633 26.3028L18.7605 20.7276L18.9651 21.5996C18.9786 21.6572 18.9805 21.7168 18.9708 21.7752C18.9612 21.8335 18.9402 21.8894 18.9089 21.9396C18.8777 21.9899 18.8368 22.0334 18.7888 22.0679C18.7407 22.1023 18.6863 22.1269 18.6287 22.1404C18.5711 22.1538 18.5114 22.1557 18.4531 22.1461C18.3947 22.1364 18.3388 22.1154 18.2886 22.0841C18.2384 22.0529 18.1948 22.0121 18.1604 21.964C18.1259 21.9159 18.1013 21.8615 18.0879 21.8039L17.6449 19.9172C17.6315 19.8596 17.6295 19.7999 17.6392 19.7416C17.6488 19.6832 17.6699 19.6274 17.7011 19.5772C17.7323 19.5269 17.7731 19.4834 17.8212 19.4489C17.8693 19.4145 17.9237 19.3899 17.9812 19.3764L19.8684 18.9335C19.9847 18.9063 20.107 18.9265 20.2084 18.9896C20.3099 19.0526 20.3821 19.1534 20.4093 19.2697C20.4364 19.386 20.4162 19.5083 20.3532 19.6097C20.2901 19.7112 20.1894 19.7834 20.073 19.8105L19.2892 19.9944H19.2894ZM26.0632 34.0558H28.5976V28.6038H26.0632V34.0558ZM14.93 34.0558H17.4645V24.7259H14.9297V34.0558H14.93ZM23.0309 34.0558V26.6492H20.4967V34.0558H23.0309ZM23.4834 34.9576H30.2435C30.3041 34.9598 30.3645 34.9497 30.4211 34.928C30.4777 34.9063 30.5293 34.8735 30.5729 34.8314C30.6165 34.7893 30.6512 34.7389 30.6749 34.6831C30.6986 34.6273 30.7108 34.5673 30.7108 34.5067C30.7108 34.4461 30.6986 34.3861 30.6749 34.3304C30.6512 34.2746 30.6165 34.2241 30.5729 34.1821C30.5293 34.14 30.4777 34.1071 30.4211 34.0854C30.3645 34.0637 30.3041 34.0537 30.2435 34.0558H29.4993V28.1531C29.4993 28.0335 29.4517 27.9187 29.3671 27.8341C29.2825 27.7495 29.1677 27.702 29.0481 27.702H25.6124C25.4927 27.702 25.378 27.7495 25.2933 27.8341C25.2087 27.9187 25.1612 28.0335 25.1612 28.1531V34.0561H23.9326V26.1984C23.9326 26.0787 23.8851 25.964 23.8005 25.8794C23.7159 25.7948 23.6011 25.7472 23.4814 25.7472H20.0457C19.9261 25.7472 19.8113 25.7948 19.7267 25.8794C19.6421 25.964 19.5946 26.0787 19.5946 26.1984V34.0558H18.3657V24.275C18.3657 24.1554 18.3182 24.0406 18.2336 23.956C18.149 23.8714 18.0342 23.8238 17.9146 23.8238H14.4792C14.3595 23.8238 14.2448 23.8714 14.1601 23.956C14.0755 24.0406 14.028 24.1554 14.028 24.275V34.0558H13.2836C13.1669 34.06 13.0562 34.1093 12.9751 34.1934C12.8939 34.2775 12.8486 34.3899 12.8486 34.5067C12.8486 34.6236 12.8939 34.7359 12.9751 34.82C13.0562 34.9041 13.1669 34.9534 13.2836 34.9576H23.4834ZM26.2172 2.21427H6.32535V36.3629H32.2676V8.26457H26.6684C26.5487 8.26457 26.4339 8.21703 26.3493 8.13242C26.2647 8.04781 26.2172 7.93305 26.2172 7.81339V2.21427ZM31.63 7.36288H27.119V2.85173L31.6302 7.36288H31.63ZM19.0541 8.61861V15.7451H10.3195V8.67349L14.7144 4.2785L19.0545 8.61861H19.0541ZM15.0328 3.32227L21.4892 9.77862C21.5682 9.86425 21.6111 9.97715 21.6088 10.0937C21.6064 10.2102 21.5591 10.3213 21.4767 10.4037C21.3943 10.4861 21.2832 10.5334 21.1667 10.5358C21.0501 10.5381 20.9372 10.4952 20.8516 10.4162L19.9558 9.5203V16.196C19.9558 16.3157 19.9083 16.4304 19.8237 16.515C19.7391 16.5996 19.6243 16.6472 19.5047 16.6472H9.86836C9.7487 16.6472 9.63394 16.5996 9.54933 16.515C9.46472 16.4304 9.41719 16.3157 9.41719 16.196V9.57518L8.57629 10.4162C8.53507 10.4608 8.48525 10.4967 8.42984 10.5216C8.37442 10.5465 8.31454 10.56 8.25379 10.5612C8.19304 10.5624 8.13267 10.5513 8.07631 10.5286C8.01994 10.5059 7.96874 10.4721 7.92578 10.4291C7.88281 10.3862 7.84897 10.335 7.82627 10.2786C7.80358 10.2222 7.79251 10.1619 7.79372 10.1011C7.79493 10.0404 7.8084 9.98048 7.83332 9.92507C7.85824 9.86965 7.8941 9.81984 7.93874 9.77862L14.3953 3.32227C14.4798 3.23781 14.5945 3.19037 14.714 3.19037C14.8336 3.19037 14.9482 3.23781 15.0328 3.32227ZM15.8895 9.44524V13.2973H13.2768V9.44524H15.8895ZM12.8259 8.54355H16.3406C16.4603 8.54355 16.575 8.59109 16.6597 8.6757C16.7443 8.76031 16.7918 8.87507 16.7918 8.99473V13.7484C16.7918 13.8681 16.7443 13.9829 16.6597 14.0675C16.575 14.1521 16.4603 14.1996 16.3406 14.1996H12.8259C12.7063 14.1996 12.5915 14.1521 12.5069 14.0675C12.4223 13.9829 12.3747 13.8681 12.3747 13.7484V8.9944C12.3747 8.87474 12.4223 8.75998 12.5069 8.67537C12.5915 8.59076 12.7063 8.54323 12.8259 8.54323V8.54355ZM22.7112 12.4559C22.5946 12.4514 22.4842 12.402 22.4033 12.3179C22.3224 12.2338 22.2772 12.1217 22.2772 12.005C22.2772 11.8883 22.3224 11.7762 22.4033 11.6921C22.4842 11.6081 22.5946 11.5586 22.7112 11.5542H30.6633C30.7799 11.5586 30.8902 11.6081 30.9711 11.6921C31.052 11.7762 31.0972 11.8883 31.0972 12.005C31.0972 12.1217 31.052 12.2338 30.9711 12.3179C30.8902 12.402 30.7799 12.4514 30.6633 12.4559H22.7112ZM22.7112 14.3537C22.5946 14.3492 22.4842 14.2998 22.4033 14.2157C22.3224 14.1316 22.2772 14.0195 22.2772 13.9028C22.2772 13.7861 22.3224 13.674 22.4033 13.5899C22.4842 13.5059 22.5946 13.4564 22.7112 13.452H30.6633C30.7799 13.4564 30.8902 13.5059 30.9711 13.5899C31.052 13.674 31.0972 13.7861 31.0972 13.9028C31.0972 14.0195 31.052 14.1316 30.9711 14.2157C30.8902 14.2998 30.7799 14.3492 30.6633 14.3537H22.7112ZM22.7112 16.2515C22.5944 16.2474 22.4838 16.198 22.4026 16.1139C22.3214 16.0298 22.2761 15.9175 22.2761 15.8007C22.2761 15.6838 22.3214 15.5715 22.4026 15.4874C22.4838 15.4033 22.5944 15.3539 22.7112 15.3498H30.6633C30.7801 15.3539 30.8907 15.4033 30.9719 15.4874C31.053 15.5715 31.0984 15.6838 31.0984 15.8007C31.0984 15.9175 31.053 16.0298 30.9719 16.1139C30.8907 16.198 30.7801 16.2474 30.6633 16.2515H22.7112ZM22.7112 18.1493C22.5946 18.1449 22.4842 18.0954 22.4033 18.0114C22.3224 17.9273 22.2772 17.8152 22.2772 17.6985C22.2772 17.5818 22.3224 17.4697 22.4033 17.3856C22.4842 17.3015 22.5946 17.2521 22.7112 17.2476H30.6633C30.7799 17.2521 30.8902 17.3015 30.9711 17.3856C31.052 17.4697 31.0972 17.5818 31.0972 17.6985C31.0972 17.8152 31.052 17.9273 30.9711 18.0114C30.8902 18.0954 30.7799 18.1449 30.6633 18.1493H22.7112ZM9.45706 31.897V23.3913C9.45706 23.2716 9.40952 23.1569 9.32491 23.0723C9.2403 22.9877 9.12554 22.9401 9.00588 22.9401H8.58129L10.1214 19.4472L11.6616 22.9401H11.2371C11.1174 22.9401 11.0026 22.9877 10.918 23.0723C10.8334 23.1569 10.7859 23.2716 10.7859 23.3913V31.897H9.45706ZM11.2371 32.7988H9.00588C8.88623 32.7988 8.77147 32.7513 8.68686 32.6667C8.60225 32.582 8.55471 32.4673 8.55471 32.3476V23.8422H7.89026C7.81313 23.8423 7.73727 23.8226 7.66995 23.7849C7.60263 23.7473 7.54609 23.693 7.50576 23.6273C7.46542 23.5615 7.44263 23.4865 7.43958 23.4095C7.43652 23.3324 7.4533 23.2558 7.48831 23.1871L9.7093 18.1504C9.74479 18.0707 9.8026 18.0031 9.87574 17.9556C9.94888 17.9081 10.0342 17.8828 10.1214 17.8828C10.2086 17.8828 10.294 17.9081 10.3671 17.9556C10.4403 18.0031 10.4981 18.0707 10.5336 18.1504L12.7648 23.2102C12.7944 23.2787 12.8065 23.3536 12.8002 23.428C12.7938 23.5024 12.7691 23.5741 12.7283 23.6366C12.6875 23.6992 12.6318 23.7506 12.5663 23.7865C12.5007 23.8223 12.4274 23.8413 12.3527 23.8418L11.6882 23.8423V32.348C11.6882 32.4676 11.6407 32.5824 11.5561 32.667C11.4715 32.7516 11.3567 32.7991 11.2371 32.7991L11.2371 32.7988ZM30.2777 4.73542L26.9898 1.44744C26.948 1.40464 26.898 1.37065 26.8427 1.34747C26.7875 1.32429 26.7282 1.3124 26.6684 1.3125H5.87442C5.75476 1.3125 5.64001 1.36003 5.5554 1.44465C5.47078 1.52926 5.42325 1.64401 5.42325 1.76367V36.8137C5.42325 36.9334 5.47078 37.0482 5.5554 37.1328C5.64001 37.2174 5.75476 37.2649 5.87442 37.2649H8.83058V40.2363C8.83058 40.356 8.87812 40.4707 8.96273 40.5554C9.04734 40.64 9.1621 40.6875 9.28175 40.6875H36.1256C36.2452 40.6875 36.36 40.64 36.4446 40.5554C36.5292 40.4707 36.5768 40.356 36.5768 40.2363V5.18626C36.5768 5.0666 36.5292 4.95185 36.4446 4.86723C36.36 4.78262 36.2452 4.73509 36.1256 4.73509L30.2777 4.73542ZM9.73235 37.2646V39.7857H35.6747V5.63711H31.1793L33.0332 7.49101C33.0763 7.53296 33.1106 7.58313 33.1339 7.63855C33.1573 7.69397 33.1692 7.75351 33.1692 7.81364V36.8137C33.1692 36.9334 33.1216 37.0482 33.037 37.1328C32.9524 37.2174 32.8377 37.2649 32.718 37.2649L9.73235 37.2646Z" stroke="var(--stroke-0, #720C10)" stroke-width="0.4" mask="url(#path-1-outside-1_0_23)"/>
</g>
</g>
</svg>
