<svg preserveAspectRatio="none" width="100%" height="100%" overflow="visible" style="display: block;" viewBox="0 0 85 65" fill="none" xmlns="http://www.w3.org/2000/svg">
<path id="Vector" d="M38.6937 47.7121C38.7028 49.9881 38.2305 52.2392 37.3091 54.3112C36.3878 56.3832 35.0392 58.2271 33.3557 59.7166C29.7433 63.0862 24.9958 64.8968 20.1069 64.7694C13.9007 64.7694 9.00045 62.5613 5.40623 58.1451C1.81576 53.7539 -0.102566 48.185 0.00423046 42.4629C0.00423046 28.7633 3.6803 18.4541 11.0324 11.5352C18.3846 4.61626 26.5232 0.785754 35.4482 0.0436618V15.071C30.9506 15.5607 26.6927 17.3897 23.2029 20.3311C21.407 21.7047 19.9275 23.464 18.8688 25.4853C17.81 27.5066 17.1977 29.7406 17.075 32.03C18.5573 31.2919 20.1878 30.9182 21.8364 30.9387C27.1673 30.9387 31.3095 32.4847 34.2632 35.5768C35.7552 37.1959 36.9157 39.1034 37.6765 41.1874C38.4373 43.2713 38.7832 45.4897 38.6937 47.7121ZM84.0662 47.7121C84.0775 49.9885 83.6061 52.2402 82.6846 54.3125C81.7631 56.3848 80.4134 58.2285 78.7283 59.7166C75.1158 63.0862 70.3683 64.8968 65.4795 64.7694C59.2875 64.7694 54.4264 62.5613 50.8962 58.1451C47.3489 53.733 45.4564 48.1729 45.5583 42.4629C45.5583 28.7633 49.1952 18.4541 56.469 11.5352C63.7429 4.61626 71.8708 0.771194 80.8528 0V15.0274C76.365 15.536 72.1221 17.3801 68.6502 20.3311C66.8409 21.6965 65.348 23.4526 64.2778 25.4746C63.2076 27.4966 62.5863 29.7348 62.4582 32.03C63.9366 31.2917 65.5637 30.9179 67.209 30.9387C72.5327 30.9387 76.6749 32.4847 79.6357 35.5768C81.1278 37.1954 82.2876 39.1031 83.0468 41.1873C83.8059 43.2716 84.1489 45.4902 84.0556 47.7121H84.0662Z" fill="var(--fill-0, #E0BD75)"/>
</svg>
