<svg width="42" height="42" viewBox="0 0 42 42" fill="none" xmlns="http://www.w3.org/2000/svg">
<path d="M39.4189 8.20508C39.7124 8.20508 39.9502 8.44276 39.9502 8.73633L39.9512 34.3604C39.9511 34.6539 39.7123 34.8917 39.4189 34.8916H25.334C25.0407 34.8916 24.8028 34.6538 24.8027 34.3604V8.73633C24.8027 8.44269 25.0405 8.20508 25.334 8.20508H39.4189ZM25.8652 33.8281H38.8877V9.26758H25.8652V33.8281Z" fill="#720C10" stroke="#720C10" stroke-width="0.2"/>
<path d="M30.6299 10.7109C30.924 10.711 31.1611 10.9488 31.1611 11.2422V14.3789C31.161 14.6722 30.9239 14.9101 30.6299 14.9102H28.3223C28.0289 14.9101 27.7911 14.6725 27.791 14.3789V11.2422C27.791 10.9486 28.0288 10.7109 28.3223 10.7109H30.6299ZM28.8535 13.8467H30.0977V11.7734H28.8535V13.8467Z" fill="#720C10" stroke="#720C10" stroke-width="0.2"/>
<path d="M36.4277 10.7109C36.721 10.7112 36.9589 10.9488 36.959 11.2422V14.3789C36.9589 14.6722 36.7209 14.9099 36.4277 14.9102H34.1191C33.8258 14.9101 33.588 14.6725 33.5879 14.3789V11.2422C33.5879 10.9486 33.8256 10.7109 34.1191 10.7109H36.4277ZM34.6504 13.8467H35.8955V11.7734H34.6504V13.8467Z" fill="#720C10" stroke="#720C10" stroke-width="0.2"/>
<path d="M11.543 20.334C13.0864 20.334 14.3418 21.5894 14.3418 23.1328C14.3418 23.4263 14.1039 23.664 13.8105 23.6641C13.5164 23.664 13.2795 23.4262 13.2793 23.1328C13.2794 22.1759 12.5001 21.3965 11.543 21.3965C10.5858 21.3965 9.80664 22.1759 9.80664 23.1328C9.80674 23.7743 9.97573 24.1285 10.2734 24.3633C10.5824 24.6069 11.0433 24.7345 11.666 24.8828C12.2408 25.0196 12.9119 25.1779 13.4365 25.5713C13.9699 25.9712 14.3418 26.6054 14.3418 27.667C14.3419 29.2105 13.0863 30.4658 11.543 30.4658C9.99952 30.4658 8.74414 29.2104 8.74414 27.667C8.74427 27.3734 8.98186 27.1357 9.27539 27.1357C9.56896 27.1357 9.80661 27.3734 9.80664 27.667C9.80673 28.624 10.5858 29.4023 11.543 29.4023C12.5002 29.4023 13.2793 28.624 13.2793 27.667C13.2794 27.0254 13.1104 26.6713 12.8125 26.4365C12.5034 26.1929 12.0421 26.0654 11.4189 25.917C10.8444 25.7801 10.1737 25.6216 9.64941 25.2285C9.11631 24.8286 8.74422 24.1943 8.74414 23.1328C8.74424 21.5894 9.99946 20.334 11.543 20.334Z" fill="#720C10" stroke="#720C10" stroke-width="0.2"/>
<path d="M11.5449 19.4668C11.8385 19.4668 12.0762 19.7045 12.0762 19.998L12.0771 20.8662C12.077 21.1597 11.8382 21.3975 11.5449 21.3975C11.2515 21.3974 11.0138 21.1597 11.0137 20.8662V19.998C11.0137 19.7044 11.2514 19.4668 11.5449 19.4668Z" fill="#720C10" stroke="#720C10" stroke-width="0.2"/>
<path d="M11.5449 29.4023C11.8385 29.4023 12.0762 29.6399 12.0762 29.9336L12.0771 30.8018C12.077 31.0952 11.8381 31.333 11.5449 31.333C11.2515 31.3329 11.0138 31.0952 11.0137 30.8018V29.9336C11.0137 29.6399 11.2514 29.4024 11.5449 29.4023Z" fill="#720C10" stroke="#720C10" stroke-width="0.2"/>
<path d="M21.6836 14.4766C21.9772 14.4765 22.2158 14.7142 22.2158 15.0078V26.3857C22.2158 26.6794 21.977 26.9171 21.6836 26.917H17.2012C16.9078 26.917 16.6699 26.6794 16.6699 26.3857V15.0078C16.6699 14.7142 16.9077 14.4766 17.2012 14.4766L17.3086 14.4873C17.5512 14.5369 17.7324 14.7511 17.7324 15.0078V25.8545H21.1523V15.0078C21.1523 14.7143 21.3902 14.4767 21.6836 14.4766Z" fill="#720C10" stroke="#720C10" stroke-width="0.2"/>
<path d="M19.4443 7.10742C19.6345 7.10742 19.8103 7.20863 19.9053 7.37305L24.1602 14.7432C24.255 14.9077 24.2551 15.1101 24.1602 15.2744C24.0652 15.4388 23.8893 15.5401 23.6992 15.54H15.1895C14.9994 15.5399 14.8245 15.4387 14.7295 15.2744C14.6345 15.1099 14.6345 14.9077 14.7295 14.7432L18.9844 7.37305C19.0793 7.20861 19.2543 7.10749 19.4443 7.10742ZM16.1113 14.4766H22.7793L19.4443 8.70117L16.1113 14.4766Z" fill="#720C10" stroke="#720C10" stroke-width="0.2"/>
<path d="M11.5439 15.9082C13.7275 15.9081 15.8604 16.6683 17.5508 18.0498C17.7788 18.2357 17.8112 18.5706 17.626 18.7979V18.7988C17.4397 19.0255 17.1057 19.0594 16.8779 18.874V18.873C15.3777 17.6464 13.4826 16.9707 11.5439 16.9707C6.89633 16.9707 3.11534 20.7522 3.11523 25.3994C3.11523 30.0468 6.89622 33.828 11.5439 33.8281C15.8574 33.8281 19.4593 30.5996 19.9229 26.3184C19.9543 26.0266 20.2157 25.8151 20.5088 25.8467C20.8006 25.8782 21.0118 26.1414 20.9795 26.4336C20.4575 31.2554 16.4002 34.8917 11.5439 34.8916C6.30993 34.8914 2.05273 30.6333 2.05273 25.3994C2.05284 20.1656 6.30996 15.9083 11.5439 15.9082Z" fill="#720C10" stroke="#720C10" stroke-width="0.2"/>
<path d="M30.6299 15.9316C30.924 15.9317 31.1611 16.1695 31.1611 16.4629V19.5996C31.161 19.893 30.924 20.1308 30.6299 20.1309H28.3223C28.0289 20.1308 27.7911 19.8932 27.791 19.5996V16.4629C27.791 16.1693 28.0288 15.9316 28.3223 15.9316H30.6299ZM28.8535 19.0674H30.0977V16.9941H28.8535V19.0674Z" fill="#720C10" stroke="#720C10" stroke-width="0.2"/>
<path d="M36.4277 15.9316C36.721 15.9319 36.959 16.1695 36.959 16.4629V19.5996C36.9589 19.893 36.7209 20.1297 36.4277 20.1299V20.1309H34.1191C33.8258 20.1308 33.588 19.8932 33.5879 19.5996V16.4629C33.5879 16.1693 33.8256 15.9316 34.1191 15.9316H36.4277ZM34.6504 19.0674H35.8955V16.9941H34.6504V19.0674Z" fill="#720C10" stroke="#720C10" stroke-width="0.2"/>
<path d="M30.6299 21.1543C30.924 21.1544 31.1611 21.3921 31.1611 21.6855V24.8223C31.161 25.1156 30.9239 25.3535 30.6299 25.3535H28.3223C28.0289 25.3535 27.7912 25.1158 27.791 24.8223V21.6855C27.791 21.3918 28.0288 21.1543 28.3223 21.1543H30.6299ZM28.8535 24.29H30.0977V22.2168H28.8535V24.29Z" fill="#720C10" stroke="#720C10" stroke-width="0.2"/>
<path d="M36.4277 21.1543C36.721 21.1546 36.959 21.392 36.959 21.6855V24.8223C36.9588 25.1156 36.7208 25.3523 36.4277 25.3525V25.3535H34.1191C33.8258 25.3535 33.588 25.1158 33.5879 24.8223V21.6855C33.5879 21.3918 33.8256 21.1543 34.1191 21.1543H36.4277ZM34.6504 24.29H35.8955V22.2168H34.6504V24.29Z" fill="#720C10" stroke="#720C10" stroke-width="0.2"/>
<path d="M35.0254 27.8145C35.3187 27.8147 35.5566 28.0523 35.5566 28.3457V34.3604C35.5565 34.6536 35.3186 34.8915 35.0254 34.8916C34.7311 34.8916 34.4933 34.6537 34.4932 34.3604V28.877H30.2559V34.3604C30.2557 34.617 30.074 34.8312 29.832 34.8809L29.7246 34.8916C29.4313 34.8915 29.1935 34.6538 29.1934 34.3604V28.3457C29.1934 28.0521 29.4311 27.8145 29.7246 27.8145H35.0254Z" fill="#720C10" stroke="#720C10" stroke-width="0.2"/>
</svg>
