<svg width="34" height="27" viewBox="0 0 34 27" fill="none" xmlns="http://www.w3.org/2000/svg">
<g clip-path="url(#clip0_1610_7086)">
<mask id="mask0_1610_7086" style="mask-type:luminance" maskUnits="userSpaceOnUse" x="0" y="0" width="34" height="27">
<path d="M23.6293 5.78877L34 0L25.8132 9.69442C26.2775 11.0254 26.5299 12.4529 26.5299 13.9396C26.5299 21.1528 20.5911 27 13.2649 27C5.93877 27 0 21.1528 0 13.9396C0 6.72644 5.93877 0.879258 13.2649 0.879258C17.4596 0.879258 21.1986 2.79665 23.6293 5.78877Z" fill="white"/>
</mask>
<g mask="url(#mask0_1610_7086)">
<path d="M34 0H0V27H34V0Z" fill="#E0BD75"/>
</g>
<path opacity="0.25" fill-rule="evenodd" clip-rule="evenodd" d="M19.4961 25.4721C23.6812 23.2751 26.5296 18.9357 26.5296 13.9405C26.5296 12.4546 26.2773 11.0263 25.813 9.69531C25.813 9.69531 19.8789 18.7052 19.4969 25.4713L19.4961 25.4721Z" fill="#E0BD75"/>
<path opacity="0.5" fill-rule="evenodd" clip-rule="evenodd" d="M13.2652 0.878906C9.54837 0.878906 6.18903 2.38431 3.78125 4.80948C6.73086 7.03605 10.42 8.36078 14.424 8.36078C17.8008 8.36078 20.9545 7.41844 23.6288 5.78764C21.1981 2.79552 17.4591 0.878906 13.2652 0.878906Z" fill="#E0BD75"/>
<path opacity="0.35" fill-rule="evenodd" clip-rule="evenodd" d="M13.2649 0.878906C5.93877 0.878906 0 6.72609 0 13.9393C0 15.6518 0.335381 17.2881 0.944445 18.7865C8.31254 16.7531 13.7166 10.0913 13.7166 2.18728C13.7166 1.74882 13.7 1.31425 13.6668 0.884358C13.5331 0.880464 13.3994 0.878906 13.2649 0.878906Z" fill="#E0BD75"/>
<path opacity="0.25" fill-rule="evenodd" clip-rule="evenodd" d="M8.62236 14.4922C5.59919 14.4922 2.75478 15.2468 0.273438 16.5747C1.51292 22.5231 6.85924 26.9973 13.2679 26.9973C17.3067 26.9973 20.9239 25.2193 23.357 22.4156C20.242 17.6494 14.8071 14.4922 8.62315 14.4922H8.62236Z" fill="#E0BD75"/>
<path opacity="0.5" fill-rule="evenodd" clip-rule="evenodd" d="M3.8125 10.124L12.6234 21.5325L31.4102 2.11719L12.4232 16.3528L3.8125 10.124Z" fill="#E0BD75"/>
<path fill-rule="evenodd" clip-rule="evenodd" d="M3.8125 10.1228L12.6234 20.5672L31.5249 2.00391L12.4232 15.3883L3.8125 10.1228Z" fill="white"/>
</g>
<defs>
<clipPath id="clip0_1610_7086">
<rect width="34" height="27" fill="white"/>
</clipPath>
</defs>
</svg>
