<svg preserveAspectRatio="none" width="100%" height="100%" overflow="visible" style="display: block;" viewBox="0 0 37 37" fill="none" xmlns="http://www.w3.org/2000/svg">
<g id="Icon">
<path id="Vector" d="M36.0938 32.8125H34.7812V11.1562C34.7812 10.9822 34.7121 10.8153 34.589 10.6922C34.466 10.5691 34.299 10.5 34.125 10.5H27.5625V5.25C27.5625 5.07595 27.4934 4.90903 27.3703 4.78596C27.2472 4.66289 27.0803 4.59375 26.9062 4.59375H24.2812V0.65625C24.2812 0.482202 24.2121 0.315282 24.089 0.192211C23.966 0.0691406 23.799 0 23.625 0H13.125C12.951 0 12.784 0.0691406 12.661 0.192211C12.5379 0.315282 12.4688 0.482202 12.4688 0.65625V4.59375H9.84375C9.6697 4.59375 9.50278 4.66289 9.37971 4.78596C9.25664 4.90903 9.1875 5.07595 9.1875 5.25V10.5H2.625C2.45095 10.5 2.28403 10.5691 2.16096 10.6922C2.03789 10.8153 1.96875 10.9822 1.96875 11.1562V32.8125H0.65625C0.482202 32.8125 0.315282 32.8816 0.192211 33.0047C0.0691406 33.1278 0 33.2947 0 33.4688V36.0938C0 36.2678 0.0691406 36.4347 0.192211 36.5578C0.315282 36.6809 0.482202 36.75 0.65625 36.75H36.0938C36.2678 36.75 36.4347 36.6809 36.5578 36.5578C36.6809 36.4347 36.75 36.2678 36.75 36.0938V33.4688C36.75 33.2947 36.6809 33.1278 36.5578 33.0047C36.4347 32.8816 36.2678 32.8125 36.0938 32.8125ZM33.4688 11.8125V32.8125H27.5625V11.8125H33.4688ZM13.7812 1.3125H22.9688V4.59375H13.7812V1.3125ZM10.5 5.90625H26.25V32.8125H22.3125V25.5938C22.3125 25.4197 22.2434 25.2528 22.1203 25.1297C21.9972 25.0066 21.8303 24.9375 21.6562 24.9375H15.0938C14.9197 24.9375 14.7528 25.0066 14.6297 25.1297C14.5066 25.2528 14.4375 25.4197 14.4375 25.5938V32.8125H10.5V5.90625ZM19.0312 32.8125V26.25H21V32.8125H19.0312ZM15.75 32.8125V26.25H17.7188V32.8125H15.75ZM3.28125 11.8125H9.1875V32.8125H3.28125V11.8125ZM35.4375 35.4375H1.3125V34.125H35.4375V35.4375Z" fill="var(--fill-0, #720C10)"/>
<path id="Vector_2" d="M12.4688 22.3125H24.2812C24.4553 22.3125 24.6222 22.2434 24.7453 22.1203C24.8684 21.9972 24.9375 21.8303 24.9375 21.6562V19.0312C24.9375 18.8572 24.8684 18.6903 24.7453 18.5672C24.6222 18.4441 24.4553 18.375 24.2812 18.375H12.4688C12.2947 18.375 12.1278 18.4441 12.0047 18.5672C11.8816 18.6903 11.8125 18.8572 11.8125 19.0312V21.6562C11.8125 21.8303 11.8816 21.9972 12.0047 22.1203C12.1278 22.2434 12.2947 22.3125 12.4688 22.3125ZM13.125 19.6875H23.625V21H13.125V19.6875Z" fill="var(--fill-0, #720C10)"/>
<path id="Vector_3" d="M13.7812 17.0625H22.9688C23.1428 17.0625 23.3097 16.9934 23.4328 16.8703C23.5559 16.7472 23.625 16.5803 23.625 16.4062V13.7812C23.625 13.6072 23.5559 13.4403 23.4328 13.3172C23.3097 13.1941 23.1428 13.125 22.9688 13.125H13.7812C13.6072 13.125 13.4403 13.1941 13.3172 13.3172C13.1941 13.4403 13.125 13.6072 13.125 13.7812V16.4062C13.125 16.5803 13.1941 16.7472 13.3172 16.8703C13.4403 16.9934 13.6072 17.0625 13.7812 17.0625ZM14.4375 14.4375H22.3125V15.75H14.4375V14.4375Z" fill="var(--fill-0, #720C10)"/>
<path id="Vector_4" d="M15.0938 11.8125H21.6562C21.8303 11.8125 21.9972 11.7434 22.1203 11.6203C22.2434 11.4972 22.3125 11.3303 22.3125 11.1562V8.53125C22.3125 8.3572 22.2434 8.19028 22.1203 8.06721C21.9972 7.94414 21.8303 7.875 21.6562 7.875H15.0938C14.9197 7.875 14.7528 7.94414 14.6297 8.06721C14.5066 8.19028 14.4375 8.3572 14.4375 8.53125V11.1562C14.4375 11.3303 14.5066 11.4972 14.6297 11.6203C14.7528 11.7434 14.9197 11.8125 15.0938 11.8125ZM15.75 9.1875H21V10.5H15.75V9.1875Z" fill="var(--fill-0, #720C10)"/>
</g>
</svg>
