<svg preserveAspectRatio="none" width="100%" height="100%" overflow="visible" style="display: block;" viewBox="0 0 42 36" fill="none" xmlns="http://www.w3.org/2000/svg">
<g id="Group">
<path id="Vector" d="M41.3298 9.87419C40.9597 9.87419 40.6596 10.1743 40.6596 10.5444V24.5744H34.6284V22.3627H38.6489C39.0191 22.3627 39.3191 22.0626 39.3191 21.6925C39.3191 21.3224 39.0191 21.0223 38.6489 21.0223H34.6284V14.0743C34.6284 13.7041 34.3284 13.4041 33.9582 13.4041H30.6083V11.0547C31.3884 10.778 31.9488 10.0331 31.9488 9.15929V5.13795C31.9488 4.76782 31.6487 4.46775 31.2786 4.46775H28.5977C28.2276 4.46775 27.9275 4.76782 27.9275 5.13795V9.15929C27.9275 10.0331 28.4879 10.778 29.268 11.0547V13.4041H25.1787C24.8674 11.8763 23.5134 10.7232 21.895 10.7232H21.6716V8.4808C23.4155 8.3653 24.7993 6.91056 24.7993 5.13795V2.457C24.7993 2.08688 24.4992 1.78681 24.1291 1.78681C23.759 1.78681 23.4589 2.08688 23.4589 2.457V5.13787C23.4589 6.17105 22.6756 7.02434 21.6716 7.13582V0.669707C21.6716 0.299582 21.3715 -0.000488281 21.0014 -0.000488281C20.6313 -0.000488281 20.3312 0.299582 20.3312 0.669707V7.1359C19.3273 7.02434 18.5439 6.17113 18.5439 5.13795V2.457C18.5439 2.08688 18.2438 1.78681 17.8737 1.78681C17.5036 1.78681 17.2035 2.08688 17.2035 2.457V5.13787C17.2035 6.91056 18.5873 8.36522 20.3312 8.48072V10.7231H20.1078C18.4894 10.7231 17.1355 11.8762 16.8242 13.404H12.7347V11.0546C13.5147 10.7779 14.0752 10.033 14.0752 9.1592V5.13787C14.0752 4.76774 13.7751 4.46767 13.405 4.46767H10.724C10.3539 4.46767 10.0538 4.76774 10.0538 5.13787V9.1592C10.0538 10.033 10.6143 10.7779 11.3943 11.0546V13.404H8.04267C7.67255 13.404 7.37248 13.7041 7.37248 14.0742V21.0222H3.35114C2.98102 21.0222 2.68095 21.3223 2.68095 21.6924C2.68095 22.0626 2.98102 22.3626 3.35114 22.3626H7.37248V24.5744H1.34244V10.5444C1.34244 10.1743 1.04237 9.87419 0.672246 9.87419C0.302121 9.87419 0.00205078 10.1743 0.00205078 10.5444V25.2049C0.00123047 25.2181 0 25.2312 0 25.2447C0 25.2582 0.00123047 25.2713 0.00196875 25.2845V34.6279C0.00196875 34.998 0.302039 35.2981 0.672164 35.2981C1.04229 35.2981 1.34236 34.998 1.34236 34.6279V25.9149H7.37239V27.5682C7.37239 27.9383 7.67246 28.2384 8.04259 28.2384C8.11929 28.2384 8.19369 28.2371 8.26596 28.2347V34.6279C8.26596 34.998 8.56603 35.2981 8.93616 35.2981H33.0643C33.4344 35.2981 33.7345 34.998 33.7345 34.6279V28.2347C33.8067 28.237 33.8812 28.2384 33.9578 28.2384C34.3279 28.2384 34.628 27.9383 34.628 27.5682V25.9149H40.6592V34.6279C40.6592 34.998 40.9593 35.2981 41.3294 35.2981C41.6995 35.2981 41.9996 34.998 41.9996 34.6279V10.5444C42 10.1743 41.6999 9.87419 41.3298 9.87419ZM29.2678 5.80814H30.6082V9.15929C30.6082 9.52892 30.3076 9.82948 29.938 9.82948C29.5685 9.82948 29.2678 9.52884 29.2678 9.15929V5.80814H29.2678ZM20.1074 12.0636H21.8947C22.7685 12.0636 23.5134 12.624 23.7901 13.4041H18.2121C18.4887 12.6239 19.2336 12.0636 20.1074 12.0636ZM11.3938 5.80814H12.7343V9.15929C12.7343 9.52892 12.4336 9.82948 12.0641 9.82948C11.6945 9.82948 11.3939 9.52884 11.3939 9.15929V5.80814H11.3938ZM9.6066 33.9576V28.0147C9.95441 27.9027 10.2361 27.7636 10.5006 27.6323C11.0045 27.3821 11.4396 27.166 12.3623 27.166C13.285 27.166 13.7201 27.3821 14.224 27.6323C14.7961 27.9164 15.4448 28.2384 16.6818 28.2384C17.9187 28.2384 18.5673 27.9163 19.1394 27.6322C19.6432 27.3821 20.0783 27.166 21.0008 27.166C21.9234 27.166 22.3585 27.3821 22.8624 27.6322C23.4344 27.9163 24.083 28.2384 25.32 28.2384C26.557 28.2384 27.2055 27.9163 27.7776 27.6322C28.2814 27.3821 28.7164 27.166 29.639 27.166C30.5615 27.166 30.9965 27.3821 31.5003 27.6322C31.7648 27.7635 32.0464 27.9025 32.3941 28.0146V33.9576H9.6066ZM33.2879 21.6769C33.2878 21.6822 33.2871 21.6872 33.2871 21.6925C33.2871 21.6978 33.2877 21.7028 33.2879 21.7081V25.2291C33.2878 25.2344 33.2871 25.2394 33.2871 25.2447C33.2871 25.25 33.2877 25.255 33.2879 25.2603V26.8515C32.7876 26.7748 32.46 26.6122 32.0968 26.4318C31.5247 26.1477 30.8762 25.8257 29.6392 25.8257C28.4023 25.8257 27.7537 26.1477 27.1816 26.4318C26.6779 26.6819 26.2428 26.898 25.3203 26.898C24.3977 26.898 23.9626 26.6819 23.4587 26.4318C22.8866 26.1477 22.2381 25.8257 21.0011 25.8257C19.7641 25.8257 19.1156 26.1477 18.5435 26.4318C18.0397 26.6819 17.6046 26.898 16.682 26.898C15.7594 26.898 15.3242 26.6819 14.8203 26.4317C14.2482 26.1476 13.5996 25.8257 12.3625 25.8257C11.1255 25.8257 10.4769 26.1477 9.9047 26.4317C9.54138 26.6121 9.21367 26.7748 8.7132 26.8515V14.7445H33.288L33.2879 21.6769Z" fill="var(--fill-0, #720C10)"/>
</g>
</svg>
