<svg preserveAspectRatio="none" width="100%" height="100%" overflow="visible" style="display: block;" viewBox="0 0 42 42" fill="none" xmlns="http://www.w3.org/2000/svg">
<g id="Layer_1">
<path id="Vector" d="M27.3647 15.0478L26.5051 12.9724C26.3837 12.6794 26.0479 12.5403 25.7548 12.6616L22.7073 13.9239L22.4691 13.3488C22.3859 13.1478 22.1962 13.0111 21.9793 12.9957C21.7618 12.9801 21.5553 13.0888 21.4445 13.276L19.475 16.603C19.3829 16.7585 19.3694 16.9482 19.4386 17.1152C19.5077 17.2823 19.6514 17.4069 19.8265 17.4517L23.5716 18.4115C23.6189 18.4236 23.6667 18.4295 23.7142 18.4295C23.8783 18.4295 24.0374 18.359 24.148 18.2314C24.2905 18.0671 24.3279 17.8365 24.2447 17.6355L24.0065 17.0604L27.0539 15.7981C27.3469 15.6767 27.486 15.3408 27.3647 15.0478ZM23.0364 16.2191C22.8957 16.2774 22.7839 16.3892 22.7255 16.53C22.6672 16.6707 22.6673 16.8288 22.7255 16.9694L22.744 17.0139L20.853 16.5292L21.8475 14.8494L21.8659 14.8939C21.9873 15.1869 22.3231 15.3261 22.6162 15.2047L25.6637 13.9424L26.0838 14.9568L23.0364 16.2191ZM30.0897 9.45468C29.3919 9.45468 28.8241 10.0224 28.8241 10.7203V17.753C28.8241 18.4508 29.3918 19.0185 30.0897 19.0185H36.1791C36.8769 19.0185 37.4447 18.4508 37.4447 17.753V10.7203C37.4447 10.0225 36.8769 9.45468 36.1791 9.45468H30.0897ZM36.2962 10.7203V17.753C36.2962 17.8176 36.2436 17.8701 36.1791 17.8701H30.0897C30.0251 17.8701 29.9725 17.8175 29.9725 17.753V10.7203C29.9725 10.6557 30.0251 10.6031 30.0897 10.6031H36.1791C36.2437 10.6031 36.2962 10.6557 36.2962 10.7203ZM41.8253 4.68161V1.68164C41.8253 1.36451 41.5682 1.10742 41.2511 1.10742H0.751099C0.433966 1.10742 0.17688 1.36451 0.17688 1.68164V40.318C0.17688 40.6352 0.433966 40.8922 0.751099 40.8922H41.2511C41.5682 40.8922 41.8253 40.6352 41.8253 40.318V32.7792C41.8253 32.4621 41.5682 32.205 41.2511 32.205H22.6245C22.5676 32.205 22.511 32.2134 22.4566 32.2301L4.57203 37.6985V13.8427L22.7924 8.27162C23.0338 8.19779 23.1987 7.97491 23.1987 7.7225V5.25582H41.2511C41.5682 5.25582 41.8253 4.99874 41.8253 4.68161ZM3.42359 39.7438H1.32532V35.4654L3.42359 37.1985V39.7438ZM3.42359 35.7089L1.32532 33.9758V32.8374L3.42359 34.5705V35.7089ZM3.42359 33.081L1.32532 31.3478V29.2245L3.42359 30.9577V33.081ZM3.42359 29.4681L1.32532 27.7349V26.5965L3.42359 28.3297V29.4681ZM3.42359 26.8401L1.32532 25.107V22.9837L3.42359 24.7168V26.8401V26.8401ZM3.42359 23.2273L1.32532 21.4942V20.3557L3.42359 22.0889V23.2273ZM3.42359 20.5993L1.32532 18.8661V16.7429L3.42359 18.4761V20.5993ZM3.42359 16.9865L1.32532 15.2533V14.1149L3.42359 15.848V16.9865ZM3.42359 14.3584L1.32532 12.6253V10.502L3.42359 12.2351V14.3584ZM3.42359 10.7456L1.32532 9.01245V7.87402L3.42359 9.60717V10.7456ZM3.42359 8.11757L1.32532 6.38441V5.25582H3.42359V8.11757ZM22.7103 33.3534H40.6769V39.7438H4.57203V38.8994L22.7103 33.3534ZM22.0503 7.29758L4.57203 12.6418V5.25582H22.0503V7.29758ZM40.6769 4.10739H1.32532V2.25586H40.6769V4.10739ZM33.4122 11.4429H32.1089C31.7917 11.4429 31.5346 11.7 31.5346 12.0172V16.6484C31.5346 16.9655 31.7917 17.2226 32.1089 17.2226C32.426 17.2226 32.6831 16.9655 32.6831 16.6484V15.1048H33.4122C34.4217 15.1048 35.2431 14.2834 35.2431 13.2739C35.2431 12.2643 34.4217 11.4429 33.4122 11.4429ZM33.4122 13.9563H32.6831V12.5913H33.4122C33.7884 12.5913 34.0947 12.8974 34.0947 13.2738C34.0947 13.6502 33.7885 13.9563 33.4122 13.9563Z" fill="var(--fill-0, #720C10)"/>
</g>
</svg>
