<svg preserveAspectRatio="none" width="100%" height="100%" overflow="visible" style="display: block;" viewBox="0 0 37 33" fill="none" xmlns="http://www.w3.org/2000/svg">
<g id="Group">
<path id="Vector" d="M36.0938 31.3898L35.4189 31.3897V10.782C35.4183 10.2931 35.2239 9.82447 34.8783 9.47876C34.5326 9.13306 34.064 8.93855 33.5751 8.9379H25.9808V6.01457C25.9803 5.52571 25.7858 5.05704 25.4402 4.71133C25.0946 4.36563 24.6259 4.17112 24.1371 4.17047H23.6295V2.625C23.6287 1.92903 23.3519 1.26179 22.8598 0.769664C22.3677 0.277542 21.7005 0.000741756 21.0045 0H15.3706C14.6746 0.000740022 14.0074 0.27754 13.5152 0.769662C13.0231 1.26179 12.7463 1.92903 12.7456 2.625V4.17047H12.2322C11.7434 4.17112 11.2747 4.36563 10.9291 4.71133C10.5835 5.05704 10.389 5.52571 10.3885 6.01457V8.9379H3.17807C2.68911 8.93842 2.22033 9.13286 1.87455 9.47858C1.52878 9.82429 1.33426 10.293 1.33365 10.782V31.3838L0.65625 31.3837C0.482202 31.3837 0.315282 31.4528 0.192211 31.5759C0.0691406 31.699 0 31.8659 0 32.0399C0 32.214 0.0691406 32.3809 0.192211 32.504C0.315282 32.6271 0.482202 32.6962 0.65625 32.6962C0.666671 32.6962 35.6609 32.6977 36.0938 32.7023C36.2655 32.6989 36.4291 32.6282 36.5494 32.5055C36.6696 32.3828 36.737 32.2179 36.737 32.046C36.737 31.8742 36.6696 31.7093 36.5494 31.5866C36.4291 31.4639 36.2655 31.3932 36.0938 31.3898ZM33.5751 10.2504C33.6451 10.2497 33.7146 10.2629 33.7794 10.2894C33.8442 10.3158 33.9031 10.355 33.9526 10.4045C34.002 10.454 34.0411 10.5129 34.0676 10.5777C34.094 10.6425 34.1072 10.712 34.1064 10.782V31.3894L25.9808 31.3881V10.2504H33.5751ZM14.0581 2.62501C14.0585 2.27704 14.1969 1.94343 14.443 1.69737C14.689 1.45132 15.0226 1.31291 15.3706 1.31251H21.0045C21.3525 1.31291 21.6861 1.45132 21.9322 1.69737C22.1782 1.94343 22.3166 2.27704 22.317 2.62501V8.25892C22.3166 8.60689 22.1782 8.9405 21.9322 9.18656C21.6861 9.43261 21.3525 9.57102 21.0045 9.57142H15.3706C15.0226 9.57102 14.689 9.43261 14.443 9.18656C14.1969 8.9405 14.0585 8.60689 14.0581 8.25892V2.62501ZM12.2323 5.48298H12.7456V8.25892C12.7463 8.95489 13.0231 9.62214 13.5153 10.1143C14.0074 10.6064 14.6746 10.8832 15.3706 10.8839H21.0045C21.7005 10.8832 22.3677 10.6064 22.8598 10.1143C23.352 9.62213 23.6288 8.95489 23.6295 8.25892V5.48298H24.1371C24.278 5.48318 24.413 5.53927 24.5126 5.63893C24.6122 5.73859 24.6682 5.87369 24.6684 6.01458V31.3878L21.2801 31.3872V23.6929C21.2797 23.34 21.1394 23.0016 20.8898 22.752C20.6403 22.5024 20.3019 22.362 19.949 22.3615H16.4261C16.0732 22.362 15.7348 22.5024 15.4853 22.752C15.2358 23.0016 15.0954 23.34 15.0951 23.6929V31.3861L11.701 31.3855C11.7007 28.9307 11.7012 7.81118 11.701 6.01453C11.7029 5.87419 11.7594 5.74011 11.8587 5.64084C11.9579 5.54156 12.0919 5.48493 12.2323 5.48298ZM19.9676 31.387L16.409 31.3864L16.4261 23.674L19.9676 23.6929V31.387ZM2.64615 10.782C2.6463 10.641 2.7024 10.5058 2.80213 10.4062C2.90186 10.3065 3.03707 10.2505 3.17807 10.2504H10.3885V31.3854L2.64615 31.3841V10.782Z" fill="var(--fill-0, #720C10)"/>
<path id="Vector_2" d="M15.5624 6.09766H17.5311V8.06641C17.5311 8.24045 17.6003 8.40737 17.7233 8.53045C17.8464 8.65352 18.0133 8.72266 18.1874 8.72266C18.3614 8.72266 18.5283 8.65352 18.6514 8.53045C18.7745 8.40737 18.8436 8.24045 18.8436 8.06641V6.09766H20.8124C20.9864 6.09766 21.1533 6.02852 21.2764 5.90545C21.3995 5.78237 21.4686 5.61545 21.4686 5.44141C21.4686 5.26736 21.3995 5.10044 21.2764 4.97737C21.1533 4.8543 20.9864 4.78516 20.8124 4.78516H18.8436V2.81641C18.8436 2.64236 18.7745 2.47544 18.6514 2.35237C18.5283 2.2293 18.3614 2.16016 18.1874 2.16016C18.0133 2.16016 17.8464 2.2293 17.7233 2.35237C17.6003 2.47544 17.5311 2.64236 17.5311 2.81641V4.78516H15.5624C15.3905 4.78851 15.2269 4.85912 15.1065 4.98182C14.9862 5.10453 14.9188 5.26954 14.9188 5.44141C14.9188 5.61327 14.9862 5.77828 15.1065 5.90099C15.2269 6.02369 15.3905 6.09431 15.5624 6.09766Z" fill="var(--fill-0, #720C10)"/>
<path id="Vector_3" d="M13.8975 18.9906H16.0091C16.3571 18.9902 16.6907 18.8518 16.9368 18.6057C17.1828 18.3597 17.3212 18.026 17.3216 17.6781V15.5664C17.3212 15.2184 17.1828 14.8848 16.9368 14.6388C16.6907 14.3927 16.3571 14.2543 16.0091 14.2539H13.8975C13.5495 14.2543 13.2159 14.3927 12.9698 14.6388C12.7238 14.8848 12.5854 15.2184 12.585 15.5664V17.6781C12.5854 18.026 12.7238 18.3596 12.9698 18.6057C13.2159 18.8518 13.5495 18.9902 13.8975 18.9906ZM13.8975 15.5664H16.0091L16.0098 17.6781H13.8975V15.5664Z" fill="var(--fill-0, #720C10)"/>
<path id="Vector_4" d="M20.3652 18.9906H22.4769C22.8249 18.9902 23.1585 18.8518 23.4046 18.6057C23.6506 18.3597 23.789 18.026 23.7894 17.6781V15.5664C23.789 15.2184 23.6506 14.8848 23.4046 14.6388C23.1585 14.3927 22.8249 14.2543 22.4769 14.2539H20.3652C20.0173 14.2543 19.6837 14.3927 19.4376 14.6388C19.1915 14.8848 19.0531 15.2184 19.0527 15.5664V17.6781C19.0531 18.026 19.1915 18.3597 19.4376 18.6057C19.6837 18.8518 20.0173 18.9902 20.3652 18.9906ZM20.3652 15.5664H22.4769L22.4776 17.6781H20.3652V15.5664Z" fill="var(--fill-0, #720C10)"/>
<path id="Vector_5" d="M7.21908 14.4453H5.10742C4.75945 14.4457 4.42584 14.5841 4.17978 14.8302C3.93373 15.0762 3.79532 15.4098 3.79492 15.7578V17.8695C3.79532 18.2174 3.93373 18.5511 4.17978 18.7971C4.42584 19.0432 4.75945 19.1816 5.10742 19.182H7.21908C7.56706 19.1816 7.90067 19.0432 8.14672 18.7971C8.39278 18.5511 8.53119 18.2174 8.53158 17.8695V15.7578C8.53119 15.4098 8.39278 15.0762 8.14672 14.8302C7.90067 14.5841 7.56706 14.4457 7.21908 14.4453ZM7.21908 17.8695L5.10742 17.8704V15.7578H7.21908V17.8695Z" fill="var(--fill-0, #720C10)"/>
<path id="Vector_6" d="M7.21908 20.9121H5.10742C4.75945 20.9125 4.42584 21.0509 4.17978 21.297C3.93373 21.543 3.79532 21.8766 3.79492 22.2246V24.3363C3.79532 24.6842 3.93373 25.0179 4.17978 25.2639C4.42584 25.51 4.75945 25.6484 5.10742 25.6488H7.21908C7.56706 25.6484 7.90067 25.51 8.14672 25.2639C8.39278 25.0179 8.53119 24.6842 8.53158 24.3363V22.2246C8.53119 21.8766 8.39278 21.543 8.14672 21.297C7.90067 21.0509 7.56706 20.9125 7.21908 20.9121ZM7.21908 24.3363L5.10742 24.3372V22.2246H7.21908V24.3363Z" fill="var(--fill-0, #720C10)"/>
<path id="Vector_7" d="M29.5312 19.182H31.6429C31.9909 19.1816 32.3245 19.0432 32.5705 18.7971C32.8166 18.5511 32.955 18.2174 32.9554 17.8695V15.7578C32.955 15.4098 32.8166 15.0762 32.5705 14.8302C32.3245 14.5841 31.9909 14.4457 31.6429 14.4453H29.5312C29.1833 14.4457 28.8497 14.5841 28.6036 14.8302C28.3576 15.0762 28.2191 15.4098 28.2188 15.7578V17.8695C28.2191 18.2174 28.3576 18.5511 28.6036 18.7971C28.8497 19.0432 29.1833 19.1816 29.5312 19.182ZM29.5312 15.7578H31.6429V17.8695L29.5312 17.8704V15.7578Z" fill="var(--fill-0, #720C10)"/>
<path id="Vector_8" d="M29.5312 25.6486H31.6429C31.9909 25.6483 32.3245 25.5098 32.5705 25.2638C32.8166 25.0177 32.955 24.6841 32.9554 24.3361V22.2245C32.955 21.8765 32.8166 21.5429 32.5705 21.2968C32.3245 21.0508 31.9909 20.9124 31.6429 20.912H29.5312C29.1833 20.9124 28.8497 21.0508 28.6036 21.2968C28.3576 21.5429 28.2191 21.8765 28.2188 22.2245V24.3361C28.2191 24.6841 28.3576 25.0177 28.6036 25.2638C28.8497 25.5098 29.1833 25.6483 29.5312 25.6486ZM29.5312 22.2245H31.6429V24.3361L29.5312 24.3371V22.2245Z" fill="var(--fill-0, #720C10)"/>
</g>
</svg>
