<svg preserveAspectRatio="none" width="100%" height="100%" overflow="visible" style="display: block;" viewBox="0 0 36 36" fill="none" xmlns="http://www.w3.org/2000/svg">
<g id="Group">
<g id="Group_2">
<path id="Vector" d="M11.5655 29.6336C8.53164 29.2403 5.64339 27.7058 3.60051 25.1129C-0.543882 19.8527 0.360714 12.2288 5.62088 8.0844C10.881 3.94 18.505 4.8446 22.6494 10.1048C24.6901 12.695 25.5066 15.8583 25.1817 18.8971" stroke="var(--stroke-0, #720C10)" stroke-width="1.26" stroke-miterlimit="10" stroke-linecap="round" stroke-linejoin="round"/>
<path id="Vector_2" d="M25.1765 19.0181L11.6836 29.6488L19.624 28.6687L24.6514 35.0528C24.9095 35.3803 25.4155 35.424 25.7429 35.166L27.2355 33.99C27.563 33.7319 27.595 33.2644 27.337 32.9369L22.319 26.5645L25.1765 19.0181Z" stroke="var(--stroke-0, #720C10)" stroke-width="1.26" stroke-miterlimit="10" stroke-linecap="round" stroke-linejoin="round"/>
</g>
<g id="Group_3">
<path id="Vector_3" d="M15.0901 3.46069C17.7458 1.45208 21.2129 0.539502 24.7379 1.22973C31.3097 2.51661 35.5941 8.88742 34.3072 15.4592C33.6735 18.6953 31.8071 21.3767 29.291 23.1114" stroke="var(--stroke-0, #720C10)" stroke-width="1.26" stroke-miterlimit="10" stroke-linecap="round" stroke-linejoin="round"/>
<path id="Vector_4" d="M17.1633 30.9019L16.649 33.5437C16.5688 33.9528 16.8656 34.365 17.2748 34.4451L19.1396 34.8103C19.5487 34.8904 19.9241 34.6099 20.0043 34.2007L20.2989 32.6874" stroke="var(--stroke-0, #720C10)" stroke-width="1.26" stroke-miterlimit="10" stroke-linecap="round" stroke-linejoin="round"/>
<path id="Vector_5" d="M25.4542 24.5487L29.1958 23.1908L25.9497 22.5552" stroke="var(--stroke-0, #720C10)" stroke-width="1.26" stroke-miterlimit="10" stroke-linecap="round" stroke-linejoin="round"/>
</g>
<path id="Vector_6" d="M6.86356 35.3336C7.88367 35.3336 8.71063 34.5066 8.71063 33.4865C8.71063 32.4664 7.88367 31.6394 6.86356 31.6394C5.84344 31.6394 5.01648 32.4664 5.01648 33.4865C5.01648 34.5066 5.84344 35.3336 6.86356 35.3336Z" stroke="var(--stroke-0, #720C10)" stroke-width="1.26" stroke-miterlimit="10" stroke-linecap="round" stroke-linejoin="round"/>
</g>
</svg>
