<svg preserveAspectRatio="none" width="100%" height="100%" overflow="visible" style="display: block;" viewBox="0 0 29 42" fill="none" xmlns="http://www.w3.org/2000/svg">
<g id="Group">
<path id="Vector" d="M4.54604 22.6566C4.54604 22.2543 4.21995 21.9281 3.81751 21.9281H3.00408C2.03154 20.3906 1.45804 18.0574 1.45804 15.5902C1.45804 12.9515 2.11352 10.4672 3.21156 8.94471C3.86073 8.04473 3.83383 6.80944 3.14648 5.94064C2.75667 5.44815 2.55074 4.85513 2.55074 4.22558C2.55074 3.44906 2.86381 2.72966 3.43226 2.19988C4.00022 1.67057 4.74323 1.40918 5.52159 1.46455C6.87996 1.56042 7.97965 2.65671 8.07951 4.01469C8.13109 4.71739 7.91962 5.40483 7.48386 5.95035C7.09959 6.43157 6.91328 7.03917 6.95922 7.66123C6.98885 8.06251 7.33699 8.36461 7.73943 8.33411C8.14071 8.30448 8.44193 7.95517 8.4123 7.5539C8.39356 7.2993 8.46816 7.05277 8.62241 6.85956C9.28809 6.02612 9.61137 4.97781 9.53259 3.90775C9.38008 1.8327 7.6999 0.157464 5.62426 0.0108834C4.43724 -0.0725577 3.30588 0.3259 2.43893 1.13379C1.58403 1.93071 1.09368 3.0576 1.09368 4.22568C1.09368 5.18676 1.4084 6.09237 2.00376 6.84479C2.28895 7.20517 2.29964 7.71825 2.02979 8.09243C0.740484 9.88024 0.000976562 12.6131 0.000976562 15.5902C0.000976562 18.5633 0.739027 21.294 2.02571 23.0821C2.16258 23.2723 2.38269 23.3851 2.61708 23.3851H3.81751C4.21995 23.3852 4.54604 23.059 4.54604 22.6566Z" fill="var(--fill-0, #720C10)"/>
<path id="Vector_2" d="M26.9671 8.09232C26.6973 7.71805 26.7079 7.20506 26.9932 6.84468C27.5885 6.09235 27.9032 5.18664 27.9032 4.22557C27.9032 3.05749 27.4128 1.9306 26.5579 1.13388C25.6909 0.32608 24.5605 -0.0728635 23.3726 0.0109661C21.2969 0.157449 19.6167 1.83278 19.4642 3.90783C19.3856 4.9779 19.7089 6.02611 20.3744 6.85955C20.5288 7.05275 20.6034 7.29929 20.5846 7.55388C20.5549 7.95516 20.8562 8.30446 21.2575 8.33409C21.6598 8.36488 22.0082 8.0625 22.0377 7.66122C22.0837 7.03906 21.8973 6.43146 21.513 5.95034C21.0773 5.40472 20.8657 4.71728 20.9173 4.01468C21.0172 2.6567 22.1169 1.56031 23.4752 1.46453C24.2551 1.40916 24.9966 1.67066 25.5646 2.19986C26.1331 2.72965 26.4461 3.44905 26.4461 4.22557C26.4461 4.85511 26.2402 5.44814 25.8505 5.94053C25.163 6.80923 25.1362 8.04453 25.7854 8.9446C26.8834 10.4671 27.5389 12.9514 27.5389 15.5901C27.5389 18.0571 26.9654 20.3904 25.9928 21.928H24.9489C24.5465 21.928 24.2204 22.2542 24.2204 22.6565C24.2204 23.0589 24.5465 23.3851 24.9489 23.3851H26.3797C26.6141 23.3851 26.8343 23.2723 26.9711 23.0821C28.2579 21.2938 28.996 18.5632 28.996 15.5902C28.996 12.613 28.2564 9.88023 26.9671 8.09232Z" fill="var(--fill-0, #720C10)"/>
<path id="Vector_3" d="M11.395 7.6285C11.3397 8.02705 11.618 8.39491 12.0164 8.45018C12.0504 8.45494 12.0841 8.45718 12.1175 8.45718C12.4754 8.45718 12.7875 8.19316 12.8381 7.8286C12.9312 7.15797 12.7443 6.46975 12.3256 5.94054C11.9359 5.44815 11.73 4.85513 11.73 4.22548C11.73 3.44887 12.0431 2.72947 12.6115 2.19978C13.1795 1.67057 13.9225 1.40918 14.7007 1.46445C16.0591 1.56032 17.1588 2.65662 17.2587 4.0146C17.3102 4.71729 17.0988 5.40473 16.663 5.95026C16.245 6.47363 16.0606 7.15933 16.1567 7.83161C16.2139 8.22997 16.5824 8.50691 16.9811 8.4496C17.3795 8.39258 17.6561 8.02346 17.5991 7.6252C17.5596 7.34913 17.6334 7.07006 17.8015 6.85956C18.4671 6.02612 18.7904 4.97781 18.7116 3.90775C18.5591 1.8327 16.879 0.157464 14.8033 0.0108835C13.6162 -0.0725576 12.485 0.3259 11.6181 1.1337C10.7632 1.93042 10.2728 3.05731 10.2728 4.22539C10.2728 5.18646 10.5875 6.09217 11.1828 6.8445C11.3564 7.06384 11.4337 7.34942 11.395 7.6285Z" fill="var(--fill-0, #720C10)"/>
<path id="Vector_4" d="M5.68423 12.7516C5.68423 13.7128 5.99895 14.6185 6.59431 15.3707C6.8795 15.7311 6.89019 16.2441 6.62034 16.6183C5.78554 17.7757 5.17251 19.3485 4.84719 21.1666C4.77638 21.5627 5.03991 21.9412 5.43614 22.0121C5.47946 22.0199 5.52269 22.0236 5.56523 22.0236C5.91133 22.0236 6.21848 21.7759 6.28153 21.4232C6.56439 19.8417 7.10447 18.438 7.80211 17.4706C8.45119 16.5705 8.42438 15.3353 7.73694 14.4665C7.34722 13.9742 7.14129 13.3811 7.14129 12.7516C7.14129 11.9751 7.45436 11.2557 8.02281 10.7259C8.59077 10.1966 9.33329 9.93547 10.1121 9.99055C11.4705 10.0864 12.5702 11.1827 12.6701 12.5407C12.7216 13.2434 12.5102 13.9308 12.0744 14.4764C11.3885 15.3351 11.365 16.5665 12.0171 17.4708C12.1737 17.688 12.3244 17.9301 12.4652 18.1902C12.6568 18.5441 13.0987 18.6757 13.4526 18.4843C13.8066 18.2929 13.9382 17.8508 13.7467 17.4968C13.5763 17.1818 13.392 16.8863 13.1989 16.6185C12.9277 16.2424 12.9334 15.7355 13.2129 15.3856C13.8785 14.5521 14.2017 13.5039 14.123 12.4338C13.9705 10.3588 12.2904 8.68357 10.2147 8.53699C9.02644 8.45364 7.89634 8.852 7.02939 9.65989C6.17458 10.4566 5.68423 11.5835 5.68423 12.7516Z" fill="var(--fill-0, #720C10)"/>
<path id="Vector_5" d="M14.8654 12.4237C14.7866 13.4938 15.11 14.542 15.7756 15.3754C16.0549 15.7253 16.0608 16.2324 15.7895 16.6085C15.596 16.877 15.4116 17.1725 15.2416 17.4869C15.0502 17.8409 15.1821 18.2829 15.536 18.4743C15.8899 18.6656 16.3321 18.5338 16.5233 18.1799C16.6636 17.9204 16.8144 17.6784 16.9712 17.4607C17.6234 16.5563 17.5999 15.325 16.914 14.4661C16.4783 13.9206 16.2668 13.2332 16.3184 12.5306C16.4182 11.1726 17.5179 10.0762 18.8763 9.98041C19.656 9.92524 20.3977 10.1865 20.9656 10.7157C21.5342 11.2455 21.8471 11.9649 21.8471 12.7414C21.8471 13.3709 21.6412 13.964 21.2515 14.4564C20.564 15.3252 20.5371 16.5605 21.1863 17.4605C21.884 18.4278 22.4239 19.8315 22.7069 21.413C22.77 21.7656 23.0771 22.0133 23.4232 22.0133C23.4657 22.0133 23.509 22.0095 23.5524 22.0018C23.9484 21.9308 24.2121 21.5524 24.1412 21.1563C23.8158 19.3381 23.2028 17.7654 22.3681 16.6081C22.0982 16.2339 22.1088 15.7208 22.3941 15.3605C22.9895 14.608 23.3042 13.7023 23.3042 12.7414C23.3042 11.5733 22.8139 10.4464 21.959 9.64966C21.0921 8.84186 19.9615 8.44331 18.7736 8.52675C16.6981 8.67343 15.0179 10.3488 14.8654 12.4237Z" fill="var(--fill-0, #720C10)"/>
<path id="Vector_6" d="M14.4978 19.0312C8.16513 19.0312 3.01306 24.1833 3.01306 30.516C3.01306 36.8487 8.16513 42.0008 14.4978 42.0008C20.8305 42.0008 25.9826 36.8487 25.9826 30.516C25.9826 24.1833 20.8306 19.0312 14.4978 19.0312ZM14.4978 40.5438C8.96846 40.5438 4.47012 36.0454 4.47012 30.5161C4.47012 24.9868 8.96856 20.4884 14.4978 20.4884C20.0271 20.4884 24.5255 24.9868 24.5255 30.5161C24.5255 36.0454 20.0272 40.5438 14.4978 40.5438Z" fill="var(--fill-0, #720C10)"/>
<path id="Vector_7" d="M17.9673 23.2354C16.7622 23.2354 15.7817 24.2158 15.7817 25.4209C15.7817 26.6261 16.7622 27.6065 17.9673 27.6065C19.1724 27.6065 20.1529 26.6261 20.1529 25.4209C20.1529 24.2159 19.1725 23.2354 17.9673 23.2354ZM17.9673 26.1495C17.5656 26.1495 17.2388 25.8227 17.2388 25.4209C17.2388 25.0192 17.5656 24.6924 17.9673 24.6924C18.3691 24.6924 18.6959 25.0192 18.6959 25.4209C18.6959 25.8227 18.3691 26.1495 17.9673 26.1495Z" fill="var(--fill-0, #720C10)"/>
<path id="Vector_8" d="M17.9673 28.5776C16.7622 28.5776 15.7817 29.558 15.7817 30.7632C15.7817 31.9684 16.7622 32.9488 17.9673 32.9488C19.1724 32.9488 20.1529 31.9684 20.1529 30.7632C20.1529 29.558 19.1725 28.5776 17.9673 28.5776ZM17.9673 31.4918C17.5656 31.4918 17.2388 31.165 17.2388 30.7632C17.2388 30.3615 17.5656 30.0347 17.9673 30.0347C18.3691 30.0347 18.6959 30.3615 18.6959 30.7632C18.6959 31.165 18.3691 31.4918 17.9673 31.4918Z" fill="var(--fill-0, #720C10)"/>
<path id="Vector_9" d="M13.0147 25.9065C11.8096 25.9065 10.8291 26.8869 10.8291 28.0921C10.8291 29.2973 11.8096 30.2777 13.0147 30.2777C14.2198 30.2777 15.2003 29.2973 15.2003 28.0921C15.2003 26.8869 14.2199 25.9065 13.0147 25.9065ZM13.0147 28.8206C12.6129 28.8206 12.2862 28.4938 12.2862 28.0921C12.2862 27.6903 12.6129 27.3636 13.0147 27.3636C13.4165 27.3636 13.7432 27.6903 13.7432 28.0921C13.7432 28.4938 13.4165 28.8206 13.0147 28.8206Z" fill="var(--fill-0, #720C10)"/>
</g>
</svg>
