<svg preserveAspectRatio="none" width="100%" height="100%" overflow="visible" style="display: block;" viewBox="0 0 42 42" fill="none" xmlns="http://www.w3.org/2000/svg">
<g id="Layer_1" clip-path="url(#clip0_0_50)">
<path id="Vector" d="M17.7284 30.9024L16.984 29.9951C16.8734 29.8612 16.7142 29.7767 16.5414 29.7599C16.3685 29.7431 16.1961 29.7956 16.0618 29.9057C15.9276 30.0159 15.8424 30.1747 15.8251 30.3475C15.8077 30.5203 15.8595 30.6929 15.9692 30.8276L16.7078 31.7277C17.0886 32.1828 17.6211 32.4849 18.2071 32.5783C18.3795 32.6008 18.5538 32.5539 18.6917 32.448C18.8296 32.3421 18.9198 32.1859 18.9426 32.0135C18.9654 31.8412 18.9189 31.6668 18.8132 31.5287C18.7076 31.3906 18.5515 31.3001 18.3792 31.277C18.1268 31.2274 17.898 31.0957 17.7284 30.9024Z" fill="var(--fill-0, #720C10)"/>
<path id="Vector_2" d="M37.3668 31.0941C37.3121 30.9289 37.1941 30.7921 37.0387 30.7139C36.8832 30.6356 36.703 30.6223 36.5378 30.6769L33.015 31.8409C33.2455 32.2188 33.4421 32.6164 33.6027 33.0289L36.9496 31.9231C37.0314 31.8961 37.1071 31.8532 37.1723 31.7969C37.2376 31.7406 37.2911 31.672 37.3299 31.595C37.3686 31.5181 37.3918 31.4342 37.3981 31.3483C37.4045 31.2623 37.3938 31.176 37.3668 31.0941Z" fill="var(--fill-0, #720C10)"/>
<path id="Vector_3" d="M40.6448 24.1935C40.2071 23.3953 39.6078 22.697 38.8851 22.1432C38.2323 21.6788 37.4743 21.3839 36.6793 21.2849C35.8842 21.186 35.0771 21.2861 34.3303 21.5762L19.1255 27.1531C18.0267 27.4828 17.259 27.2186 16.7048 26.3118L11.0066 17.3444C10.9022 17.1792 10.7616 17.0398 10.5956 16.9367C10.4295 16.8336 10.2423 16.7695 10.0479 16.7492L1.23459 0.34584C1.15224 0.192479 1.01234 0.0781124 0.845666 0.0279001C0.678994 -0.0223121 0.4992 -0.00425727 0.34584 0.0780928C0.192479 0.160443 0.0781124 0.300343 0.0279001 0.467015C-0.0223121 0.633688 -0.00425727 0.813481 0.0780928 0.966842L8.79119 17.1838L7.60795 17.9008L1.22802 6.60473C1.14229 6.4534 1.00001 6.34228 0.832419 6.29576C0.66483 6.24924 0.48563 6.27113 0.334167 6.35662C0.182703 6.44212 0.0713579 6.58422 0.0245785 6.75174C-0.0222009 6.91925 -0.000590342 7.09849 0.0846652 7.25008L6.63626 18.8501C6.57945 19.0189 6.55765 19.1975 6.5722 19.375C6.58675 19.5525 6.63735 19.7251 6.72089 19.8824L13.0731 31.3213C14.3289 33.7324 16.4806 35.5546 19.0655 36.3962C19.0482 36.1881 19.0372 35.9782 19.0372 35.7657C19.0372 35.5092 19.0501 35.2529 19.076 34.9977C16.9865 34.2099 15.2608 32.6794 14.229 30.699L10.8741 24.6486L13.2666 23.3484L15.5906 27.0057C16.4532 28.4178 17.8509 28.9142 19.5255 28.4034L34.7896 22.8057C35.3314 22.5913 35.9179 22.515 36.4965 22.5835C37.0751 22.6521 37.6276 22.8634 38.1043 23.1984C38.6849 23.649 39.1654 24.2156 39.5151 24.862C39.5454 24.9113 42.5001 29.847 38.9311 34.1515C38.7528 34.3734 38.5319 34.5573 38.2813 34.6923C38.0308 34.8273 37.7557 34.9108 37.4723 34.9377C36.7458 35.0147 35.5429 35.1217 34.1148 35.2332C34.1272 35.4093 34.1357 35.5865 34.1357 35.7657C34.1356 36.0285 34.1219 36.2912 34.0946 36.5526C35.5797 36.437 36.8377 36.3249 37.611 36.2428C38.063 36.1978 38.5016 36.0638 38.9017 35.8486C39.3017 35.6334 39.6553 35.3413 39.9421 34.989C44.1034 29.9699 40.6697 24.2333 40.6448 24.1935ZM10.2376 23.5006L7.88908 19.2651L9.89724 18.0463L12.5609 22.238L10.2376 23.5006Z" fill="var(--fill-0, #720C10)"/>
<path id="Vector_4" d="M26.573 29.5312C25.34 29.5313 24.1346 29.8969 23.1094 30.5819C22.0841 31.267 21.2851 32.2406 20.8132 33.3798C20.3413 34.519 20.2179 35.7725 20.4584 36.9819C20.699 38.1912 21.2927 39.3021 22.1646 40.174C23.0365 41.0459 24.1474 41.6397 25.3567 41.8802C26.5661 42.1208 27.8196 41.9973 28.9588 41.5254C30.098 41.0536 31.0717 40.2545 31.7567 39.2293C32.4417 38.204 32.8074 36.9987 32.8074 35.7656C32.8055 34.1127 32.1481 32.5281 30.9793 31.3593C29.8105 30.1906 28.2259 29.5331 26.573 29.5312ZM26.573 40.6875C25.5995 40.6875 24.648 40.3988 23.8386 39.858C23.0292 39.3172 22.3983 38.5485 22.0258 37.6491C21.6533 36.7498 21.5558 35.7602 21.7457 34.8054C21.9356 33.8507 22.4044 32.9737 23.0927 32.2853C23.781 31.597 24.658 31.1282 25.6128 30.9383C26.5675 30.7484 27.5572 30.8459 28.4565 31.2184C29.3559 31.5909 30.1246 32.2218 30.6654 33.0312C31.2062 33.8406 31.4949 34.7922 31.4949 35.7656C31.4934 37.0705 30.9744 38.3216 30.0517 39.2443C29.129 40.167 27.8779 40.686 26.573 40.6875Z" fill="var(--fill-0, #720C10)"/>
<path id="Vector_5" d="M24.4427 38.4624C24.8052 38.4624 25.099 38.1686 25.099 37.8062C25.099 37.4437 24.8052 37.1499 24.4427 37.1499C24.0803 37.1499 23.7865 37.4437 23.7865 37.8062C23.7865 38.1686 24.0803 38.4624 24.4427 38.4624Z" fill="var(--fill-0, #720C10)"/>
<path id="Vector_6" d="M26.7191 39.1802C27.0816 39.1802 27.3754 38.8864 27.3754 38.5239C27.3754 38.1615 27.0816 37.8677 26.7191 37.8677C26.3567 37.8677 26.0629 38.1615 26.0629 38.5239C26.0629 38.8864 26.3567 39.1802 26.7191 39.1802Z" fill="var(--fill-0, #720C10)"/>
<path id="Vector_7" d="M28.8109 38.0933C29.1733 38.0933 29.4672 37.7994 29.4672 37.437C29.4672 37.0746 29.1733 36.7808 28.8109 36.7808C28.4485 36.7808 28.1547 37.0746 28.1547 37.437C28.1547 37.7994 28.4485 38.0933 28.8109 38.0933Z" fill="var(--fill-0, #720C10)"/>
<path id="Vector_8" d="M28.8647 35.7708C29.2272 35.7708 29.521 35.4769 29.521 35.1145C29.521 34.7521 29.2272 34.4583 28.8647 34.4583C28.5023 34.4583 28.2085 34.7521 28.2085 35.1145C28.2085 35.4769 28.5023 35.7708 28.8647 35.7708Z" fill="var(--fill-0, #720C10)"/>
<path id="Vector_9" d="M26.4115 36.8628C26.7739 36.8628 27.0677 36.569 27.0677 36.2065C27.0677 35.8441 26.7739 35.5503 26.4115 35.5503C26.0491 35.5503 25.7552 35.8441 25.7552 36.2065C25.7552 36.569 26.0491 36.8628 26.4115 36.8628Z" fill="var(--fill-0, #720C10)"/>
<path id="Vector_10" d="M32.2721 30.8301L36.8681 29.2977C36.9499 29.2704 37.0255 29.2273 37.0906 29.1709C37.1557 29.1144 37.209 29.0456 37.2476 28.9685C37.2861 28.8914 37.3091 28.8075 37.3152 28.7215C37.3213 28.6356 37.3104 28.5492 37.2831 28.4675C37.2558 28.3857 37.2127 28.3101 37.1563 28.245C37.0998 28.1799 37.031 28.1266 36.9539 28.088C36.8768 28.0495 36.7929 28.0265 36.7069 28.0204C36.621 28.0143 36.5346 28.0252 36.4529 28.0525L31.1924 29.8064C31.5849 30.1115 31.9465 30.4544 32.2721 30.8301Z" fill="var(--fill-0, #720C10)"/>
<path id="Vector_11" d="M35.7457 25.6269L27.6368 28.2957C28.3957 28.403 29.1336 28.6262 29.8248 28.9575L36.156 26.8738C36.238 26.8469 36.3139 26.8042 36.3793 26.748C36.4448 26.6918 36.4985 26.6232 36.5374 26.5462C36.5764 26.4692 36.5997 26.3853 36.6062 26.2993C36.6127 26.2133 36.6021 26.1268 36.5752 26.0449C36.5482 25.9629 36.5053 25.8871 36.449 25.8218C36.3928 25.7564 36.3241 25.7028 36.2471 25.6639C36.17 25.6251 36.0861 25.6019 36.0001 25.5955C35.914 25.5892 35.8276 25.5999 35.7457 25.6269Z" fill="var(--fill-0, #720C10)"/>
</g>
<defs>
<clipPath id="clip0_0_50">
<rect width="42" height="42" fill="white"/>
</clipPath>
</defs>
</svg>
