<svg preserveAspectRatio="none" width="100%" height="100%" overflow="visible" style="display: block;" viewBox="0 0 42 42" fill="none" xmlns="http://www.w3.org/2000/svg">
<g id="Layer_1_1_">
<path id="Vector" d="M6.52263 38.2123C6.96905 38.4287 7.47518 38.674 8.03775 39.0022C8.74027 39.4119 10.2644 39.5049 12.2102 39.418C11.7743 39.6511 11.5382 40.1459 11.6496 40.6465C11.7653 41.1669 12.2302 41.5234 12.7434 41.5234C12.8212 41.5234 12.9002 41.5152 12.9793 41.4981L18.2396 40.3607C18.8861 40.3858 26.7981 40.6875 31.3359 40.6875C36.2673 40.6875 37.5703 37.8973 37.5703 36.4219C37.5703 35.8362 37.1587 35.2162 36.3469 34.5796C35.543 33.9491 34.6009 33.4958 33.5567 33.2348L25.7578 31.0413V29.6953H32.3981C32.8593 29.6953 33.2537 29.3815 33.3572 28.9323L33.5281 28.1917C33.5788 27.9717 33.5519 27.739 33.4523 27.5364L28.4378 17.3283C28.3292 17.0827 28.108 16.906 27.8439 16.8546L23.2969 15.9716V14.397C24.6857 13.0983 25.6185 10.7837 25.6185 8.75142C25.6185 7.05321 24.9349 5.53777 23.8713 4.55421C23.9057 4.41049 23.9397 4.25266 23.9397 4.08811C23.9397 2.46717 22.6209 1.14844 21 1.14844C19.3791 1.14844 18.0603 2.46717 18.0603 4.08811C18.0603 4.26661 18.0984 4.41525 18.1358 4.54781C17.0682 5.53137 16.3816 7.04944 16.3816 8.75142C16.3816 10.7837 17.3145 13.0983 18.7033 14.397V15.9716L14.1563 16.8546C13.8923 16.906 13.671 17.0828 13.5624 17.3283L8.54766 27.5364C8.44823 27.739 8.42133 27.9717 8.47202 28.1918L8.64281 28.9321C8.74634 29.3815 9.14074 29.6953 9.60192 29.6953H16.2422V31.041L7.4591 33.4807C7.43876 33.4865 7.41907 33.494 7.4002 33.5034C7.11277 33.6469 4.59375 34.9445 4.59375 36.2578C4.59375 37.2773 5.40274 37.6694 6.52263 38.2123ZM11.3096 38.7901C11.0809 38.5125 10.5 37.7273 10.5 36.9141C10.5 36.1039 10.8677 35.3694 11.0268 35.0894L13.7693 34.7847L22.2415 36.3536C22.5597 36.413 22.8875 36.3111 23.1167 36.0818L23.9582 35.2403C24.0294 35.1693 24.1318 35.1351 24.231 35.1468L26.5376 35.435C26.5465 35.4362 26.5552 35.4368 26.564 35.4373L29.7911 35.5776C29.9214 35.5834 30.0236 35.69 30.0236 35.8204C30.0236 35.9303 29.9498 36.0268 29.8443 36.055C28.7633 36.3428 25.0579 37.3031 22.7665 37.5726C22.2995 37.6276 21.6287 37.7199 20.8522 37.8271C18.4318 38.1608 14.2298 38.7399 11.3096 38.7901ZM18.2239 39.7033C18.1965 39.7021 18.1688 39.7046 18.1417 39.7105L12.8408 40.8566C12.5934 40.911 12.3454 40.7523 12.2904 40.5042C12.2379 40.2678 12.3724 40.0345 12.6033 39.9617L14.9827 39.2103C16.875 39.0247 18.9425 38.7529 20.9418 38.4772C21.7148 38.3708 22.3826 38.2786 22.8431 38.2244C24.8148 37.9924 27.712 37.287 29.3573 36.8612C29.6144 37.0678 30.2285 37.63 30.2285 38.2883C30.2285 38.9914 29.8118 39.7246 29.6238 40.0199C24.8635 39.962 18.2979 39.7062 18.2239 39.7033ZM27.8381 17.5954C27.8404 17.6006 27.8427 17.6059 27.8453 17.611L32.8632 27.8258C32.8965 27.8934 32.9054 27.971 32.8885 28.0444L32.7177 28.7848C32.6832 28.9346 32.5516 29.0391 32.3979 29.0391H22.4536C22.4228 29.0391 22.3927 29.0304 22.3666 29.0141L21.3281 28.3651V22.6441C21.5524 22.6616 21.7375 22.8265 21.775 23.0519L22.4293 26.9776C22.4828 27.2985 22.7581 27.5261 23.0751 27.5261C23.1025 27.5261 23.1302 27.5244 23.1581 27.5208L28.0427 26.9104L29.6312 27.228L29.7598 26.5845L28.2885 26.2902L26.4018 21.8881L25.4828 17.0646L27.7187 17.4989C27.772 17.5094 27.8168 17.5453 27.8381 17.5954ZM26.3204 23.3643L27.5814 26.3066L26.1064 26.491L26.3204 23.3643ZM18.7166 4.08811C18.7166 2.82909 19.741 1.80469 21 1.80469C22.259 1.80469 23.2834 2.82909 23.2834 4.08811C23.2834 4.08909 23.2833 4.09024 23.2833 4.09123C22.6093 3.64399 21.8303 3.38691 21 3.38691C20.1697 3.38691 19.3907 3.64399 18.7167 4.09123C18.7167 4.09024 18.7166 4.08909 18.7166 4.08811ZM21 4.04316C22.9561 4.04316 24.5844 5.73661 24.9042 7.95424C24.074 6.52805 22.6314 5.62537 21 5.62537C19.3577 5.62537 17.9007 6.59023 17.0756 8.10813C17.3406 5.81536 18.9989 4.04316 21 4.04316ZM17.137 9.85507C17.5629 7.78132 19.1781 6.28162 21 6.28162C22.8779 6.28162 24.4666 7.69863 24.8834 9.73334C24.509 12.1639 22.8442 14.7656 21 14.7656C19.1866 14.7656 17.5471 12.2501 17.137 9.85507ZM21 15.4219C21.5785 15.4219 22.131 15.2339 22.6406 14.9102V17.7188C22.6406 18.6234 21.9046 19.3594 21 19.3594C20.0954 19.3594 19.3594 18.6234 19.3594 17.7188V14.9102C19.869 15.2339 20.4215 15.4219 21 15.4219ZM21 20.0156C22.2666 20.0156 23.2969 18.9853 23.2969 17.7188V16.6402L24.7889 16.9299L25.7557 22.0041L25.443 26.5739L23.0765 26.8697L22.4223 22.944C22.3296 22.3878 21.8531 21.9842 21.2894 21.9842H21H20.7106C20.1469 21.9842 19.6704 22.3878 19.5777 22.944L18.9235 26.8697L16.557 26.5739L16.2443 22.0032L17.1829 16.9354L18.7033 16.64V17.7188C18.7031 18.9853 19.7334 20.0156 21 20.0156ZM15.6796 23.3643L15.8936 26.491L14.4186 26.3066L15.6796 23.3643ZM9.28233 28.7846L9.11154 28.0444C9.09448 27.9709 9.1035 27.8933 9.13664 27.8257L14.1545 17.6108C14.1571 17.6057 14.1594 17.6005 14.1617 17.5952C14.183 17.5452 14.2278 17.5092 14.2813 17.4987L16.4904 17.0697L15.5981 21.8887L13.7119 26.2902L12.2405 26.5845L12.3692 27.228L13.9576 26.9104L18.8421 27.5208C19.1929 27.5653 19.5128 27.3261 19.5709 26.9775L20.2251 23.0518C20.2627 22.8262 20.4474 22.6593 20.672 22.6419V28.3648L19.6334 29.014C19.6073 29.0302 19.5772 29.0389 19.5464 29.0389H9.60192C9.4482 29.0391 9.31678 28.9344 9.28233 28.7846ZM19.5464 29.6953C19.7003 29.6953 19.8506 29.6522 19.9812 29.5706L21 28.9339L22.0188 29.5706C22.1493 29.6523 22.2997 29.6953 22.4536 29.6953H25.1016V31.0078H16.8984V29.6953H19.5464ZM7.66566 34.1045L16.4509 31.6641H25.5485L33.3882 33.8689C34.3519 34.1097 35.2109 34.5227 35.9418 35.0959C36.5687 35.5876 36.9139 36.0585 36.9139 36.4219C36.9139 37.6702 35.7481 40.0312 31.3358 40.0312C31.0313 40.0312 30.7112 40.0299 30.3793 40.0273C30.6111 39.5957 30.8846 38.9479 30.8846 38.2881C30.8846 37.5923 30.4651 37.0189 30.1073 36.6552C30.3445 36.5623 30.5278 36.3751 30.6173 36.143C30.9235 36.0207 31.4934 35.8306 31.8964 35.8473L31.9236 35.1917C31.4782 35.1735 30.9492 35.3259 30.5978 35.4503C30.4623 35.1506 30.1695 34.9371 29.8193 34.9219L26.6055 34.7821L24.3123 34.4955C24.0089 34.4574 23.7105 34.5598 23.4941 34.7762L22.6526 35.6176C22.5761 35.6939 22.4672 35.7282 22.3609 35.7082L13.841 34.1304C13.8093 34.1247 13.777 34.1234 13.745 34.127L9.3153 34.6192L9.38766 35.2715L10.2469 35.176C10.2309 35.2124 10.2147 35.2493 10.1978 35.2895C10.0364 35.6728 9.84375 36.2657 9.84375 36.9141C9.84375 37.6494 10.1935 38.3345 10.4951 38.7893C9.51841 38.767 8.75749 38.6621 8.3685 38.4353C7.78395 38.0943 7.266 37.8431 6.80892 37.6217C5.70002 37.0842 5.25 36.8427 5.25 36.2578C5.25 35.6127 6.6529 34.6169 7.66566 34.1045Z" fill="var(--fill-0, #720C10)"/>
</g>
</svg>
