<?xml version="1.0" encoding="UTF-8"?>
<svg id="Layer_2" xmlns="http://www.w3.org/2000/svg" version="1.1" viewBox="0 0 1920 800">
  <!-- Generator: Adobe Illustrator 29.8.3, SVG Export Plug-In . SVG Version: 2.1.1 Build 3)  -->
  <defs>
    <style>
      .st0 {
        stroke-linejoin: round;
      }

      .st0, .st1 {
        fill: none;
        stroke: #fff;
        stroke-linecap: round;
      }

      .st1 {
        stroke-miterlimit: 10;
      }
    </style>
  </defs>
  <path class="st1" d="M597.3,746.2V134.7s1-21.6-26.7-24.4-71.7-8.2-71.7-8.2c0,0-6-.6-10.9,2.1"/>
  <path class="st1" d="M584.3,746.2v-431.6c0-1.9-.5-6-7-6h-72.3s-3.9,0-6.5,1.2"/>
  <path class="st1" d="M584.3,415.7c0-1.9-.5-6-7-6h-72.3s-3.9,0-6.5,1.2"/>
  <path class="st1" d="M618.7,746.2V138.9s0-24.8,26.7-22.8l72.6,1.6s8.2.5,14.3,6.1"/>
  <path class="st0" d="M631.7,746.2v-391.6c0-1.9.5-6,7-6h77.3s4.2-.3,5.9,2.5l5.5,8.2"/>
  <path class="st1" d="M631.7,455.7c0-1.9.5-6,7-6h77.3s3.5-.3,6.1,2.4l4.9,5"/>
  <path class="st1" d="M727.4,145.2s4-.4,7,2.8,11.5,12.6,11.5,12.6"/>
  <path class="st1" d="M942.4,747.2V149.3s2-23.1-26.7-24.4l-69.5-2.9c-2.9-.2-7.9.6-10.9,3.8"/>
  <path class="st1" d="M932.4,747.2v-331.6c0-1.9-.5-6-7-6h-72.3s-6-.3-8.6.9"/>
  <path class="st1" d="M932.4,516.7c0-1.9-.5-6-7-6h-80.3"/>
  <path class="st1" d="M968.8,747.2V149.9s-.6-24.4,26.9-25.2l67.8-3.1s9.3,0,13.5,4.1"/>
  <path class="st0" d="M979.8,747.2v-331.6c0-1.9.5-6,7-6h77.3s2.3,0,3,1"/>
  <path class="st1" d="M979.8,516.7c0-1.9.5-6,7-6h77.3s1.4,0,3,.4"/>
  <path class="st1" d="M1312.2,747V134.4s-1-20.4,26.7-23.2c27.7-2.8,94.6-9.2,94.6-9.2,0,0,6-.6,10.9,2.1"/>
  <path class="st1" d="M1323.3,747v-432.6c0-1.9.5-6,7-6h97.3s3.9,0,6.5,1.2"/>
  <path class="st1" d="M1323.3,415.5c0-1.9.5-6,7-6h97.3s3.9,0,6.5,1.2"/>
  <path class="st1" d="M1295.9,747V138.7s0-24.8-26.7-22.8l-82.7,2.3s-8.2.5-14.3,6.1"/>
  <path class="st0" d="M1283.9,747v-392.6c0-1.9-.5-6-7-6h-88.3s-4.2-.3-5.9,2.5l-5.5,8.2"/>
  <path class="st1" d="M1283.9,455.5c0-1.9-.5-6-7-6h-88.3s-3.5-.3-6.1,2.4l-4.9,5"/>
  <path class="st1" d="M1188.5,153.4s-16.4-1.4-23.1,5.3-9.2,10.2-9.2,10.2"/>
  <line class="st1" x1="1268.9" y1="747" x2="1350.4" y2="747"/>
  <line class="st1" x1="918.9" y1="747" x2="1007.4" y2="747"/>
  <line class="st1" x1="571.1" y1="747" x2="659.6" y2="747"/>
</svg>