<svg preserveAspectRatio="none" width="100%" height="100%" overflow="visible" style="display: block;" viewBox="0 0 38 38" fill="none" xmlns="http://www.w3.org/2000/svg">
<g id="Group">
<path id="Vector" d="M32.2473 5.4305C32.7291 4.94875 33.5136 4.94875 33.9954 5.4305C34.4769 5.91224 34.4769 6.69588 33.9954 7.17757L30.011 11.1619C29.7818 11.3969 29.4666 11.5262 29.1399 11.5262C28.812 11.5262 28.5028 11.3959 28.2688 11.1619L26.6292 9.52132C26.1474 9.03956 26.1474 8.256 26.6292 7.77425C27.0996 7.30401 27.9059 7.30393 28.3762 7.77425L29.1399 8.53695L32.2473 5.4305ZM33.4563 5.96859C33.2741 5.78665 32.9803 5.78667 32.7981 5.96859L29.4153 9.3514C29.2627 9.50397 29.0229 9.50397 28.8704 9.3514L27.8381 8.3182C27.7497 8.2298 27.6328 8.18343 27.5051 8.18343C27.3776 8.1835 27.2614 8.22997 27.1731 8.3182C27.0133 8.47802 26.9947 8.72666 27.1165 8.90414L27.177 8.97542L28.8147 10.6131C28.9849 10.7876 29.2948 10.789 29.4719 10.6121L33.4563 6.62777C33.6386 6.44547 33.6386 6.15089 33.4563 5.96859Z" fill="var(--fill-0, #720C10)" stroke="var(--stroke-0, #720C10)" stroke-width="0.2"/>
<path id="Vector_2" d="M30.3145 0.900391C34.3879 0.900391 37.7079 4.21376 37.708 8.29297C37.708 11.4132 35.7623 14.0792 33.0273 15.1621C33.1014 15.7662 33.1445 16.3862 33.1445 17.0225C33.1445 17.8843 33.073 18.735 32.9375 19.5596C35.7894 21.2643 37.7079 24.3763 37.708 27.9365C37.708 33.3269 33.3212 37.708 27.9365 37.708C24.3763 37.7079 21.2643 35.7894 19.5596 32.9375C18.7351 33.073 17.8845 33.1445 17.0283 33.1445C8.13612 33.1445 0.900406 25.9147 0.900391 17.0225C0.900391 8.13581 8.13613 0.905273 17.0283 0.905273C19.8751 0.905311 22.6483 1.66397 25.0879 3.07812C26.4241 1.73549 28.2709 0.900503 30.3145 0.900391ZM27.9365 19.2168C23.1279 19.2169 19.2169 23.1279 19.2168 27.9365C19.2168 32.7453 23.1278 36.6571 27.9365 36.6572C32.7453 36.6572 36.6572 32.7453 36.6572 27.9365C36.6571 23.1278 32.7453 19.2168 27.9365 19.2168ZM16.6387 26.3926C14.6158 26.4217 12.6579 26.6704 10.8506 27.1133C12.0924 29.6763 13.7855 31.4575 15.6846 32.0312C15.9976 32.0613 16.3155 32.077 16.6387 32.084V26.3926ZM17.4062 32.0781C17.9579 32.064 18.5049 32.0161 19.04 31.9414C18.4847 30.7177 18.165 29.3626 18.165 27.9365C18.1651 27.4182 18.2163 26.9157 18.2969 26.4199C17.9963 26.4071 17.6994 26.398 17.4062 26.3926V32.0781ZM10.1074 27.3008C9.05073 27.5984 8.06323 27.9692 7.15332 28.3984C8.92485 29.93 11.0491 31.0637 13.3877 31.6455C12.1104 30.6497 10.9932 29.1522 10.1074 27.3008ZM1.95996 17.4062C2.06497 21.4904 3.80239 25.1801 6.53613 27.833C7.53289 27.3424 8.62143 26.9245 9.78711 26.5889C8.70006 24.0133 8.03651 20.841 7.99121 17.4062H1.95996ZM8.76367 17.4062C8.80901 20.7937 9.46069 23.9088 10.5254 26.4004C12.4285 25.9197 14.5009 25.6544 16.6387 25.625V17.4062H8.76367ZM17.4062 25.625C17.7503 25.6307 18.0953 25.6411 18.4482 25.6592C19.2678 22.2403 21.8829 19.5266 25.2402 18.5586C25.2638 18.1833 25.2788 17.803 25.2852 17.4062H17.4062V25.625ZM26.0537 17.4062C26.0483 17.7354 26.037 18.054 26.0205 18.3652C26.6404 18.2432 27.2805 18.1709 27.9365 18.1709C29.3681 18.1709 30.7183 18.49 31.9414 19.04C32.0161 18.5049 32.064 17.9579 32.0781 17.4062H26.0537ZM10.5322 7.64941C9.4618 10.1411 8.80899 13.2564 8.76367 16.6445H16.6387V8.41895C14.5064 8.38937 12.4398 8.11933 10.5322 7.64941ZM25.9229 14.2314C26.0006 15.0219 26.0415 15.8281 26.0537 16.6387H32.0791C32.0709 16.2449 32.0435 15.859 32.0029 15.4805C31.4622 15.6077 30.8964 15.6865 30.3145 15.6865C28.6704 15.6864 27.152 15.1429 25.9229 14.2314ZM22.9404 7.77734C21.1702 8.17311 19.3173 8.38998 17.4062 8.41309V16.6387H25.2861C25.2764 15.5757 25.2 14.5235 25.0654 13.4971C23.7402 12.1589 22.9218 10.3231 22.916 8.29395V8.29297C22.916 8.11909 22.9275 7.94573 22.9404 7.77734ZM6.54199 6.21094C3.80228 8.86945 2.06496 12.5543 1.95996 16.6387H7.99121C8.04184 13.2038 8.69945 10.031 9.79199 7.45508C8.62662 7.11941 7.5434 6.70142 6.54199 6.21094ZM30.3145 1.95117C26.817 1.9514 23.9728 4.79549 23.9727 8.29297C23.9727 11.7907 26.817 14.6404 30.3145 14.6406C33.8121 14.6406 36.6572 11.7908 36.6572 8.29297C36.6571 4.79535 33.8121 1.95117 30.3145 1.95117ZM17.4121 7.65137C19.3606 7.62255 21.2538 7.39604 23.0459 6.97266C23.0579 6.89499 23.0732 6.81584 23.0918 6.74023C21.8306 4.22068 20.1665 2.58017 18.3857 2.0293C18.0622 1.99919 17.739 1.97949 17.4121 1.97168V7.65137ZM16.6387 1.96582C16.3219 1.97281 16.0054 1.98691 15.6895 2.0166C13.7884 2.59424 12.0933 4.36593 10.8506 6.92969C12.6581 7.36737 14.6157 7.61641 16.6387 7.64551V1.96582ZM13.3838 2.40332C11.0443 2.98445 8.92012 4.1149 7.15332 5.65137C8.06834 6.08015 9.06087 6.44567 10.1133 6.74316C10.9944 4.89158 12.1106 3.39801 13.3838 2.40332ZM20.6904 2.41309C21.6959 3.19717 22.616 4.30193 23.4004 5.68945C23.6468 5.04405 23.9798 4.43885 24.3828 3.89258C23.2219 3.23508 21.9815 2.73584 20.6904 2.41309Z" fill="var(--fill-0, #720C10)" stroke="var(--stroke-0, #720C10)" stroke-width="0.2"/>
<path id="Vector_3" d="M27.9369 21.0944C30.3249 21.0945 32.265 23.0345 32.2767 25.4275V25.4284C32.2766 26.1777 31.9327 27.0824 31.4515 27.987C30.9808 28.8721 30.3696 29.7687 29.7963 30.5407L31.5355 32.8776L31.5365 32.8786C31.5974 32.9625 31.621 33.0626 31.6058 33.1618C31.5944 33.2362 31.5617 33.3074 31.5101 33.364L31.4525 33.4148L29.7045 34.7146L29.7035 34.7136C29.6337 34.7671 29.5564 34.7907 29.475 34.7907H29.4271L29.4203 34.7898C29.3213 34.7745 29.229 34.721 29.1674 34.6364L27.9418 32.9909L26.7172 34.6316L26.7162 34.6325C26.6404 34.7311 26.5255 34.7849 26.4095 34.7849C26.3274 34.7848 26.2484 34.7624 26.1781 34.7077V34.7067L24.4262 33.4148V33.4138C24.3421 33.3521 24.289 33.2605 24.2738 33.1618C24.2586 33.0626 24.2814 32.9625 24.3422 32.8786L24.3431 32.8776L26.0814 30.5407C25.5963 29.8866 24.9909 29.012 24.5013 28.111C23.9988 27.1862 23.6089 26.2185 23.6088 25.4284C23.6088 23.0349 25.5489 21.0944 27.9369 21.0944ZM27.9476 21.8562C25.9827 21.8564 24.3871 23.4572 24.3871 25.4226C24.3871 26.0836 24.762 27.0085 25.3304 28.0036C25.7547 28.7463 26.2814 29.5185 26.8236 30.2341L27.3676 30.9275L27.3705 30.9304H27.3695L28.2611 32.1286H28.2592C28.261 32.131 28.2625 32.1333 28.264 32.1355L28.2679 32.1394L28.2728 32.1452L29.557 33.8689L30.6918 33.0241L28.4896 30.0661L28.0551 29.5114C27.6074 28.9213 27.1311 28.2368 26.7328 27.5857C26.4673 27.1516 26.2347 26.7308 26.0687 26.361C25.9045 25.9952 25.7992 25.6666 25.7992 25.4226C25.7992 24.2382 26.7577 23.2732 27.9428 23.2732C29.1218 23.2733 30.0853 24.2382 30.0853 25.4226C30.0853 25.6375 30.0058 25.9095 29.8861 26.1989C29.7653 26.4912 29.5988 26.8124 29.4183 27.1306C29.0758 27.7345 28.6749 28.3329 28.4164 28.7107C28.5193 28.8523 28.6236 28.9924 28.7299 29.1306L29.0931 29.5944L29.0951 29.5964L29.3138 29.8903C29.7672 29.267 30.2992 28.4842 30.725 27.6999C31.1783 26.8648 31.5033 26.0453 31.5033 25.4226C31.5033 23.457 29.907 21.8562 27.9476 21.8562ZM25.1928 33.0241L26.3265 33.863L27.4594 32.3464L26.7553 31.4021V31.4011C26.7018 31.3353 26.6403 31.2575 26.5717 31.1706L25.1928 33.0241ZM27.9369 24.0407C27.1808 24.0407 26.5609 24.6603 26.5609 25.4226C26.561 25.505 26.5943 25.6396 26.6654 25.823C26.7353 26.0032 26.8381 26.2206 26.9681 26.4655C27.2111 26.9233 27.5472 27.4716 27.9359 28.0417C28.3995 27.3624 28.7423 26.7907 28.9691 26.3464C29.0892 26.1112 29.1759 25.913 29.2328 25.7556C29.2906 25.5953 29.3139 25.4863 29.3129 25.4245V25.4226C29.3129 24.6603 28.693 24.0408 27.9369 24.0407Z" fill="var(--fill-0, #720C10)" stroke="var(--stroke-0, #720C10)" stroke-width="0.2"/>
</g>
</svg>
