<svg preserveAspectRatio="none" width="100%" height="100%" overflow="visible" style="display: block;" viewBox="0 0 36 39" fill="none" xmlns="http://www.w3.org/2000/svg">
<g id="Group">
<path id="Vector" d="M35.0621 24.0169C35.425 24.0169 35.7184 23.7229 35.7184 23.3607V21.3454C35.7184 20.9831 35.425 20.6891 35.0621 20.6891H31.1889C30.826 20.6891 30.5327 20.9831 30.5327 21.3454V21.9307H27.5848V18.5569C27.5848 18.1947 27.2915 17.9007 26.9286 17.9007C26.5657 17.9007 26.2723 18.1947 26.2723 18.5569V21.9307H19.488C18.6926 21.9307 17.9235 22.2444 17.1623 22.9013L16.6852 23.3869L16.2507 22.9164C16.2337 22.8974 16.2153 22.8797 16.1963 22.8633C15.4652 22.2359 14.6915 21.9307 13.8311 21.9307H9.45V12.7465L17.8618 5.9202L25.0477 11.7884L26.2717 12.7524V15.069C26.2717 15.4312 26.565 15.7252 26.9279 15.7252C27.2908 15.7252 27.5842 15.4312 27.5842 15.069V12.7058L29.7911 10.4969C29.9224 10.3656 29.9919 10.1845 29.9827 9.99945C29.9729 9.81438 29.8863 9.64179 29.7419 9.52432L27.8939 8.00051V2.82598C27.8939 2.46373 27.6006 2.16973 27.2377 2.16973H23.5935C23.2306 2.16973 22.9372 2.46373 22.9372 2.82598V3.92913L18.2752 0.146508C18.0351 -0.048398 17.6905 -0.0490543 17.449 0.145852L12.5665 4.09779C12.2843 4.32616 12.241 4.73895 12.4694 5.02048C12.6971 5.30266 13.1112 5.34663 13.3921 5.1176L17.8612 1.50035L23.1748 5.81126L26.819 8.83329L26.8236 8.83657L28.3507 10.0821L26.8767 11.5574L18.2772 4.56438C18.0351 4.36685 17.6892 4.36685 17.4464 4.56438L9.86016 10.7574L8.84494 11.5574L7.36706 10.0808L10.6824 7.36329C10.9633 7.1336 11.0033 6.72016 10.7743 6.43995C10.5453 6.15973 10.1312 6.11773 9.85097 6.34807L5.97516 9.52498C5.83144 9.64245 5.74416 9.81504 5.73562 10.0001C5.72709 10.1852 5.79666 10.3656 5.92725 10.4969L8.1375 12.7058V21.9301H5.18897V21.3454C5.18897 20.9831 4.89562 20.6891 4.53272 20.6891H0.65625C0.293344 20.6891 0 20.9831 0 21.3454V28.7853C0 29.1475 0.293344 29.4415 0.65625 29.4415C1.01916 29.4415 1.3125 29.1475 1.3125 28.7853V22.0016H3.87581V33.8633H1.3125V32.2719C1.3125 31.9097 1.01916 31.6157 0.65625 31.6157C0.293344 31.6157 0 31.9097 0 32.2719V34.5196C0 34.8818 0.293344 35.1758 0.65625 35.1758H4.53206C4.89497 35.1758 5.18831 34.8818 5.18831 34.5196V33.9342H6.85453C7.40841 33.9342 7.85334 34.1206 8.25431 34.5189L11.1215 37.3861C11.5408 37.8061 12.1124 38.043 12.6984 38.043C12.7221 38.043 12.7463 38.0423 12.7706 38.0417C13.3514 38.022 13.8758 37.7779 14.217 37.3854C14.4565 37.1452 14.6252 36.8709 14.7348 36.5828L15.0419 36.8899C15.4127 37.3139 15.9377 37.558 16.5185 37.577C16.5428 37.5777 16.5664 37.5784 16.5907 37.5784C17.1767 37.5784 17.7483 37.3414 18.1676 36.9214C18.3993 36.6904 18.5699 36.4122 18.6815 36.1129L18.7596 36.1891C19.1297 36.615 19.6553 36.8598 20.2374 36.8794C20.2617 36.8801 20.286 36.8808 20.3096 36.8808C20.8976 36.8808 21.4699 36.6425 21.8879 36.2225C22.1071 36.004 22.2725 35.7507 22.384 35.4784L22.7417 35.836C23.163 36.2554 23.7346 36.4923 24.32 36.4923C24.3449 36.4923 24.3698 36.4916 24.3948 36.4909C24.9749 36.4706 25.4986 36.2265 25.8385 35.8354C26.374 35.2999 26.5794 34.599 26.4666 33.9342H30.5301V34.5196C30.5301 34.8818 30.8234 35.1758 31.1863 35.1758H35.0595C35.4224 35.1758 35.7157 34.8818 35.7157 34.5196V26.8474C35.7157 26.4851 35.4224 26.1911 35.0595 26.1911C34.6966 26.1911 34.4032 26.4851 34.4032 26.8474V33.8633H31.8426V22.0016H34.4032V23.3607C34.4059 23.7236 34.6992 24.0169 35.0621 24.0169ZM26.5814 6.91901L24.2497 4.99751V3.48223H26.5814V6.91901ZM30.5327 32.6224H25.7296L23.5233 30.3445C23.2719 30.0833 22.8546 30.0781 22.596 30.3301C22.3355 30.5821 22.3289 30.9981 22.5816 31.258L24.9132 33.6645C25.2787 34.0313 25.2794 34.5425 24.8837 34.9396C24.7551 35.0872 24.5667 35.1719 24.3521 35.1791C24.1198 35.1896 23.8534 35.0885 23.6716 34.9074L20.0301 31.2659C19.7735 31.0093 19.3587 31.0093 19.1021 31.2659C18.9742 31.3939 18.9098 31.5619 18.9098 31.7299C18.9098 31.8979 18.9742 32.0659 19.1021 32.1938L20.9626 34.0549C21.1385 34.2308 21.2349 34.4507 21.2349 34.6744C21.2349 34.8989 21.1385 35.1187 20.9613 35.2953C20.7808 35.4764 20.5321 35.5722 20.284 35.5683C20.0694 35.561 19.8804 35.4757 19.7151 35.2887L16.5513 32.2017L16.5447 32.1951L16.5382 32.1892C16.5099 32.1617 16.4738 32.1485 16.4423 32.1275C16.4023 32.1006 16.3656 32.0672 16.3216 32.0501C16.2875 32.0363 16.2514 32.037 16.2159 32.0298C16.1687 32.0193 16.1227 32.0035 16.0748 32.0042C16.0368 32.0042 16.0013 32.0186 15.9639 32.0258C15.9187 32.0344 15.8721 32.0357 15.8294 32.0534C15.7887 32.0698 15.7559 32.1019 15.7185 32.1269C15.6844 32.1499 15.6463 32.1649 15.6161 32.1951C15.6155 32.1958 15.6148 32.1971 15.6142 32.1984C15.6128 32.1997 15.6109 32.1997 15.6096 32.201C15.5748 32.2365 15.5577 32.2798 15.5328 32.3198C15.5131 32.3526 15.4849 32.3809 15.4704 32.4163C15.454 32.4576 15.4527 32.5029 15.4448 32.5462C15.4376 32.5856 15.4238 32.6237 15.4238 32.663C15.4245 32.705 15.4396 32.7457 15.4481 32.7871C15.4567 32.8284 15.4573 32.8698 15.4731 32.9091C15.4882 32.9465 15.5183 32.9774 15.5413 33.0122C15.5649 33.0496 15.582 33.0903 15.6142 33.1231L17.2732 34.7827C17.4215 34.9114 17.5061 35.0997 17.514 35.3136C17.5225 35.5637 17.4221 35.8117 17.2403 35.9942C17.0592 36.1753 16.8079 36.2704 16.5624 36.2665C16.3485 36.2593 16.1595 36.174 16.0007 35.9948L13.1335 33.1277C13.1047 33.0994 13.0686 33.0857 13.0371 33.0634C12.9997 33.0378 12.9668 33.0069 12.9262 32.9899C12.8868 32.9734 12.8461 32.9708 12.8048 32.9623C12.7634 32.9538 12.7234 32.9387 12.6807 32.938C12.6394 32.9374 12.6 32.9505 12.5593 32.957C12.5173 32.9643 12.4747 32.9656 12.4346 32.9813C12.3946 32.9964 12.3618 33.0253 12.3244 33.0489C12.2902 33.0706 12.2528 33.0837 12.222 33.1126C12.2187 33.1152 12.2181 33.1191 12.2148 33.1224C12.2122 33.125 12.2082 33.1257 12.2056 33.1283C12.1774 33.1565 12.1642 33.192 12.1419 33.2241C12.1157 33.2615 12.0848 33.2957 12.0678 33.3364C12.0514 33.3757 12.0481 33.4177 12.0396 33.4591C12.0304 33.5004 12.0166 33.5391 12.0153 33.5811C12.0146 33.6238 12.0284 33.6645 12.0356 33.7065C12.0428 33.7472 12.0442 33.7885 12.0586 33.8279C12.0737 33.8673 12.1026 33.9007 12.1262 33.9375C12.1478 33.9716 12.161 34.0097 12.1898 34.0405L13.2897 35.2185C13.6552 35.5834 13.6546 36.0939 13.2595 36.4923C13.1309 36.6399 12.9419 36.7246 12.7273 36.7318C12.4852 36.7436 12.2312 36.6412 12.0501 36.4601L9.18159 33.5916C8.5365 32.9492 7.75359 32.6237 6.85519 32.6237H5.18897V23.2432H13.8311C14.362 23.2432 14.8332 23.4316 15.3142 23.8352L15.7657 24.3234L12.7818 27.3612C12.3559 27.732 12.1104 28.257 12.0907 28.8384C12.0704 29.45 12.3099 30.0518 12.747 30.4869C13.1709 30.9122 13.7209 31.1464 14.2971 31.1464C14.8732 31.1464 15.4238 30.9122 15.8458 30.4876L18.8311 27.5023C19.1349 28.215 19.8542 28.7439 20.6496 28.7439H26.1522C26.5151 28.7439 26.8085 28.4499 26.8085 28.0877C26.8085 27.7254 26.5151 27.4314 26.1522 27.4314H20.6496C20.3162 27.4314 19.9894 27.1033 19.9894 26.7693V26.0723C19.9894 25.987 19.9723 25.9017 19.9388 25.8216C19.8719 25.6609 19.7446 25.5335 19.5838 25.4666C19.4237 25.4003 19.2426 25.4003 19.0824 25.4666C19.0017 25.5001 18.9295 25.548 18.8685 25.609L14.9172 29.5603C14.5674 29.9127 14.03 29.9153 13.6749 29.5583C13.4938 29.3779 13.3941 29.1311 13.4019 28.8824C13.4098 28.6684 13.4951 28.4801 13.6802 28.316L16.9923 24.9429C17.0454 24.916 17.0986 24.8904 17.1439 24.8484C17.2121 24.7854 17.2627 24.7113 17.2974 24.6312L18.0574 23.8575C18.5404 23.4434 19.0083 23.2419 19.488 23.2419H30.5327V32.6224ZM17.2056 12.9775V13.0353C16.4535 13.1219 15.8865 13.7086 15.8865 14.4495C15.8865 15.2882 16.5585 15.6202 17.0041 15.8401L17.1006 15.888C17.1281 15.9018 17.157 15.9136 17.1865 15.9234L17.6105 16.0652L18.0823 16.2988L18.1532 16.327C18.2798 16.3775 18.4938 16.4615 18.5213 16.4635C18.5213 16.5665 18.4282 16.6604 18.3258 16.6604H16.5421C16.1792 16.6604 15.8858 16.9544 15.8858 17.3166C15.8858 17.6789 16.1792 17.9729 16.5421 17.9729H17.2049V18.0136C17.2049 18.3758 17.4982 18.6698 17.8612 18.6698C18.2241 18.6698 18.5174 18.3758 18.5174 18.0136V17.9539C19.2577 17.858 19.8338 17.23 19.8338 16.4635C19.8338 15.5795 19.0542 15.2718 18.6355 15.1064L18.165 14.8754C18.1479 14.8669 18.1302 14.8583 18.1132 14.8511C18.0954 14.8439 18.0764 14.8373 18.0587 14.8314L17.6453 14.6936L17.5849 14.6641C17.4431 14.5945 17.2305 14.4889 17.1983 14.4501C17.1983 14.332 17.386 14.3307 17.3939 14.3307H19.1776C19.5405 14.3307 19.8338 14.0367 19.8338 13.6744C19.8338 13.3122 19.5405 13.0182 19.1776 13.0182H18.5174V12.9775C18.5174 12.6153 18.2241 12.3213 17.8612 12.3213C17.4982 12.3213 17.2056 12.6153 17.2056 12.9775ZM11.7777 15.4575C11.7777 18.7525 14.5635 21.537 17.8618 21.537C21.1706 21.537 23.8632 18.8096 23.8632 15.4575C23.8632 12.1474 21.1706 9.4541 17.8618 9.4541C14.5077 9.4541 11.7777 12.1467 11.7777 15.4575ZM22.5507 15.4575C22.5507 18.0418 20.4041 20.2245 17.8618 20.2245C15.2755 20.2245 13.0902 18.0411 13.0902 15.4575C13.0902 12.9145 15.2749 10.7666 17.8618 10.7666C20.4468 10.7666 22.5507 12.8705 22.5507 15.4575Z" fill="var(--fill-0, #720C10)"/>
</g>
</svg>
