<svg preserveAspectRatio="none" width="100%" height="100%" overflow="visible" style="display: block;" viewBox="0 0 39 29" fill="none" xmlns="http://www.w3.org/2000/svg">
<g id="_496633184">
<path id="_496633496" d="M38.2659 1.99796C38.5594 1.99796 38.7971 2.23564 38.7971 2.52921L38.7981 28.1532C38.798 28.4467 38.5592 28.6846 38.2659 28.6845H24.1809C23.8876 28.6844 23.6498 28.4467 23.6497 28.1532V2.52921C23.6497 2.23557 23.8874 1.99796 24.1809 1.99796H38.2659ZM24.7122 27.621H37.7346V3.06046H24.7122V27.621Z" fill="var(--fill-0, #720C10)" stroke="var(--stroke-0, #720C10)" stroke-width="0.2"/>
<path id="_496633688" d="M29.4785 4.50351C29.7727 4.50362 30.0097 4.74138 30.0098 5.03476V8.17148C30.0096 8.46478 29.7726 8.70265 29.4785 8.70273H27.1709C26.8775 8.70271 26.6398 8.46503 26.6396 8.17148V5.03476C26.6396 4.74118 26.8774 4.50351 27.1709 4.50351H29.4785ZM27.7021 7.63926H28.9463V5.56601H27.7021V7.63926Z" fill="var(--fill-0, #720C10)" stroke="var(--stroke-0, #720C10)" stroke-width="0.2"/>
<path id="_496633664" d="M35.2772 4.50351C35.5705 4.50377 35.8084 4.74137 35.8085 5.03476V8.17148C35.8083 8.4648 35.5703 8.7025 35.2772 8.70273H32.9686C32.6753 8.7027 32.4375 8.46504 32.4374 8.17148V5.03476C32.4374 4.74119 32.6751 4.50351 32.9686 4.50351H35.2772ZM33.4999 7.63926H34.745V5.56601H33.4999V7.63926Z" fill="var(--fill-0, #720C10)" stroke="var(--stroke-0, #720C10)" stroke-width="0.2"/>
<path id="_496634000" d="M10.3918 14.1268C11.9352 14.1268 13.1906 15.3822 13.1906 16.9256C13.1906 17.2192 12.9527 17.4569 12.6594 17.4569C12.3653 17.4568 12.1283 17.219 12.1281 16.9256C12.1283 15.9687 11.349 15.1893 10.3918 15.1893C9.43467 15.1893 8.65547 15.9687 8.65547 16.9256C8.65557 17.5671 8.82456 17.9213 9.12226 18.1561C9.43123 18.3997 9.89209 18.5273 10.5148 18.6756C11.0896 18.8125 11.7608 18.9708 12.2853 19.3641C12.8187 19.764 13.1906 20.3982 13.1906 21.4598C13.1908 23.0033 11.9351 24.2587 10.3918 24.2587C8.84835 24.2586 7.59297 23.0033 7.59297 21.4598C7.59309 21.1662 7.83069 20.9286 8.12422 20.9286C8.41779 20.9285 8.65544 21.1663 8.65547 21.4598C8.65556 22.4168 9.4346 23.1952 10.3918 23.1952C11.349 23.1952 12.1281 22.4168 12.1281 21.4598C12.1282 20.8182 11.9592 20.4642 11.6613 20.2294C11.3522 19.9857 10.891 19.8582 10.2678 19.7098C9.6932 19.573 9.02254 19.4144 8.49824 19.0213C7.96513 18.6215 7.59304 17.9871 7.59297 16.9256C7.59307 15.3822 8.84828 14.1268 10.3918 14.1268Z" fill="var(--fill-0, #720C10)" stroke="var(--stroke-0, #720C10)" stroke-width="0.2"/>
<path id="_496634048" d="M10.3918 13.2594C10.6854 13.2593 10.923 13.4971 10.923 13.7906L10.924 14.6588C10.9238 14.9522 10.685 15.1901 10.3918 15.19C10.0983 15.1899 9.86066 14.9523 9.86052 14.6588V13.7906C9.86052 13.497 10.0982 13.2594 10.3918 13.2594Z" fill="var(--fill-0, #720C10)" stroke="var(--stroke-0, #720C10)" stroke-width="0.2"/>
<path id="_496633904" d="M10.3918 23.1959C10.6854 23.1959 10.923 23.4335 10.923 23.7272L10.924 24.5954C10.9238 24.8888 10.685 25.1266 10.3918 25.1266C10.0983 25.1265 9.8607 24.8888 9.86052 24.5954V23.7272C9.86052 23.4335 10.0982 23.196 10.3918 23.1959Z" fill="var(--fill-0, #720C10)" stroke="var(--stroke-0, #720C10)" stroke-width="0.2"/>
<path id="_496633592" d="M20.5319 8.27036C20.8255 8.27027 21.0641 8.508 21.0641 8.80161V20.1795C21.0641 20.4732 20.8253 20.7109 20.5319 20.7108H16.0494C15.7561 20.7108 15.5182 20.4732 15.5182 20.1795V8.80161C15.5182 8.50802 15.7559 8.27036 16.0494 8.27036L16.1569 8.2811C16.3995 8.33069 16.5807 8.54485 16.5807 8.80161V19.6483H20.0006V8.80161C20.0006 8.50814 20.2385 8.27051 20.5319 8.27036Z" fill="var(--fill-0, #720C10)" stroke="var(--stroke-0, #720C10)" stroke-width="0.2"/>
<path id="_496633880" d="M18.2906 0.900391C18.4808 0.900391 18.6565 1.00159 18.7516 1.16602L23.0064 8.53613C23.1013 8.70062 23.1013 8.90307 23.0064 9.06738C22.9115 9.23172 22.7356 9.3331 22.5455 9.33301H14.0357C13.8457 9.33291 13.6708 9.23165 13.5758 9.06738C13.4808 8.90285 13.4808 8.70065 13.5758 8.53613L17.8307 1.16602C17.9256 1.00158 18.1006 0.900456 18.2906 0.900391ZM14.9576 8.26953H21.6256L18.2906 2.49414L14.9576 8.26953Z" fill="var(--fill-0, #720C10)" stroke="var(--stroke-0, #720C10)" stroke-width="0.2"/>
<path id="_496633832" d="M10.3916 9.70141C12.5751 9.70133 14.708 10.4615 16.3984 11.843C16.6265 12.0289 16.6589 12.3638 16.4736 12.5911V12.592C16.2874 12.8187 15.9533 12.8526 15.7256 12.6672V12.6663C14.2253 11.4396 12.3303 10.7639 10.3916 10.7639C5.74399 10.7639 1.96299 14.5454 1.96289 19.1926C1.96289 23.84 5.74388 27.6212 10.3916 27.6213C14.705 27.6213 18.3069 24.3928 18.7705 20.1116C18.802 19.8198 19.0634 19.6083 19.3564 19.6399C19.6483 19.6714 19.8595 19.9346 19.8271 20.2268C19.3051 25.0486 15.2478 28.6849 10.3916 28.6848C5.15759 28.6846 0.900391 24.4265 0.900391 19.1926C0.900492 13.9588 5.15762 9.70151 10.3916 9.70141Z" fill="var(--fill-0, #720C10)" stroke="var(--stroke-0, #720C10)" stroke-width="0.2"/>
<path id="_496633856" d="M29.4785 9.72517C29.7727 9.72528 30.0097 9.96304 30.0098 10.2564V13.3931C30.0097 13.6865 29.7726 13.9243 29.4785 13.9244H27.1709C26.8775 13.9244 26.6397 13.6867 26.6396 13.3931V10.2564C26.6396 9.96279 26.8774 9.72517 27.1709 9.72517H29.4785ZM27.7021 12.8609H28.9463V10.7877H27.7021V12.8609Z" fill="var(--fill-0, #720C10)" stroke="var(--stroke-0, #720C10)" stroke-width="0.2"/>
<path id="_496633256" d="M35.2772 9.72517C35.5705 9.72543 35.8084 9.96303 35.8085 10.2564V13.3931C35.8084 13.6865 35.5703 13.9232 35.2772 13.9234V13.9244H32.9686C32.6753 13.9244 32.4374 13.6867 32.4374 13.3931V10.2564C32.4374 9.9628 32.6751 9.72517 32.9686 9.72517H35.2772ZM33.4999 12.8609H34.745V10.7877H33.4999V12.8609Z" fill="var(--fill-0, #720C10)" stroke="var(--stroke-0, #720C10)" stroke-width="0.2"/>
<path id="_496633208" d="M29.4785 14.947C29.7727 14.9471 30.0098 15.1847 30.0098 15.4782V18.6149C30.0096 18.9083 29.7725 19.1461 29.4785 19.1462H27.1709C26.8775 19.1462 26.6398 18.9084 26.6396 18.6149V15.4782C26.6396 15.1845 26.8774 14.947 27.1709 14.947H29.4785ZM27.7021 18.0827H28.9463V16.0095H27.7021V18.0827Z" fill="var(--fill-0, #720C10)" stroke="var(--stroke-0, #720C10)" stroke-width="0.2"/>
<path id="_496633064" d="M35.2772 14.947C35.5705 14.9472 35.8085 15.1847 35.8085 15.4782V18.6149C35.8083 18.9083 35.5703 19.145 35.2772 19.1452V19.1462H32.9686C32.6753 19.1462 32.4375 18.9084 32.4374 18.6149V15.4782C32.4374 15.1845 32.6751 14.947 32.9686 14.947H35.2772ZM33.4999 18.0827H34.745V16.0095H33.4999V18.0827Z" fill="var(--fill-0, #720C10)" stroke="var(--stroke-0, #720C10)" stroke-width="0.2"/>
<path id="_496633400" d="M33.8743 21.6074C34.1676 21.6076 34.4055 21.8452 34.4055 22.1386V28.1533C34.4054 28.4465 34.1674 28.6844 33.8743 28.6845C33.58 28.6845 33.3422 28.4466 33.342 28.1533V22.6699H29.1047V28.1533C29.1046 28.4099 28.9229 28.6241 28.6809 28.6738L28.5735 28.6845C28.2802 28.6844 28.0424 28.4467 28.0422 28.1533V22.1386C28.0422 21.845 28.28 21.6074 28.5735 21.6074H33.8743Z" fill="var(--fill-0, #720C10)" stroke="var(--stroke-0, #720C10)" stroke-width="0.2"/>
</g>
</svg>
