<svg preserveAspectRatio="none" width="100%" height="100%" overflow="visible" style="display: block;" viewBox="0 0 42 42" fill="none" xmlns="http://www.w3.org/2000/svg">
<g id="Layer_1">
<path id="Vector" d="M20.9999 4.94367C23.228 4.94367 25.3649 5.82819 26.9404 7.40363C28.5158 8.97908 29.4003 11.116 29.4003 13.3441C29.4003 14.3504 29.019 15.6013 28.4296 16.9359C27.8392 18.2728 27.0359 19.7045 26.1826 21.0765C24.5518 23.6982 22.7324 26.1078 21.8574 27.2347C27.8198 27.5394 33.0847 30.9991 35.7324 36.4349H35.7333C35.7584 36.4857 35.7727 36.5414 35.7763 36.598C35.7798 36.6544 35.7723 36.7115 35.7538 36.765C35.7354 36.8183 35.7064 36.8674 35.6689 36.9095C35.6312 36.9518 35.5852 36.9866 35.5341 37.0111L35.5331 37.0101C35.4751 37.0392 35.4116 37.0542 35.3466 37.054V37.055C35.2658 37.0552 35.1866 37.0325 35.1181 36.9896C35.0495 36.9466 34.9939 36.8848 34.9589 36.8118C34.1042 35.0553 32.9286 33.4743 31.4931 32.1497H26.2402C27.1819 33.488 27.9505 34.9402 28.5224 36.4739L28.5439 36.556C28.5572 36.6392 28.5462 36.7252 28.5107 36.803C28.4631 36.9069 28.3756 36.9878 28.2685 37.0277C28.1615 37.0674 28.0432 37.0634 27.9394 37.0159C27.8357 36.9684 27.7547 36.8816 27.7148 36.7747L27.4697 36.1517C26.8772 34.7258 26.1037 33.3815 25.1699 32.1497H16.829C15.7598 33.5587 14.9004 35.1154 14.2822 36.7728C14.252 36.8557 14.1974 36.9284 14.1249 36.9788C14.0526 37.0291 13.9659 37.0555 13.8779 37.055C13.8272 37.0545 13.7769 37.0453 13.7294 37.0277V37.0267C13.6765 37.0074 13.6274 36.9789 13.5859 36.9407C13.5441 36.9023 13.51 36.8556 13.4863 36.804C13.4626 36.7525 13.4501 36.6966 13.4482 36.64C13.4462 36.5832 13.4554 36.5261 13.4755 36.473C14.0473 34.9396 14.8153 33.4876 15.7568 32.1497H10.5068C9.07106 33.4745 7.89473 35.0559 7.03998 36.8128C7.01522 36.8635 6.98067 36.9092 6.93842 36.9466C6.89624 36.9839 6.84709 37.0122 6.79389 37.0306C6.74046 37.049 6.68331 37.0575 6.6269 37.054C6.57063 37.0505 6.51546 37.0358 6.46479 37.0111C6.41402 36.9863 6.36843 36.9518 6.331 36.9095C6.29355 36.8672 6.26542 36.8174 6.24701 36.764C6.22865 36.7106 6.22016 36.6543 6.22358 36.598C6.22701 36.5417 6.24189 36.4866 6.26654 36.4359C8.91223 30.9967 14.1782 27.5406 20.1396 27.2347C19.2636 26.1074 17.4462 23.697 15.8163 21.0755C14.9633 19.7035 14.1604 18.2717 13.5703 16.9349C12.9812 15.6004 12.5996 14.3498 12.5996 13.3441C12.5996 11.1161 13.4841 8.97907 15.0595 7.40363C16.6349 5.8282 18.7719 4.94369 20.9999 4.94367ZM22.4628 28.1312C23.635 29.054 24.6934 30.1132 25.6122 31.2894H30.4765C28.1601 29.4942 25.3806 28.3985 22.4628 28.1312ZM20.9999 28.14C20.4696 28.4899 19.0308 29.523 17.5253 31.2894H24.4804C22.9736 29.5203 21.5327 28.4894 20.9999 28.14ZM19.5439 28.1312C16.6262 28.3985 13.8465 29.494 11.5302 31.2894H16.3955C17.3141 30.1134 18.3719 29.0539 19.5439 28.1312ZM20.6269 5.81477C18.7641 5.90912 16.9969 6.69085 15.6718 8.01594C14.2586 9.42922 13.4633 11.3454 13.4609 13.3441L13.4658 13.5208C13.5102 14.4218 13.8834 15.5629 14.454 16.8089C15.0613 18.1348 15.8863 19.5683 16.7548 20.9398C18.4278 23.5814 20.2603 25.9843 20.9999 26.9329C21.7399 25.9844 23.5727 23.5815 25.246 20.9398C26.1147 19.5684 26.9395 18.1348 27.5468 16.8089C28.1555 15.4799 28.54 14.2704 28.54 13.3441L28.5302 12.97C28.4355 11.1075 27.6541 9.34079 26.329 8.01594C24.9154 6.60265 22.9989 5.80716 20.9999 5.805L20.6269 5.81477Z" fill="var(--fill-0, #720C10)" stroke="var(--stroke-0, #720C10)" stroke-width="0.2"/>
<path id="Vector_2" d="M20.9999 7.95586C22.3901 7.95586 23.7239 8.508 24.7069 9.49102C25.6897 10.474 26.242 11.8071 26.2421 13.1971V13.198C26.2366 14.0888 25.9999 14.9623 25.5575 15.7352C25.558 15.7483 25.5598 15.7828 25.5399 15.8172L25.5331 15.8299L25.5321 15.8289C25.516 15.8494 25.4959 15.8663 25.4764 15.8836C25.0155 16.6584 24.3626 17.3011 23.58 17.7488C22.8926 18.142 22.1259 18.3731 21.3388 18.4266L20.9999 18.4393C20.0947 18.4367 19.2055 18.1983 18.4198 17.7488C17.6387 17.3019 16.9857 16.6614 16.5253 15.8885C16.5038 15.8704 16.4838 15.8503 16.4667 15.8279L16.4589 15.8172L16.454 15.8055C16.4418 15.7761 16.4424 15.7475 16.4423 15.7381C16.4422 15.7366 16.4413 15.7352 16.4413 15.7342C15.9996 14.9615 15.7642 14.0883 15.7587 13.198V13.1971C15.7587 11.8069 16.3108 10.474 17.2938 9.49102C18.2768 8.50803 19.6097 7.95589 20.9999 7.95586ZM17.4432 15.7449C17.8075 16.2485 18.2741 16.6695 18.8143 16.9783C19.3544 17.287 19.9537 17.4756 20.5721 17.534V13.9412L17.4432 15.7449ZM21.4286 17.534C22.0465 17.4753 22.6459 17.2869 23.1854 16.9783C23.7248 16.6698 24.1897 16.2485 24.5536 15.7459L21.4286 13.9412V17.534ZM20.5721 8.85918C19.5119 8.96179 18.5241 9.44764 17.7958 10.2283C17.0431 11.0352 16.6228 12.0966 16.62 13.2C16.6235 13.8217 16.7633 14.434 17.0253 14.9969L20.5721 12.948V8.85918ZM21.4286 12.9461L24.9735 14.9939C25.2356 14.4309 25.3763 13.8189 25.3798 13.1971V13.1453C25.3634 12.0608 24.946 11.02 24.205 10.2264C23.4766 9.44631 22.4885 8.96153 21.4286 8.85918V12.9461Z" fill="var(--fill-0, #720C10)" stroke="var(--stroke-0, #720C10)" stroke-width="0.2"/>
</g>
</svg>
