<svg preserveAspectRatio="none" width="100%" height="100%" overflow="visible" style="display: block;" viewBox="0 0 81 145" fill="none" xmlns="http://www.w3.org/2000/svg">
<g id="Container">
<path id="Vector" d="M48.2895 133.62C42.1574 135.666 36.418 136.375 30.6395 134.132C26.2368 132.4 21.0086 127.835 19.8293 124.686C20.6549 124.568 21.4803 124.371 22.2665 124.293C25.5685 123.938 28.8705 123.427 32.2119 123.348C35.7106 123.23 38.9338 124.371 41.6463 126.654C43.5331 128.228 45.2628 130.039 47.0315 131.81C47.4641 132.203 47.7392 132.793 48.2895 133.62Z" fill="var(--fill-0, #720C10)"/>
<path id="Vector_2" d="M49.2957 132.33C49.0206 132.291 48.8634 132.291 48.7847 132.212C44.8537 128.788 41.198 125.088 40.2937 119.656C39.9401 117.491 39.9793 115.208 40.1759 113.004C40.451 110.21 41.1193 107.454 41.6304 104.699C41.7089 104.345 41.9449 104.03 42.1415 103.676C51.8509 110.485 54.2487 121.781 49.2957 132.33Z" fill="var(--fill-0, #720C10)"/>
<path id="Vector_3" d="M5.6925 103.791C5.88904 103.633 5.92836 103.594 5.96766 103.594C10.1345 103.712 14.3406 103.712 18.3895 104.775C21.9274 105.68 24.797 107.687 26.9197 110.678C28.0203 112.213 29.0425 113.826 30.0644 115.4C30.3789 115.912 30.5362 116.542 30.7721 117.132C20.1585 119.454 9.70208 114.574 5.6925 103.791Z" fill="var(--fill-0, #720C10)"/>
<path id="Vector_4" d="M31.9589 116.281C31.8016 116.202 31.5657 116.163 31.4478 116.044C29.0892 112.896 27.006 109.589 26.1804 105.653C25.4727 102.386 26.0625 99.2771 27.1632 96.2069C28.0673 93.6879 29.1286 91.2084 30.1114 88.7288C30.2292 88.4532 30.4259 88.1776 30.5831 87.9414C33.374 89.5946 36.5188 96.7975 36.8727 100.655C37.305 105.89 34.9071 113.683 31.9589 116.281Z" fill="var(--fill-0, #720C10)"/>
<path id="Vector_5" d="M28.0592 71.3223C32.6192 79.1941 27.5482 93.7573 19.0574 97.1031C18.9001 96.9062 18.6643 96.7487 18.625 96.5125C17.8388 93.3245 17.2098 90.1362 17.485 86.83C17.7208 83.8779 18.7822 81.2016 20.6691 78.9579C22.831 76.3604 25.2683 73.9594 27.5482 71.4797C27.6269 71.401 27.7841 71.401 28.0592 71.3223Z" fill="var(--fill-0, #720C10)"/>
<path id="Vector_6" d="M0.0726744 76.4395C4.08225 78.4076 8.36701 79.5884 11.7476 82.5009C14.1848 84.6265 15.7965 87.2634 16.5827 90.373C16.8972 91.7112 17.251 93.0495 17.4869 94.3877C17.6441 95.3323 17.6441 96.2769 17.7227 97.2215C14.3421 97.379 8.01323 94.1515 5.02569 90.7273C1.4878 86.7125 0.0333531 81.8712 0.0726744 76.4395Z" fill="var(--fill-0, #720C10)"/>
<path id="Vector_7" d="M14.2354 75.1816C14.1568 74.9061 13.9995 74.5911 13.9995 74.2764C13.9209 71.5212 13.9995 68.7659 14.7071 66.0894C15.3361 63.6884 16.5154 61.6024 18.2057 59.8311C21.036 56.8399 24.731 55.1473 27.9939 52.707C29.2124 54.7933 28.5441 60.5398 26.7751 64.5939C24.731 69.3171 19.0312 74.1583 14.2354 75.1816Z" fill="var(--fill-0, #720C10)"/>
<path id="Vector_8" d="M1.0637 51.4004C3.85469 53.7622 6.60637 55.8482 9.08288 58.2492C11.9918 61.0438 13.407 64.5861 13.3676 68.6794C13.3676 70.1358 13.3676 71.5528 13.289 73.0091C13.2497 73.7175 13.0532 74.3868 12.9352 75.0952C4.60159 73.442 -2.82795 58.9969 1.0637 51.4004Z" fill="var(--fill-0, #720C10)"/>
<path id="Vector_9" d="M26.5852 20.0736C26.4279 19.8768 26.3492 19.8374 26.3492 19.7981C26.5064 13.1069 28.3148 7.24224 34.6435 3.73919C37.0021 2.44032 39.3607 1.22016 41.7193 0C42.6627 1.968 41.6014 7.32095 39.6358 10.9027C37.1987 15.3897 31.3023 19.5619 26.5852 20.0736Z" fill="var(--fill-0, #720C10)"/>
<path id="Vector_10" d="M9.22344 29.7617C11.6606 32.9106 14.4123 35.5084 16.1026 38.9721C17.0068 40.8219 17.4392 42.79 17.3999 44.8367C17.2819 47.7887 16.653 50.5831 15.513 53.3384C8.08344 50.0716 4.50626 36.8073 9.22344 29.7617Z" fill="var(--fill-0, #720C10)"/>
<path id="Vector_11" d="M33.4484 36.2969C33.0946 45.6633 25.9403 53.0621 16.5845 53.5739C16.5452 53.4164 16.388 53.2195 16.4273 53.0621C17.41 46.2538 20.3189 40.8621 27.2373 38.5008C28.8885 37.9105 30.5394 37.2021 32.1905 36.5724C32.5835 36.415 33.0161 36.415 33.4484 36.2969Z" fill="var(--fill-0, #720C10)"/>
<path id="Vector_12" d="M39.9061 18.6933C38.6088 27.6269 32.162 33.8843 22.6491 34.1992C22.5704 34.0811 22.4131 33.963 22.4525 33.8843C23.16 30.2636 24.3787 26.8398 27.0124 24.1242C28.4276 22.6289 30.1966 21.6056 32.1226 20.9366C34.4027 20.1494 36.6825 19.4016 39.002 18.6933C39.1984 18.6539 39.4737 18.6933 39.9061 18.6933Z" fill="var(--fill-0, #720C10)"/>
<path id="Vector_13" d="M16.6391 10.9766C17.0715 11.134 17.2287 11.134 17.3073 11.2127C19.0369 13.7317 20.8845 16.2114 22.4175 18.8485C23.9899 21.525 24.3437 24.5164 23.5969 27.5864C23.0858 29.6724 22.6141 31.7587 21.5528 33.6478C19.43 32.9001 16.4032 28.9247 15.1453 25.1067C13.5336 20.2261 14.477 15.621 16.6391 10.9766Z" fill="var(--fill-0, #720C10)"/>
<path id="Vector_14" d="M80.8546 142.763C80.5007 144.061 79.5967 144.337 78.5353 144.219C75.8229 143.943 73.032 143.825 70.3589 143.314C63.5191 142.054 57.2295 139.378 51.5296 135.403C51.1757 135.167 50.8612 134.852 50.4683 134.498C50.6646 134.222 50.8221 134.026 51.0972 133.711C51.9226 134.183 52.6696 134.616 53.4558 135.088C58.9592 138.276 64.8949 140.244 71.1845 140.992C73.6609 141.267 76.1374 141.346 78.6138 141.503C79.5181 141.582 80.4616 141.503 80.8546 142.763Z" fill="var(--fill-0, #720C10)"/>
</g>
</svg>
