<svg preserveAspectRatio="none" width="100%" height="100%" overflow="visible" style="display: block;" viewBox="0 0 47 47" fill="none" xmlns="http://www.w3.org/2000/svg">
<g id="Group 73">
<rect id="Social Media Icon" opacity="0.1" width="46.3279" height="46.3279" fill="var(--fill-0, white)"/>
<path id="LinkedIn" d="M11.582 14.6954C11.582 13.9526 11.8429 13.3398 12.3646 12.857C12.8863 12.3742 13.5645 12.1328 14.3993 12.1328C15.2191 12.1328 15.8824 12.3705 16.3892 12.8459C16.9109 13.3361 17.1718 13.9749 17.1718 14.7623C17.1718 15.4754 16.9184 16.0696 16.4116 16.545C15.8899 17.0352 15.2042 17.2804 14.3545 17.2804H14.3322C13.5124 17.2804 12.849 17.0352 12.3422 16.545C11.8354 16.0547 11.582 15.4382 11.582 14.6954ZM11.8727 34.1937V19.3082H16.8364V34.1937H11.8727ZM19.5866 34.1937H24.5503V25.8819C24.5503 25.3619 24.6099 24.9608 24.7291 24.6785C24.9378 24.1734 25.2546 23.7463 25.6794 23.3972C26.1042 23.0481 26.6371 22.8736 27.2781 22.8736C28.9475 22.8736 29.7823 23.9952 29.7823 26.2384V34.1937H34.746V25.659C34.746 23.4604 34.2243 21.7928 33.1808 20.6563C32.1374 19.5199 30.7586 18.9516 29.0444 18.9516C27.1215 18.9516 25.6235 19.7761 24.5503 21.4251V21.4697H24.5279L24.5503 21.4251V19.3082H19.5866C19.6164 19.7835 19.6313 21.2617 19.6313 23.7426C19.6313 26.2235 19.6164 29.7072 19.5866 34.1937Z" fill="var(--fill-0, #720C10)"/>
</g>
</svg>
