<svg preserveAspectRatio="none" width="100%" height="100%" overflow="visible" style="display: block;" viewBox="0 0 21 20" fill="none" xmlns="http://www.w3.org/2000/svg">
<g id="Layer 51">
<path id="Vector" d="M19.8525 12.0353C19.6536 12.0353 19.4628 12.1143 19.3222 12.2549C19.1815 12.3956 19.1025 12.5864 19.1025 12.7853V15.3465C19.1025 15.9502 18.8627 16.5292 18.4358 16.9561C18.0089 17.3829 17.43 17.6228 16.8263 17.6228H3.77625C3.17255 17.6228 2.59358 17.3829 2.1667 16.9561C1.73982 16.5292 1.5 15.9502 1.5 15.3465V12.7853C1.5 12.5864 1.42098 12.3956 1.28033 12.2549C1.13968 12.1143 0.948912 12.0353 0.75 12.0353C0.551088 12.0353 0.360322 12.1143 0.21967 12.2549C0.0790177 12.3956 5.96046e-08 12.5864 5.96046e-08 12.7853V15.3465C0.000992841 16.3477 0.399165 17.3077 1.10713 18.0156C1.8151 18.7236 2.77503 19.1218 3.77625 19.1228H16.8263C17.8275 19.1218 18.7874 18.7236 19.4954 18.0156C20.2033 17.3077 20.6015 16.3477 20.6025 15.3465V12.7853C20.6025 12.5864 20.5235 12.3956 20.3828 12.2549C20.2422 12.1143 20.0514 12.0353 19.8525 12.0353Z" fill="var(--fill-0, #720C10)"/>
<path id="Vector_2" d="M6.55125 5.54776L9.55125 2.54776V13.6853C9.55125 13.8842 9.63027 14.0749 9.77092 14.2156C9.91157 14.3562 10.1023 14.4353 10.3013 14.4353C10.5002 14.4353 10.6909 14.3562 10.8316 14.2156C10.9722 14.0749 11.0513 13.8842 11.0513 13.6853V2.55901L14.0512 5.55901C14.1209 5.6287 14.2037 5.68397 14.2947 5.72168C14.3857 5.7594 14.4833 5.77881 14.5819 5.77881C14.6804 5.77881 14.778 5.7594 14.869 5.72168C14.9601 5.68397 15.0428 5.6287 15.1125 5.55901C15.1822 5.48933 15.2375 5.40661 15.2752 5.31556C15.3129 5.22452 15.3323 5.12694 15.3323 5.02839C15.3323 4.92984 15.3129 4.83226 15.2752 4.74122C15.2375 4.65017 15.1822 4.56745 15.1125 4.49776L10.8337 0.219015C10.7295 0.117888 10.6 0.0466514 10.4587 0.0127649C10.3374 -0.00957976 10.2124 -0.00251387 10.0943 0.0333707C9.97621 0.0692552 9.86843 0.132914 9.78 0.219015L5.50125 4.48651C5.38218 4.62979 5.32069 4.81225 5.32876 4.99837C5.33684 5.18449 5.41389 5.36095 5.54491 5.49338C5.67594 5.62581 5.85156 5.70473 6.03758 5.71479C6.22361 5.72484 6.40671 5.6653 6.55125 5.54776Z" fill="var(--fill-0, #720C10)"/>
</g>
</svg>
