<svg preserveAspectRatio="none" width="100%" height="100%" overflow="visible" style="display: block;" viewBox="0 0 18 18" fill="none" xmlns="http://www.w3.org/2000/svg">
<g id="Layer_1" clip-path="url(#clip0_0_48)">
<path id="Vector" fill-rule="evenodd" clip-rule="evenodd" d="M15.633 6.10475C15.8041 6.49632 15.9404 6.90297 16.0396 7.32006L17.4375 7.85813V10.1419L16.0393 10.6801C15.862 11.4251 15.5666 12.1366 15.1651 12.7887L15.7737 14.1588L14.1588 15.7737L12.7891 15.1654C12.1369 15.567 11.4251 15.8624 10.6799 16.0397L10.1419 17.4375H7.85816L7.31995 16.0393C6.57496 15.862 5.86346 15.5666 5.21139 15.1651L3.84117 15.7737L2.22634 14.1588L2.83472 12.7891C2.43306 12.137 2.13775 11.4251 1.96042 10.68L0.5625 10.1419V7.85813L1.96059 7.31996C2.05984 6.90293 2.19607 6.49635 2.36721 6.10485L3.75694 6.9589C3.51042 7.59168 3.375 8.28 3.375 9.00004C3.375 12.1069 5.89314 14.625 9 14.625C12.1069 14.625 14.625 12.1069 14.625 9.00004C14.625 8.28 14.4896 7.59164 14.243 6.95894L15.633 6.10475ZM3.13492 3.01493C3.05926 2.9809 2.98093 3.05923 3.01496 3.13489L3.51819 4.25409C3.53331 4.28773 3.52744 4.32493 3.50265 4.35224L2.6782 5.26117C2.62213 5.32298 2.67226 5.42138 2.75523 5.41234L3.97515 5.27963C4.01182 5.27562 4.04536 5.29274 4.06371 5.32477L4.67339 6.38972C4.71488 6.46214 4.82389 6.44488 4.84095 6.36318L5.09168 5.16196C5.0992 5.12586 5.12585 5.09921 5.16196 5.09168L6.36321 4.84095C6.44491 4.8239 6.46218 4.71484 6.38975 4.6734L5.3248 4.06372C5.29281 4.0454 5.27569 4.01182 5.2797 3.97516L5.41241 2.75523C5.42145 2.67227 5.32304 2.62213 5.26124 2.67821L4.35231 3.50262C4.32499 3.52741 4.28776 3.53331 4.25412 3.5182L3.13492 3.01493ZM14.9851 3.13492C15.0191 3.05927 14.9408 2.98094 14.8651 3.01497L13.7459 3.5182C13.7123 3.53331 13.6751 3.52741 13.6478 3.50262L12.7388 2.67821C12.677 2.62213 12.5786 2.67227 12.5877 2.75523L12.7204 3.97516C12.7244 4.01182 12.7073 4.0454 12.6753 4.06372L11.6103 4.6734C11.5379 4.71488 11.5552 4.8239 11.6369 4.84095L12.8381 5.09168C12.8742 5.09921 12.9008 5.12586 12.9084 5.16196L13.1591 6.36322C13.1762 6.44492 13.2852 6.46218 13.3267 6.38976L13.9363 5.32481C13.9546 5.29278 13.9882 5.27569 14.0249 5.27966L15.2448 5.41238C15.3278 5.42141 15.3779 5.32301 15.3218 5.26121L14.4974 4.35228C14.4726 4.32496 14.4668 4.28773 14.4818 4.25409L14.9851 3.13492ZM9.08483 0.620688L9.52038 1.76791C9.53346 1.8024 9.56394 1.82454 9.60078 1.82634L10.8264 1.88607C10.9098 1.89011 10.9439 1.99516 10.8789 2.04743L9.92239 2.8162C9.89364 2.83929 9.882 2.87512 9.89167 2.91073L10.2136 4.09486C10.2355 4.17541 10.1462 4.24031 10.0763 4.1946L9.04964 3.52248C9.01877 3.50227 8.98112 3.50227 8.95025 3.52248L7.92355 4.1946C7.85373 4.24031 7.7644 4.17541 7.7863 4.0949L8.10823 2.91077C8.11789 2.87519 8.10626 2.83933 8.0775 2.81623L7.12104 2.04747C7.056 1.99519 7.0901 1.89018 7.17346 1.8861L8.39914 1.82637C8.43599 1.82458 8.46647 1.80243 8.47955 1.76794L8.9151 0.620723C8.94459 0.543098 9.05541 0.543098 9.08483 0.620688ZM9 5.03164C8.06955 5.03164 7.31531 5.78591 7.31531 6.71632C7.31531 7.64674 8.06959 8.40101 9 8.40101C9.93041 8.40101 10.6847 7.64674 10.6847 6.71632C10.6847 5.78591 9.93045 5.03164 9 5.03164ZM6.06023 11.7261L11.9397 11.7261C12.0393 11.7261 12.125 11.6848 12.1871 11.6069C12.2492 11.529 12.2704 11.4363 12.2482 11.3392C11.9096 9.85785 10.5839 8.75257 9 8.75257C7.41604 8.75257 6.09033 9.85785 5.75177 11.3392C5.72959 11.4363 5.75072 11.529 5.8128 11.6069C5.87493 11.6848 5.96067 11.7261 6.06023 11.7261Z" fill="var(--fill-0, black)"/>
</g>
<defs>
<clipPath id="clip0_0_48">
<rect width="18" height="18" fill="white"/>
</clipPath>
</defs>
</svg>
