<svg preserveAspectRatio="none" width="100%" height="100%" overflow="visible" style="display: block;" viewBox="0 0 583 91" fill="none" xmlns="http://www.w3.org/2000/svg">
<path id="Union" d="M102.582 24.7002C114.082 24.7004 120.682 34.6004 120.682 47.7002C120.682 61.7002 112.381 72.2002 99.4814 72.2002C94.3816 72.2002 91.0818 71 87.3818 69V85.4004C87.3818 88.8004 89.3818 89.4004 96.8818 89.4004V90.6006H71.6816V89.4004C77.4816 89.3004 78.9814 88.8004 78.9814 85.4004V32C78.9813 29.0002 77.4814 27.0004 71.6816 26.9004V25.7002L87.1816 25.3008V32.2002C91.2816 27.8002 96.3821 24.7002 102.582 24.7002ZM155.707 24.7002C167.207 24.7004 173.807 34.6004 173.807 47.7002C173.807 61.7002 165.506 72.2002 152.606 72.2002C147.507 72.2002 144.207 71 140.507 69V85.4004C140.507 88.8004 142.507 89.4004 150.007 89.4004V90.6006H124.807V89.4004C130.607 89.3004 132.106 88.8004 132.106 85.4004V32C132.106 29.0002 130.606 27.0004 124.807 26.9004V25.7002L140.307 25.3008V32.2002C144.407 27.8002 149.507 24.7002 155.707 24.7002ZM33.3008 0C50.6006 0.00021631 66.6006 14.4006 66.6006 36.4004C66.6006 58.2002 50.1007 73.1004 33.3008 73.1006C15.9008 73.1006 0 58.7002 0 36.7002C9.78106e-05 14.9003 16.4008 0 33.3008 0ZM286.745 25.7002H300.945V28.7002H286.745V60.6006C286.745 66.8004 288.545 68.9004 292.445 68.9004C295.345 68.9002 298.545 66.8004 301.445 62.1006L302.545 62.9004C299.145 69.1004 294.545 72.5 289.045 72.5C281.345 72.5 278.345 68.1002 278.345 59.7002V28.7002H268.845V27.7002L278.345 25.4004V12.7002L286.745 9.10059V25.7002ZM456.667 25.7002H470.867V28.7002H456.667V60.6006C456.667 66.8004 458.467 68.9004 462.367 68.9004C465.267 68.9002 468.467 66.8004 471.367 62.1006L472.467 62.9004C469.067 69.1004 464.467 72.5 458.967 72.5C451.267 72.5 448.267 68.1002 448.267 59.7002V28.7002H438.767V27.7002L448.267 25.4004V12.7002L456.667 9.10059V25.7002ZM203.632 24.7002C215.732 24.7003 226.231 34.3004 226.231 48.2002C226.231 62.2001 215.232 72.2001 203.632 72.2002C191.332 72.2002 180.932 62.6005 180.932 48.6006C180.932 34.7006 191.932 24.7002 203.632 24.7002ZM524.8 24.7002C537.9 24.7003 544.4 34.1006 543.6 45.1006H512.5C512.4 46.0005 512.399 47.0004 512.399 47.9004V48C512.399 59.2 517.7 68.3008 528.5 68.3008C535 68.3006 538.6 65.0005 542.8 59.6006L543.899 60.4004C540.199 66.6003 534.9 72.2001 524.8 72.2002C511.9 72.2002 503.1 62.1004 503.1 48.9004C503.1 35.2004 513.3 24.7002 524.8 24.7002ZM580.766 39.2002H579.465C573.665 29.5007 571.165 26.5001 565.266 26.5C560.466 26.5 556.665 29.7004 556.665 34.4004C556.665 38.7004 560.566 41.1004 568.766 43.4004C578.665 46.2003 582.965 49.7004 582.965 57.2002C582.965 65.2002 578.065 72.2002 567.465 72.2002C563.765 72.2001 558.565 70.9006 555.365 68.8008L551.965 72.2002H550.865V56H552.165C558.565 67.4999 561.465 70.4003 568.665 70.4004C574.765 70.4004 577.865 66.0007 577.865 62.3008C577.865 57.5008 574.865 54.7006 565.365 52.1006C555.365 49.4006 551.065 46.2004 551.065 38.9004C551.065 30.8004 557.265 24.7003 567.165 24.7002C570.965 24.7002 574.965 26.1 577.365 27.5L579.665 24.7002H580.766V39.2002ZM347.646 66.6006C347.646 69.0004 349.146 70.2007 354.945 70.3008V71.4004H339.445V60.6006C334.845 68.2004 329.146 72.1006 322.346 72.1006C314.946 72.1006 310.246 67.6005 310.246 58.6006V31.8008C310.246 28.8008 308.646 27.0004 302.846 26.9004V25.7002L318.646 25.3008V55.6006C318.646 63.6003 320.846 67.8006 327.445 67.8008C332.345 67.8008 336.446 64 339.246 58V31.8008C339.246 28.8008 337.646 27.0004 331.846 26.9004V25.7002L347.646 25.3008V66.6006ZM260.676 24.8008C265.776 24.8009 267.976 28.0005 267.976 31.4004C267.976 34.6003 265.776 36.8006 262.676 36.8008C259.676 36.8008 257.275 34.8004 257.275 31.4004C257.275 30.6005 257.475 29.5008 257.775 28.8008C253.275 29.5008 250.875 32.5002 247.575 38V66.2002C247.575 69.6002 249.576 70.1002 255.976 70.2002V71.4004H231.875V70.2002C237.675 70.1002 239.176 69.6002 239.176 66.2002V32C239.176 29.0002 237.675 27.0004 231.875 26.9004V25.7002L247.375 25.3008V35.6006C251.075 28.9006 255.676 24.8008 260.676 24.8008ZM390.652 25C398.052 25.0002 402.752 29.5004 402.752 38.5V66.2002C402.752 69.6002 404.152 70.1002 410.052 70.2002V71.4004H387.952V70.2002C393.052 70.1002 394.352 69.6002 394.352 66.2002V41.2002C394.352 33.2003 392.152 29.3008 385.552 29.3008C380.652 29.3009 376.352 33.2003 373.552 39.2002V66.2002C373.552 69.6001 374.852 70.1002 379.852 70.2002V71.4004H357.852V70.2002C363.652 70.1002 365.152 69.6002 365.152 66.2002V32C365.152 29.0002 363.651 27.0004 357.852 26.9004V25.7002L373.352 25.3008V36.6006C377.952 29.0006 383.852 25 390.652 25ZM429.135 66.2002C429.135 69.6001 430.435 70.1002 436.734 70.2002V71.4004H413.435V70.2002C419.235 70.1002 420.734 69.6002 420.734 66.2002V32C420.734 29.0002 419.234 27.0004 413.435 26.9004V25.7002L429.135 25.3008V66.2002ZM490.268 66.2002C490.268 69.6001 491.568 70.1002 497.867 70.2002V71.4004H474.567V70.2002C480.367 70.1002 481.867 69.6002 481.867 66.2002V32C481.867 29.0002 480.367 27.0004 474.567 26.9004V25.7002L490.268 25.3008V66.2002ZM32.8008 1.90039C20.0008 1.90039 11.1007 9.60031 11.1006 36.5C11.1006 63.5999 20.9003 71.2001 33.7002 71.2002C46.5002 71.2002 55.5 63.5004 55.5 36.6006C55.5 9.50086 45.7006 1.90054 32.8008 1.90039ZM98.4814 28.3008C93.9815 28.3008 90.5818 30.5008 87.3818 34.3008V62C89.3818 67.9999 93.3815 70.4003 98.4814 70.4004C107.181 70.4004 111.382 62.4002 111.382 48.2002C111.382 37.3003 106.781 28.3008 98.4814 28.3008ZM151.606 28.3008C147.107 28.3008 143.707 30.5008 140.507 34.3008V62C142.507 67.9999 146.507 70.4003 151.606 70.4004C160.306 70.4004 164.507 62.4002 164.507 48.2002C164.507 37.3003 159.906 28.3008 151.606 28.3008ZM203.132 26.5C195.232 26.5 190.531 31.9004 190.531 48.4004C190.531 64.9001 196.031 70.4002 204.031 70.4004C211.831 70.4004 216.632 64.9004 216.632 48.4004C216.632 31.9005 211.132 26.5001 203.132 26.5ZM524.1 26.5C517.7 26.5 513.4 32.1003 512.5 43.5H534.199C535.099 32.7002 532.4 26.5 524.1 26.5ZM424.335 4.30078C427.635 4.30087 429.835 6.60028 429.835 10C429.835 13.3999 427.635 15.8007 424.335 15.8008C421.035 15.8008 418.835 13.6002 418.835 10.2002C418.835 6.80029 421.035 4.30078 424.335 4.30078ZM485.468 4.30078C488.768 4.30087 490.968 6.60028 490.968 10C490.968 13.3999 488.768 15.8007 485.468 15.8008C482.168 15.8008 479.968 13.6002 479.968 10.2002C479.968 6.80029 482.168 4.30078 485.468 4.30078Z" fill="var(--fill-0, #E0BD75)"/>
</svg>
