<svg preserveAspectRatio="none" width="100%" height="100%" overflow="visible" style="display: block;" viewBox="0 0 42 31" fill="none" xmlns="http://www.w3.org/2000/svg">
<g id="Layer 20">
<path id="Vector" d="M40.25 4.37329H37.625V2.62329C37.625 1.9271 37.3484 1.25942 36.8562 0.767136C36.3639 0.274853 35.6962 -0.00170898 35 -0.00170898H24.5C23.8208 -0.00170898 23.1509 0.156426 22.5434 0.460172C21.9359 0.763918 21.4075 1.20493 21 1.74829C20.5925 1.20493 20.0641 0.763918 19.4566 0.460172C18.8491 0.156426 18.1792 -0.00170898 17.5 -0.00170898H7C6.30381 -0.00170898 5.63613 0.274853 5.14384 0.767136C4.65156 1.25942 4.375 1.9271 4.375 2.62329V4.37329H1.75C1.28587 4.37329 0.840752 4.55767 0.512563 4.88585C0.184375 5.21404 0 5.65916 0 6.12329L0 28.8733C0 29.3374 0.184375 29.7825 0.512563 30.1107C0.840752 30.4389 1.28587 30.6233 1.75 30.6233H40.25C40.7141 30.6233 41.1592 30.4389 41.4874 30.1107C41.8156 29.7825 42 29.3374 42 28.8733V6.12329C42 5.65916 41.8156 5.21404 41.4874 4.88585C41.1592 4.55767 40.7141 4.37329 40.25 4.37329ZM24.5 1.74829H35C35.2321 1.74829 35.4546 1.84048 35.6187 2.00457C35.7828 2.16867 35.875 2.39123 35.875 2.62329V24.4983H21.875V4.37329C21.875 3.6771 22.1516 3.00942 22.6438 2.51714C23.1361 2.02485 23.8038 1.74829 24.5 1.74829ZM6.125 2.62329C6.125 2.39123 6.21719 2.16867 6.38128 2.00457C6.54538 1.84048 6.76794 1.74829 7 1.74829H17.5C18.1962 1.74829 18.8639 2.02485 19.3562 2.51714C19.8484 3.00942 20.125 3.6771 20.125 4.37329V24.4983H6.125V2.62329ZM40.25 28.8733H1.75V6.12329H4.375V25.3733C4.375 25.6054 4.46719 25.8279 4.63128 25.992C4.79538 26.1561 5.01794 26.2483 5.25 26.2483H36.75C36.9821 26.2483 37.2046 26.1561 37.3687 25.992C37.5328 25.8279 37.625 25.6054 37.625 25.3733V6.12329H40.25V28.8733Z" fill="var(--fill-0, #720C10)"/>
<path id="Vector_2" d="M25.3741 8.75171H32.3741C32.6062 8.75171 32.8288 8.65952 32.9929 8.49543C33.157 8.33133 33.2491 8.10877 33.2491 7.87671C33.2491 7.64464 33.157 7.42209 32.9929 7.25799C32.8288 7.0939 32.6062 7.00171 32.3741 7.00171H25.3741C25.1421 7.00171 24.9195 7.0939 24.7554 7.25799C24.5913 7.42209 24.4991 7.64464 24.4991 7.87671C24.4991 8.10877 24.5913 8.33133 24.7554 8.49543C24.9195 8.65952 25.1421 8.75171 25.3741 8.75171Z" fill="var(--fill-0, #720C10)"/>
<path id="Vector_3" d="M25.3741 12.2483H32.3741C32.6062 12.2483 32.8288 12.1561 32.9929 11.992C33.157 11.8279 33.2491 11.6054 33.2491 11.3733C33.2491 11.1412 33.157 10.9187 32.9929 10.7546C32.8288 10.5905 32.6062 10.4983 32.3741 10.4983H25.3741C25.1421 10.4983 24.9195 10.5905 24.7554 10.7546C24.5913 10.9187 24.4991 11.1412 24.4991 11.3733C24.4991 11.6054 24.5913 11.8279 24.7554 11.992C24.9195 12.1561 25.1421 12.2483 25.3741 12.2483Z" fill="var(--fill-0, #720C10)"/>
<path id="Vector_4" d="M25.3741 15.75H32.3741C32.6062 15.75 32.8288 15.6578 32.9929 15.4937C33.157 15.3296 33.2491 15.1071 33.2491 14.875C33.2491 14.6429 33.157 14.4204 32.9929 14.2563C32.8288 14.0922 32.6062 14 32.3741 14H25.3741C25.1421 14 24.9195 14.0922 24.7554 14.2563C24.5913 14.4204 24.4991 14.6429 24.4991 14.875C24.4991 15.1071 24.5913 15.3296 24.7554 15.4937C24.9195 15.6578 25.1421 15.75 25.3741 15.75Z" fill="var(--fill-0, #720C10)"/>
<path id="Vector_5" d="M25.3741 19.2517H32.3741C32.6062 19.2517 32.8288 19.1595 32.9929 18.9954C33.157 18.8313 33.2491 18.6088 33.2491 18.3767C33.2491 18.1446 33.157 17.9221 32.9929 17.758C32.8288 17.5939 32.6062 17.5017 32.3741 17.5017H25.3741C25.1421 17.5017 24.9195 17.5939 24.7554 17.758C24.5913 17.9221 24.4991 18.1446 24.4991 18.3767C24.4991 18.6088 24.5913 18.8313 24.7554 18.9954C24.9195 19.1595 25.1421 19.2517 25.3741 19.2517Z" fill="var(--fill-0, #720C10)"/>
<path id="Vector_6" d="M9.62415 8.75171H16.6241C16.8562 8.75171 17.0788 8.65952 17.2429 8.49543C17.407 8.33133 17.4991 8.10877 17.4991 7.87671C17.4991 7.64464 17.407 7.42209 17.2429 7.25799C17.0788 7.0939 16.8562 7.00171 16.6241 7.00171H9.62415C9.39208 7.00171 9.16952 7.0939 9.00543 7.25799C8.84133 7.42209 8.74915 7.64464 8.74915 7.87671C8.74915 8.10877 8.84133 8.33133 9.00543 8.49543C9.16952 8.65952 9.39208 8.75171 9.62415 8.75171Z" fill="var(--fill-0, #720C10)"/>
<path id="Vector_7" d="M9.62415 12.2483H16.6241C16.8562 12.2483 17.0788 12.1561 17.2429 11.992C17.407 11.8279 17.4991 11.6054 17.4991 11.3733C17.4991 11.1412 17.407 10.9187 17.2429 10.7546C17.0788 10.5905 16.8562 10.4983 16.6241 10.4983H9.62415C9.39208 10.4983 9.16952 10.5905 9.00543 10.7546C8.84133 10.9187 8.74915 11.1412 8.74915 11.3733C8.74915 11.6054 8.84133 11.8279 9.00543 11.992C9.16952 12.1561 9.39208 12.2483 9.62415 12.2483Z" fill="var(--fill-0, #720C10)"/>
<path id="Vector_8" d="M9.62415 15.75H16.6241C16.8562 15.75 17.0788 15.6578 17.2429 15.4937C17.407 15.3296 17.4991 15.1071 17.4991 14.875C17.4991 14.6429 17.407 14.4204 17.2429 14.2563C17.0788 14.0922 16.8562 14 16.6241 14H9.62415C9.39208 14 9.16952 14.0922 9.00543 14.2563C8.84133 14.4204 8.74915 14.6429 8.74915 14.875C8.74915 15.1071 8.84133 15.3296 9.00543 15.4937C9.16952 15.6578 9.39208 15.75 9.62415 15.75Z" fill="var(--fill-0, #720C10)"/>
<path id="Vector_9" d="M9.62415 19.2517H16.6241C16.8562 19.2517 17.0788 19.1595 17.2429 18.9954C17.407 18.8313 17.4991 18.6088 17.4991 18.3767C17.4991 18.1446 17.407 17.9221 17.2429 17.758C17.0788 17.5939 16.8562 17.5017 16.6241 17.5017H9.62415C9.39208 17.5017 9.16952 17.5939 9.00543 17.758C8.84133 17.9221 8.74915 18.1446 8.74915 18.3767C8.74915 18.6088 8.84133 18.8313 9.00543 18.9954C9.16952 19.1595 9.39208 19.2517 9.62415 19.2517Z" fill="var(--fill-0, #720C10)"/>
</g>
</svg>
