<svg preserveAspectRatio="none" width="100%" height="100%" overflow="visible" style="display: block;" viewBox="0 0 42 41" fill="none" xmlns="http://www.w3.org/2000/svg">
<g id="Group">
<path id="Vector" d="M7.0758 30.9295C13.3283 33.0165 19.9037 28.8052 20.6338 22.2637L21.1588 17.5643C23.2387 22.4128 28.7579 25.017 33.9387 23.2878C40.1912 21.2013 42.9181 13.8829 39.5742 8.2163L39.5646 8.19998C39.5639 8.19874 39.5633 8.1976 39.5626 8.19637C39.5626 8.1962 39.5624 8.19612 39.5623 8.19596L35.9102 2.00563C35.7828 1.79005 35.5213 1.69244 35.2847 1.77176L19.9399 6.89289C19.7021 6.97213 19.5522 7.20666 19.58 7.45571L20.3436 14.2906L5.72975 9.4133C5.49276 9.33365 5.23166 9.43135 5.10426 9.64717L1.44018 15.8578C-1.90744 21.5313 0.830026 28.8451 7.0758 30.9295ZM2.02169 17.0214C2.04064 16.983 2.05795 16.9441 2.07739 16.9059C4.50576 18.6585 7.42878 19.5669 10.9914 19.6796C11.015 19.6798 11.04 19.6792 11.064 19.6769C14.3161 19.3313 17.0917 20.2208 19.5435 22.3918C18.747 28.1433 12.9299 31.7626 7.41197 29.9215C2.07485 28.1402 -0.457126 22.0609 2.02169 17.0214ZM33.6025 22.2801C28.0823 24.1215 22.2664 20.502 21.471 14.7503C23.9227 12.5792 26.7009 11.69 29.9505 12.0353C29.9745 12.0376 29.9974 12.0382 30.0236 12.0381C33.5858 11.9252 36.5092 11.0166 38.937 9.26408C41.5063 14.303 39.0056 20.4767 33.6025 22.2801ZM35.2133 2.91569L38.4039 8.32335C36.1411 9.98735 33.3986 10.8626 30.0255 10.9749C26.7689 10.6384 23.8463 11.4878 21.3235 13.493L20.6836 7.76472L35.2133 2.91569ZM5.8012 10.5572L20.3309 15.4065L19.691 21.1347C17.1684 19.129 14.2463 18.279 10.9889 18.6166C7.6159 18.5044 4.87326 17.6291 2.61043 15.9651L5.8012 10.5572Z" fill="var(--fill-0, #720C10)"/>
<path id="Vector_2" d="M6.74103 31.9341C6.46007 31.8403 6.16123 31.9916 6.06862 32.2696L4.21791 37.8099L1.70439 36.9711C1.42548 36.8779 1.12541 37.0284 1.03239 37.3069C0.939448 37.5851 1.08965 37.8861 1.36814 37.9789L7.40671 39.9941C7.68184 40.0865 7.98487 39.9395 8.07871 39.6584C8.17165 39.38 8.02145 39.0791 7.74296 38.9864L5.22575 38.1463L7.07637 32.6062C7.16931 32.3279 7.01911 32.027 6.74103 31.9341Z" fill="var(--fill-0, #720C10)"/>
<path id="Vector_3" d="M39.9839 29.6677C39.8909 29.3894 39.5895 29.2381 39.3119 29.332L36.7983 30.1708L34.9475 24.6303C34.8546 24.3522 34.5549 24.2015 34.2751 24.2947C33.997 24.3876 33.8468 24.6886 33.9398 24.9668L35.7905 30.5071L33.2732 31.3472C32.9947 31.44 32.8444 31.7409 32.9375 32.0192C33.0311 32.3 33.3338 32.4475 33.6094 32.355L39.648 30.3397C39.9266 30.2469 40.0768 29.946 39.9839 29.6677Z" fill="var(--fill-0, #720C10)"/>
<path id="Vector_4" d="M14.1316 0.415399C13.8684 0.544926 13.7602 0.863453 13.89 1.12661L14.9953 3.36992C15.126 3.63496 15.4453 3.74095 15.7067 3.61166C15.9698 3.48214 16.0781 3.16361 15.9483 2.90045L14.843 0.657145C14.7131 0.393578 14.3948 0.284805 14.1316 0.415399Z" fill="var(--fill-0, #720C10)"/>
<path id="Vector_5" d="M19.382 0.361818L18.5776 2.72965C18.4834 3.00733 18.632 3.30904 18.9097 3.40346C19.1898 3.49853 19.4901 3.34702 19.5838 3.07123L20.3882 0.703397C20.4824 0.425721 20.3338 0.12401 20.0561 0.0295918C19.7763 -0.0648262 19.4762 0.0841427 19.382 0.361818Z" fill="var(--fill-0, #720C10)"/>
<path id="Vector_6" d="M10.8896 4.54657C10.6103 4.45174 10.3102 4.60137 10.2156 4.8788C10.1213 5.15647 10.27 5.45819 10.5476 5.5526L12.9155 6.357C13.1956 6.45208 13.4958 6.30056 13.5895 6.02478C13.6838 5.7471 13.5351 5.44539 13.2575 5.35097L10.8896 4.54657Z" fill="var(--fill-0, #720C10)"/>
</g>
</svg>
