<svg preserveAspectRatio="none" width="100%" height="100%" overflow="visible" style="display: block;" viewBox="0 0 39 41" fill="none" xmlns="http://www.w3.org/2000/svg">
<g id="Group">
<path id="Vector" d="M26.2302 39.876L25.574 37.251C25.5385 37.109 25.4566 36.983 25.3412 36.8929C25.2259 36.8029 25.0837 36.7539 24.9374 36.7539H20.9999V32.5145C22.3311 32.0939 23.4938 31.2604 24.3197 30.1348C25.1456 29.0092 25.5918 27.65 25.5936 26.2539V19.6914C25.5936 17.9509 24.9022 16.2817 23.6715 15.051C22.4408 13.8203 20.7716 13.1289 19.0311 13.1289C17.2907 13.1289 15.6215 13.8203 14.3908 15.051C13.1601 16.2817 12.4687 17.9509 12.4687 19.6914V26.2539C12.4705 27.65 12.9167 29.0092 13.7426 30.1348C14.5685 31.2604 15.7312 32.0939 17.0624 32.5145V36.7539H13.1249C12.9786 36.7539 12.8364 36.8029 12.7211 36.8929C12.6057 36.983 12.5238 37.109 12.4883 37.251L11.8321 39.876C11.8079 39.9728 11.8061 40.0737 11.8268 40.1713C11.8475 40.2688 11.8901 40.3604 11.9515 40.439C12.0128 40.5176 12.0913 40.5812 12.1809 40.6249C12.2705 40.6687 12.3689 40.6914 12.4687 40.6914H25.5936C25.6934 40.6914 25.7918 40.6687 25.8814 40.6249C25.971 40.5812 26.0495 40.5176 26.1108 40.439C26.1722 40.3604 26.2148 40.2688 26.2355 40.1713C26.2562 40.0737 26.2544 39.9728 26.2302 39.876ZM13.7812 26.2539H17.0624C17.2364 26.2539 17.4034 26.1848 17.5264 26.0617C17.6495 25.9386 17.7186 25.7717 17.7186 25.5977C17.7186 25.4236 17.6495 25.2567 17.5264 25.1336C17.4034 25.0105 17.2364 24.9414 17.0624 24.9414H13.7812V23.6289H17.0624C17.2364 23.6289 17.4034 23.5598 17.5264 23.4367C17.6495 23.3136 17.7186 23.1467 17.7186 22.9727C17.7186 22.7986 17.6495 22.6317 17.5264 22.5086C17.4034 22.3855 17.2364 22.3164 17.0624 22.3164H13.7812V21.0039H17.0624C17.2364 21.0039 17.4034 20.9348 17.5264 20.8117C17.6495 20.6886 17.7186 20.5217 17.7186 20.3477C17.7186 20.1736 17.6495 20.0067 17.5264 19.8836C17.4034 19.7605 17.2364 19.6914 17.0624 19.6914H13.7812C13.7812 18.299 14.3343 16.9637 15.3188 15.9791C16.3034 14.9945 17.6388 14.4414 19.0311 14.4414C20.4235 14.4414 21.7589 14.9945 22.7435 15.9791C23.728 16.9637 24.2811 18.299 24.2811 19.6914H20.9999C20.8259 19.6914 20.6589 19.7605 20.5359 19.8836C20.4128 20.0067 20.3436 20.1736 20.3436 20.3477C20.3436 20.5217 20.4128 20.6886 20.5359 20.8117C20.6589 20.9348 20.8259 21.0039 20.9999 21.0039H24.2811V22.3164H20.9999C20.8259 22.3164 20.6589 22.3855 20.5359 22.5086C20.4128 22.6317 20.3436 22.7986 20.3436 22.9727C20.3436 23.1467 20.4128 23.3136 20.5359 23.4367C20.6589 23.5598 20.8259 23.6289 20.9999 23.6289H24.2811V24.9414H20.9999C20.8259 24.9414 20.6589 25.0105 20.5359 25.1336C20.4128 25.2567 20.3436 25.4236 20.3436 25.5977C20.3436 25.7717 20.4128 25.9386 20.5359 26.0617C20.6589 26.1848 20.8259 26.2539 20.9999 26.2539H24.2811C24.2811 27.6463 23.728 28.9816 22.7435 29.9662C21.7589 30.9508 20.4235 31.5039 19.0311 31.5039C17.6388 31.5039 16.3034 30.9508 15.3188 29.9662C14.3343 28.9816 13.7812 27.6463 13.7812 26.2539ZM19.6874 32.8164V36.7539H18.3749V32.8164H19.6874ZM13.3095 39.3789L13.6376 38.0664H24.4247L24.7528 39.3789H13.3095Z" fill="var(--fill-0, #720C10)"/>
<path id="Vector_2" d="M35.7656 19.0329H35.4375V18.7047C35.4371 18.2697 35.2641 17.8527 34.9565 17.5451C34.6489 17.2375 34.2319 17.0645 33.7969 17.0641H32.8125V13.7829C32.8174 11.9723 32.4632 10.1788 31.7705 8.50602C31.0777 6.83325 30.0601 5.31447 28.7766 4.03754C27.9632 3.22482 27.052 2.51637 26.0638 1.92852C25.0063 1.29996 23.869 0.816824 22.6825 0.492152C20.6368 -0.0705083 18.4889 -0.153164 16.406 0.250626C14.3232 0.654417 12.3618 1.53375 10.6746 2.82007C8.98739 4.1064 7.62005 5.76498 6.67913 7.66653C5.73821 9.56809 5.24912 11.6612 5.25 13.7829V17.0641H4.26562C3.83064 17.0645 3.41359 17.2375 3.10601 17.5451C2.79842 17.8527 2.62543 18.2697 2.625 18.7047V19.0329H2.29688C1.68791 19.0335 1.10408 19.2757 0.673482 19.7063C0.242881 20.1369 0.000673091 20.7208 0 21.3297V25.9235C0.000673091 26.5324 0.242881 27.1163 0.673482 27.5469C1.10408 27.9775 1.68791 28.2197 2.29688 28.2204H2.625V28.5485C2.62543 28.9835 2.79842 29.4005 3.10601 29.7081C3.41359 30.0157 3.83064 30.1887 4.26562 30.1891H7.54688C7.98186 30.1887 8.39891 30.0157 8.70649 29.7081C9.01408 29.4005 9.18707 28.9835 9.1875 28.5485V18.7047C9.18707 18.2697 9.01408 17.8527 8.70649 17.5451C8.39891 17.2375 7.98186 17.0645 7.54688 17.0641H6.5625V13.7829C6.56094 11.7046 7.07964 9.65896 8.07131 7.83253C9.06297 6.0061 10.4961 4.45695 12.2399 3.32633L13.805 4.89149C13.9032 4.98953 14.0299 5.05394 14.167 5.07546C14.3041 5.09698 14.4444 5.0745 14.5679 5.01125C15.9502 4.30651 17.4797 3.93911 19.0312 3.93911C20.5828 3.93911 22.1123 4.30651 23.4946 5.01125C23.6181 5.07441 23.7584 5.09684 23.8955 5.07533C24.0325 5.05381 24.1592 4.98946 24.2575 4.89149L25.8234 3.32633C26.5534 3.80112 27.2319 4.35069 27.848 4.96614C29.0094 6.12131 29.9302 7.49535 30.557 9.00873C31.1839 10.5221 31.5044 12.1448 31.5 13.7829V17.0641H30.5156C30.0806 17.0645 29.6636 17.2375 29.356 17.5451C29.0484 17.8527 28.8754 18.2697 28.875 18.7047V28.5485C28.8754 28.9835 29.0484 29.4005 29.356 29.7081C29.6636 30.0157 30.0806 30.1887 30.5156 30.1891H33.7969C34.2319 30.1887 34.6489 30.0157 34.9565 29.7081C35.2641 29.4005 35.4371 28.9835 35.4375 28.5485V28.2204H35.7656C36.3746 28.2197 36.9584 27.9775 37.389 27.5469C37.8196 27.1163 38.0618 26.5324 38.0625 25.9235V21.3297C38.0618 20.7208 37.8196 20.1369 37.389 19.7063C36.9584 19.2757 36.3746 19.0335 35.7656 19.0329ZM2.625 26.9079H2.29688C2.03587 26.9076 1.78562 26.8039 1.60106 26.6193C1.4165 26.4347 1.31272 26.1845 1.3125 25.9235V21.3297C1.31272 21.0687 1.4165 20.8185 1.60106 20.6339C1.78562 20.4494 2.03587 20.3456 2.29688 20.3454H2.625V26.9079ZM7.54688 18.3766C7.6339 18.3766 7.71736 18.4112 7.77889 18.4727C7.84043 18.5342 7.875 18.6177 7.875 18.7047V28.5485C7.875 28.6355 7.84043 28.719 7.77889 28.7805C7.71736 28.842 7.6339 28.8766 7.54688 28.8766H4.26562C4.1786 28.8766 4.09514 28.842 4.03361 28.7805C3.97207 28.719 3.9375 28.6355 3.9375 28.5485V18.7047C3.9375 18.6177 3.97207 18.5342 4.03361 18.4727C4.09514 18.4112 4.1786 18.3766 4.26562 18.3766H7.54688ZM23.6595 3.63313C22.2067 2.96986 20.6283 2.6266 19.0312 2.6266C17.4342 2.6266 15.8558 2.96986 14.403 3.63313L13.417 2.64711C15.1587 1.77062 17.0814 1.3141 19.0312 1.3141C20.9811 1.3141 22.9038 1.77062 24.6455 2.64711L23.6595 3.63313ZM34.125 28.5485C34.125 28.6355 34.0904 28.719 34.0289 28.7805C33.9674 28.842 33.8839 28.8766 33.7969 28.8766H30.5156C30.4286 28.8766 30.3451 28.842 30.2836 28.7805C30.2221 28.719 30.1875 28.6355 30.1875 28.5485V18.7047C30.1875 18.6177 30.2221 18.5342 30.2836 18.4727C30.3451 18.4112 30.4286 18.3766 30.5156 18.3766H33.7969C33.8839 18.3766 33.9674 18.4112 34.0289 18.4727C34.0904 18.5342 34.125 18.6177 34.125 18.7047V28.5485ZM36.75 25.9235C36.7498 26.1845 36.646 26.4347 36.4614 26.6193C36.2769 26.8039 36.0266 26.9076 35.7656 26.9079H35.4375V20.3454H35.7656C36.0266 20.3456 36.2769 20.4494 36.4614 20.6339C36.646 20.8185 36.7498 21.0687 36.75 21.3297V25.9235Z" fill="var(--fill-0, #720C10)"/>
</g>
</svg>
