<svg preserveAspectRatio="none" width="100%" height="100%" overflow="visible" style="display: block;" viewBox="0 0 42 42" fill="none" xmlns="http://www.w3.org/2000/svg">
<g id="Layer_1" clip-path="url(#clip0_0_43)">
<path id="Vector" d="M39.375 0H2.625C1.92905 0.000781629 1.26182 0.277594 0.769708 0.769708C0.277594 1.26182 0.000781629 1.92905 0 2.625L0 28.875C0 29.2231 0.138281 29.5569 0.384422 29.8031C0.630564 30.0492 0.964403 30.1875 1.3125 30.1875H7.05469V28.875H1.3125V27.5625H7.28442C7.45661 27.0782 7.72203 26.6323 8.06568 26.25H3.28125V24.9375H38.7188V26.25H33.6062C33.9498 26.6323 34.2153 27.0782 34.3874 27.5625H40.6875V28.875H34.6172V30.1875H40.6875C41.0356 30.1875 41.3694 30.0492 41.6156 29.8031C41.8617 29.5569 42 29.2231 42 28.875V2.625C41.9992 1.92905 41.7224 1.26182 41.2303 0.769708C40.7382 0.277594 40.071 0.000781629 39.375 0ZM36.9141 23.625H5.08594V22.3125H36.9141V23.625ZM40.6875 26.25H40.0312V24.9375C40.0312 24.5894 39.893 24.2556 39.6468 24.0094C39.4007 23.7633 39.0668 23.625 38.7188 23.625H38.2266V22.3125C38.2266 21.9644 38.0883 21.6306 37.8421 21.3844C37.596 21.1383 37.2622 21 36.9141 21H5.08594C4.73784 21 4.404 21.1383 4.15786 21.3844C3.91172 21.6306 3.77344 21.9644 3.77344 22.3125V23.625H3.28125C2.93315 23.625 2.59931 23.7633 2.35317 24.0094C2.10703 24.2556 1.96875 24.5894 1.96875 24.9375V26.25H1.3125V2.625C1.3125 2.2769 1.45078 1.94306 1.69692 1.69692C1.94306 1.45078 2.2769 1.3125 2.625 1.3125H39.375C39.7231 1.3125 40.0569 1.45078 40.3031 1.69692C40.5492 1.94306 40.6875 2.2769 40.6875 2.625V26.25Z" fill="var(--fill-0, #720C10)"/>
<path id="Vector_2" d="M10.9922 31.5H4.42969C3.73373 31.5008 3.06651 31.7776 2.5744 32.2697C2.08228 32.7618 1.80547 33.429 1.80469 34.125V40.6875C1.80469 41.0356 1.94297 41.3694 2.18911 41.6156C2.43525 41.8617 2.76909 42 3.11719 42H12.3047C12.6528 42 12.9866 41.8617 13.2328 41.6156C13.4789 41.3694 13.6172 41.0356 13.6172 40.6875V34.125C13.6164 33.429 13.3396 32.7618 12.8475 32.2697C12.3554 31.7776 11.6881 31.5008 10.9922 31.5ZM12.3047 40.6875H3.11719V34.125C3.11719 33.7769 3.25547 33.4431 3.50161 33.1969C3.74775 32.9508 4.08159 32.8125 4.42969 32.8125H10.9922C11.3403 32.8125 11.6741 32.9508 11.9203 33.1969C12.1664 33.4431 12.3047 33.7769 12.3047 34.125V40.6875Z" fill="var(--fill-0, #720C10)"/>
<path id="Vector_3" d="M24.1172 31.5H17.5547C16.8587 31.5008 16.1915 31.7776 15.6994 32.2697C15.2073 32.7618 14.9305 33.429 14.9297 34.125V40.6875C14.9297 41.0356 15.068 41.3694 15.3141 41.6156C15.5603 41.8617 15.8941 42 16.2422 42H25.4297C25.7778 42 26.1116 41.8617 26.3578 41.6156C26.6039 41.3694 26.7422 41.0356 26.7422 40.6875V34.125C26.7414 33.429 26.4646 32.7618 25.9725 32.2697C25.4804 31.7776 24.8131 31.5008 24.1172 31.5ZM25.4297 40.6875H16.2422V34.125C16.2422 33.7769 16.3805 33.4431 16.6266 33.1969C16.8728 32.9508 17.2066 32.8125 17.5547 32.8125H24.1172C24.4653 32.8125 24.7991 32.9508 25.0453 33.1969C25.2914 33.4431 25.4297 33.7769 25.4297 34.125V40.6875Z" fill="var(--fill-0, #720C10)"/>
<path id="Vector_4" d="M37.5703 31.5H31.0078C30.3119 31.5008 29.6446 31.7776 29.1525 32.2697C28.6604 32.7618 28.3836 33.429 28.3828 34.125V40.6875C28.3828 41.0356 28.5211 41.3694 28.7672 41.6156C29.0134 41.8617 29.3472 42 29.6953 42H38.8828C39.2309 42 39.5647 41.8617 39.8109 41.6156C40.057 41.3694 40.1953 41.0356 40.1953 40.6875V34.125C40.1945 33.429 39.9177 32.7618 39.4256 32.2697C38.9335 31.7776 38.2663 31.5008 37.5703 31.5ZM38.8828 40.6875H29.6953V34.125C29.6953 33.7769 29.8336 33.4431 30.0797 33.1969C30.3259 32.9508 30.6597 32.8125 31.0078 32.8125H37.5703C37.9184 32.8125 38.2522 32.9508 38.4984 33.1969C38.7445 33.4431 38.8828 33.7769 38.8828 34.125V40.6875Z" fill="var(--fill-0, #720C10)"/>
<path id="Vector_5" d="M33.3047 30.1875V28.875C33.3039 28.179 33.0271 27.5118 32.535 27.0197C32.0429 26.5276 31.3756 26.2508 30.6797 26.25H24.1172C23.4212 26.2508 22.754 26.5276 22.2619 27.0197C21.7698 27.5118 21.493 28.179 21.4922 28.875V30.1875H22.8047V28.875C22.8047 28.5269 22.943 28.1931 23.1891 27.9469C23.4353 27.7008 23.7691 27.5625 24.1172 27.5625H30.6797C31.0278 27.5625 31.3616 27.7008 31.6078 27.9469C31.8539 28.1931 31.9922 28.5269 31.9922 28.875V30.1875H33.3047Z" fill="var(--fill-0, #720C10)"/>
<path id="Vector_6" d="M20.1797 30.1875V28.875C20.1789 28.179 19.9021 27.5118 19.41 27.0197C18.9179 26.5276 18.2506 26.2508 17.5547 26.25H10.9922C10.2962 26.2508 9.62902 26.5276 9.1369 27.0197C8.64479 27.5118 8.36798 28.179 8.36719 28.875V30.1875H9.67969V28.875C9.67969 28.5269 9.81797 28.1931 10.0641 27.9469C10.3103 27.7008 10.6441 27.5625 10.9922 27.5625H17.5547C17.9028 27.5625 18.2366 27.7008 18.4828 27.9469C18.7289 28.1931 18.8672 28.5269 18.8672 28.875V30.1875H20.1797Z" fill="var(--fill-0, #720C10)"/>
</g>
<defs>
<clipPath id="clip0_0_43">
<rect width="42" height="42" fill="white"/>
</clipPath>
</defs>
</svg>
