<svg preserveAspectRatio="none" width="100%" height="100%" overflow="visible" style="display: block;" viewBox="0 0 42 42" fill="none" xmlns="http://www.w3.org/2000/svg">
<g id="Outline">
<path id="Vector" d="M18.7267 10.2596C18.5673 10.3232 18.4392 10.4466 18.3697 10.6035C18.3002 10.7604 18.2949 10.9382 18.355 11.099C18.4151 11.2597 18.5357 11.3905 18.6911 11.4634C18.8464 11.5362 19.0241 11.5454 19.1861 11.4888C20.3535 11.051 21.6399 11.051 22.8073 11.4888C22.9693 11.5454 23.147 11.5362 23.3024 11.4634C23.4577 11.3905 23.5784 11.2597 23.6384 11.099C23.6985 10.9382 23.6932 10.7604 23.6237 10.6035C23.5542 10.4466 23.4261 10.3232 23.2667 10.2596C21.8029 9.71196 20.1905 9.71196 18.7267 10.2596Z" fill="var(--fill-0, #720C10)"/>
<path id="Vector_2" d="M24.9236 8.8415C25.0707 8.84167 25.2136 8.79241 25.3294 8.70163C25.4451 8.61085 25.527 8.48382 25.5619 8.34091C25.5968 8.19801 25.5827 8.04753 25.5218 7.91362C25.4609 7.77971 25.3568 7.67014 25.2262 7.6025C23.9202 6.9259 22.4708 6.57275 20.9999 6.57275C19.5291 6.57275 18.0797 6.9259 16.7737 7.6025C16.6223 7.68426 16.5091 7.82219 16.4584 7.98658C16.4078 8.15098 16.4237 8.3287 16.5027 8.48148C16.5818 8.63427 16.7177 8.7499 16.8812 8.80349C17.0446 8.85708 17.2226 8.84433 17.3768 8.768C18.4965 8.18815 19.739 7.88552 20.9999 7.88552C22.2609 7.88552 23.5034 8.18815 24.6231 8.768C24.7159 8.81635 24.819 8.84156 24.9236 8.8415Z" fill="var(--fill-0, #720C10)"/>
<path id="Vector_3" d="M26.7685 6.20774C26.9118 6.20794 27.0513 6.16121 27.1656 6.07469C27.2798 5.98818 27.3626 5.86663 27.4013 5.72863C27.44 5.59062 27.4324 5.44375 27.3798 5.31044C27.3272 5.17714 27.2323 5.06473 27.1098 4.9904C25.2693 3.8692 23.1558 3.27612 21.0007 3.27612C18.8457 3.27612 16.7322 3.8692 14.8917 4.9904C14.818 5.03513 14.7539 5.09393 14.7029 5.16345C14.652 5.23297 14.6152 5.31185 14.5947 5.39557C14.5742 5.4793 14.5705 5.56625 14.5836 5.65144C14.5967 5.73663 14.6265 5.8184 14.6712 5.89209C14.7159 5.96577 14.7747 6.02992 14.8443 6.08088C14.9138 6.13184 14.9927 6.16861 15.0764 6.18908C15.1601 6.20956 15.2471 6.21334 15.3323 6.20021C15.4174 6.18709 15.4992 6.15731 15.5729 6.11259C17.208 5.116 19.0859 4.58881 21.0007 4.58881C22.9156 4.58881 24.7935 5.116 26.4286 6.11259C26.5311 6.17476 26.6486 6.20767 26.7685 6.20774Z" fill="var(--fill-0, #720C10)"/>
<path id="Vector_4" d="M37.4062 13.1301H4.59375C3.72383 13.1312 2.88983 13.4772 2.27471 14.0923C1.65958 14.7075 1.31354 15.5415 1.3125 16.4114V23.6301C1.31354 24.5 1.65958 25.334 2.27471 25.9492C2.88983 26.5643 3.72383 26.9103 4.59375 26.9114H37.4062C38.2762 26.9103 39.1102 26.5643 39.7253 25.9492C40.3404 25.334 40.6865 24.5 40.6875 23.6301V16.4114C40.6865 15.5415 40.3404 14.7075 39.7253 14.0923C39.1102 13.4772 38.2762 13.1312 37.4062 13.1301ZM20.3438 23.6301V25.5989H13.7812V23.6301H20.3438ZM28.2188 23.6301V25.5989H21.6562V23.6301H28.2188ZM12.4688 25.5989H5.90625V24.2864C5.90625 24.1123 5.97539 23.9454 6.09846 23.8223C6.22153 23.6993 6.38845 23.6301 6.5625 23.6301H12.4688V25.5989ZM29.5312 25.5989V23.6301H35.4375C35.6115 23.6301 35.7785 23.6993 35.9015 23.8223C36.0246 23.9454 36.0938 24.1123 36.0938 24.2864V25.5989H29.5312ZM39.375 23.6301C39.375 24.1523 39.1676 24.653 38.7984 25.0222C38.4292 25.3915 37.9284 25.5989 37.4062 25.5989V24.2864C37.4062 23.7642 37.1988 23.2635 36.8296 22.8943C36.4604 22.525 35.9596 22.3176 35.4375 22.3176H6.5625C6.04036 22.3176 5.5396 22.525 5.17038 22.8943C4.80117 23.2635 4.59375 23.7642 4.59375 24.2864V25.5989C4.07161 25.5989 3.57085 25.3915 3.20163 25.0222C2.83242 24.653 2.625 24.1523 2.625 23.6301V16.4114C2.625 15.8892 2.83242 15.3885 3.20163 15.0193C3.57085 14.65 4.07161 14.4426 4.59375 14.4426H37.4062C37.9284 14.4426 38.4292 14.65 38.7984 15.0193C39.1676 15.3885 39.375 15.8892 39.375 16.4114V23.6301Z" fill="var(--fill-0, #720C10)"/>
<path id="Vector_5" d="M20.9996 28.8801C20.8256 28.8801 20.6587 28.9493 20.5356 29.0723C20.4125 29.1954 20.3434 29.3623 20.3434 29.5364V36.4834L18.8386 34.9787C18.7148 34.8591 18.5491 34.793 18.377 34.7945C18.2049 34.796 18.0403 34.865 17.9187 34.9867C17.797 35.1083 17.728 35.2729 17.7265 35.445C17.725 35.6171 17.7911 35.7828 17.9107 35.9066L20.5357 38.5316C20.6587 38.6546 20.8256 38.7237 20.9996 38.7237C21.1736 38.7237 21.3405 38.6546 21.4636 38.5316L24.0886 35.9066C24.2081 35.7828 24.2743 35.6171 24.2728 35.445C24.2713 35.2729 24.2023 35.1083 24.0806 34.9867C23.9589 34.865 23.7943 34.796 23.6223 34.7945C23.4502 34.793 23.2844 34.8591 23.1607 34.9787L21.6559 36.4834V29.5364C21.6559 29.3623 21.5867 29.1954 21.4637 29.0723C21.3406 28.9493 21.1737 28.8801 20.9996 28.8801Z" fill="var(--fill-0, #720C10)"/>
<path id="Vector_6" d="M28.8406 29.3242C28.7854 29.1589 28.6668 29.0222 28.5109 28.9443C28.355 28.8664 28.1745 28.8536 28.0091 28.9088C27.8438 28.964 27.7071 29.0826 27.6292 29.2385C27.5513 29.3944 27.5386 29.5749 27.5937 29.7403C27.6462 29.8984 28.8117 33.2742 31.6953 34.4613L29.8972 35.2626C29.8184 35.2977 29.7474 35.3479 29.6881 35.4105C29.6288 35.473 29.5824 35.5466 29.5515 35.6271C29.5206 35.7075 29.5059 35.7933 29.5082 35.8794C29.5105 35.9656 29.5297 36.0505 29.5648 36.1292C29.5999 36.2079 29.6501 36.279 29.7126 36.3383C29.7752 36.3976 29.8488 36.444 29.9292 36.4749C30.0097 36.5057 30.0955 36.5204 30.1816 36.5182C30.2678 36.5159 30.3526 36.4967 30.4314 36.4616L33.8229 34.9522C33.9016 34.9171 33.9726 34.8668 34.032 34.8043C34.0913 34.7417 34.1377 34.668 34.1685 34.5875C34.1993 34.507 34.214 34.4212 34.2117 34.3351C34.2093 34.2489 34.1901 34.164 34.1549 34.0853L32.6455 30.6944C32.6125 30.6128 32.5634 30.5386 32.5011 30.4764C32.4388 30.4141 32.3646 30.365 32.2829 30.332C32.2012 30.299 32.1137 30.2828 32.0257 30.2844C31.9376 30.2859 31.8507 30.3052 31.7703 30.341C31.6898 30.3769 31.6174 30.4285 31.5573 30.4929C31.4972 30.5574 31.4507 30.6332 31.4206 30.716C31.3904 30.7987 31.3772 30.8867 31.3818 30.9747C31.3864 31.0627 31.4086 31.1488 31.4472 31.228L32.3811 33.328C29.9208 32.4427 28.8524 29.3577 28.8406 29.3242Z" fill="var(--fill-0, #720C10)"/>
<path id="Vector_7" d="M10.2179 30.3658C10.0589 30.295 9.87833 30.2904 9.71588 30.3528C9.55344 30.4152 9.42242 30.5395 9.35165 30.6985L7.84228 34.0893C7.80714 34.1681 7.78785 34.2529 7.78552 34.3391C7.78319 34.4253 7.79786 34.5111 7.8287 34.5916C7.85954 34.6721 7.90593 34.7457 7.96524 34.8083C8.02455 34.8709 8.0956 34.9211 8.17434 34.9562L11.5658 36.4656C11.6446 36.5007 11.7294 36.5199 11.8156 36.5222C11.9017 36.5245 11.9875 36.5098 12.068 36.4789C12.1484 36.448 12.222 36.4016 12.2846 36.3423C12.3471 36.283 12.3973 36.2119 12.4324 36.1332C12.4675 36.0545 12.4867 35.9696 12.489 35.8835C12.4913 35.7973 12.4766 35.7116 12.4457 35.6311C12.4148 35.5506 12.3684 35.477 12.3091 35.4145C12.2498 35.352 12.1788 35.3017 12.1 35.2666L10.3026 34.466C13.1861 33.2789 14.3516 29.9031 14.4041 29.745C14.4592 29.5796 14.4464 29.3992 14.3684 29.2433C14.2904 29.0874 14.1537 28.9689 13.9884 28.9138C13.823 28.8587 13.6426 28.8716 13.4867 28.9495C13.3308 29.0275 13.2123 29.1642 13.1572 29.3296C13.1454 29.363 12.0889 32.4481 9.6135 33.3327L10.5473 31.2327C10.6185 31.074 10.6237 30.8936 10.562 30.7311C10.5002 30.5685 10.3765 30.4371 10.2179 30.3658Z" fill="var(--fill-0, #720C10)"/>
<path id="Vector_8" d="M22.9688 19.6926H19.0312C18.8572 19.6926 18.6903 19.7618 18.5672 19.8848C18.4441 20.0079 18.375 20.1748 18.375 20.3489C18.375 20.5229 18.4441 20.6898 18.5672 20.8129C18.6903 20.936 18.8572 21.0051 19.0312 21.0051H22.9688C23.1428 21.0051 23.3097 20.936 23.4328 20.8129C23.5559 20.6898 23.625 20.5229 23.625 20.3489C23.625 20.1748 23.5559 20.0079 23.4328 19.8848C23.3097 19.7618 23.1428 19.6926 22.9688 19.6926Z" fill="var(--fill-0, #720C10)"/>
</g>
</svg>
