<svg width="42" height="42" viewBox="0 0 42 42" fill="none" xmlns="http://www.w3.org/2000/svg">
<g clip-path="url(#clip0_1372_4883)">
<path d="M38.9798 35.1753H2.19043C1.46855 35.1753 0.792614 34.8209 0.385739 34.2303C-0.0211357 33.6397 -0.113011 32.8784 0.142927 32.2091L4.97949 19.5434C5.37324 18.5131 6.35105 17.8438 7.46011 17.8438H30.0548C30.4092 17.8438 30.6914 18.1259 30.6914 18.4803C30.6914 18.8347 30.4092 19.1169 30.0548 19.1169H7.46011C6.88261 19.1169 6.3773 19.4647 6.17386 19.9962L1.3373 32.6619C1.22574 32.9506 1.26511 33.2591 1.4423 33.5084C1.61293 33.7578 1.88855 33.9022 2.19699 33.9022H38.9798C39.2882 33.9022 39.5639 33.7578 39.7411 33.5019C39.9117 33.2525 39.9511 32.9441 39.8461 32.6553L36.1186 22.8903C35.9939 22.5622 36.1579 22.1947 36.4861 22.07C36.8142 21.9453 37.1817 22.1094 37.3064 22.4375L41.0339 32.2025C41.2898 32.8784 41.1979 33.6331 40.7911 34.2238C40.3776 34.8209 39.7017 35.1753 38.9798 35.1753Z" fill="#720C10"/>
<path d="M27.8435 25.4528H3.65414C3.29977 25.4528 3.01758 25.1706 3.01758 24.8163C3.01758 24.4619 3.29977 24.1797 3.65414 24.1797H27.8501C28.2045 24.1797 28.4866 24.4619 28.4866 24.8163C28.4801 25.1706 28.1979 25.4528 27.8435 25.4528Z" fill="#720C10"/>
<path d="M29.2617 30.4802H1.72543C1.37105 30.4802 1.08887 30.198 1.08887 29.8436C1.08887 29.4892 1.37105 29.207 1.72543 29.207H29.2617C29.6161 29.207 29.8982 29.4892 29.8982 29.8436C29.8982 30.198 29.6095 30.4802 29.2617 30.4802Z" fill="#720C10"/>
<path d="M30.583 35.1758C30.3074 35.1758 30.0515 34.9921 29.9727 34.7099L25.4511 18.6449C25.3527 18.3036 25.5496 17.9558 25.8908 17.8574C26.2321 17.759 26.5799 17.9558 26.6783 18.2971L31.1999 34.3621C31.2983 34.7033 31.1015 35.0511 30.7602 35.1496C30.7011 35.1693 30.6421 35.1758 30.583 35.1758Z" fill="#720C10"/>
<path d="M34.8373 25.9828C34.6273 25.9828 34.437 25.8844 34.3123 25.7072L28.977 18.0487C27.4282 15.8241 27.251 13.0612 28.5045 10.6594C29.7579 8.2575 32.127 6.82031 34.8373 6.82031C37.5476 6.82031 39.9167 8.2575 41.1701 10.6594C42.4235 13.0612 42.2463 15.8241 40.6976 18.0487L35.3623 25.7072C35.2376 25.8844 35.0407 25.9828 34.8373 25.9828ZM34.8373 8.1C32.6126 8.1 30.6635 9.28125 29.6332 11.2566C28.6029 13.2319 28.7473 15.5025 30.0204 17.3269L34.8373 24.2372L39.6542 17.3269C40.9273 15.4959 41.0717 13.2319 40.0413 11.2566C39.011 9.28125 37.062 8.1 34.8373 8.1Z" fill="#720C10"/>
<path d="M34.8407 17.6286C32.7669 17.6286 31.0869 15.942 31.0869 13.8748C31.0869 11.8077 32.7735 10.1211 34.8407 10.1211C36.9079 10.1211 38.5944 11.8077 38.5944 13.8748C38.5944 15.942 36.9079 17.6286 34.8407 17.6286ZM34.8407 11.3942C33.4757 11.3942 32.36 12.5098 32.36 13.8748C32.36 15.2464 33.4757 16.3555 34.8407 16.3555C36.2057 16.3555 37.3213 15.2398 37.3213 13.8748C37.3213 12.5033 36.2057 11.3942 34.8407 11.3942Z" fill="#720C10"/>
</g>
<defs>
<clipPath id="clip0_1372_4883">
<rect width="42" height="42" fill="white"/>
</clipPath>
</defs>
</svg>
