<svg width="42" height="42" viewBox="0 0 42 42" fill="none" xmlns="http://www.w3.org/2000/svg">
<path d="M8 26C10 24 12 24 14 26C16 28 18 28 20 26C22 24 24 24 26 26C28 28 30 28 32 26C34 24 36 24 38 26" stroke="#720C10" stroke-width="2" stroke-linecap="round"/>
<path d="M8 32C10 30 12 30 14 32C16 34 18 34 20 32C22 30 24 30 26 32C28 34 30 34 32 32C34 30 36 30 38 32" stroke="#720C10" stroke-width="2" stroke-linecap="round"/>
<circle cx="28" cy="14" r="4" stroke="#720C10" stroke-width="2" fill="none"/>
</svg>

