<svg preserveAspectRatio="none" width="100%" height="100%" overflow="visible" style="display: block;" viewBox="0 0 42 42" fill="none" xmlns="http://www.w3.org/2000/svg">
<g id="icon=expressway">
<path id="Vector" d="M20.3438 1.3125H21.6562V3.9375H20.3438V1.3125Z" fill="var(--fill-0, #720C10)"/>
<path id="Vector_2" d="M20.3438 17.0625H21.6562V19.6875H20.3438V17.0625Z" fill="var(--fill-0, #720C10)"/>
<path id="Vector_3" d="M20.3438 22.3125H21.6562V24.9375H20.3438V22.3125Z" fill="var(--fill-0, #720C10)"/>
<path id="Vector_4" d="M20.3438 27.5625H21.6562V30.1875H20.3438V27.5625Z" fill="var(--fill-0, #720C10)"/>
<path id="Vector_5" d="M20.3438 32.8125H21.6562V35.4375H20.3438V32.8125Z" fill="var(--fill-0, #720C10)"/>
<path id="Vector_6" d="M20.3438 38.0625H21.6562V40.6875H20.3438V38.0625Z" fill="var(--fill-0, #720C10)"/>
<path id="Vector_7" d="M40.0312 14.4362C40.2053 14.4362 40.3722 14.3671 40.4953 14.244C40.6184 14.121 40.6875 13.954 40.6875 13.78V7.21748C40.6875 7.04344 40.6184 6.87652 40.4953 6.75345C40.3722 6.63037 40.2053 6.56123 40.0312 6.56123H32.2061L31.4941 1.22461L30.1934 1.39786L30.8818 6.56123H29.5811L28.8691 1.22461L27.5684 1.39786L28.2568 6.56123H13.7432L14.4316 1.39786L13.1309 1.22461L12.4189 6.56123H11.1182L11.8066 1.39786L10.5059 1.22461L9.79387 6.56123H1.96875C1.7947 6.56123 1.62778 6.63037 1.50471 6.75345C1.38164 6.87652 1.3125 7.04344 1.3125 7.21748V13.78C1.3125 13.954 1.38164 14.121 1.50471 14.244C1.62778 14.3671 1.7947 14.4362 1.96875 14.4362H2.625V23.6237H1.3125V24.9362H5.25V23.6237H3.9375V14.4362H8.7465L5.25591 40.5996L6.55659 40.7729L10.0708 14.4362H11.3715L7.88091 40.5996L9.18159 40.7729L12.6958 14.4362H29.3042L32.8184 40.7729L34.1191 40.5996L30.6285 14.4362H31.9292L35.4434 40.7729L36.7441 40.5996L33.2535 14.4362H38.0625V23.6237H36.75V24.9362H40.6875V23.6237H39.375V14.4362H40.0312ZM2.625 7.87373H39.375V13.1237H2.625V7.87373Z" fill="var(--fill-0, #720C10)"/>
<path id="Vector_8" d="M7.875 9.84375H13.125V11.1562H7.875V9.84375Z" fill="var(--fill-0, #720C10)"/>
<path id="Vector_9" d="M28.875 9.84375H34.125V11.1562H28.875V9.84375Z" fill="var(--fill-0, #720C10)"/>
<path id="Vector_10" d="M18.375 9.84375H23.625V11.1562H18.375V9.84375Z" fill="var(--fill-0, #720C10)"/>
</g>
</svg>
