<svg preserveAspectRatio="none" width="100%" height="100%" overflow="visible" style="display: block;" viewBox="0 0 42 42" fill="none" xmlns="http://www.w3.org/2000/svg">
<g id="icon=corporate">
<path id="Vector" d="M13.3717 7.8248H15.1143C15.1832 7.8248 15.2513 7.81125 15.3149 7.78491C15.3784 7.75858 15.4362 7.71998 15.4848 7.67132C15.5335 7.62266 15.5721 7.56489 15.5984 7.50131C15.6247 7.43774 15.6383 7.3696 15.6383 7.30078V5.5582C15.6383 5.48938 15.6247 5.42125 15.5984 5.35767C15.5721 5.29409 15.5335 5.23633 15.4848 5.18767C15.4362 5.139 15.3784 5.1004 15.3149 5.07407C15.2513 5.04773 15.1832 5.03418 15.1143 5.03418H13.3717C13.2328 5.03418 13.0995 5.08939 13.0012 5.18766C12.9029 5.28593 12.8477 5.41922 12.8477 5.5582V7.30078C12.8477 7.3696 12.8613 7.43774 12.8876 7.50132C12.914 7.56489 12.9526 7.62266 13.0012 7.67132C13.0499 7.71998 13.1076 7.75858 13.1712 7.78491C13.2348 7.81125 13.3029 7.8248 13.3717 7.8248ZM13.8961 6.08221H14.5907V6.77677H13.8961V6.08221ZM17.6578 7.8248H19.4004C19.4692 7.8248 19.5373 7.81125 19.6009 7.78491C19.6645 7.75858 19.7223 7.71998 19.7709 7.67132C19.8196 7.62266 19.8582 7.56489 19.8845 7.50132C19.9109 7.43774 19.9244 7.3696 19.9244 7.30078V5.5582C19.9244 5.41922 19.8692 5.28593 19.7709 5.18766C19.6727 5.08939 19.5394 5.03418 19.4004 5.03418H17.6574C17.5184 5.03418 17.3851 5.08939 17.2869 5.18766C17.1886 5.28593 17.1334 5.41922 17.1334 5.5582V7.30078C17.1334 7.3696 17.1469 7.43774 17.1733 7.50132C17.1996 7.56489 17.2382 7.62266 17.2869 7.67132C17.3355 7.71998 17.3933 7.75858 17.4569 7.78491C17.5204 7.81125 17.5886 7.8248 17.6574 7.8248H17.6578ZM18.1818 6.08221H18.8764V6.77677H18.1814L18.1818 6.08221ZM13.3722 12.137H15.1147C15.1836 12.137 15.2517 12.1235 15.3153 12.0971C15.3788 12.0708 15.4366 12.0322 15.4853 11.9835C15.5339 11.9349 15.5725 11.8771 15.5988 11.8135C15.6252 11.75 15.6387 11.6818 15.6387 11.613V9.8705C15.6387 9.80169 15.6252 9.73355 15.5988 9.66997C15.5725 9.60639 15.5339 9.54863 15.4853 9.49997C15.4366 9.45131 15.3788 9.41271 15.3153 9.38637C15.2517 9.36003 15.1836 9.34648 15.1147 9.34648H13.3717C13.3029 9.34647 13.2348 9.36002 13.1712 9.38635C13.1076 9.41268 13.0499 9.45128 13.0012 9.49994C12.9525 9.5486 12.9139 9.60637 12.8876 9.66995C12.8613 9.73353 12.8477 9.80168 12.8477 9.8705V11.613C12.8477 11.6818 12.8613 11.75 12.8876 11.8135C12.9139 11.8771 12.9525 11.9349 13.0012 11.9836C13.0499 12.0322 13.1076 12.0708 13.1712 12.0972C13.2348 12.1235 13.3029 12.137 13.3717 12.137H13.3722ZM13.8961 10.3944H14.5907V11.0891H13.8961V10.3944ZM17.6578 12.137H19.4004C19.4692 12.137 19.5374 12.1235 19.6009 12.0972C19.6645 12.0708 19.7223 12.0322 19.7709 11.9836C19.8196 11.9349 19.8582 11.8771 19.8845 11.8135C19.9109 11.75 19.9244 11.6818 19.9244 11.613V9.8705C19.9244 9.80168 19.9109 9.73353 19.8845 9.66995C19.8582 9.60637 19.8196 9.5486 19.7709 9.49994C19.7223 9.45128 19.6645 9.41268 19.6009 9.38635C19.5374 9.36002 19.4692 9.34647 19.4004 9.34648H17.6574C17.5886 9.34647 17.5204 9.36002 17.4568 9.38635C17.3933 9.41268 17.3355 9.45128 17.2868 9.49994C17.2382 9.5486 17.1996 9.60637 17.1732 9.66995C17.1469 9.73353 17.1334 9.80168 17.1334 9.8705V11.613C17.1334 11.6818 17.1469 11.75 17.1732 11.8135C17.1996 11.8771 17.2382 11.9349 17.2868 11.9836C17.3355 12.0322 17.3933 12.0708 17.4568 12.0972C17.5204 12.1235 17.5886 12.137 17.6574 12.137H17.6578ZM18.1818 10.3944H18.8764V11.0891H18.1814L18.1818 10.3944ZM13.3722 16.4492H15.1147C15.1836 16.4492 15.2517 16.4357 15.3153 16.4093C15.3788 16.383 15.4366 16.3444 15.4853 16.2958C15.5339 16.2471 15.5725 16.1893 15.5988 16.1257C15.6252 16.0622 15.6387 15.994 15.6387 15.9252V14.1827C15.6387 14.1139 15.6252 14.0458 15.5988 13.9822C15.5725 13.9186 15.5339 13.8608 15.4853 13.8122C15.4366 13.7635 15.3788 13.7249 15.3153 13.6986C15.2517 13.6723 15.1836 13.6587 15.1147 13.6587H13.3717C13.2328 13.6587 13.0995 13.7139 13.0012 13.8122C12.9029 13.9105 12.8477 14.0437 12.8477 14.1827V15.9252C12.8477 15.994 12.8613 16.0622 12.8876 16.1258C12.9139 16.1893 12.9525 16.2471 13.0012 16.2958C13.0499 16.3444 13.1076 16.383 13.1712 16.4094C13.2348 16.4357 13.3029 16.4492 13.3717 16.4492H13.3722ZM13.8961 14.7067H14.5907V15.4013H13.8961V14.7067ZM17.6578 16.4492H19.4004C19.4692 16.4492 19.5374 16.4357 19.6009 16.4094C19.6645 16.383 19.7223 16.3444 19.7709 16.2958C19.8196 16.2471 19.8582 16.1893 19.8845 16.1258C19.9109 16.0622 19.9244 15.994 19.9244 15.9252V14.1827C19.9244 14.0438 19.8692 13.9105 19.7709 13.8122C19.6726 13.714 19.5394 13.6588 19.4004 13.6588H17.6574C17.5184 13.6588 17.3851 13.714 17.2869 13.8123C17.1886 13.9105 17.1334 14.0438 17.1334 14.1828V15.9253C17.1334 15.9941 17.1469 16.0623 17.1733 16.1258C17.1996 16.1894 17.2382 16.2472 17.2869 16.2958C17.3355 16.3445 17.3933 16.3831 17.4569 16.4094C17.5204 16.4357 17.5886 16.4492 17.6574 16.4492H17.6578ZM18.1818 14.7067H18.8764V15.4013H18.1814L18.1818 14.7067ZM13.3722 20.7615H15.1147C15.1836 20.7615 15.2517 20.748 15.3153 20.7216C15.3788 20.6953 15.4366 20.6567 15.4853 20.6081C15.5339 20.5594 15.5725 20.5016 15.5988 20.438C15.6252 20.3745 15.6387 20.3063 15.6387 20.2375V18.4949C15.6387 18.4261 15.6252 18.358 15.5988 18.2944C15.5725 18.2308 15.5339 18.1731 15.4853 18.1244C15.4366 18.0757 15.3788 18.0371 15.3153 18.0108C15.2517 17.9845 15.1836 17.9709 15.1147 17.9709H13.3717C13.2328 17.9709 13.0995 18.0261 13.0012 18.1244C12.9029 18.2227 12.8477 18.356 12.8477 18.4949V20.2377C12.8478 20.3766 12.903 20.5099 13.0013 20.6081C13.0995 20.7064 13.2328 20.7615 13.3717 20.7615H13.3722ZM13.8961 19.0189H14.5907V19.7135H13.8961V19.0189ZM17.6578 20.7615H19.4004C19.5394 20.7615 19.6727 20.7063 19.7709 20.6081C19.8692 20.5098 19.9244 20.3765 19.9244 20.2375V18.4949C19.9244 18.356 19.8692 18.2227 19.7709 18.1244C19.6727 18.0261 19.5394 17.9709 19.4004 17.9709H17.6574C17.5184 17.9709 17.3851 18.0261 17.2869 18.1244C17.1886 18.2227 17.1334 18.356 17.1334 18.4949V20.2377C17.1334 20.3766 17.1886 20.5099 17.2869 20.6081C17.3852 20.7064 17.5184 20.7615 17.6574 20.7615H17.6578ZM18.1818 19.0189H18.8764V19.7135H18.1814L18.1818 19.0189ZM13.3722 25.0738H15.1147C15.1836 25.0738 15.2517 25.0602 15.3153 25.0339C15.3788 25.0075 15.4366 24.9689 15.4853 24.9203C15.5339 24.8716 15.5725 24.8138 15.5988 24.7503C15.6252 24.6867 15.6387 24.6186 15.6387 24.5497V22.8072C15.6387 22.7383 15.6252 22.6702 15.5988 22.6066C15.5725 22.5431 15.5339 22.4853 15.4853 22.4367C15.4366 22.388 15.3788 22.3494 15.3153 22.3231C15.2517 22.2968 15.1836 22.2832 15.1147 22.2832H13.3717C13.3029 22.2832 13.2348 22.2968 13.1712 22.3231C13.1076 22.3494 13.0499 22.388 13.0012 22.4366C12.9526 22.4853 12.914 22.5431 12.8876 22.6066C12.8613 22.6702 12.8477 22.7383 12.8477 22.8072V24.5497C12.8477 24.6887 12.9029 24.822 13.0012 24.9203C13.0995 25.0185 13.2328 25.0738 13.3717 25.0738H13.3722ZM13.8961 23.3312H14.5907V24.0257H13.8961V23.3312ZM39.3949 21.8696H36.4793V20.8641C36.4783 19.9744 36.1245 19.1215 35.4954 18.4924C34.8663 17.8633 34.0134 17.5094 33.1237 17.5084H30.8788V8.13496C30.8788 7.99598 30.8236 7.8627 30.7253 7.76443C30.627 7.66615 30.4937 7.61095 30.3548 7.61095H22.6754V2.74863C22.6754 2.60965 22.6202 2.47636 22.5219 2.37809C22.4237 2.27982 22.2904 2.22461 22.1514 2.22461H10.6203C10.4813 2.22461 10.348 2.27982 10.2497 2.37809C10.1515 2.47636 10.0962 2.60965 10.0962 2.74863V10.7413L1.66409 13.681C1.5614 13.7168 1.47239 13.7836 1.40939 13.8722C1.34639 13.9608 1.31253 14.0668 1.3125 14.1756V38.1573C1.3125 38.2963 1.36771 38.4296 1.46598 38.5279C1.56425 38.6261 1.69754 38.6813 1.83652 38.6813H17.4142C17.5899 39.0118 17.8521 39.2882 18.1728 39.4811C18.4935 39.674 18.8606 39.7761 19.2348 39.7764H37.6797C38.2263 39.7758 38.7505 39.5583 39.137 39.1717C39.5236 38.7852 39.7411 38.2611 39.7417 37.7144V30.3624C40.2593 30.0437 40.6874 29.6197 40.6874 29.0548V23.0834C40.6875 22.4142 40.1074 21.8696 39.3944 21.8696H39.3949ZM39.6398 23.0837V29.0551C39.6398 29.0627 39.5127 29.8463 34.9667 30.8385C32.483 31.3806 29.7066 31.7573 28.5301 31.8869C27.6093 31.7844 24.8455 31.4179 22.1857 30.8456C17.5045 29.8384 17.2763 29.0567 17.275 29.0551V23.0834C17.275 23.0052 17.3798 22.9176 17.5201 22.9176H39.3944C39.5346 22.9176 39.6394 23.0052 39.6394 23.0834L39.6398 23.0837ZM17.1724 37.6333H14.8094V32.2321H17.1724V37.6333ZM33.1234 20.3739C33.2533 20.3741 33.3778 20.4258 33.4696 20.5176C33.5614 20.6095 33.6131 20.734 33.6132 20.8638V21.8694H30.8788V20.3739H33.1234ZM29.8307 21.8694H22.9269V20.8641C22.9271 20.7342 22.9787 20.6097 23.0706 20.5178C23.1624 20.426 23.2869 20.3743 23.4168 20.3742H29.8307V21.8694ZM35.431 20.8638V21.8694H34.6612V20.8641C34.6608 20.4563 34.4986 20.0655 34.2103 19.7771C33.922 19.4888 33.5311 19.3266 33.1234 19.3262H23.4168C23.0091 19.3266 22.6182 19.4888 22.3299 19.7771C22.0416 20.0654 21.8794 20.4563 21.879 20.8641V21.8696H21.1092V20.8641C21.1098 20.2522 21.3531 19.6655 21.7857 19.2328C22.2183 18.8001 22.8049 18.5567 23.4168 18.556H33.1234C33.7353 18.5568 34.3219 18.8002 34.7545 19.2329C35.1871 19.6656 35.4304 20.2522 35.431 20.8641V20.8638ZM29.8307 8.65865V17.5082H23.4168C23.1673 17.5083 22.9187 17.5364 22.6754 17.5917V8.65848L29.8307 8.65865ZM21.6276 3.27256V18.0274C21.1483 18.3296 20.7533 18.7482 20.4794 19.2442C20.2056 19.7402 20.0617 20.2975 20.0614 20.8641V21.8696H17.5197C16.8066 21.8696 16.2266 22.4142 16.2266 23.0837V29.0551C16.2266 29.602 16.6532 30.0161 17.1724 30.3294V31.1843H14.2854C14.1464 31.1843 14.0132 31.2395 13.9149 31.3377C13.8166 31.436 13.7614 31.5693 13.7614 31.7083V37.6336H11.1446V3.2728L21.6276 3.27256ZM10.0962 11.8513V37.6337H2.3607V14.5481L10.0962 11.8513ZM37.6797 38.7284H19.2344C18.9656 38.728 18.7079 38.6211 18.5178 38.431C18.3277 38.2409 18.2208 37.9832 18.2205 37.7144V30.8247C19.0982 31.1665 20.2993 31.5056 21.7955 31.8332C24.599 32.4469 27.5663 32.8365 28.4729 32.9347C28.5104 32.9389 28.5483 32.9389 28.5858 32.9347C29.7472 32.8088 32.6218 32.4226 35.1894 31.8622C36.6522 31.5429 37.8294 31.2083 38.6932 30.867V37.7144C38.6929 37.9831 38.5861 38.2408 38.3961 38.4309C38.2061 38.621 37.9484 38.7279 37.6797 38.7284ZM28.4571 27.9383C27.4815 27.9383 26.6879 28.6742 26.6879 29.5789C26.6879 30.4836 27.4815 31.2195 28.4571 31.2195C29.4326 31.2195 30.2262 30.4836 30.2262 29.5789C30.2262 28.6742 29.4328 27.9383 28.4571 27.9383ZM28.4571 30.1713C28.0661 30.1713 27.7358 29.9 27.7358 29.5788C27.7358 29.2577 28.0661 28.9862 28.4571 28.9862C28.848 28.9862 29.1783 29.2576 29.1783 29.5788C29.1783 29.9001 28.8479 30.1717 28.4571 30.1717V30.1713Z" fill="var(--fill-0, #720C10)"/>
</g>
</svg>
