<svg preserveAspectRatio="none" width="100%" height="100%" overflow="visible" style="display: block;" viewBox="0 0 42 42" fill="none" xmlns="http://www.w3.org/2000/svg">
<g id="icon=airport">
<path id="Vector" d="M40.9787 28.3574H34.44V22.858H35.3399C35.595 22.858 35.8271 22.7104 35.9346 22.4782L38.0855 17.8484C38.1798 17.6449 38.1642 17.4079 38.0436 17.2192C37.923 17.0305 37.7147 16.9165 37.4907 16.9165H32.5172V13.6402C32.5172 13.2776 32.2235 12.9847 31.8618 12.9847C31.5 12.9847 31.2063 13.2784 31.2063 13.6402V16.9165H26.2328C26.0088 16.9165 25.8005 17.0305 25.6799 17.2192C25.5593 17.4079 25.5437 17.6449 25.638 17.8484L27.7889 22.4782C27.8964 22.7096 28.1285 22.858 28.3836 22.858H29.2835V28.3574H23.0344V24.3871C23.8965 24.1878 24.5413 23.415 24.5413 22.493C24.5413 21.4208 23.6693 20.5488 22.5971 20.5488H1.94414C0.871992 20.5488 0 21.4208 0 22.493C0 23.4142 0.644766 24.1878 1.50691 24.3871V37.6171C1.50691 38.3488 2.10328 38.9452 2.83664 38.9452H40.9787C41.5414 38.9452 41.9992 38.4874 41.9992 37.9247V29.3803C42 28.8168 41.5414 28.3574 40.9787 28.3574ZM27.2598 18.2282H36.4637L34.9223 21.5463H28.8012L27.2598 18.2282ZM30.5944 22.858H33.1291V28.3574H30.5944V22.858ZM17.9821 37.6335V24.4371H21.7235V37.6171C21.7235 37.6237 21.7161 37.6335 21.7046 37.6335H17.9821ZM11.6148 24.4371V37.6335H7.87336V24.4371H11.6148ZM12.9265 24.4371H16.6704V37.6335H12.9265V24.4371ZM1.31168 22.493C1.31168 22.1444 1.59551 21.8605 1.94414 21.8605H22.5971C22.9458 21.8605 23.2296 22.1444 23.2296 22.493C23.2296 22.8416 22.9458 23.1255 22.5971 23.1255H1.94414C1.59551 23.1255 1.31168 22.8416 1.31168 22.493ZM2.81859 37.6171V24.4371H6.5625V37.6335H2.83746C2.82762 37.6335 2.81859 37.6228 2.81859 37.6171ZM33.582 37.6335H30.1407V34.0783H33.582V37.6335ZM40.6883 37.6335H34.8936V33.6082C34.8936 33.1439 34.5163 32.7666 34.052 32.7666H29.6732C29.208 32.7666 28.8291 33.1439 28.8291 33.6082V37.6335H23.0336C23.0336 37.6278 23.0344 37.6228 23.0344 37.6171V29.6691H40.6883V37.6335ZM6.66586 16.0839C6.78563 16.2857 7.00137 16.4055 7.22941 16.4055C7.27699 16.4055 7.32457 16.4005 7.37215 16.3899L21.8047 13.1718C22.42 13.0356 22.9253 12.6681 23.2296 12.1382C23.5315 11.6107 23.5922 10.993 23.4011 10.3983C23.0204 9.21705 21.7227 8.47549 20.5062 8.74619L16.6179 9.61408L10.1842 3.49373C9.76336 3.0967 9.18258 2.95971 8.63051 3.12623L7.46813 3.47733C7.27535 3.53557 7.11949 3.67912 7.04648 3.86697C6.97348 4.05483 6.9907 4.26565 7.09406 4.43955L10.9184 10.8839L9.00621 11.3105L7.48453 10.1899C6.6232 9.55502 5.58223 9.37701 4.55602 9.68791L3.93012 9.87658C3.73734 9.93483 3.58148 10.0784 3.50848 10.2662C3.43547 10.4541 3.4527 10.6649 3.55523 10.8388L6.66586 16.0839ZM6.70605 11.2457L8.46891 12.5434C8.62148 12.6558 8.81508 12.6968 9.00047 12.655L12.0865 11.9667C12.2916 11.9208 12.4622 11.7797 12.5459 11.5869C12.6295 11.3942 12.6148 11.1727 12.5081 10.9922L8.6502 4.49041L9.01195 4.38131C9.11531 4.35014 9.20555 4.37147 9.28348 4.4453L15.969 10.8052C16.1273 10.9561 16.3505 11.0176 16.5637 10.9701L20.7925 10.0259C21.3552 9.90119 21.9786 10.2556 22.1542 10.8003V10.8011C22.2313 11.0398 22.2091 11.2834 22.0935 11.486C21.9754 11.6919 21.7727 11.8363 21.5225 11.8913L7.55098 15.006L5.11383 10.8962C5.68148 10.7748 6.22781 10.8938 6.70605 11.2457ZM29.9923 20.5447H29.8692C29.5066 20.5447 29.2138 20.2511 29.2138 19.8893C29.2138 19.5276 29.5075 19.2339 29.8692 19.2339H29.9923C30.3548 19.2339 30.6477 19.5276 30.6477 19.8893C30.6477 20.2511 30.354 20.5447 29.9923 20.5447ZM31.1448 19.8885C31.1448 19.5259 31.4385 19.2331 31.8002 19.2331H31.9233C32.2859 19.2331 32.5787 19.5267 32.5787 19.8885C32.5787 20.2503 32.285 20.5439 31.9233 20.5439H31.8002C31.4385 20.5447 31.1448 20.2511 31.1448 19.8885ZM33.0775 19.8885C33.0775 19.5259 33.3711 19.2331 33.7329 19.2331H33.8559C34.2185 19.2331 34.5114 19.5267 34.5114 19.8885C34.5114 20.2503 34.2177 20.5439 33.8559 20.5439H33.7329C33.3711 20.5447 33.0775 20.2511 33.0775 19.8885Z" fill="var(--fill-0, #720C10)"/>
</g>
</svg>
