<svg preserveAspectRatio="none" width="100%" height="100%" overflow="visible" style="display: block;" viewBox="0 0 41 41" fill="none" xmlns="http://www.w3.org/2000/svg">
<g id="Group">
<path id="Vector" d="M38.0625 36.6752C39.5581 36.309 40.6875 34.7189 40.6875 32.8171C40.6875 30.9153 39.5581 29.3252 38.0625 28.959V7.87959H36.75V5.25459H34.125V2.62959H32.7961L32.8125 0.0085313L31.5 0L31.4836 2.62959H30.1875V5.25459H27.5625V7.87959H26.25V13.5745C24.8273 13.9611 23.4951 14.5878 22.3125 15.4252V9.19209H24.9375V5.25459H21.6562V2.62959H20.3273L20.3438 0.0085313L19.0312 0L19.0148 2.62959H17.7188V5.25459H14.4375V9.19209H17.0625V21.8046L14.4375 21.1483V15.7546H15.75V14.4421H11.8125V10.5046H10.5V14.4421H9.1875V13.1296H7.875V14.4421H6.5625V11.8171H5.25V14.4421H1.3125V15.7546H2.625V36.1154C1.83291 36.7146 1.3125 37.6556 1.3125 38.7233C1.3125 38.9452 1.34203 39.1637 1.386 39.3796H0V40.6921H40.6875V39.3796H38.0625V36.6752ZM18.375 35.7243C17.4372 35.3181 16.3091 35.3692 15.4232 35.8851C14.5602 34.7872 13.2333 34.1296 11.8125 34.1296C10.8426 34.1296 9.93825 34.4348 9.1875 34.9571V21.189L18.375 23.4859V35.7243ZM18.8698 22.2561L18.9427 22.0743C20.3917 17.7181 24.3337 14.7256 28.875 14.4611V37.2107C28.1446 36.8616 27.3223 36.6929 26.4725 36.7756C25.725 35.1724 24.1172 34.1296 22.3125 34.1296C21.3563 34.1296 20.4461 34.4334 19.6875 34.963V22.4608L18.8698 22.2561ZM31.5 32.8171V35.2807C30.7381 34.9184 30.1875 33.9563 30.1875 32.8171C30.1875 31.3694 31.0708 30.1921 32.1562 30.1921C33.2417 30.1921 34.125 31.3694 34.125 32.8171C34.125 33.9563 33.5744 34.9184 32.8125 35.2807V32.8171H31.5ZM30.1875 38.1557V35.9592C30.5694 36.3051 31.0144 36.5557 31.5 36.6745V39.3796H31.0413C30.8221 38.9209 30.534 38.5107 30.1875 38.1557ZM32.8125 36.6752C33.6144 36.479 34.3074 35.9284 34.7812 35.1697C35.2551 35.929 35.9481 36.479 36.75 36.6752V39.3796H32.8125V36.6752ZM39.375 32.8171C39.375 33.9563 38.8244 34.9184 38.0625 35.2807V32.8171H36.75V35.2807C35.9881 34.9184 35.4375 33.9563 35.4375 32.8171C35.4375 31.3694 36.3208 30.1921 37.4062 30.1921C38.4917 30.1921 39.375 31.3694 39.375 32.8171ZM31.5 3.94209H32.8125V5.25459H31.5V3.94209ZM28.875 6.56709H30.1875H34.125H35.4375V7.87959H28.875V6.56709ZM27.5625 9.19209H36.75V28.959C35.9481 29.1552 35.2551 29.7058 34.7812 30.4644C34.1821 29.505 33.2299 28.8796 32.1562 28.8796C31.4173 28.8796 30.7368 29.1782 30.1875 29.6743V13.1296H29.5312C28.8638 13.1296 28.2063 13.1827 27.5625 13.2851V9.19209ZM19.0312 3.94209H20.3438V5.25459H19.0312V3.94209ZM15.75 6.56709H23.625V7.87959H15.75V6.56709ZM21 9.19209V16.5021C19.9336 17.5009 19.0398 18.6893 18.375 20.0301V9.19209H21ZM3.9375 15.7546H13.125V20.8202L7.875 19.5077V36.3694C7.79428 36.5059 7.71225 36.6417 7.64466 36.7874C7.50684 36.7684 7.36641 36.7579 7.22072 36.7566C6.60516 35.9369 5.63259 35.4421 4.59375 35.4421C4.36931 35.4421 4.14947 35.4651 3.9375 35.5084V15.7546ZM2.625 38.7233C2.625 37.6379 3.50831 36.7546 4.59375 36.7546C5.30316 36.7546 5.96072 37.1385 6.30984 37.7567L6.51328 38.117L7.21875 38.0671C7.41169 38.0671 7.61513 38.1045 7.84153 38.1806L8.47875 38.3946L8.67759 37.7521C9.10481 36.3707 10.3648 35.4421 11.8125 35.4421C13.0062 35.4421 14.1074 36.0924 14.6856 37.1398L15.0957 37.8827L15.7113 37.2986C16.4515 36.5977 17.6722 36.5977 18.4124 37.2986L19.028 37.8827L19.4381 37.1398C20.0176 36.0924 21.1188 35.4421 22.3125 35.4421C23.7372 35.4421 24.9907 36.353 25.4317 37.7088L25.6161 38.2751L26.1982 38.1465C27.4956 37.8584 28.768 38.3932 29.5162 39.3796H2.75231C2.6775 39.1683 2.625 38.9497 2.625 38.7233Z" fill="var(--fill-0, #720C10)"/>
<path id="Vector_2" d="M10.5 17.0664H11.8125V18.3789H10.5V17.0664Z" fill="var(--fill-0, #720C10)"/>
<path id="Vector_3" d="M5.25 17.0664H6.5625V18.3789H5.25V17.0664Z" fill="var(--fill-0, #720C10)"/>
<path id="Vector_4" d="M7.875 17.0664H9.1875V18.3789H7.875V17.0664Z" fill="var(--fill-0, #720C10)"/>
<path id="Vector_5" d="M5.25 27.5664H6.5625V28.8789H5.25V27.5664Z" fill="var(--fill-0, #720C10)"/>
<path id="Vector_6" d="M5.25 24.9414H6.5625V26.2539H5.25V24.9414Z" fill="var(--fill-0, #720C10)"/>
<path id="Vector_7" d="M5.25 22.3164H6.5625V23.6289H5.25V22.3164Z" fill="var(--fill-0, #720C10)"/>
<path id="Vector_8" d="M5.25 30.1914H6.5625V31.5039H5.25V30.1914Z" fill="var(--fill-0, #720C10)"/>
<path id="Vector_9" d="M5.25 19.6914H6.5625V21.0039H5.25V19.6914Z" fill="var(--fill-0, #720C10)"/>
<path id="Vector_10" d="M5.25 32.8164H6.5625V34.1289H5.25V32.8164Z" fill="var(--fill-0, #720C10)"/>
<path id="Vector_11" d="M34.125 10.5039H35.4375V11.8164H34.125V10.5039Z" fill="var(--fill-0, #720C10)"/>
<path id="Vector_12" d="M31.5 10.5039H32.8125V11.8164H31.5V10.5039Z" fill="var(--fill-0, #720C10)"/>
<path id="Vector_13" d="M28.875 10.5039H30.1875V11.8164H28.875V10.5039Z" fill="var(--fill-0, #720C10)"/>
<path id="Vector_14" d="M10.5 31.5039H11.8125V32.8164H10.5V31.5039Z" fill="var(--fill-0, #720C10)"/>
<path id="Vector_15" d="M10.5 28.8789H11.8125V30.1914H10.5V28.8789Z" fill="var(--fill-0, #720C10)"/>
<path id="Vector_16" d="M10.5 26.2539H11.8125V27.5664H10.5V26.2539Z" fill="var(--fill-0, #720C10)"/>
<path id="Vector_17" d="M10.5 23.6289H11.8125V24.9414H10.5V23.6289Z" fill="var(--fill-0, #720C10)"/>
<path id="Vector_18" d="M13.125 23.6289H14.4375V24.9414H13.125V23.6289Z" fill="var(--fill-0, #720C10)"/>
<path id="Vector_19" d="M13.125 26.2539H14.4375V27.5664H13.125V26.2539Z" fill="var(--fill-0, #720C10)"/>
<path id="Vector_20" d="M13.125 31.5039H14.4375V32.8164H13.125V31.5039Z" fill="var(--fill-0, #720C10)"/>
<path id="Vector_21" d="M13.125 28.8789H14.4375V30.1914H13.125V28.8789Z" fill="var(--fill-0, #720C10)"/>
<path id="Vector_22" d="M15.75 31.5039H17.0625V32.8164H15.75V31.5039Z" fill="var(--fill-0, #720C10)"/>
<path id="Vector_23" d="M15.75 26.2539H17.0625V27.5664H15.75V26.2539Z" fill="var(--fill-0, #720C10)"/>
<path id="Vector_24" d="M15.75 23.6289H17.0625V24.9414H15.75V23.6289Z" fill="var(--fill-0, #720C10)"/>
<path id="Vector_25" d="M15.75 28.8789H17.0625V30.1914H15.75V28.8789Z" fill="var(--fill-0, #720C10)"/>
<path id="Vector_26" d="M23.625 31.5039H24.9375V32.8164H23.625V31.5039Z" fill="var(--fill-0, #720C10)"/>
<path id="Vector_27" d="M21 31.5039H22.3125V32.8164H21V31.5039Z" fill="var(--fill-0, #720C10)"/>
<path id="Vector_28" d="M26.25 31.5039H27.5625V32.8164H26.25V31.5039Z" fill="var(--fill-0, #720C10)"/>
<path id="Vector_29" d="M23.625 28.8789H24.9375V30.1914H23.625V28.8789Z" fill="var(--fill-0, #720C10)"/>
<path id="Vector_30" d="M21 28.8789H22.3125V30.1914H21V28.8789Z" fill="var(--fill-0, #720C10)"/>
<path id="Vector_31" d="M26.25 28.8789H27.5625V30.1914H26.25V28.8789Z" fill="var(--fill-0, #720C10)"/>
<path id="Vector_32" d="M26.25 26.2539H27.5625V27.5664H26.25V26.2539Z" fill="var(--fill-0, #720C10)"/>
<path id="Vector_33" d="M21 26.2539H22.3125V27.5664H21V26.2539Z" fill="var(--fill-0, #720C10)"/>
<path id="Vector_34" d="M23.625 26.2539H24.9375V27.5664H23.625V26.2539Z" fill="var(--fill-0, #720C10)"/>
<path id="Vector_35" d="M21 23.6289H22.3125V24.9414H21V23.6289Z" fill="var(--fill-0, #720C10)"/>
<path id="Vector_36" d="M26.25 23.6289H27.5625V24.9414H26.25V23.6289Z" fill="var(--fill-0, #720C10)"/>
<path id="Vector_37" d="M23.625 23.6289H24.9375V24.9414H23.625V23.6289Z" fill="var(--fill-0, #720C10)"/>
<path id="Vector_38" d="M26.25 21.0039H27.5625V22.3164H26.25V21.0039Z" fill="var(--fill-0, #720C10)"/>
<path id="Vector_39" d="M23.625 21.0039H24.9375V22.3164H23.625V21.0039Z" fill="var(--fill-0, #720C10)"/>
<path id="Vector_40" d="M21 21.0039H22.3125V22.3164H21V21.0039Z" fill="var(--fill-0, #720C10)"/>
<path id="Vector_41" d="M23.625 18.3789H24.9375V19.6914H23.625V18.3789Z" fill="var(--fill-0, #720C10)"/>
<path id="Vector_42" d="M26.25 18.3789H27.5625V19.6914H26.25V18.3789Z" fill="var(--fill-0, #720C10)"/>
<path id="Vector_43" d="M31.5 13.1289H32.8125V14.4414H31.5V13.1289Z" fill="var(--fill-0, #720C10)"/>
<path id="Vector_44" d="M34.125 13.1289H35.4375V14.4414H34.125V13.1289Z" fill="var(--fill-0, #720C10)"/>
<path id="Vector_45" d="M34.125 15.7539H35.4375V17.0664H34.125V15.7539Z" fill="var(--fill-0, #720C10)"/>
<path id="Vector_46" d="M31.5 15.7539H32.8125V17.0664H31.5V15.7539Z" fill="var(--fill-0, #720C10)"/>
<path id="Vector_47" d="M31.5 18.3789H32.8125V19.6914H31.5V18.3789Z" fill="var(--fill-0, #720C10)"/>
<path id="Vector_48" d="M34.125 18.3789H35.4375V19.6914H34.125V18.3789Z" fill="var(--fill-0, #720C10)"/>
<path id="Vector_49" d="M34.125 21.0039H35.4375V22.3164H34.125V21.0039Z" fill="var(--fill-0, #720C10)"/>
<path id="Vector_50" d="M31.5 21.0039H32.8125V22.3164H31.5V21.0039Z" fill="var(--fill-0, #720C10)"/>
<path id="Vector_51" d="M31.5 23.6289H32.8125V24.9414H31.5V23.6289Z" fill="var(--fill-0, #720C10)"/>
<path id="Vector_52" d="M34.125 23.6289H35.4375V24.9414H34.125V23.6289Z" fill="var(--fill-0, #720C10)"/>
<path id="Vector_53" d="M34.125 26.2539H35.4375V27.5664H34.125V26.2539Z" fill="var(--fill-0, #720C10)"/>
<path id="Vector_54" d="M31.5 26.2539H32.8125V27.5664H31.5V26.2539Z" fill="var(--fill-0, #720C10)"/>
</g>
</svg>
