<svg width="42" height="42" viewBox="0 0 42 42" fill="none" xmlns="http://www.w3.org/2000/svg">
<g clip-path="url(#clip0_1372_5398)">
<path fill-rule="evenodd" clip-rule="evenodd" d="M27.213 38.8998C24.2112 38.8998 21.7754 36.4394 21.7754 33.4376C21.7754 30.4359 24.2112 28 27.213 28C30.2148 28 32.6506 30.4359 32.6506 33.4376C32.6506 36.4394 30.2148 38.8998 27.213 38.8998ZM27.213 28.9842C24.7525 28.9842 22.7596 30.9772 22.7596 33.4376C22.7596 35.8981 24.7525 37.9156 27.213 37.9156C29.6735 37.9156 31.6664 35.8981 31.6664 33.4376C31.6664 30.9772 29.6735 28.9842 27.213 28.9842Z" fill="#720C10"/>
<path fill-rule="evenodd" clip-rule="evenodd" d="M30.8567 37.277C30.7091 37.277 30.586 37.2278 30.4876 37.1294C29.5772 36.1206 29.0605 34.8166 29.0605 33.4387C29.0605 32.0855 29.5772 30.7814 30.4876 29.7726C30.6844 29.5758 31.0289 29.5758 31.2257 29.7726C32.1361 30.7814 32.6528 32.0855 32.6528 33.4387C32.6528 34.8166 32.1361 36.1206 31.2257 37.1294C31.1273 37.2278 31.0043 37.277 30.8567 37.277ZM30.8567 30.8798C30.34 31.6426 30.0447 32.5283 30.0447 33.4387C30.0447 34.3737 30.34 35.2594 30.8567 35.9976C31.3734 35.2594 31.6686 34.3737 31.6686 33.4387C31.6686 32.5283 31.3734 31.6426 30.8567 30.8798Z" fill="#720C10"/>
<path fill-rule="evenodd" clip-rule="evenodd" d="M23.5469 37.277C23.4239 37.277 23.2763 37.2278 23.2025 37.1294C22.2675 36.1206 21.7754 34.8166 21.7754 33.4387C21.7754 32.0855 22.2675 30.7814 23.2025 29.7726C23.3747 29.5758 23.7438 29.5758 23.916 29.7726C24.851 30.7814 25.3431 32.0855 25.3431 33.4387C25.3431 34.8166 24.851 36.1206 23.916 37.1294C23.8176 37.2278 23.6945 37.277 23.5469 37.277ZM23.5469 30.8798C23.0302 31.6426 22.7596 32.5283 22.7596 33.4387C22.7596 34.3737 23.0302 35.2594 23.5469 35.9976C24.0882 35.2594 24.3589 34.3737 24.3589 33.4387C24.3589 32.5283 24.0882 31.6426 23.5469 30.8798Z" fill="#720C10"/>
<path fill-rule="evenodd" clip-rule="evenodd" d="M15.1794 33.0662C15.0563 33.0662 14.9333 33.017 14.8349 32.9186L11.7101 29.7446C11.5133 29.5477 11.5133 29.2525 11.7101 29.0556C11.907 28.8588 12.2268 28.8588 12.3991 29.0556L15.5238 32.2296C15.7207 32.4265 15.7207 32.7217 15.5238 32.9186C15.4254 33.017 15.3024 33.0662 15.1794 33.0662ZM18.1811 30.4827C18.0581 30.4827 17.9351 30.4335 17.8367 30.3351L14.2936 26.7428C14.1214 26.546 14.1214 26.2261 14.2936 26.0539C14.4904 25.857 14.8103 25.857 15.0071 26.0539L18.5502 29.6461C18.7224 29.8184 18.7224 30.1382 18.5256 30.3351C18.4518 30.4335 18.3042 30.4827 18.1811 30.4827Z" fill="#720C10"/>
<path fill-rule="evenodd" clip-rule="evenodd" d="M7.15864 41.7035C6.66655 41.7035 6.19906 41.5067 5.83 41.1622L3.44335 38.7756C2.72982 38.0374 2.72982 36.8564 3.44335 36.1429C3.78782 35.7984 4.2553 35.6016 4.74739 35.6016C5.26409 35.6016 5.73158 35.7984 6.07604 36.1429L8.46269 38.5295C9.20082 39.2676 9.20082 40.4487 8.46269 41.1622C8.11822 41.5067 7.65073 41.7035 7.15864 41.7035ZM4.74739 36.5857C4.52595 36.5857 4.30451 36.6842 4.13228 36.8318C3.78782 37.1763 3.78782 37.7422 4.13228 38.0866L6.54353 40.4733C6.86339 40.7931 7.4539 40.7931 7.77376 40.4733C8.11822 40.1288 8.11822 39.5629 7.77376 39.243L5.38711 36.8318C5.21488 36.6842 4.99344 36.5857 4.74739 36.5857Z" fill="#720C10"/>
<path fill-rule="evenodd" clip-rule="evenodd" d="M8.12092 39.3635C7.9979 39.3635 7.87488 39.3143 7.77646 39.2159L5.38981 36.8293C5.19298 36.657 5.19298 36.3372 5.38981 36.1403C7.03832 34.4918 10.1631 30.875 13.7554 26.6922C25.0735 13.5287 34.7185 2.62891 37.8679 2.62891C38.2123 2.62891 38.5076 2.75193 38.729 2.97337L41.657 5.87671C41.8046 6.04894 42.0014 6.3442 41.9768 6.81168C41.8784 10.0103 31.0278 19.5815 17.9381 30.8503C13.7308 34.4672 10.1139 37.5674 8.46539 39.2159C8.36697 39.3143 8.24395 39.3635 8.12092 39.3635ZM6.42321 36.4848L8.12092 38.1825C9.91706 36.4356 13.3617 33.483 17.2984 30.1122C26.6974 22.0173 40.8942 9.78884 40.9926 6.76247C41.0172 6.63945 40.968 6.59024 40.9434 6.56564L38.0401 3.6623C38.0155 3.63769 37.9909 3.61309 37.8679 3.61309C34.9153 3.61309 22.6376 17.8837 14.4935 27.3319C11.1227 31.244 8.17013 34.6887 6.42321 36.4848Z" fill="#720C10"/>
<path fill-rule="evenodd" clip-rule="evenodd" d="M27.0393 18.0822C26.8916 18.0822 26.7686 18.033 26.6702 17.9346C26.498 17.7377 26.498 17.4179 26.6702 17.221L36.8073 7.10856C37.0041 6.91173 37.2994 6.91173 37.4962 7.10856C37.693 7.3054 37.693 7.60066 37.4962 7.79749L27.3837 17.9346C27.2853 18.033 27.1623 18.0822 27.0393 18.0822Z" fill="#720C10"/>
<path fill-rule="evenodd" clip-rule="evenodd" d="M13.7294 27.7744C10.8753 27.7744 8.11958 26.8887 5.78215 25.2155C2.78039 23.0749 0.812023 19.9256 0.196908 16.3087C-0.418206 12.6672 0.418349 9.02574 2.55895 6.04858C6.96317 -0.127163 15.5502 -1.57883 21.7259 2.82539C24.8999 5.0644 26.9667 8.58286 27.4096 12.4458C27.4342 12.7164 27.2373 12.9379 26.9667 12.9871C26.696 13.0117 26.45 12.8148 26.4254 12.5442C26.0071 8.97653 24.0879 5.70412 21.16 3.61273C15.4271 -0.447022 7.43065 0.881624 3.3709 6.61449C1.37793 9.39481 0.615186 12.7656 1.18109 16.1365C1.747 19.5073 3.56773 22.4352 6.34805 24.4036C8.56246 26.0029 11.1705 26.7902 13.9017 26.7902C14.1723 26.7902 14.3937 26.9871 14.3937 27.2577C14.3937 27.5284 14.1723 27.7498 13.9017 27.7744C13.8524 27.7744 13.8032 27.7744 13.7294 27.7744Z" fill="#720C10"/>
<path fill-rule="evenodd" clip-rule="evenodd" d="M0.96062 17.9599C0.936015 17.9599 0.911411 17.9599 0.862202 17.9599C0.616156 17.9107 0.419319 17.6647 0.468529 17.394C0.640761 16.4345 1.03443 15.0074 1.9202 13.8018C4.11001 10.7016 5.36484 8.14272 6.39823 4.64887C6.61967 3.93534 6.98874 2.87735 7.53004 1.86856C7.65306 1.62251 7.94832 1.5487 8.19436 1.67172C8.41581 1.79474 8.51422 2.09 8.3912 2.33605C7.89911 3.27102 7.55465 4.2552 7.35781 4.91953C6.27521 8.5364 4.97117 11.1937 2.70754 14.3677C1.9448 15.4503 1.60034 16.7051 1.45271 17.5663C1.4035 17.7877 1.18206 17.9599 0.96062 17.9599Z" fill="#720C10"/>
<path fill-rule="evenodd" clip-rule="evenodd" d="M15.7991 25.5362C15.7007 25.5362 15.5777 25.5116 15.4792 25.4132C15.061 25.0195 14.6427 24.6012 14.249 24.1584C8.98364 18.2287 7.55657 12.8895 10.3369 9.51864C13.3879 5.80335 20.6216 5.60651 26.4529 9.07575C26.6989 9.19878 26.7727 9.51864 26.6251 9.74008C26.5021 9.96152 26.1822 10.0599 25.9608 9.91231C20.6216 6.73832 13.8061 6.83674 11.0996 10.1338C8.63917 13.1109 10.0662 17.9826 14.9872 23.5186C15.3562 23.9369 15.7499 24.3306 16.1436 24.6997C16.3404 24.8719 16.365 25.1917 16.1682 25.3886C16.0698 25.487 15.9467 25.5362 15.7991 25.5362Z" fill="#720C10"/>
<path fill-rule="evenodd" clip-rule="evenodd" d="M8.1456 26.5225C7.99797 26.5225 7.85034 26.4487 7.75192 26.3257C6.71853 24.9478 5.4883 22.8072 5.38988 20.4944C3.889 11.686 9.15438 3.04975 17.3969 0.835343C17.6676 0.761529 17.9382 0.909156 17.9874 1.17981C18.0612 1.45046 17.9136 1.72111 17.643 1.79492C9.89252 3.88631 4.9224 12.0304 6.34946 20.3468V20.4206C6.44788 22.4874 7.57969 24.4557 8.53927 25.7352C8.7115 25.9566 8.66229 26.2519 8.44085 26.4241C8.34243 26.4979 8.24401 26.5225 8.1456 26.5225Z" fill="#720C10"/>
<path fill-rule="evenodd" clip-rule="evenodd" d="M22.4649 17.9088C22.3665 17.9088 22.2681 17.8842 22.1943 17.835C12.943 11.7577 4.06073 9.56785 1.57567 9.02655C1.30501 8.97734 1.13278 8.7313 1.2066 8.46065C1.25581 8.19 1.52646 8.01776 1.7725 8.06697C4.30677 8.60827 13.3366 10.8473 22.7356 17.023C22.957 17.1707 23.0062 17.4659 22.8586 17.6874C22.7602 17.835 22.6126 17.9088 22.4649 17.9088Z" fill="#720C10"/>
</g>
<defs>
<clipPath id="clip0_1372_5398">
<rect width="42" height="42" fill="white"/>
</clipPath>
</defs>
</svg>
