<svg width="42" height="42" viewBox="0 0 42 42" fill="none" xmlns="http://www.w3.org/2000/svg">
<g clip-path="url(#clip0_1372_5356)">
<path d="M22.6406 32.1562C22.1878 32.1562 21.8203 32.5238 21.8203 32.9766C21.8203 33.4294 22.1878 33.7969 22.6406 33.7969C23.0934 33.7969 23.4609 33.4294 23.4609 32.9766C23.4609 32.5238 23.0934 32.1562 22.6406 32.1562Z" fill="#720C10"/>
<path d="M39.5391 37.0781H39.5023C41.0125 35.8544 42 34.0696 42 32.1562C42 29.3851 40.2463 26.8994 37.6361 25.9709C37.6326 25.9697 37.629 25.9685 37.6255 25.9672L30.6136 23.5799L33.1923 10.3359H34.125C36.3866 10.3359 38.2266 8.49598 38.2266 6.23438V2.46094C38.2266 1.10398 37.1226 0 35.7656 0C34.406 0 33.3047 1.10127 33.3047 2.46094V5.41406H29.2031C27.8462 5.41406 26.7422 6.51804 26.7422 7.875C26.7422 8.87365 27.3509 9.74367 28.2166 10.127L25.9134 21.9796L14.2314 18.0022C13.5449 17.7583 12.8332 17.5872 12.1098 17.4893L10.6745 11.9766H13.3654C14.1774 11.9766 14.941 11.6602 15.5155 11.0859C16.0899 10.5114 16.4062 9.74777 16.4062 8.93566C16.4062 7.44368 15.3377 6.18228 13.8653 5.93636C3.86531 4.2881 4.38982 4.31566 3.82348 4.31566C1.71519 4.31566 0 6.03422 0 8.14652C0 10.2584 1.71814 11.9766 3.83004 11.9766H5.57287L7.1423 17.9871C2.89866 19.4677 0 23.4967 0 28.0547C0 31.8175 1.96941 35.176 4.97848 37.0781H2.46094C1.10135 37.0781 0 38.1793 0 39.5391C0 40.896 1.10398 42 2.46094 42H39.5391C40.8987 42 42 40.8987 42 39.5391C42 38.1821 40.896 37.0781 39.5391 37.0781ZM29.2031 7.05469H34.125C34.578 7.05469 34.9453 6.68735 34.9453 6.23438V2.46094C34.9453 2.00821 35.3127 1.64062 35.7656 1.64062C36.2179 1.64062 36.5859 2.00862 36.5859 2.46094V6.23438C36.5859 7.59134 35.482 8.69531 34.125 8.69531C33.1562 8.69531 30.2535 8.69531 29.2372 8.69531C29.2109 8.69318 29.1849 8.69236 29.159 8.69277C28.7286 8.67021 28.3828 8.30952 28.3828 7.875C28.3828 7.42268 28.7508 7.05469 29.2031 7.05469ZM29.8472 10.3359H31.5209L29.0461 23.0462L27.481 22.5133L29.8472 10.3359ZM3.83004 10.3359C2.62279 10.3359 1.64062 9.35369 1.64062 8.14652C1.64062 6.93886 2.61983 5.95629 3.82348 5.95629C4.15898 5.95629 3.74899 5.92413 13.5953 7.5545C14.2734 7.66787 14.7656 8.24865 14.7656 8.93566C14.7656 9.30956 14.6199 9.66123 14.3554 9.9257C14.0908 10.1903 13.7392 10.3359 13.3654 10.3359H3.83004ZM10.3899 17.3951C9.83021 17.4092 9.27454 17.4673 8.72837 17.5676L7.26854 11.9766H8.97914L10.3899 17.3951ZM1.64062 28.0547C1.64062 23.9652 4.39729 20.3786 8.34529 19.3326C10.0386 18.8816 11.9273 18.9232 13.6865 19.5498C13.6901 19.5511 13.6937 19.5522 13.6973 19.5535L37.0915 27.5185C39.0463 28.2165 40.3594 30.0795 40.3594 32.1562C40.3594 34.7316 37.7801 36.9949 34.9477 36.9961L9.49545 37.0036C5.01391 36.4243 1.64062 32.5856 1.64062 28.0547ZM39.5391 40.3594H2.46094C2.00862 40.3594 1.64062 39.9914 1.64062 39.5391C1.64062 39.0862 2.00804 38.7188 2.46094 38.7188C3.14705 38.7188 32.1613 38.7188 39.5391 38.7188C39.9914 38.7188 40.3594 39.0867 40.3594 39.5391C40.3594 39.9918 39.992 40.3594 39.5391 40.3594Z" fill="#720C10"/>
<path d="M30.8438 27.2344C28.5821 27.2344 26.7422 29.0743 26.7422 31.3359C26.7422 33.5975 28.5821 35.4375 30.8438 35.4375C33.1054 35.4375 34.9453 33.5975 34.9453 31.3359C34.9453 29.0743 33.1054 27.2344 30.8438 27.2344ZM30.8438 33.7969C29.4868 33.7969 28.3828 32.6929 28.3828 31.3359C28.3828 29.979 29.4868 28.875 30.8438 28.875C32.2007 28.875 33.3047 29.979 33.3047 31.3359C33.3047 32.6929 32.2007 33.7969 30.8438 33.7969Z" fill="#720C10"/>
<path d="M19.3594 32.1562H15.9257L15.2632 31.4938C16.0046 30.5059 16.4062 29.3112 16.4062 28.0547C16.4062 24.8884 13.8303 22.3125 10.6641 22.3125C7.49782 22.3125 4.92188 24.8884 4.92188 28.0547C4.92188 31.2209 7.49782 33.7969 10.6641 33.7969C11.9204 33.7969 13.1151 33.3954 14.1031 32.6539L15.0059 33.5567C15.1597 33.7105 15.3684 33.797 15.5859 33.797H19.3594C19.8124 33.797 20.1797 33.4296 20.1797 32.9766C20.1797 32.5237 19.8124 32.1562 19.3594 32.1562ZM14.0866 30.3171L11.2441 27.4746C10.9238 27.1544 10.4044 27.1544 10.084 27.4746C9.76369 27.795 9.76369 28.3144 10.084 28.6348L12.9264 31.4772C12.2608 31.9188 11.4806 32.1562 10.6641 32.1562C8.40246 32.1562 6.5625 30.3163 6.5625 28.0547C6.5625 25.7931 8.40246 23.9531 10.6641 23.9531C12.9257 23.9531 14.7656 25.7931 14.7656 28.0547C14.7656 28.8713 14.5281 29.6517 14.0866 30.3171Z" fill="#720C10"/>
</g>
<defs>
<clipPath id="clip0_1372_5356">
<rect width="42" height="42" fill="white"/>
</clipPath>
</defs>
</svg>
