<svg width="42" height="42" viewBox="0 0 42 42" fill="none" xmlns="http://www.w3.org/2000/svg">
<g clip-path="url(#clip0_1372_5511)">
<path d="M41.2576 37.7368L36.0076 28.5493C35.9501 28.449 35.867 28.3655 35.7669 28.3075C35.6668 28.2495 35.5532 28.2188 35.4375 28.2188H29.432C33.8527 23.2411 36.0938 19.0493 36.0938 15.75C36.0938 7.42711 29.3229 0.65625 21 0.65625C12.6771 0.65625 5.90625 7.42711 5.90625 15.75C5.90625 19.0493 8.14734 23.2411 12.568 28.2188H6.5625C6.44679 28.2188 6.33315 28.2495 6.23306 28.3075C6.13296 28.3655 6.04994 28.449 5.99238 28.5493L0.742383 37.7368C0.685885 37.8361 0.6562 37.9483 0.65625 38.0625V40.6875C0.65625 40.8615 0.72539 41.0285 0.848461 41.1515C0.971532 41.2746 1.13845 41.3438 1.3125 41.3438H40.6875C40.8615 41.3438 41.0285 41.2746 41.1515 41.1515C41.2746 41.0285 41.3438 40.8615 41.3438 40.6875V38.0625C41.3438 37.9483 41.3141 37.8361 41.2576 37.7368ZM7.21875 15.75C7.21875 8.15063 13.4006 1.96875 21 1.96875C28.5994 1.96875 34.7812 8.15063 34.7812 15.75C34.7812 22.5807 23.3379 32.6066 21 34.5836C18.6282 32.572 16.379 30.4203 14.2644 28.14C9.65508 23.1271 7.21875 18.8426 7.21875 15.75ZM6.94312 29.5312H13.7657C15.9091 31.8041 18.1868 33.9465 20.5866 35.9469C20.7034 36.0419 20.8494 36.0938 21 36.0938C21.1506 36.0938 21.2966 36.0419 21.4134 35.9469C23.8132 33.9465 26.0909 31.8041 28.2343 29.5312H35.0569L39.5563 37.4062H2.44371L6.94312 29.5312ZM40.0312 40.0312H1.96875V38.7188H40.0312V40.0312Z" fill="#720C10"/>
<path d="M32.1562 11.8125H30.1875V10.5C30.1875 10.326 30.1184 10.159 29.9953 10.036C29.8722 9.91289 29.7053 9.84375 29.5312 9.84375H25.5938C25.4197 9.84375 25.2528 9.91289 25.1297 10.036C25.0066 10.159 24.9375 10.326 24.9375 10.5V13.125H17.0625V10.5C17.0625 10.326 16.9934 10.159 16.8703 10.036C16.7472 9.91289 16.5803 9.84375 16.4062 9.84375H12.4688C12.2947 9.84375 12.1278 9.91289 12.0047 10.036C11.8816 10.159 11.8125 10.326 11.8125 10.5V11.8125H9.84375C9.6697 11.8125 9.50278 11.8816 9.37971 12.0047C9.25664 12.1278 9.1875 12.2947 9.1875 12.4688V17.7188C9.1875 17.8928 9.25664 18.0597 9.37971 18.1828C9.50278 18.3059 9.6697 18.375 9.84375 18.375H11.8125V19.6875C11.8125 19.8615 11.8816 20.0285 12.0047 20.1515C12.1278 20.2746 12.2947 20.3438 12.4688 20.3438H16.4062C16.5803 20.3438 16.7472 20.2746 16.8703 20.1515C16.9934 20.0285 17.0625 19.8615 17.0625 19.6875V17.0625H24.9375V19.6875C24.9375 19.8615 25.0066 20.0285 25.1297 20.1515C25.2528 20.2746 25.4197 20.3438 25.5938 20.3438H29.5312C29.7053 20.3438 29.8722 20.2746 29.9953 20.1515C30.1184 20.0285 30.1875 19.8615 30.1875 19.6875V18.375H32.1562C32.3303 18.375 32.4972 18.3059 32.6203 18.1828C32.7434 18.0597 32.8125 17.8928 32.8125 17.7188V12.4688C32.8125 12.2947 32.7434 12.1278 32.6203 12.0047C32.4972 11.8816 32.3303 11.8125 32.1562 11.8125ZM11.8125 17.0625H10.5V13.125H11.8125V17.0625ZM15.75 19.0312H13.125V11.1562H15.75V19.0312ZM24.9375 15.75H17.0625V14.4375H24.9375V15.75ZM28.875 19.0312H26.25V11.1562H28.875V19.0312ZM31.5 17.0625H30.1875V13.125H31.5V17.0625Z" fill="#720C10"/>
</g>
<defs>
<clipPath id="clip0_1372_5511">
<rect width="42" height="42" fill="white"/>
</clipPath>
</defs>
</svg>
