<svg preserveAspectRatio="none" width="100%" height="100%" overflow="visible" style="display: block;" viewBox="0 0 50 21" fill="none" xmlns="http://www.w3.org/2000/svg">
<g id="Group">
<path id="Vector" d="M46.4045 20.6328H2.60765C1.74828 20.6328 0.943589 20.2109 0.459214 19.5078C-0.0251615 18.8047 -0.134536 17.8984 0.170151 17.1016L5.92796 2.02344C6.39671 0.796875 7.56078 0 8.88109 0H35.7795C36.2014 0 36.5373 0.335937 36.5373 0.757812C36.5373 1.17969 36.2014 1.51562 35.7795 1.51562H8.88109C8.19359 1.51562 7.59203 1.92969 7.34984 2.5625L1.59203 17.6406C1.45921 17.9844 1.50609 18.3516 1.71703 18.6484C1.92015 18.9453 2.24828 19.1172 2.61546 19.1172H46.4045C46.7717 19.1172 47.0998 18.9453 47.3108 18.6406C47.5139 18.3437 47.5608 17.9766 47.4358 17.6328L42.9983 6.00781C42.8498 5.61719 43.0452 5.17969 43.4358 5.03125C43.8264 4.88281 44.2639 5.07812 44.4123 5.46875L48.8498 17.0937C49.1545 17.8984 49.0452 18.7969 48.5608 19.5C48.0686 20.2109 47.2639 20.6328 46.4045 20.6328Z" fill="var(--fill-0, #720C10)"/>
</g>
</svg>
