<svg preserveAspectRatio="none" width="100%" height="100%" overflow="visible" style="display: block;" viewBox="0 0 44 44" fill="none" xmlns="http://www.w3.org/2000/svg">
<g id="Group">
<path id="Vector" fill-rule="evenodd" clip-rule="evenodd" d="M18.9993 2.00019C14.5811 2.00019 10.9993 5.58191 10.9993 10.0002C10.9993 14.4185 14.5811 18.0002 18.9993 18.0002C23.4175 18.0002 26.9993 14.4185 26.9993 10.0002C26.9993 5.58191 23.4175 2.00019 18.9993 2.00019ZM8.99935 10.0002C8.99935 4.47735 13.4765 0.000190735 18.9993 0.000190735C24.5221 0.000190735 28.9993 4.47735 28.9993 10.0002C28.9993 15.523 24.5221 20.0002 18.9993 20.0002C13.4765 20.0002 8.99935 15.523 8.99935 10.0002Z" fill="var(--fill-0, #720C10)"/>
<path id="Vector_2" fill-rule="evenodd" clip-rule="evenodd" d="M16.6838 24.8682C16.7342 25.4182 16.3291 25.905 15.7791 25.9552C11.1748 26.3768 6.6346 27.7038 2.43268 29.9368C2.16642 30.0782 2 30.3552 2 30.6566V38.0004C2 38.5528 2.4477 39.0004 3 39.0004H15.6879C16.2402 39.0004 16.6879 39.4482 16.6879 40.0004C16.6879 40.5528 16.2402 41.0004 15.6879 41.0004H3C1.34314 41.0004 0 39.6574 0 38.0004V30.6566C0 29.6154 0.5747 28.6592 1.49416 28.1706C5.93392 25.8114 10.7316 24.409 15.5968 23.9636C16.1467 23.9132 16.6334 24.3184 16.6838 24.8682Z" fill="var(--fill-0, #720C10)"/>
<path id="Vector_3" fill-rule="evenodd" clip-rule="evenodd" d="M33.2607 21.6235C32.9165 21.3825 32.4581 21.3825 32.1139 21.6235L24.1139 27.2235C23.8465 27.4107 23.6873 27.7163 23.6873 28.0427V41.0013C23.6873 41.5537 24.1351 42.0013 24.6873 42.0013H40.6873C41.2395 42.0013 41.6873 41.5537 41.6873 41.0013V28.0427C41.6873 27.7163 41.5281 27.4107 41.2607 27.2235L33.2607 21.6235ZM30.9669 19.9851C31.9999 19.2619 33.3747 19.2619 34.4077 19.9851L42.4077 25.5851C43.2097 26.1463 43.6873 27.0637 43.6873 28.0427V41.0013C43.6873 42.6583 42.3441 44.0013 40.6873 44.0013H24.6873C23.0305 44.0013 21.6873 42.6583 21.6873 41.0013V28.0427C21.6873 27.0637 22.1649 26.1463 22.9669 25.5851L30.9669 19.9851Z" fill="var(--fill-0, #720C10)"/>
<path id="Vector_4" fill-rule="evenodd" clip-rule="evenodd" d="M28.688 37.9996C28.688 35.7904 30.4788 33.9996 32.688 33.9996C34.8972 33.9996 36.688 35.7904 36.688 37.9996V42.9996C36.688 43.5518 36.2402 43.9996 35.688 43.9996H29.688C29.1358 43.9996 28.688 43.5518 28.688 42.9996V37.9996ZM32.688 35.9996C31.5834 35.9996 30.688 36.895 30.688 37.9996V41.9996H34.688V37.9996C34.688 36.895 33.7926 35.9996 32.688 35.9996Z" fill="var(--fill-0, #720C10)"/>
</g>
</svg>
