<svg preserveAspectRatio="none" width="100%" height="100%" overflow="visible" style="display: block;" viewBox="0 0 40 35" fill="none" xmlns="http://www.w3.org/2000/svg">
<g id="Group">
<path id="Vector" d="M17.6804 8.10547C17.6804 7.02676 18.5548 6.15234 19.6335 6.15234C20.7122 6.15234 21.5866 7.02676 21.5866 8.10547C21.5866 9.18418 20.7122 10.0586 19.6335 10.0586C18.5548 10.0586 17.6804 9.18418 17.6804 8.10547Z" fill="var(--fill-0, #720C10)"/>
<path id="Vector_2" fill-rule="evenodd" clip-rule="evenodd" d="M19.6335 18.4082C18.9831 19.1366 18.9829 19.1365 18.9828 19.1363L18.9808 19.1347L18.9762 19.1305L18.9662 19.1216L18.959 19.115C18.9443 19.1018 18.923 19.0825 18.8956 19.0575C18.8408 19.0076 18.7615 18.9348 18.6612 18.8412C18.4606 18.6542 18.1756 18.384 17.8343 18.0479C17.1528 17.3766 16.2413 16.437 15.3269 15.3681C14.4157 14.3028 13.4835 13.088 12.774 11.8668C12.0787 10.6698 11.528 9.35098 11.528 8.10547C11.528 3.62891 15.1569 0 19.6335 0C24.11 0 27.739 3.62891 27.739 8.10547C27.739 9.35098 27.1883 10.6698 26.493 11.8668C25.7835 13.088 24.8513 14.3028 23.94 15.3681C23.0257 16.437 22.1141 17.3766 21.4327 18.0479C21.0914 18.384 20.8063 18.6542 20.6057 18.8412C20.5055 18.9348 20.4262 19.0076 20.3714 19.0575C20.3557 19.0718 20.3421 19.0842 20.3306 19.0946L20.3197 19.1044L20.308 19.115L20.2975 19.1244L20.2861 19.1347L20.2842 19.1363C20.2841 19.1365 20.2839 19.1366 19.6335 18.4082ZM19.6335 1.95312C16.2356 1.95312 13.4811 4.70762 13.4811 8.10547C13.4811 8.82861 13.8216 9.78184 14.4629 10.8857C15.0901 11.9654 15.9401 13.0802 16.8111 14.0985C17.679 15.1131 18.5497 16.0109 19.2049 16.6563C19.3614 16.8104 19.5053 16.9499 19.6335 17.0727C19.7617 16.9499 19.9056 16.8104 20.0621 16.6563C20.7173 16.0109 21.588 15.1131 22.4558 14.0985C23.3268 13.0802 24.1768 11.9654 24.8041 10.8857C25.4454 9.78184 25.7858 8.82861 25.7858 8.10547C25.7858 4.70762 23.0313 1.95312 19.6335 1.95312Z" fill="var(--fill-0, #720C10)"/>
<path id="Vector_3" d="M19.6339 18.4082L20.2842 19.1366C19.9137 19.4675 19.354 19.4675 18.9835 19.1366L19.6339 18.4082Z" fill="var(--fill-0, #720C10)"/>
<path id="Vector_4" d="M8.69394 11.6211C8.16758 11.621 7.80664 11.621 7.47422 11.6667C5.76699 11.9017 4.31003 13.0191 3.64058 14.6071C3.51021 14.9163 3.41672 15.2649 3.28038 15.7733L1.28957 23.191C0.700907 25.3842 0.230985 27.1351 0.0659558 28.5265C-0.104005 29.9595 0.0217664 31.2122 0.83203 32.2686C1.64228 33.325 2.81959 33.7712 4.24765 33.9784C5.63428 34.1798 7.44707 34.1797 9.71787 34.1797H29.5482C31.819 34.1797 33.6318 34.1798 35.0186 33.9784C36.4466 33.7712 37.6239 33.325 38.4342 32.2686C39.2444 31.2122 39.3702 29.9595 39.2002 28.5265C39.0352 27.1351 38.5652 25.3842 37.9767 23.191L35.9857 15.7733C35.8494 15.265 35.756 14.9163 35.6256 14.6071C34.9561 13.0191 33.4992 11.9017 31.7919 11.6667C31.4595 11.621 31.0985 11.621 30.5723 11.6211H29.4123C28.8729 11.6211 28.4357 12.0583 28.4357 12.5977C28.4357 13.137 28.8729 13.5742 29.4123 13.5742H30.5C31.1258 13.5742 31.3431 13.5765 31.5257 13.6016C32.55 13.7426 33.4242 14.4131 33.8259 15.3658C33.8975 15.5358 33.956 15.7449 34.1182 16.3493L36.0691 23.6187C36.6837 25.9085 37.1144 27.5224 37.2606 28.7566C37.4041 29.9657 37.2468 30.6074 36.8844 31.0799C36.522 31.5524 35.943 31.8707 34.738 32.0456C33.5081 32.2241 31.8377 32.2266 29.4669 32.2266H9.79931C7.42842 32.2266 5.7581 32.2241 4.52822 32.0456C3.3232 31.8707 2.74421 31.5524 2.38179 31.0799C2.01937 30.6074 1.86207 29.9657 2.00549 28.7566C2.15185 27.5224 2.58247 25.9085 3.19703 23.6187L5.14804 16.3493C5.31025 15.7449 5.36875 15.5358 5.44033 15.3658C5.84199 14.4131 6.71621 13.7426 7.74053 13.6016C7.92314 13.5765 8.14043 13.5742 8.76611 13.5742H9.87832C10.4177 13.5742 10.8549 13.137 10.8549 12.5977C10.8549 12.0583 10.4177 11.6211 9.87832 11.6211H8.69394Z" fill="var(--fill-0, #720C10)"/>
</g>
</svg>
