<svg preserveAspectRatio="none" width="100%" height="100%" overflow="visible" style="display: block;" viewBox="0 0 42 42" fill="none" xmlns="http://www.w3.org/2000/svg">
<g id="Layer_2">
<path id="Vector" d="M37.099 35.0017C36.028 35.0017 35.475 35.4847 35.027 35.8697C34.663 36.1917 34.418 36.4017 33.872 36.4017C33.326 36.4017 33.088 36.1917 32.717 35.8767C32.269 35.4847 31.716 35.0017 30.645 35.0017C29.581 35.0017 29.021 35.4847 28.573 35.8767C28.209 36.1917 27.971 36.4017 27.425 36.4017C26.879 36.4017 26.641 36.1917 26.277 35.8767C25.829 35.4847 25.276 35.0017 24.205 35.0017C23.134 35.0017 22.581 35.4847 22.133 35.8767C21.769 36.1917 21.531 36.4017 20.985 36.4017C20.446 36.4017 20.201 36.1917 19.837 35.8767C19.396 35.4847 18.836 35.0017 17.772 35.0017C16.708 35.0017 16.148 35.4847 15.7 35.8767C15.336 36.1917 15.098 36.4017 14.552 36.4017C14.006 36.4017 13.768 36.1917 13.404 35.8767C12.956 35.4847 12.403 35.0017 11.332 35.0017C10.268 35.0017 9.70797 35.4847 9.26697 35.8767C8.89597 36.1917 8.65797 36.4017 8.11197 36.4017C7.57297 36.4017 7.32797 36.1917 6.96397 35.8767C6.52297 35.4847 5.96297 35.0017 4.89897 35.0017C4.51397 35.0017 4.19897 35.3167 4.19897 35.7017C4.19897 36.0867 4.51397 36.4017 4.89897 36.4017C5.43797 36.4017 5.68297 36.6117 6.04697 36.9267C6.49497 37.3187 7.04797 37.8017 8.11197 37.8017C9.17598 37.8017 9.73598 37.3187 10.184 36.9267C10.548 36.6117 10.793 36.4017 11.332 36.4017C11.878 36.4017 12.116 36.6117 12.48 36.9267C12.928 37.3187 13.481 37.8017 14.552 37.8017C15.616 37.8017 16.176 37.3187 16.624 36.9267C16.988 36.6117 17.226 36.4017 17.772 36.4017C18.311 36.4017 18.556 36.6117 18.92 36.9267C19.368 37.3187 19.921 37.8017 20.985 37.8017C22.049 37.8017 22.609 37.3187 23.057 36.9267C23.421 36.6117 23.666 36.4017 24.205 36.4017C24.751 36.4017 24.989 36.6117 25.353 36.9267C25.801 37.3187 26.354 37.8017 27.425 37.8017C28.489 37.8017 29.049 37.3187 29.497 36.9267C29.861 36.6117 30.106 36.4017 30.645 36.4017C31.191 36.4017 31.436 36.6117 31.8 36.9337C32.248 37.3187 32.801 37.8017 33.872 37.8017C34.943 37.8017 35.496 37.3187 35.944 36.9337C36.315 36.6117 36.553 36.4017 37.099 36.4017C37.484 36.4017 37.799 36.0867 37.799 35.7017C37.799 35.3167 37.484 35.0017 37.099 35.0017Z" fill="var(--fill-0, #720C10)"/>
<path id="Vector_2" d="M37.099 30.7104C36.028 30.7104 35.475 31.1935 35.027 31.5785C34.663 31.9005 34.418 32.1104 33.872 32.1104C33.326 32.1104 33.088 31.9004 32.717 31.5854C32.269 31.2004 31.716 30.7104 30.645 30.7104C29.581 30.7104 29.021 31.1934 28.573 31.5854C28.209 31.9004 27.964 32.1104 27.425 32.1104C26.879 32.1104 26.641 31.9004 26.277 31.5854C25.829 31.1934 25.276 30.7104 24.205 30.7104C23.134 30.7104 22.581 31.1934 22.133 31.5854C21.769 31.9004 21.524 32.1104 20.985 32.1104C20.446 32.1104 20.201 31.9004 19.837 31.5854C19.389 31.2004 18.836 30.7104 17.772 30.7104C16.708 30.7104 16.148 31.1934 15.7 31.5854C15.336 31.9004 15.091 32.1104 14.552 32.1104C14.006 32.1104 13.768 31.9004 13.404 31.5854C12.956 31.1934 12.403 30.7104 11.332 30.7104C10.268 30.7104 9.70797 31.1934 9.26697 31.5854C8.90297 31.9004 8.65798 32.1104 8.11898 32.1104C7.57998 32.1104 7.33497 31.9004 6.97097 31.5854C6.52297 31.1934 5.96297 30.7104 4.89897 30.7104C4.51397 30.7104 4.19897 31.0254 4.19897 31.4104C4.19897 31.7954 4.51397 32.1104 4.89897 32.1104C5.43797 32.1104 5.68297 32.3204 6.04697 32.6354C6.49497 33.0204 7.04797 33.5104 8.11197 33.5104C9.17598 33.5104 9.73598 33.0274 10.184 32.6354C10.548 32.3204 10.793 32.1104 11.332 32.1104C11.878 32.1104 12.116 32.3204 12.48 32.6354C12.928 33.0274 13.481 33.5104 14.552 33.5104C15.616 33.5104 16.176 33.0274 16.624 32.6354C16.988 32.3204 17.233 32.1104 17.772 32.1104C18.311 32.1104 18.556 32.3204 18.92 32.6354C19.368 33.0274 19.921 33.5104 20.985 33.5104C22.049 33.5104 22.609 33.0274 23.057 32.6354C23.421 32.3204 23.666 32.1104 24.205 32.1104C24.751 32.1104 24.989 32.3204 25.353 32.6354C25.801 33.0274 26.354 33.5104 27.425 33.5104C28.489 33.5104 29.049 33.0274 29.497 32.6354C29.861 32.3204 30.106 32.1104 30.645 32.1104C31.191 32.1104 31.436 32.3205 31.8 32.6425C32.248 33.0275 32.801 33.5104 33.872 33.5104C34.943 33.5104 35.496 33.0275 35.944 32.6425C36.308 32.3205 36.553 32.1104 37.099 32.1104C37.484 32.1104 37.799 31.7954 37.799 31.4104C37.799 31.0254 37.484 30.7104 37.099 30.7104Z" fill="var(--fill-0, #720C10)"/>
<path id="Vector_3" d="M21.0012 4.19897C19.0692 4.19897 17.5012 5.76697 17.5012 7.69897V21.076C16.6052 21.993 16.1012 23.218 16.1012 24.499C16.1012 27.201 18.2992 29.399 21.0012 29.399C23.7032 29.399 25.9012 27.201 25.9012 24.499C25.9012 23.218 25.3972 21.993 24.5012 21.076V7.69897C24.5012 5.76697 22.9332 4.19897 21.0012 4.19897ZM21.0012 27.999C19.0692 27.999 17.5012 26.431 17.5012 24.499C17.5012 23.512 17.9282 22.56 18.6702 21.895C18.8172 21.762 18.9012 21.573 18.9012 21.377V7.69897C18.9012 6.54397 19.8462 5.59897 21.0012 5.59897C22.1562 5.59897 23.1012 6.54397 23.1012 7.69897V21.377C23.1012 21.573 23.1852 21.762 23.3322 21.895C24.0742 22.56 24.5012 23.512 24.5012 24.499C24.5012 26.431 22.9332 27.999 21.0012 27.999Z" fill="var(--fill-0, #720C10)"/>
<path id="Vector_4" d="M21.7005 22.5273V11.2923C21.7005 10.9073 21.3855 10.5923 21.0005 10.5923C20.6155 10.5923 20.3005 10.9073 20.3005 11.2923V22.5273C19.4885 22.8143 18.9005 23.5843 18.9005 24.5013C18.9005 25.6563 19.8455 26.6013 21.0005 26.6013C22.1555 26.6013 23.1005 25.6563 23.1005 24.5013C23.1005 23.5913 22.5125 22.8213 21.7005 22.5273ZM21.0005 25.2013C20.6155 25.2013 20.3005 24.8863 20.3005 24.5013C20.3005 24.1163 20.6155 23.8013 21.0005 23.8013C21.3855 23.8013 21.7005 24.1163 21.7005 24.5013C21.7005 24.8863 21.3855 25.2013 21.0005 25.2013Z" fill="var(--fill-0, #720C10)"/>
<path id="Vector_5" d="M26.5988 10.5003H29.3988C29.7838 10.5003 30.0988 10.1853 30.0988 9.80034C30.0988 9.41534 29.7838 9.10034 29.3988 9.10034H26.5988C26.2138 9.10034 25.8988 9.41534 25.8988 9.80034C25.8988 10.1853 26.2138 10.5003 26.5988 10.5003Z" fill="var(--fill-0, #720C10)"/>
<path id="Vector_6" d="M26.5988 13.2997H28.6988C29.0838 13.2997 29.3988 12.9847 29.3988 12.5997C29.3988 12.2147 29.0838 11.8997 28.6988 11.8997H26.5988C26.2138 11.8997 25.8988 12.2147 25.8988 12.5997C25.8988 12.9847 26.2138 13.2997 26.5988 13.2997Z" fill="var(--fill-0, #720C10)"/>
<path id="Vector_7" d="M26.5988 16.099H29.3988C29.7838 16.099 30.0988 15.784 30.0988 15.399C30.0988 15.014 29.7838 14.699 29.3988 14.699H26.5988C26.2138 14.699 25.8988 15.014 25.8988 15.399C25.8988 15.784 26.2138 16.099 26.5988 16.099Z" fill="var(--fill-0, #720C10)"/>
<path id="Vector_8" d="M26.5988 18.8983H28.6988C29.0838 18.8983 29.3988 18.5833 29.3988 18.1983C29.3988 17.8133 29.0838 17.4983 28.6988 17.4983H26.5988C26.2138 17.4983 25.8988 17.8133 25.8988 18.1983C25.8988 18.5833 26.2138 18.8983 26.5988 18.8983Z" fill="var(--fill-0, #720C10)"/>
</g>
</svg>
