<svg preserveAspectRatio="none" width="100%" height="100%" overflow="visible" style="display: block;" viewBox="0 0 42 42" fill="none" xmlns="http://www.w3.org/2000/svg">
<g id="Frame" clip-path="url(#clip0_0_6)">
<path id="Vector" d="M39.1323 26.2034C39.7353 25.6004 40.0676 24.7983 40.0676 23.9457C40.0676 23.49 39.6969 23.1193 39.2412 23.1193H27.1782L25.46 21.6792L23.3673 11.7561C22.9933 9.98438 21.776 8.50077 20.1107 7.78749L18.7521 7.20654C18.646 7.16136 18.5387 7.11939 18.4304 7.07933C18.8738 6.58138 19.1443 5.92545 19.1443 5.20768V2.81821C19.1443 1.26443 17.8799 0 16.3261 0H15.816C14.2619 0 12.9974 1.26443 12.9974 2.81821V5.20768C12.9974 5.90687 13.2541 6.54709 13.6774 7.04024C13.5492 7.0851 13.4223 7.13349 13.2967 7.18604L11.9131 7.76602C10.1789 8.49276 8.93753 10.0305 8.59275 11.8797L7.67278 16.8183C7.6103 17.1525 7.83076 17.4735 8.16465 17.536C8.20278 17.5431 8.24091 17.5463 8.27808 17.5463C8.56871 17.5463 8.8273 17.3396 8.88242 17.0438L9.80238 12.1053C10.0709 10.665 11.038 9.46688 12.3886 8.901L13.7722 8.32069C14.2071 8.13868 14.6624 8.01147 15.1273 7.94034C15.3478 7.99609 15.5782 8.02589 15.816 8.02589H16.3261C16.543 8.02589 16.7539 8.00026 16.957 7.95379C17.4075 8.02974 17.8481 8.15823 18.2682 8.33799L19.6265 8.91862C20.9237 9.47425 21.8721 10.6301 22.1634 12.0102L24.2565 21.9349C24.3113 22.2003 24.4561 22.4428 24.665 22.6184L25.2626 23.1193H24.7112C23.9665 23.1193 23.3167 22.6155 23.1308 21.8939L20.9791 13.5418C20.8875 13.1906 20.5596 12.9689 20.1988 13.0154C19.8387 13.0618 19.5772 13.3589 19.5772 13.7222V20.0402H17.7985C17.7062 20.0133 17.6062 20.0072 17.5056 20.0274C17.488 20.0309 17.4713 20.0354 17.4543 20.0402H12.3915L12.1339 13.462C12.122 13.1179 11.8541 12.8378 11.5106 12.8106C11.1668 12.7834 10.8579 13.0186 10.7925 13.3557L9.14998 21.7353C8.99265 22.5374 8.28545 23.1193 7.46835 23.1193H6.67976L7.66445 22.2611C7.85383 22.0977 7.98328 21.8712 8.02878 21.6238L8.4069 19.5948C8.46906 19.2606 8.24892 18.9395 7.91471 18.8774C7.58082 18.8152 7.25942 19.0353 7.19726 19.3695L6.82652 21.3591L4.80747 23.1193H2.71312C2.49554 23.1193 2.28982 23.2035 2.13345 23.3564C2.13025 23.3596 2.12704 23.3628 2.12384 23.366C1.97099 23.5224 1.88672 23.7281 1.88672 23.9457C1.88672 25.4869 2.99029 26.7805 4.45051 27.0753V40.7479H3.69685C3.35719 40.7479 3.08161 41.0235 3.08161 41.3631C3.08161 41.7031 3.35719 41.9784 3.69685 41.9784H4.90712C4.95775 41.9921 5.01094 42.0001 5.06606 42.0001H36.8886C36.9437 42.0001 36.9969 41.9921 37.0475 41.9784H38.2578C38.5978 41.9784 38.8731 41.7031 38.8731 41.3631C38.8731 41.0235 38.5978 40.7479 38.2578 40.7479H37.5038V27.0766C38.1168 26.9542 38.6808 26.6546 39.1323 26.2034ZM14.2279 5.20768V2.81821C14.2279 1.94279 14.9402 1.23046 15.816 1.23046H16.3261C17.2015 1.23046 17.9138 1.94279 17.9138 2.81821V5.20768C17.9138 6.08311 17.2015 6.79543 16.3261 6.79543H15.816C14.9402 6.79543 14.2279 6.08311 14.2279 5.20768ZM21.9394 22.2009C22.026 22.5374 22.1708 22.8463 22.3602 23.1193H21.5155L20.8077 20.5718V17.8084L21.9394 22.2009ZM19.7249 21.271L21.1297 26.3271C21.155 26.4178 21.1739 26.5114 21.1877 26.6123C21.2008 26.7023 21.2076 26.7985 21.2076 26.8975V29.1094C20.2081 29.484 19.1638 29.7564 18.1029 29.9185C18.0282 29.9301 17.9536 29.9406 17.8786 29.9512C17.3768 29.3325 16.6077 28.159 16.7269 26.8914C16.7958 26.1595 17.1663 25.2524 17.1698 25.2437C17.3371 24.8381 17.4844 24.5981 17.6267 24.3664C17.7376 24.186 17.8523 23.9992 17.9641 23.7572C18.2987 23.0334 18.4236 22.1993 18.34 21.271H19.7249ZM12.8513 40.7479C13.2579 40.455 13.6005 40.075 13.8459 39.6331L14.7028 38.0893L14.7752 38.2758L13.7969 40.7479H12.8513ZM13.5239 35.058L14.1228 36.5983L12.7699 39.0358C12.4883 39.5431 12.0063 39.9244 11.4481 40.0814L11.2604 40.1339L13.5239 35.058ZM15.1603 40.6466L16.0082 38.5042C16.0653 38.36 16.0659 38.1995 16.0098 38.0547L15.3741 36.4208C15.3738 36.4195 15.3734 36.4185 15.3728 36.4176L14.1427 33.2539C14.1404 33.2482 14.1382 33.2424 14.1359 33.2363L13.3246 31.149C14.0068 31.249 14.6954 31.3076 15.3843 31.323L15.9986 33.5853C15.9989 33.5865 15.9992 33.5875 15.9996 33.5885L17.2864 38.328C17.323 38.5017 17.2752 38.6846 17.1582 38.8192L16.1082 40.0228C15.8522 40.316 15.5234 40.53 15.1603 40.6466ZM16.6542 31.3031C16.7952 31.2958 16.9359 31.2868 17.0769 31.2759L16.7878 31.796L16.6542 31.3031ZM17.1041 21.271C17.188 22.0275 17.1022 22.6889 16.8471 23.241C16.7657 23.4169 16.6789 23.5583 16.5783 23.722C16.4184 23.9825 16.237 24.2776 16.0319 24.7753C15.9867 24.8855 15.5865 25.8788 15.5019 26.776C15.4398 27.4393 15.5083 28.6576 16.4462 30.082C16.2479 30.0906 16.0499 30.0961 15.8522 30.097C14.7329 30.1041 13.6095 29.989 12.5132 29.7548C12.5033 29.7522 12.4931 29.7497 12.4828 29.7477C11.7452 29.5894 11.0117 29.3748 10.3026 29.1098V27.0016C10.3026 26.877 10.3135 26.7523 10.3349 26.6309C10.3567 26.5094 10.3878 26.3918 10.4279 26.281L12.2322 21.271H17.1041ZM10.3577 21.9721L11.0896 18.2381L11.1806 20.56L10.2587 23.1193H9.8607C10.101 22.7847 10.2744 22.3964 10.3577 21.9721ZM3.15916 24.3497H9.81552L9.27078 25.8625C9.26534 25.8775 9.26053 25.8929 9.2554 25.9083H5.06894C4.13135 25.9032 3.34565 25.2341 3.15916 24.3497ZM5.68097 27.1388H9.07211V29.1315C9.07211 29.6279 9.38294 30.0784 9.8466 30.2531C10.5153 30.5043 11.2043 30.7135 11.8987 30.8773L12.8965 33.4436L10.1302 39.6472C9.96869 40.0103 9.99208 40.4137 10.1831 40.7479H5.68097V27.1388ZM17.1086 40.7479L18.0859 39.6277C18.4631 39.1944 18.6117 38.6023 18.4839 38.0434C18.482 38.0354 18.48 38.0274 18.4778 38.0194L17.2502 33.4981L18.5903 31.0849C19.639 30.9048 20.6712 30.6264 21.6619 30.2531C22.1259 30.0787 22.438 29.6276 22.438 29.1306V26.8972C22.438 26.7389 22.4271 26.5835 22.4063 26.4409C22.3861 26.2912 22.3554 26.1425 22.3153 25.998L21.8574 24.3497H38.7958C38.7186 24.7198 38.5356 25.0595 38.262 25.3331C37.8944 25.701 37.4055 25.9051 36.8886 25.9083H25.0284C24.6884 25.9083 24.4132 26.1836 24.4132 26.5235C24.4132 26.8632 24.6884 27.1388 25.0284 27.1388H36.2734V40.7479H17.1086Z" fill="var(--fill-0, #720C10)"/>
<path id="Vector_2" d="M27.7955 19.4851C28.1354 19.4851 28.4107 19.2095 28.4107 18.8698C28.4107 17.7759 28.7468 17.2555 29.1361 16.6528C29.5681 15.9837 30.058 15.2252 30.058 13.7685C30.058 12.3118 29.5681 11.5534 29.1361 10.884C28.9519 10.5985 28.5709 10.5168 28.2854 10.701C28.0002 10.8853 27.9182 11.2663 28.1024 11.5515C28.4914 12.1542 28.8276 12.6746 28.8276 13.7685C28.8276 14.8622 28.4914 15.3829 28.1024 15.9853C27.6702 16.6547 27.1805 17.4131 27.1805 18.8698C27.1802 19.2095 27.4558 19.4851 27.7955 19.4851Z" fill="var(--fill-0, #720C10)"/>
<path id="Vector_3" d="M27.7958 9.27944C28.1358 9.27944 28.411 9.00419 28.411 8.66421C28.411 7.57025 28.7471 7.05019 29.1365 6.44745C29.5684 5.77839 30.0584 5.01992 30.0584 3.56323C30.0584 3.22325 29.7831 2.948 29.4431 2.948C29.1031 2.948 28.8279 3.22325 28.8279 3.56323C28.8279 4.65719 28.4918 5.17725 28.1027 5.77999C27.6705 6.44905 27.1805 7.20752 27.1805 8.66421C27.1805 9.00419 27.4561 9.27944 27.7958 9.27944Z" fill="var(--fill-0, #720C10)"/>
<path id="Vector_4" d="M32.5433 19.4812C32.8833 19.4812 33.1586 19.2056 33.1586 18.866C33.1586 17.772 33.4947 17.2516 33.884 16.6489C33.9898 16.4851 34.099 16.316 34.2041 16.1317C34.3724 15.8363 34.2692 15.4607 33.9741 15.2925C33.6786 15.1243 33.3031 15.2271 33.1349 15.5226C33.0467 15.677 32.9512 15.825 32.85 15.9814C32.418 16.6508 31.9281 17.4093 31.9281 18.866C31.9281 19.2056 32.2037 19.4812 32.5433 19.4812Z" fill="var(--fill-0, #720C10)"/>
<path id="Vector_5" d="M33.5754 13.7661C33.5754 14.1058 33.851 14.3814 34.1907 14.3814C34.5307 14.3814 34.8059 14.1058 34.8059 13.7661C34.8059 12.3091 34.316 11.5507 33.884 10.8816C33.4947 10.2789 33.1589 9.75849 33.1589 8.66453C33.1589 7.57057 33.4947 7.05019 33.884 6.44777C34.3163 5.77839 34.8059 5.01992 34.8059 3.56355C34.8059 3.22357 34.5307 2.948 34.1907 2.948C33.851 2.948 33.5754 3.22357 33.5754 3.56355C33.5754 4.65719 33.2393 5.17757 32.8503 5.78031C32.418 6.44937 31.9281 7.20784 31.9281 8.66453C31.9281 10.1212 32.418 10.8797 32.8503 11.5491C33.2393 12.1518 33.5754 12.6722 33.5754 13.7661Z" fill="var(--fill-0, #720C10)"/>
<path id="Vector_6" d="M36.6295 18.8669C36.6295 19.2065 36.9051 19.4821 37.2447 19.4821C37.5847 19.4821 37.8603 19.2065 37.8603 18.8669C37.8603 17.7729 38.1961 17.2525 38.5854 16.6498C39.0177 15.9807 39.5073 15.2223 39.5073 13.7656C39.5073 12.3086 39.0177 11.5501 38.5854 10.881C38.1961 10.2783 37.8603 9.75791 37.8603 8.66395C37.8603 8.28969 37.8991 7.96349 37.9795 7.66645C38.0683 7.33864 37.8741 7.00058 37.546 6.91215C37.2185 6.82339 36.8804 7.01725 36.7917 7.34537C36.6827 7.74848 36.6295 8.17978 36.6295 8.66395C36.6295 10.1206 37.1195 10.8791 37.5517 11.5485C37.9407 12.1512 38.2769 12.6713 38.2769 13.7656C38.2769 14.8595 37.9407 15.3796 37.5517 15.9823C37.1195 16.6517 36.6295 17.4102 36.6295 18.8669Z" fill="var(--fill-0, #720C10)"/>
<path id="Vector_7" d="M38.2098 5.95879C38.2982 6.00301 38.3924 6.02416 38.485 6.02416C38.7103 6.02416 38.9275 5.90015 39.0355 5.68482C39.3563 5.0462 39.5056 4.372 39.5056 3.56355C39.5056 3.22357 39.2303 2.948 38.8904 2.948C38.5504 2.948 38.2751 3.22357 38.2751 3.56355C38.2751 4.35534 38.0938 4.81805 37.9358 5.13271C37.7833 5.43648 37.906 5.80626 38.2098 5.95879Z" fill="var(--fill-0, #720C10)"/>
</g>
<defs>
<clipPath id="clip0_0_6">
<rect width="42" height="42" fill="white"/>
</clipPath>
</defs>
</svg>
