<svg preserveAspectRatio="none" width="100%" height="100%" overflow="visible" style="display: block;" viewBox="0 0 311 47" fill="none" xmlns="http://www.w3.org/2000/svg">
<g id="Group 1000006496">
<path id="Vector" d="M310.894 0H0.000120491V47H310.894V0Z" fill="var(--fill-0, white)"/>
<path id="Vector_2" d="M310.951 0H267.749V47H310.951V0Z" fill="var(--fill-0, #161215)"/>
<path id="Vector_3" d="M266.317 0H223.114V47H266.317V0Z" fill="var(--fill-0, #161215)"/>
<path id="Vector_4" d="M221.681 0H178.478V47H221.681V0Z" fill="var(--fill-0, #161215)"/>
<path id="Vector_5" d="M177.103 0H133.901V47H177.103V0Z" fill="var(--fill-0, #161215)"/>
<path id="Vector_6" d="M132.469 0H89.2664V47H132.469V0Z" fill="var(--fill-0, #246D38)"/>
<path id="Vector_7" d="M87.8391 0H44.6364V47H87.8391V0Z" fill="var(--fill-0, #246D38)"/>
<path id="Vector_8" d="M43.2028 0H0.000120491V47H43.2028V0Z" fill="var(--fill-0, #246D38)"/>
<path id="Vector_9" d="M15.8496 33.2407L13.7032 40.2303H5.28285L17.4456 6.71382H25.8661L37.9738 40.2303H29.5534L27.4071 33.2407H15.9046H15.8496ZM25.4808 26.8017L21.6833 14.4187H21.5732L17.7759 26.8017H25.4808Z" fill="var(--fill-0, white)"/>
<path id="Vector_10" d="M80.519 30.4886C80.519 36.9277 75.6759 41.0554 67.2555 41.0554C58.8351 41.0554 51.9557 36.7626 51.9557 29.2778H60.3761C60.3761 32.8551 63.4581 34.1209 67.2005 34.1209C70.3375 34.1209 72.0436 32.9102 72.0436 31.2041C72.0436 28.5073 68.4113 27.9019 63.6782 26.526C57.8995 24.8199 52.8363 22.3435 52.8363 16.1795C52.8363 8.85985 58.56 5.99798 65.7696 5.99798C73.5846 5.99798 79.7485 10.1255 79.9686 16.8949H71.5482C71.163 14.3632 69.0167 12.8774 65.7696 12.8774C63.238 12.8774 61.2567 13.7028 61.2567 15.519C61.2567 17.6103 63.348 18.2158 67.5857 19.4266C73.9147 21.1877 80.4089 23.224 80.4089 30.3786" fill="var(--fill-0, white)"/>
<path id="Vector_11" d="M105.119 6.82416V19.9226H116.622V6.82416H125.042V40.3406H116.622V26.802H105.119V40.3406H96.699V6.82416H105.119Z" fill="var(--fill-0, white)"/>
<path id="Vector_12" d="M151.291 13.7036H141.549V6.82416H169.397V13.7036H159.711V40.2855H151.291V13.7036Z" fill="var(--fill-0, white)"/>
<path id="Vector_13" d="M210.292 19.6473V26.5267H195.708V33.4061H212.934V40.3406H187.287V6.82416H212.658V13.7036H195.708V19.6473H210.292Z" fill="var(--fill-0, white)"/>
<path id="Vector_14" d="M245.074 12.9321C239.516 12.9321 237.645 17.225 237.645 23.499C237.645 29.773 239.516 34.1208 245.074 34.1208C249.587 34.1208 251.238 31.4792 251.844 27.6817H260.264C259.494 35.5518 254.651 41.0002 245.46 41.0002C234.893 41.0002 229.224 33.6255 229.224 23.499C229.224 13.3725 234.893 6.05273 245.46 6.05273C254.596 6.05273 259.494 11.5014 260.264 19.2613H251.844C251.238 15.629 249.532 12.9321 245.074 12.9321Z" fill="var(--fill-0, white)"/>
<path id="Vector_15" d="M283.596 6.82416V19.9226H295.099V6.82416H303.519V40.3406H295.099V26.802H283.596V40.3406H275.176V6.82416H283.596Z" fill="var(--fill-0, white)"/>
</g>
</svg>
