<?xml version="1.0" encoding="UTF-8"?>
<svg id="Layer_1" xmlns="http://www.w3.org/2000/svg" xmlns:xlink="http://www.w3.org/1999/xlink" version="1.1" viewBox="0 0 414 665">
  <!-- Generator: Adobe Illustrator 30.0.0, SVG Export Plug-In . SVG Version: 2.1.1 Build 123)  -->
  <defs>
    <style>
      .st0, .st1, .st2 {
        fill: none;
      }

      .st1 {
        stroke-linejoin: round;
      }

      .st1, .st2 {
        stroke: #fff;
        stroke-linecap: round;
      }

      .st2 {
        stroke-miterlimit: 10;
      }

      .st3 {
        clip-path: url(#clippath);
      }
    </style>
    <clipPath id="clippath">
      <rect class="st0" width="414" height="665"/>
    </clipPath>
  </defs>
  <g class="st3">
    <g>
      <path class="st2" d="M-91.6,664.39V154.26s.83-18.02-22.27-20.35c-23.11-2.34-59.81-6.84-59.81-6.84,0,0-5.01-.5-9.09,1.76"/>
      <path class="st2" d="M-102.45,664.39v-360.05c0-1.59-.42-5.01-5.84-5.01h-60.31s-3.25,0-5.42,1"/>
      <path class="st2" d="M-102.45,388.68c0-1.59-.42-5.01-5.84-5.01h-60.31s-3.25,0-5.42,1"/>
      <path class="st2" d="M-73.75,664.39V157.76s0-20.69,22.27-19.02l60.56,1.33s6.84.42,11.93,5.09"/>
      <path class="st1" d="M-62.91,664.39v-326.68c0-1.59.42-5.01,5.84-5.01H7.42s3.5-.25,4.92,2.09l4.59,6.84"/>
      <path class="st2" d="M-62.91,422.05c0-1.59.42-5.01,5.84-5.01H7.42s2.92-.25,5.09,2l4.08,4.17"/>
      <path class="st2" d="M16.93,163.02s3.34-.33,5.84,2.34,9.59,10.51,9.59,10.51"/>
      <path class="st2" d="M194.15,662.01V166.44s1.67-19.27-22.27-20.35l-57.98-2.42c-2.42-.17-6.59.5-9.09,3.17"/>
      <path class="st2" d="M185.81,662.01v-273.42c0-1.59-.42-7.01-5.84-7.01h-60.31s-5.01-.25-7.18.75"/>
      <path class="st2" d="M185.81,472.93c0-1.59-.42-7.01-5.84-7.01h-66.99"/>
      <path class="st2" d="M216.16,662.01V166.94s-.5-20.35,22.44-21.02l56.56-2.59s7.76,0,11.26,3.42"/>
      <path class="st1" d="M225.35,662.01v-274.42c0-1.59.42-5.01,5.84-5.01h64.49s1.92,0,2.5.83"/>
      <path class="st2" d="M225.35,472.93c0-1.59.42-7.01,5.84-7.01h64.49s1.16,0,2.5.33"/>
      <path class="st2" d="M500.49,661.84V155.08s-.83-17.02,22.27-19.36c23.11-2.34,78.92-7.68,78.92-7.68,0,0,5.01-.5,9.09,1.76"/>
      <path class="st2" d="M509.76,661.84v-356.6c0-1.59.42-5.01,5.84-5.01h81.17s3.25,0,5.42,1"/>
      <path class="st2" d="M509.76,389.58c0-1.59.42-5.01,5.84-5.01h81.17s3.25,0,5.42,1"/>
      <path class="st2" d="M486.9,661.84V158.67s0-20.69-22.27-19.02l-68.99,1.92s-6.84.42-11.93,5.09"/>
      <path class="st1" d="M476.89,661.84v-323.23c0-1.59-.42-5.01-5.84-5.01h-73.66s-3.5-.25-4.92,2.09l-4.59,6.84"/>
      <path class="st2" d="M476.89,422.95c0-1.59-.42-5.01-5.84-5.01h-73.66s-2.92-.25-5.09,2l-4.08,4.17"/>
      <path class="st2" d="M397.31,170.94s-13.68-1.16-19.27,4.42c-5.59,5.59-7.68,8.51-7.68,8.51"/>
      <line class="st2" x1="464.37" y1="661.84" x2="532.37" y2="661.84"/>
      <line class="st2" x1="174.54" y1="661.84" x2="248.37" y2="661.84"/>
      <line class="st2" x1="-113.45" y1="665.05" x2="-39.63" y2="665.05"/>
    </g>
  </g>
</svg>