<svg preserveAspectRatio="none" width="100%" height="100%" overflow="visible" style="display: block;" viewBox="0 0 298 45" fill="none" xmlns="http://www.w3.org/2000/svg">
<g id="Logo Container">
<path id="Vector" d="M297.665 0H0V45H297.665V0Z" fill="var(--fill-0, white)"/>
<path id="Vector_2" d="M297.72 0H256.355V45H297.72V0Z" fill="var(--fill-0, #161215)"/>
<path id="Vector_3" d="M254.984 0H213.62V45H254.984V0Z" fill="var(--fill-0, #161215)"/>
<path id="Vector_4" d="M212.248 0H170.883V45H212.248V0Z" fill="var(--fill-0, #161215)"/>
<path id="Vector_5" d="M169.567 0H128.203V45H169.567V0Z" fill="var(--fill-0, #161215)"/>
<path id="Vector_6" d="M126.832 0H85.4678V45H126.832V0Z" fill="var(--fill-0, #246D38)"/>
<path id="Vector_7" d="M84.1011 0H42.7368V45H84.1011V0Z" fill="var(--fill-0, #246D38)"/>
<path id="Vector_8" d="M41.3643 0H0V45H41.3643V0Z" fill="var(--fill-0, #246D38)"/>
<path id="Vector_9" d="M15.1757 31.8278L13.1207 38.5199H5.05859L16.7038 6.42969H24.7659L36.3585 38.5199H28.2964L26.2413 31.8278H15.2284H15.1757ZM24.397 25.6627L20.7612 13.8067H20.6558L17.02 25.6627H24.397Z" fill="var(--fill-0, white)"/>
<path id="Vector_10" d="M77.093 29.1906C77.093 35.3558 72.4559 39.3078 64.3939 39.3078C56.3318 39.3078 49.7451 35.1977 49.7451 28.0314H57.8072C57.8072 31.4564 60.758 32.6684 64.3412 32.6684C67.3447 32.6684 68.9782 31.5092 68.9782 29.8757C68.9782 27.2937 65.5005 26.714 60.9688 25.3967C55.436 23.7632 50.5882 21.3921 50.5882 15.4905C50.5882 8.48227 56.0684 5.74219 62.9712 5.74219C70.4537 5.74219 76.3552 9.69409 76.566 16.1754H68.5039C68.1351 13.7515 66.0801 12.3289 62.9712 12.3289C60.5473 12.3289 58.6503 13.1192 58.6503 14.858C58.6503 16.8604 60.6526 17.4401 64.71 18.5994C70.7697 20.2856 76.9876 22.2352 76.9876 29.0853" fill="var(--fill-0, white)"/>
<path id="Vector_11" d="M100.646 6.53516V19.0762H111.659V6.53516H119.721V38.6254H111.659V25.6629H100.646V38.6254H92.584V6.53516H100.646Z" fill="var(--fill-0, white)"/>
<path id="Vector_12" d="M144.853 13.1218H135.526V6.53516H162.189V13.1218H152.915V38.5726H144.853V13.1218Z" fill="var(--fill-0, white)"/>
<path id="Vector_13" d="M201.344 18.8126V25.3993H187.38V31.986H203.873V38.6254H179.318V6.53516H203.61V13.1218H187.38V18.8126H201.344Z" fill="var(--fill-0, white)"/>
<path id="Vector_14" d="M234.646 12.3835C229.324 12.3835 227.533 16.4937 227.533 22.5007C227.533 28.5078 229.324 32.6705 234.646 32.6705C238.967 32.6705 240.548 30.1413 241.128 26.5055H249.19C248.452 34.0406 243.815 39.2572 235.015 39.2572C224.898 39.2572 219.471 32.1963 219.471 22.5007C219.471 12.8052 224.898 5.79688 235.015 5.79688C243.762 5.79688 248.452 11.0136 249.19 18.4434H241.128C240.548 14.9656 238.914 12.3835 234.646 12.3835Z" fill="var(--fill-0, white)"/>
<path id="Vector_15" d="M271.529 6.53516V19.0762H282.542V6.53516H290.604V38.6254H282.542V25.6629H271.529V38.6254H263.467V6.53516H271.529Z" fill="var(--fill-0, white)"/>
</g>
</svg>
