<svg preserveAspectRatio="none" width="100%" height="100%" overflow="visible" style="display: block;" viewBox="0 0 712 812" fill="none" xmlns="http://www.w3.org/2000/svg">
<g id="Layer_1" clip-path="url(#clip0_0_40)">
<path id="Vector" d="M461.739 267.883L462.601 272.4V665.211C460.29 676.211 458.808 686.555 453.325 696.451C450.636 701.313 447.119 708.072 441.498 701.968C440.877 701.83 440.946 702.796 441.084 703.175C445.808 714.761 477.014 733.622 488.841 738.105C493.772 739.967 506.082 742.208 509.323 744.932C510.771 746.139 509.978 753.07 509.53 755.139C508.392 760.311 502.668 759 498.703 758.035C484.738 754.587 467.773 746.656 455.704 738.208C448.636 733.277 442.464 727.312 435.809 721.864C423.671 740.07 411.534 758.449 396.879 774.758C391.948 780.241 386.294 785.275 381.121 790.447C377.673 793.896 361.019 811.653 357.95 811.998C351.605 810.033 346.019 805.895 341.02 801.654C325.193 788.241 307.538 765.931 295.194 749.07C292.47 745.38 278.16 722.278 276.022 721.899C269.057 727.45 262.713 734.002 255.334 739.07C244.162 746.725 226.645 754.759 213.749 757.828C211.37 758.38 205.922 759.759 204.198 758.242C202.474 756.725 200.06 746.104 202.129 744.587C213.335 740.932 225.025 738.036 235.472 732.484C247.368 726.174 259.575 715.968 268.264 705.761C266.575 704.106 264.781 704.761 262.851 702.934C255.782 696.141 250.023 673.383 249.23 663.625V272.469L250.092 267.952H264.575L265.816 269.194V668.556C265.816 671.59 271.057 686.521 272.885 689.59C275.195 693.452 276.229 694.486 279.367 690.417C291.953 674.245 300.332 637.385 302.159 617.282L302.642 116.545C305.607 115.717 315.262 114.614 316.641 117.476L317.09 621.489C314.883 648.281 306.918 675.418 293.435 698.693C292.125 700.968 286.229 706.727 286.85 709.589L326.158 763.69C333.675 770.379 339.296 779.413 346.812 786.034C349.571 788.448 354.605 793.861 358.019 791.447C381.949 769.31 401.776 745.415 419.43 718.106C420.12 717.037 420.189 715.589 420.878 714.589C421.913 713.071 424.947 711.037 425.257 709.796C425.602 708.382 413.982 690.831 412.327 687.452C404.155 670.832 400.052 653.074 395.638 635.523C393.569 463.91 395.397 292.089 394.707 120.407C392.845 113.786 408.706 115.235 410.051 117.545L410.43 617.42C411.292 638.04 415.913 656.591 423.499 675.452L433.567 693.486C436.291 695.245 441.326 686.59 442.05 684.521C442.912 682.176 445.981 669.832 445.981 667.797V269.263L447.222 268.021H461.704L461.739 267.883Z" fill="var(--fill-0, #E0BD75)"/>
<path id="Vector_2" d="M364.156 630.456C364.604 633.628 366.777 640.594 367.673 644.283C372.742 664.661 383.949 694.212 401.741 706.936C403.672 708.315 409.534 709.453 408.637 712.935C408.43 713.763 402.706 723.555 402.155 723.9C400.155 725.176 393.534 720.349 391.431 718.866C374.845 706.901 363.846 684.73 357.915 665.558L354.674 664.696C348.226 682.868 339.399 702.108 324.813 715.177C322.261 717.452 312.779 724.59 309.952 724.349C307.848 724.176 308.71 721.659 307.71 719.935C305.435 715.935 300.262 712.728 305.469 709.039C310.676 705.349 313.469 704.798 318.262 699.522C333.295 682.833 341.157 657.8 345.364 636.49C345.674 634.904 347.605 630.973 347.605 630.456V1.24133L348.847 0H362.915L364.156 1.24133V630.456Z" fill="var(--fill-0, #E0BD75)"/>
<path id="Vector_3" d="M659.109 758.005C657.971 759.108 655.489 758.97 653.972 759.073C618.732 761.522 579.595 757.936 544.149 758.039C521.012 751.97 505.771 733.075 498.875 710.696C498.358 635.975 499.668 561.254 498.944 486.533C498.806 471.5 496.565 455.328 498.013 440.225C498.151 438.673 498.013 436.984 499.702 436.122C501.737 435.122 512.219 435.053 513.357 437.363L513.736 700.766C515.771 722.489 530.563 739.385 551.769 743.764L658.937 744.902C661.385 747.04 659.316 749.591 659.282 752.005C659.247 753.832 660.902 756.212 659.075 758.005H659.109Z" fill="var(--fill-0, #E0BD75)"/>
<path id="Vector_4" d="M200.199 435.882C202.337 435.158 212.233 435.193 213.302 437.399L213.75 701.629C211.026 731.352 188.682 758.144 157.959 759.11L53.343 758.662C50.5156 757.282 51.7569 747.938 52.0672 744.972L53.7568 744.214L160.028 743.835C209.819 730.835 197.233 684.699 198.889 644.632V568.566C198.889 528.913 199.647 489.052 198.889 449.433C198.82 446.296 196.233 437.296 200.233 435.951L200.199 435.882Z" fill="var(--fill-0, #E0BD75)"/>
<path id="Vector_5" d="M710.349 795.617C711.832 796.893 712.798 810.857 708.487 811.133H543.943C515.151 808.444 489.186 801.513 464.601 785.514C452.636 777.721 434.12 761.825 426.982 749.55C425.637 747.274 425.81 746.239 427.879 744.584C428.775 743.86 435.74 739.205 436.361 738.964C440.326 737.585 444.774 747.102 447.257 749.929C464.049 769.101 488.497 782.341 512.22 789.134C514.875 789.893 517.323 791.617 520.116 791.996C579.32 800.03 644.49 790.651 704.453 794.513C706.487 794.651 708.522 794.755 710.418 795.582L710.349 795.617Z" fill="var(--fill-0, #E0BD75)"/>
<path id="Vector_6" d="M285.505 745.101C286.091 746.032 285.643 748.032 285.195 749.067C284.574 750.55 278.471 758.135 276.988 759.859C254.886 785.445 224.301 800.237 192.474 808.444C130.718 813.961 67.9625 809.788 5.75825 811.168C-1.86211 811.754 -1.93107 794.203 5.75825 794.582H174.475C208.336 790.203 242.472 775.41 265.402 749.136C267.54 746.653 271.885 737.826 274.919 738.688L285.505 745.101Z" fill="var(--fill-0, #E0BD75)"/>
</g>
<defs>
<clipPath id="clip0_0_40">
<rect width="711.625" height="812" fill="white"/>
</clipPath>
</defs>
</svg>
