<svg preserveAspectRatio="none" width="100%" height="100%" overflow="visible" style="display: block;" viewBox="0 0 343 194" fill="none" xmlns="http://www.w3.org/2000/svg">
<path id="Union" d="M181.938 146.6H196.138V149.6H181.938V181.5C181.938 187.7 183.738 189.8 187.638 189.8C190.538 189.8 193.738 187.7 196.638 183L197.737 183.8C194.337 190 189.737 193.399 184.237 193.399C176.537 193.399 173.537 189 173.537 180.6V149.6H164.037V148.6L173.537 146.3V133.6L181.938 130V146.6ZM103.692 160.1H102.392C96.5919 150.4 94.092 147.4 88.1924 147.399C83.3924 147.399 79.5918 150.6 79.5918 155.3C79.5918 159.6 83.4924 162 91.6924 164.3C101.592 167.1 105.892 170.6 105.892 178.1C105.892 186.1 100.992 193.1 90.3916 193.1C86.6917 193.1 81.4919 191.8 78.292 189.7L74.8916 193.1H73.792V176.899H75.0918C81.4917 188.399 84.3919 191.3 91.5918 191.3C97.6916 191.3 100.792 186.9 100.792 183.2C100.792 178.4 97.792 175.6 88.292 173C78.292 170.3 73.9922 167.1 73.9922 159.8C73.9922 151.7 80.1919 145.6 90.0918 145.6C93.8917 145.6 97.892 146.999 100.292 148.399L102.592 145.6H103.692V160.1ZM222.238 145.6C235.338 145.6 241.838 155 241.038 166H209.938C209.838 166.9 209.838 167.9 209.838 168.8V168.899C209.838 180.099 215.138 189.2 225.938 189.2C232.438 189.2 236.038 185.9 240.238 180.5L241.338 181.3C237.638 187.5 232.338 193.1 222.238 193.1C209.338 193.1 200.538 183 200.538 169.8C200.538 156.1 210.738 145.6 222.238 145.6ZM271.204 145.6C281.704 145.6 287.103 151.7 287.104 156.1C287.104 159.299 285.304 161.7 282.204 161.7C278.804 161.7 276.704 159.5 276.704 156.5C276.704 153.8 278.204 151.8 279.604 151C277.804 149 275.303 147.399 271.403 147.399C263.404 147.4 257.104 154.9 257.104 168.1C257.104 180 262.404 189.2 273.204 189.2C279.304 189.2 282.503 186.599 286.903 181.399L288.004 182.2C284.004 188.1 278.604 193.1 268.504 193.1C256.104 193.1 247.804 183.1 247.804 170.3C247.804 155.9 258.204 145.6 271.204 145.6ZM60.3994 180.6C63.1994 188.1 64.7 190 72.5 191V192.3H42V191C51.4998 190.6 52.6995 188.4 50.5996 182.5L44.5996 165.5H20.5L17.2998 173.8C12.4998 186.3 14.1002 189.5 23.2002 191V192.3H0V191C6.49986 189.2 9.8995 185.7 14.3994 174.5L36 120.399H38.2002L60.3994 180.6ZM126.626 157.5C131.226 149.9 136.927 145.899 143.727 145.899C151.126 145.899 155.826 150.4 155.826 159.399V187.1C155.826 190.5 157.226 191 163.126 191.1V192.3H141.026V191.1C146.126 191 147.427 190.5 147.427 187.1V162.399C147.427 154.4 145.226 150.2 138.626 150.2C133.726 150.2 129.426 154.1 126.626 160.1V187.1C126.626 190.5 127.927 191 132.927 191.1V192.3H110.927V191.1C116.726 191 118.227 190.5 118.227 187.1V127.3C118.227 123.7 117.226 122.4 109.826 122.2V121L126.626 120.6V157.5ZM305.923 157.5C310.523 149.9 316.223 145.899 323.023 145.899C330.423 145.899 335.123 150.4 335.123 159.399V187.1C335.123 190.5 336.523 191 342.423 191.1V192.3H320.323V191.1C325.423 191 326.724 190.5 326.724 187.1V162.399C326.724 154.4 324.523 150.2 317.923 150.2C313.023 150.2 308.723 154.1 305.923 160.1V187.1C305.923 190.5 307.224 191 312.224 191.1V192.3H290.224V191.1C296.023 191 297.523 190.5 297.523 187.1V127.3C297.523 123.7 296.523 122.4 289.123 122.2V121L305.923 120.6V157.5ZM221.538 147.399C215.138 147.399 210.839 153 209.938 164.399H231.638C232.538 153.6 229.838 147.399 221.538 147.399ZM21.2998 163.5H43.8994L33.3994 133.399H33L21.2998 163.5ZM254.105 26.5996H268.306V29.5996H254.105V61.5C254.106 67.6998 255.906 69.7998 259.806 69.7998C262.706 69.7996 265.906 67.6998 268.806 63L269.905 63.7998C266.505 69.9998 261.905 73.3994 256.405 73.3994C248.705 73.3994 245.705 68.9996 245.705 60.5996V29.5996H236.205V28.5996L245.705 26.2998V13.5996L254.105 10V26.5996ZM148.02 25.5996C161.119 25.5997 167.619 35.0001 166.819 46H135.72C135.62 46.9 135.619 47.8999 135.619 48.7998V48.8994C135.619 60.0994 140.92 69.2002 151.72 69.2002C158.219 69.2001 161.82 65.8999 166.02 60.5L167.119 61.2998C163.419 67.4997 158.119 73.0995 148.02 73.0996C135.12 73.0996 126.319 62.9998 126.319 49.7998C126.319 36.0998 136.52 25.5996 148.02 25.5996ZM211.845 25.8994C222.244 25.8995 228.145 30.1003 228.145 39.7002V63.7998C228.145 68.6998 229.845 71.1998 235.845 68.7998L236.244 69.7998C232.844 71.6997 230.544 72.7001 227.345 72.7002C222.245 72.7002 220.445 70.4998 220.145 65H219.744C215.744 69.4998 211.044 72.8993 205.145 72.8994C196.745 72.8994 192.944 67.7994 192.944 62.3994C192.944 58.3996 194.544 54.7999 198.744 52.5C206.344 48.3001 218.244 46.9998 219.744 45.7998V39.5C219.744 31.7001 217.444 27.7003 211.145 27.7002C207.445 27.7002 204.044 28.9 202.244 31C203.744 32.6 204.845 34.4002 204.845 36.2002C204.845 39.2 202.944 41.5 199.544 41.5C196.344 41.4998 194.544 39.0999 194.544 36.2002C194.544 30.4002 202.245 25.8994 211.845 25.8994ZM37.5996 3.7998C28.0998 4.09983 27.0996 6.50003 27.0996 11V70.2998H36.2998C49.4998 70.2998 55.7996 65.9994 61.5996 50.3994L62.8994 50.5L61.8994 72.2998H6.2998V71C15.1998 70.7 17.5996 68.1998 17.5996 63.7998V11C17.5996 6.7 15.1998 4.09981 6.2998 3.7998V2.59961H37.5996V3.7998ZM82.6279 67.0996C82.6279 70.4995 83.9279 70.9996 90.2275 71.0996V72.2998H66.9277V71.0996C72.7277 70.9996 74.2275 70.4996 74.2275 67.0996V32.8994C74.2274 29.8996 72.7275 27.8998 66.9277 27.7998V26.5996L82.6279 26.2002V67.0996ZM119.16 0C126.86 6.20941e-05 130.66 3.70003 130.66 7.5C130.66 10.6999 128.66 12.7998 125.76 12.7998C123.16 12.7997 120.36 11.3993 120.36 6.89941C120.361 6.09922 120.96 4.29927 121.46 3.39941C120.66 2.39954 119.36 1.7002 117.76 1.7002C116.16 1.70024 114.86 2.20005 113.56 3.5C111.76 5.30004 110.76 8.60012 110.76 16.3994V26.5996H123.66V29.5996H110.76V67.0996C110.76 70.4996 113.26 70.9996 120.36 71.0996V72.2998H95.0596V71.0996C100.86 70.9996 102.36 70.4996 102.36 67.0996V29.5996H93.8604V28.5996L102.36 26.2998V22.5C102.36 13.9 104.56 8.3998 108.16 4.7998C111.36 1.59987 115.26 0 119.16 0ZM219.744 47.7002C205.045 51.0001 202.044 53.9998 202.044 60.5996C202.044 65.3996 204.244 69 209.944 69C213.944 69 217.544 65.6996 219.744 62.5996V47.7002ZM147.319 27.3994C140.919 27.3994 136.62 32.9997 135.72 44.3994H157.419C158.319 33.5996 155.619 27.3994 147.319 27.3994ZM77.8281 5.2002C81.1279 5.20029 83.328 7.4997 83.3281 10.8994C83.3281 14.2993 81.128 16.7001 77.8281 16.7002C74.5281 16.7002 72.3281 14.4996 72.3281 11.0996C72.3282 7.69971 74.5282 5.2002 77.8281 5.2002Z" fill="var(--fill-0, #E0BD75)"/>
</svg>
