<svg preserveAspectRatio="none" width="100%" height="100%" overflow="visible" style="display: block;" viewBox="0 0 28 28" fill="none" xmlns="http://www.w3.org/2000/svg">
<g id="mail_24dp_E3E3E3_FILL0_wght300_GRAD0_opsz24 (1) 1">
<path id="Vector" d="M5.02506 22.75C4.4357 22.75 3.93685 22.5458 3.52852 22.1375C3.12018 21.7292 2.91602 21.2303 2.91602 20.641V7.35904C2.91602 6.76968 3.12018 6.27083 3.52852 5.8625C3.93685 5.45417 4.4357 5.25 5.02506 5.25H22.9736C23.563 5.25 24.0618 5.45417 24.4702 5.8625C24.8785 6.27083 25.0827 6.76968 25.0827 7.35904V20.641C25.0827 21.2303 24.8785 21.7292 24.4702 22.1375C24.0618 22.5458 23.563 22.75 22.9736 22.75H5.02506ZM13.9993 14.6507L4.66602 8.68263V20.641C4.66602 20.7458 4.69965 20.8318 4.76693 20.8991C4.83421 20.9664 4.92025 21 5.02506 21H22.9736C23.0784 21 23.1645 20.9664 23.2318 20.8991C23.299 20.8318 23.3327 20.7458 23.3327 20.641V8.68263L13.9993 14.6507ZM13.9993 12.8333L23.1533 7H4.84539L13.9993 12.8333ZM4.66602 8.68263V7V20.641C4.66602 20.7458 4.69965 20.8318 4.76693 20.8991C4.83421 20.9664 4.92025 21 5.02506 21H4.66602V8.68263Z" fill="var(--fill-0, #720C10)"/>
</g>
</svg>
