<svg preserveAspectRatio="none" width="100%" height="100%" overflow="visible" style="display: block;" viewBox="0 0 28 28" fill="none" xmlns="http://www.w3.org/2000/svg">
<g id="location_on_24dp_E3E3E3_FILL0_wght300_GRAD0_opsz24 1">
<path id="Vector" d="M14.0014 13.8421C14.5818 13.8421 15.078 13.6354 15.4901 13.2221C15.9023 12.8087 16.1084 12.3118 16.1084 11.7313C16.1084 11.1509 15.9017 10.6546 15.4883 10.2424C15.0749 9.83036 14.5779 9.62435 13.9973 9.62435C13.4169 9.62435 12.9207 9.83104 12.5087 10.2444C12.0964 10.6578 11.8903 11.1548 11.8903 11.7354C11.8903 12.3158 12.097 12.8121 12.5104 13.2241C12.9238 13.6361 13.4208 13.8421 14.0014 13.8421ZM13.9994 22.7651C16.2817 20.7219 18.0283 18.7621 19.2392 16.8857C20.45 15.0093 21.0554 13.3658 21.0554 11.9553C21.0554 9.82852 20.3797 8.08007 19.0283 6.71002C17.6769 5.33996 16.0006 4.65493 13.9994 4.65493C11.9981 4.65493 10.3218 5.33996 8.97044 6.71002C7.61905 8.08007 6.94336 9.82852 6.94336 11.9553C6.94336 13.3658 7.54876 15.0093 8.75957 16.8857C9.97037 18.7621 11.717 20.7219 13.9994 22.7651ZM13.9994 25.0938C11.0632 22.5497 8.86155 20.182 7.39428 17.9908C5.927 15.7994 5.19336 13.7876 5.19336 11.9553C5.19336 9.26307 6.06418 7.08345 7.80582 5.41647C9.54765 3.7495 11.6122 2.91602 13.9994 2.91602C16.3866 2.91602 18.4511 3.7495 20.1929 5.41647C21.9345 7.08345 22.8054 9.26307 22.8054 11.9553C22.8054 13.7876 22.0717 15.7994 20.6044 17.9908C19.1372 20.182 16.9355 22.5497 13.9994 25.0938Z" fill="var(--fill-0, #720C10)"/>
</g>
</svg>
