<svg preserveAspectRatio="none" width="100%" height="100%" overflow="visible" style="display: block;" viewBox="0 0 28 28" fill="none" xmlns="http://www.w3.org/2000/svg">
<g id="call_24dp_E3E3E3_FILL0_wght300_GRAD0_opsz24 1">
<path id="Vector" d="M22.6809 23.9173C20.4824 23.9173 18.2736 23.4061 16.0546 22.3837C13.8358 21.3613 11.7971 19.9192 9.93861 18.0572C8.0803 16.195 6.63996 14.1562 5.61757 11.9409C4.59518 9.72579 4.08398 7.51894 4.08398 5.32036C4.08398 4.96705 4.20065 4.67266 4.43398 4.43719C4.66732 4.20172 4.95898 4.08398 5.30898 4.08398H9.11407C9.40865 4.08398 9.66853 4.18014 9.89369 4.37244C10.1189 4.56455 10.2621 4.80197 10.3233 5.08469L10.9921 8.51732C11.0384 8.83582 11.0287 9.1095 10.9629 9.33836C10.897 9.56722 10.7788 9.75943 10.6083 9.91498L7.91386 12.5379C8.34747 13.3321 8.84291 14.0833 9.40019 14.7917C9.95728 15.4998 10.5604 16.1762 11.2097 16.8208C11.8498 17.4611 12.5304 18.0557 13.2514 18.6046C13.9724 19.1535 14.7509 19.6643 15.587 20.137L18.205 17.4963C18.3876 17.3063 18.6087 17.1731 18.8683 17.0967C19.1277 17.0205 19.3973 17.0018 19.6771 17.0407L22.9166 17.7004C23.2112 17.7782 23.4516 17.9285 23.6379 18.1514C23.8242 18.3742 23.9173 18.627 23.9173 18.9097V22.6923C23.9173 23.0423 23.7996 23.334 23.5641 23.5673C23.3286 23.8007 23.0342 23.9173 22.6809 23.9173ZM7.08582 10.8822L9.16803 8.88978C9.20536 8.85983 9.22966 8.81871 9.24094 8.7664C9.25222 8.71409 9.25037 8.66548 9.2354 8.62057L8.72819 6.01336C8.71322 5.95367 8.68707 5.90884 8.64973 5.8789C8.6124 5.84896 8.56379 5.83398 8.5039 5.83398H6.00898C5.96407 5.83398 5.92664 5.84896 5.89669 5.8789C5.86694 5.90884 5.85207 5.94628 5.85207 5.99119C5.91176 6.78842 6.04223 7.59828 6.24348 8.42078C6.44454 9.24347 6.72532 10.0639 7.08582 10.8822ZM17.2358 20.9648C18.0091 21.3253 18.8157 21.6009 19.6555 21.7917C20.4955 21.9822 21.2804 22.0955 22.0101 22.1314C22.055 22.1314 22.0925 22.1165 22.1224 22.0865C22.1523 22.0566 22.1673 22.0192 22.1673 21.9742V19.5199C22.1673 19.46 22.1523 19.4114 22.1224 19.374C22.0925 19.3367 22.0476 19.3105 21.9879 19.2956L19.5379 18.7974C19.493 18.7824 19.4537 18.7806 19.4201 18.7919C19.3865 18.8031 19.3509 18.8274 19.3134 18.8648L17.2358 20.9648Z" fill="var(--fill-0, #720C10)"/>
</g>
</svg>
