<svg width="50" height="50" viewBox="0 0 50 50" fill="none" xmlns="http://www.w3.org/2000/svg">
<g clip-path="url(#clip0_1227_1816)">
<path d="M46.4065 41.875H2.6096C1.75023 41.875 0.945542 41.4531 0.461167 40.75C-0.0232084 40.0469 -0.132583 39.1406 0.172104 38.3438L5.92992 23.2656C6.39867 22.0391 7.56273 21.2422 8.88304 21.2422H35.7815C36.2034 21.2422 36.5393 21.5781 36.5393 22C36.5393 22.4219 36.2034 22.7578 35.7815 22.7578H8.88304C8.19554 22.7578 7.59398 23.1719 7.35179 23.8047L1.59398 38.8828C1.46117 39.2266 1.50804 39.5938 1.71898 39.8906C1.9221 40.1875 2.25023 40.3594 2.61742 40.3594H46.4065C46.7737 40.3594 47.1018 40.1875 47.3127 39.8828C47.5159 39.5859 47.5627 39.2187 47.4377 38.875L43.0002 27.25C42.8518 26.8594 43.0471 26.4219 43.4377 26.2734C43.8284 26.125 44.2659 26.3203 44.4143 26.7109L48.8518 38.3359C49.1565 39.1406 49.0471 40.0391 48.5627 40.7422C48.0705 41.4531 47.2659 41.875 46.4065 41.875Z" fill="#720C10"/>
<path d="M33.1484 30.2988H4.35156C3.92969 30.2988 3.59375 29.9629 3.59375 29.541C3.59375 29.1191 3.92969 28.7832 4.35156 28.7832H33.1562C33.5781 28.7832 33.9141 29.1191 33.9141 29.541C33.9063 29.9629 33.5703 30.2988 33.1484 30.2988Z" fill="#720C10"/>
<path d="M34.8369 36.2891H2.05566C1.63379 36.2891 1.29785 35.9531 1.29785 35.5313C1.29785 35.1094 1.63379 34.7734 2.05566 34.7734H34.8369C35.2588 34.7734 35.5947 35.1094 35.5947 35.5313C35.5947 35.9531 35.251 36.2891 34.8369 36.2891Z" fill="#720C10"/>
<path d="M36.4071 41.8739C36.079 41.8739 35.7743 41.6552 35.6806 41.3193L30.2978 22.1943C30.1806 21.788 30.415 21.3739 30.8212 21.2567C31.2275 21.1396 31.6415 21.3739 31.7587 21.7802L37.1415 40.9052C37.2587 41.3114 37.0243 41.7255 36.6181 41.8427C36.5478 41.8661 36.4775 41.8739 36.4071 41.8739Z" fill="#720C10"/>
<path d="M41.4758 30.9297C41.2258 30.9297 40.9992 30.8125 40.8508 30.6016L34.4992 21.4844C32.6555 18.8359 32.4445 15.5469 33.9367 12.6875C35.4289 9.82812 38.2492 8.11719 41.4758 8.11719C44.7023 8.11719 47.5227 9.82812 49.0148 12.6875C50.507 15.5469 50.2961 18.8359 48.4523 21.4844L42.1008 30.6016C41.9523 30.8125 41.718 30.9297 41.4758 30.9297ZM41.4758 9.64062C38.8273 9.64062 36.507 11.0469 35.2805 13.3984C34.0539 15.75 34.2258 18.4531 35.7414 20.625L41.4758 28.8516L47.2102 20.625C48.7258 18.4453 48.8977 15.75 47.6711 13.3984C46.4445 11.0469 44.1242 9.64062 41.4758 9.64062Z" fill="#720C10"/>
<path d="M41.4766 20.9844C39.0078 20.9844 37.0078 18.9766 37.0078 16.5156C37.0078 14.0547 39.0156 12.0469 41.4766 12.0469C43.9375 12.0469 45.9453 14.0547 45.9453 16.5156C45.9453 18.9766 43.9375 20.9844 41.4766 20.9844ZM41.4766 13.5625C39.8516 13.5625 38.5234 14.8906 38.5234 16.5156C38.5234 18.1484 39.8516 19.4688 41.4766 19.4688C43.1016 19.4688 44.4297 18.1406 44.4297 16.5156C44.4297 14.8828 43.1016 13.5625 41.4766 13.5625Z" fill="#720C10"/>
</g>
<defs>
<clipPath id="clip0_1227_1816">
<rect width="50" height="50" fill="white"/>
</clipPath>
</defs>
</svg>
