<svg preserveAspectRatio="none" width="100%" height="100%" overflow="visible" style="display: block;" viewBox="0 0 42 42" fill="none" xmlns="http://www.w3.org/2000/svg">
<g id="Layer_1">
<path id="Vector" d="M6.23862 22.9647C7.93462 22.9647 8.84976 21.2025 8.84976 19.5444C8.84976 18.0456 7.67843 16.8262 6.23862 16.8262C4.79881 16.8262 3.6251 18.0456 3.6251 19.5444C3.6251 21.2025 4.54107 22.9647 6.23862 22.9647ZM6.23862 17.9747C7.04515 17.9747 7.70132 18.6788 7.70132 19.5444C7.70132 20.4877 7.24752 21.8163 6.23862 21.8163C5.13169 21.8163 4.77354 20.2856 4.77354 19.5444C4.77354 18.6788 5.43078 17.9747 6.23862 17.9747ZM21.0367 14.4798C23.1904 14.4798 24.3524 12.3078 24.3524 10.2642C24.3524 8.43716 22.865 6.95075 21.0367 6.95075C19.2084 6.95075 17.7233 8.43716 17.7233 10.2642C17.7233 12.3078 18.8846 14.4798 21.0367 14.4798ZM21.0367 8.09927C22.2318 8.09927 23.204 9.07044 23.204 10.2642C23.204 11.5379 22.5316 13.3315 21.0367 13.3315C19.5419 13.3315 18.8718 11.5379 18.8718 10.2642C18.8718 9.07052 19.8429 8.09927 21.0367 8.09927ZM36.8965 23.3379C35.4433 22.8227 33.8161 23.2786 32.8475 24.4725L31.7474 25.8277L29.7769 22.2178C29.6763 22.0333 29.483 21.9187 29.2729 21.9187H28.1892V18.805C28.1892 17.8977 27.8739 17.0584 27.3416 16.3773H33.6794C33.9965 16.3773 34.2536 16.1202 34.2536 15.8031V1.23047C34.2536 0.913336 33.9965 0.65625 33.6794 0.65625H8.39416C8.07702 0.65625 7.81994 0.913336 7.81994 1.23047V15.803C7.81994 16.1201 8.07702 16.3772 8.39416 16.3772H14.7343C14.2019 17.0583 13.8866 17.8976 13.8866 18.8049V21.9186H12.8029C12.5928 21.9186 12.3996 22.0333 12.2988 22.2177L10.2983 25.8832L9.15376 24.4723C8.1835 23.278 6.55493 22.8223 5.10142 23.3383C3.83798 23.7868 3.0531 24.8724 3.0531 26.1714V35.3051C3.0531 36.0901 3.49541 36.7903 4.1547 37.1483L3.63774 38.0961C3.5927 38.1781 3.56703 38.2721 3.56703 38.3722V40.7695C3.56703 41.0867 3.82411 41.3438 4.14125 41.3438H37.9346C38.2517 41.3438 38.5088 41.0867 38.5088 40.7695V38.3722C38.5088 38.2721 38.4831 38.178 38.4381 38.0961L37.9028 37.1147C38.5292 36.7478 38.946 36.0668 38.946 35.3051V26.1714C38.946 24.8719 38.1607 23.7861 36.8966 23.3379H36.8965ZM33.7392 25.1962C34.5049 24.2524 35.684 24.1265 36.5127 24.4204C36.8989 24.5574 37.7975 25.0022 37.7975 26.1715V33.2079H35.7718L33.7509 29.503L34.772 28.2083C34.9684 27.9592 34.9258 27.5982 34.6767 27.4018C34.4276 27.2053 34.0666 27.2481 33.8703 27.4971L31.9372 29.9483C31.8233 30.0915 31.6224 30.1641 31.3402 30.1641H27.6499C27.2485 30.1641 26.922 29.8376 26.922 29.4362C26.922 29.0348 27.2485 28.7082 27.6499 28.7082H30.6147C30.7877 28.7082 30.9514 28.6302 31.0605 28.4959L33.7393 25.1962H33.7392ZM24.592 18.8772C24.2749 18.8772 24.0178 19.1343 24.0178 19.4514V21.9187H22.4029L22.6654 21.6507C22.7928 21.5207 22.8509 21.3378 22.8221 21.158L22.1244 16.8045C22.2165 16.7014 22.2934 16.5843 22.3505 16.4586C22.4225 16.3035 22.4586 16.0726 22.4506 15.8379H23.8014C25.5875 15.8379 27.0407 17.169 27.0407 18.805V21.9187H25.1663V19.4514C25.1663 19.1343 24.9092 18.8772 24.592 18.8772ZM21.298 15.9968C21.2784 16.0319 21.2495 16.0627 21.2197 16.0798C21.1462 16.1222 21.0848 16.179 21.0379 16.2454C20.9909 16.179 20.9295 16.1222 20.8561 16.0798C20.8268 16.0629 20.7984 16.0328 20.7777 15.9961C20.7715 15.9568 20.7713 15.8929 20.7757 15.8378H21.3001C21.3046 15.8932 21.3042 15.9575 21.298 15.9967V15.9968ZM21.0379 17.2823L21.6424 21.0539L21.0371 21.6718L20.4334 21.0542L21.038 17.2823H21.0379ZM8.96837 1.80469H33.105V15.2288H25.9689C25.3289 14.8862 24.5894 14.6893 23.8014 14.6893H18.2742C17.4862 14.6893 16.7467 14.8862 16.1068 15.2288H8.96837V1.80469ZM15.0351 18.8049C15.0351 17.1688 16.4882 15.8378 18.2743 15.8378H19.6249C19.6169 16.0719 19.6525 16.3017 19.7234 16.4546C19.7815 16.5824 19.859 16.7006 19.9515 16.8043L19.2537 21.158C19.2249 21.3376 19.2829 21.5202 19.41 21.6503L19.6724 21.9186H18.0579V19.4513C18.0579 19.1342 17.8008 18.8771 17.4837 18.8771C17.1666 18.8771 16.9095 19.1342 16.9095 19.4513V21.9186H15.0351V18.8049ZM13.1437 23.067H28.9321L30.9649 26.7912L30.341 27.5597H27.6498C26.6151 27.5597 25.7734 28.4014 25.7734 29.4361C25.7734 30.4708 26.6151 31.3125 27.6498 31.3125H31.34C31.9806 31.3125 32.4978 31.088 32.8373 30.6613L32.9774 30.4836L36.9671 37.7979H5.10856L9.06788 30.5395L9.16402 30.6613C9.49985 31.0873 10.0176 31.3125 10.6613 31.3125H14.3515C15.3862 31.3125 16.2279 30.4708 16.2279 29.4361C16.2279 28.4014 15.3862 27.5597 14.3515 27.5597H11.6581L11.0804 26.8475L13.1438 23.067H13.1437ZM5.48566 24.4205C6.31458 24.1262 7.49501 24.2518 8.26208 25.1961L10.9384 28.4956C11.0475 28.6301 11.2114 28.7081 11.3844 28.7081H14.3515C14.7529 28.7081 15.0795 29.0346 15.0795 29.436C15.0795 29.8374 14.7529 30.164 14.3515 30.164H10.6613C10.3781 30.164 10.1777 30.092 10.0656 29.9499L8.1287 27.4967C7.93216 27.2478 7.57122 27.2054 7.32217 27.4019C7.07329 27.5984 7.0308 27.9595 7.22734 28.2084L8.29424 29.5596L6.30425 33.2078H4.20162V26.1714C4.20162 25.0026 5.09962 24.5577 5.48574 24.4206L5.48566 24.4205ZM4.20154 35.3051V34.3562H5.67769L4.70431 36.1408C4.40366 35.9798 4.20154 35.662 4.20154 35.3051ZM37.3603 40.1953H4.71546V38.9464H37.3604L37.3603 40.1953ZM36.3981 34.3562H37.7974V35.3051C37.7974 35.6387 37.6209 35.9379 37.353 36.107L36.3981 34.3563V34.3562ZM33.1515 19.5444C33.1515 21.2025 34.0667 22.9647 35.7627 22.9647C37.4588 22.9647 38.3739 21.2025 38.3739 19.5444C38.3739 18.0456 37.2025 16.8262 35.7627 16.8262C34.3229 16.8262 33.1515 18.0456 33.1515 19.5444ZM35.7627 17.9747C36.5693 17.9747 37.2254 18.6788 37.2254 19.5444C37.2254 20.4877 36.7716 21.8163 35.7627 21.8163C34.6575 21.8163 34.3 20.2856 34.3 19.5444C34.3 18.6788 34.9561 17.9747 35.7627 17.9747Z" fill="var(--fill-0, #720C10)"/>
</g>
</svg>
