<svg preserveAspectRatio="none" width="100%" height="100%" overflow="visible" style="display: block;" viewBox="0 0 42 42" fill="none" xmlns="http://www.w3.org/2000/svg">
<g id="Layer_1" clip-path="url(#clip0_0_27)">
<path id="Vector" d="M41.4139 10.6746L39.3066 6.76955C39.2302 6.6278 39.0977 6.52477 38.9415 6.48539C36.0116 5.74768 33.0613 5.18979 30.1104 4.81245V2.96412C30.1104 1.69723 29.0798 0.666504 27.8128 0.666504H14.1649C12.898 0.666504 11.8673 1.69723 11.8673 2.96412V4.81245C8.91644 5.18987 5.96602 5.74768 3.03619 6.48539C2.8791 6.52493 2.74605 6.62895 2.66984 6.77184L0.585835 10.677C0.529315 10.7828 0.505034 10.9067 0.524393 11.0338C1.29344 16.0802 2.18151 20.7768 2.96507 24.9206C3.35751 26.9963 3.73034 28.9686 4.05592 30.8112H2.9882C2.04049 30.8112 1.26948 31.5821 1.26948 32.5298C1.26948 33.4775 2.04049 34.2485 2.9882 34.2485H6.17692C5.30321 35.2912 4.80331 36.622 4.80331 38.0363V40.0695C4.80331 40.3866 5.06039 40.6437 5.37753 40.6437H13.6891V40.7547C13.6891 41.0718 13.9462 41.3289 14.2633 41.3289H27.726C28.0431 41.3289 28.3002 41.0718 28.3002 40.7547V40.6437H36.6117C36.9289 40.6437 37.186 40.3866 37.186 40.0695V38.0363C37.186 36.6262 36.6848 35.2931 35.8102 34.2485H38.9896C39.9373 34.2485 40.7083 33.4775 40.7083 32.5298C40.7083 31.5821 39.9373 30.8112 38.9896 30.8112H37.7278C39.2213 24.0181 39.9399 19.8797 41.0094 13.7195C41.1564 12.8727 41.3105 11.9856 41.4744 11.046C41.4974 10.914 41.4732 10.7844 41.4139 10.6746L41.4139 10.6746ZM13.0156 2.96412C13.0156 2.33043 13.5311 1.81494 14.1648 1.81494H27.8127C28.4464 1.81494 28.9619 2.33051 28.9619 2.96412V4.67463C26.2976 4.37637 23.635 4.22551 20.9887 4.22551C18.3425 4.22551 15.6799 4.37637 13.0156 4.67463V2.96412ZM3.56283 7.53752C15.1277 4.667 26.8514 4.667 38.4162 7.53793L39.819 10.1373C33.5639 8.89186 27.238 8.26055 20.9964 8.2603H20.9927C14.7485 8.2603 8.42351 8.89202 2.17462 10.1384L3.56283 7.53752ZM2.98812 33.1C2.67369 33.1 2.41784 32.8442 2.41784 32.5297C2.41784 32.2153 2.67369 31.9595 2.98812 31.9595H6.87255C6.97632 32.3689 7.14464 32.7525 7.36514 33.1H2.98812ZM13.6889 38.185V39.4952H5.95158V38.0362C5.95158 36.3904 6.7915 34.8848 8.16749 34.0171C8.85434 34.5933 9.73896 34.9412 10.7036 34.9412C11.6682 34.9412 12.5524 34.5936 13.2392 34.0175C13.6775 34.295 14.0682 34.6442 14.3953 35.0472C13.9378 36.01 13.6889 37.0778 13.6889 38.1849V38.185ZM10.7037 28.1856C12.2495 28.1856 13.5072 29.4433 13.5072 30.9892C13.5072 32.5351 12.2495 33.7928 10.7037 33.7928C9.15777 33.7928 7.90007 32.5351 7.90007 30.9892C7.90007 29.4433 9.15777 28.1856 10.7037 28.1856ZM8.59323 27.6503V23.507C8.59323 22.7232 9.28714 22.0855 10.1401 22.0855C10.9931 22.0855 11.687 22.7232 11.687 23.507V27.161C11.3725 27.0802 11.0429 27.0371 10.7036 27.0371C9.92788 27.0371 9.20437 27.2626 8.59323 27.6503ZM14.0104 33.1496C14.2467 32.7892 14.4261 32.3884 14.5348 31.9595H16.9635C16.984 31.9903 17.0054 32.0205 17.0266 32.0508C16.2223 32.5709 15.5393 33.2346 15.0051 33.9987C14.7059 33.6801 14.3722 33.3949 14.0104 33.1496ZM27.1517 40.1804H14.8375V38.185C14.8375 36.0198 15.9662 34.0326 17.8045 32.9184C18.6573 33.6668 19.7734 34.122 20.9946 34.122C22.2157 34.122 23.3318 33.6668 24.1846 32.9184C26.0229 34.0326 27.1517 36.02 27.1517 38.185V40.1804ZM20.9946 25.5842C23.0318 25.5842 24.6892 27.2416 24.6892 29.2788C24.6892 31.3161 23.0318 32.9735 20.9946 32.9735C18.9573 32.9735 17.2999 31.3161 17.2999 29.2788C17.2999 27.2416 18.9573 25.5842 20.9946 25.5842ZM17.7074 25.7262V25.3727C17.7074 23.5601 19.182 22.0855 20.9945 22.0855C22.807 22.0855 24.2815 23.5601 24.2815 25.3727V25.7262C23.4173 24.926 22.2623 24.4357 20.9945 24.4357C19.7266 24.4357 18.5716 24.926 17.7074 25.7262ZM26.9838 33.9988C26.4496 33.2347 25.7666 32.571 24.9624 32.0508C24.9836 32.0206 25.0051 31.9904 25.0256 31.9596H27.4543C27.563 32.3884 27.7423 32.789 27.9784 33.1494C27.6169 33.3948 27.2831 33.6804 26.9838 33.9989V33.9988ZM36.0374 38.0362V39.4952H28.3V38.185C28.3 37.078 28.051 36.0101 27.5936 35.0473C27.9205 34.6444 28.311 34.2943 28.7491 34.017C29.4361 34.5933 30.3207 34.9412 31.2854 34.9412C32.2501 34.9412 33.1348 34.5932 33.8218 34.0168C35.1963 34.8849 36.0374 36.3963 36.0374 38.0362ZM31.2854 28.1856C32.8313 28.1856 34.089 29.4433 34.089 30.9892C34.089 32.5351 32.8313 33.7928 31.2854 33.7928C29.7395 33.7928 28.4818 32.5351 28.4818 30.9892C28.4818 29.4433 29.7395 28.1856 31.2854 28.1856ZM29.9302 27.2765V23.507C29.9302 22.7232 30.6241 22.0855 31.4771 22.0855C32.33 22.0855 33.0239 22.7232 33.0239 23.507V27.4411C32.4989 27.1828 31.909 27.0371 31.2855 27.0371C30.8096 27.0371 30.3532 27.1217 29.9302 27.2765ZM38.9894 31.9595C39.3038 31.9595 39.5597 32.2153 39.5597 32.5297C39.5597 32.8442 39.3038 33.1 38.9894 33.1H34.624C34.8445 32.7525 35.0128 32.3689 35.1166 31.9595H38.9895H38.9894ZM36.5516 30.8111H35.2329C35.1897 29.8405 34.7944 28.9603 34.1723 28.2943V23.507C34.1723 22.09 32.9632 20.9371 31.477 20.9371C29.9908 20.9371 28.7817 22.09 28.7817 23.507V27.9338C27.941 28.6239 27.3895 29.6536 27.3378 30.8111H25.5877C25.7489 30.3292 25.8376 29.8143 25.8376 29.2788C25.8376 28.5885 25.6914 27.9321 25.43 27.3372V25.3727C25.43 22.9269 23.4402 20.9371 20.9945 20.9371C18.5487 20.9371 16.559 22.9268 16.559 25.3727V27.3372C16.2975 27.9321 16.1513 28.5885 16.1513 29.2789C16.1513 29.8144 16.24 30.3292 16.4012 30.8112H14.6512C14.5923 29.4908 13.8823 28.3376 12.8355 27.6641V23.5071C12.8355 22.09 11.6263 20.9372 10.1402 20.9372C8.65402 20.9372 7.44488 22.09 7.44488 23.5071V28.7568C7.03956 29.3466 6.79002 30.0512 6.75614 30.8112H5.22175C4.88673 28.9045 4.50078 26.862 4.09341 24.7072C3.76594 22.9755 3.42018 21.1467 3.07261 19.2368C14.9544 17.9379 26.9923 17.9362 38.8746 19.2318C38.2281 22.8169 37.5682 26.2014 36.5517 30.8112L36.5516 30.8111ZM39.0774 18.0987C27.0604 16.7826 14.8847 16.7842 2.86819 18.1039C2.74646 17.4244 2.62505 16.7355 2.50438 16.0375C14.7687 14.6915 27.1884 14.6903 39.4408 16.0344C39.3175 16.7404 39.197 17.4258 39.0774 18.0987ZM39.8778 13.5229C39.796 13.9938 39.7165 14.4515 39.6385 14.9007C27.2567 13.5371 14.7044 13.538 2.31046 14.9034C2.1167 13.7563 1.92623 12.587 1.74215 11.3977C14.511 8.75954 27.4596 8.7588 40.2476 11.3956C40.1188 12.135 39.9961 12.842 39.8779 13.5229H39.8778Z" fill="var(--fill-0, #720C10)"/>
</g>
<defs>
<clipPath id="clip0_0_27">
<rect width="42" height="42" fill="white"/>
</clipPath>
</defs>
</svg>
