<svg width="42" height="42" viewBox="0 0 42 42" fill="none" xmlns="http://www.w3.org/2000/svg">
<path d="M40.2471 41.125H33.2471C32.7641 41.125 32.3721 40.733 32.3721 40.25V39.375H9.62207V40.25C9.62207 40.733 9.23007 41.125 8.74707 41.125H1.74707C1.26407 41.125 0.87207 40.733 0.87207 40.25V1.75C0.87207 1.267 1.26407 0.875 1.74707 0.875H40.2471C40.7301 0.875 41.1221 1.267 41.1221 1.75V40.25C41.1221 40.733 40.7301 41.125 40.2471 41.125ZM34.1221 39.375H39.3721V2.625H2.62207V39.375H7.87207V38.5C7.87207 38.017 8.26407 37.625 8.74707 37.625H33.2471C33.7301 37.625 34.1221 38.017 34.1221 38.5V39.375Z" fill="#720C10"/>
<path d="M33.249 39.375H8.74902C8.26602 39.375 7.87402 38.983 7.87402 38.5V10.5C7.87402 10.017 8.26602 9.625 8.74902 9.625H33.249C33.732 9.625 34.124 10.017 34.124 10.5V38.5C34.124 38.983 33.732 39.375 33.249 39.375ZM9.62402 37.625H32.374V11.375H9.62402V37.625Z" fill="#720C10"/>
<path d="M21.001 39.375C20.518 39.375 20.126 38.983 20.126 38.5V10.5C20.126 10.017 20.518 9.625 21.001 9.625C21.484 9.625 21.876 10.017 21.876 10.5V38.5C21.876 38.983 21.484 39.375 21.001 39.375Z" fill="#720C10"/>
<path d="M36.751 20.125C37.2342 20.125 37.626 19.7332 37.626 19.25C37.626 18.7668 37.2342 18.375 36.751 18.375C36.2677 18.375 35.876 18.7668 35.876 19.25C35.876 19.7332 36.2677 20.125 36.751 20.125Z" fill="#720C10"/>
<path d="M36.751 23.625C37.2342 23.625 37.626 23.2332 37.626 22.75C37.626 22.2668 37.2342 21.875 36.751 21.875C36.2677 21.875 35.876 22.2668 35.876 22.75C35.876 23.2332 36.2677 23.625 36.751 23.625Z" fill="#720C10"/>
<path d="M17.4977 7.87369C17.2737 7.87369 17.0497 7.78794 16.8782 7.61819L15.7477 6.48594L14.6172 7.61819C14.276 7.95944 13.7212 7.95944 13.38 7.61819C13.0387 7.27694 13.0387 6.72219 13.38 6.38094L15.13 4.63094C15.4712 4.28969 16.026 4.28969 16.3672 4.63094L18.1172 6.38094C18.4585 6.72219 18.4585 7.27694 18.1172 7.61819C17.9457 7.78794 17.7217 7.87369 17.4977 7.87369Z" fill="#720C10"/>
<path d="M26.2495 7.87369C26.0255 7.87369 25.8015 7.78794 25.63 7.61819L23.88 5.86819C23.5387 5.52694 23.5387 4.97219 23.88 4.63094C24.2212 4.28969 24.776 4.28969 25.1172 4.63094L26.2495 5.76144L27.38 4.63094C27.7212 4.28969 28.276 4.28969 28.6172 4.63094C28.9585 4.97219 28.9585 5.52694 28.6172 5.86819L26.8672 7.61819C26.6975 7.78794 26.4735 7.87369 26.2495 7.87369Z" fill="#720C10"/>
</svg>
