<svg preserveAspectRatio="none" width="100%" height="100%" overflow="visible" style="display: block;" viewBox="0 0 50 50" fill="none" xmlns="http://www.w3.org/2000/svg">
<g id="icon=tower">
<g id="Union">
<path d="M25 3.12207C25.1455 3.12207 25.2858 3.18031 25.3887 3.2832C25.4914 3.38601 25.5487 3.52555 25.5488 3.6709V5.45215H28.9346C29.0799 5.45215 29.2194 5.50971 29.3223 5.6123C29.4252 5.7152 29.4834 5.85547 29.4834 6.00098V8.46973H32.8711C33.0164 8.46973 33.1559 8.52727 33.2588 8.62988C33.3617 8.73277 33.4199 8.87305 33.4199 9.01855V11.4873H34.9072C35.0525 11.4874 35.1922 11.5447 35.2949 11.6475C35.3978 11.7504 35.4551 11.8906 35.4551 12.0361V15.0537C35.455 15.1991 35.3977 15.3386 35.2949 15.4414C35.1921 15.5442 35.0526 15.6014 34.9072 15.6016H33.0859V45.7773H35.6641C35.8096 45.7773 35.9498 45.8356 36.0527 45.9385C36.1554 46.0413 36.2129 46.1808 36.2129 46.3262C36.2128 46.4715 36.1554 46.611 36.0527 46.7139C35.9498 46.8168 35.8096 46.875 35.6641 46.875H14.3369C14.1914 46.875 14.0511 46.8168 13.9482 46.7139C13.8455 46.611 13.7881 46.4715 13.7881 46.3262C13.7881 46.1808 13.8456 46.0413 13.9482 45.9385C14.0511 45.8356 14.1914 45.7773 14.3369 45.7773L16.917 45.7764V15.6016H15.0967C14.9512 15.6016 14.8109 15.5433 14.708 15.4404C14.6053 15.3376 14.5479 15.1981 14.5479 15.0527V12.0352C14.5479 11.8898 14.6053 11.7503 14.708 11.6475C14.8109 11.5446 14.9512 11.4863 15.0967 11.4863H16.583V9.01758C16.583 8.87212 16.6413 8.73274 16.7441 8.62988C16.847 8.52704 16.9864 8.46875 17.1318 8.46875H20.5176V6C20.5176 5.85468 20.5751 5.71513 20.6777 5.6123C20.7806 5.50941 20.9209 5.45117 21.0664 5.45117H24.4521V3.6709C24.4522 3.52554 24.5095 3.38601 24.6123 3.2832C24.7151 3.18042 24.8547 3.12219 25 3.12207ZM18.0146 15.6016V45.7773H31.9863V15.6016H18.0146ZM23.582 40.2715C23.7275 40.2715 23.8678 40.3288 23.9707 40.4316C24.0734 40.5344 24.1308 40.674 24.1309 40.8193C24.1309 40.9648 24.0736 41.1051 23.9707 41.208C23.8678 41.3109 23.7275 41.3682 23.582 41.3682H20.2207C20.0752 41.3682 19.9349 41.3109 19.832 41.208C19.7291 41.1051 19.6719 40.9648 19.6719 40.8193C19.672 40.674 19.7293 40.5344 19.832 40.4316C19.9349 40.3288 20.0752 40.2715 20.2207 40.2715H23.582ZM29.7803 40.2715C29.9256 40.2716 30.0652 40.3288 30.168 40.4316C30.2708 40.5345 30.328 40.674 30.3281 40.8193C30.3281 40.9648 30.2709 41.1051 30.168 41.208C30.0652 41.3107 29.9256 41.3681 29.7803 41.3682H26.418C26.2727 41.3682 26.1331 41.3106 26.0303 41.208C25.9274 41.1051 25.8691 40.9648 25.8691 40.8193C25.8692 40.6739 25.9275 40.5345 26.0303 40.4316C26.1331 40.3289 26.2726 40.2715 26.418 40.2715H29.7803ZM23.582 35.9766C23.7275 35.9766 23.8678 36.0348 23.9707 36.1377C24.0733 36.2405 24.1309 36.3801 24.1309 36.5254C24.1308 36.6707 24.0734 36.8103 23.9707 36.9131C23.8678 37.016 23.7275 37.0742 23.582 37.0742H20.2207C20.0752 37.0742 19.9349 37.016 19.832 36.9131C19.7293 36.8103 19.6719 36.6707 19.6719 36.5254C19.6719 36.3801 19.7294 36.2406 19.832 36.1377C19.9349 36.0348 20.0752 35.9766 20.2207 35.9766H23.582ZM29.7803 35.9766C29.9256 35.9767 30.0652 36.0349 30.168 36.1377C30.2707 36.2406 30.3281 36.38 30.3281 36.5254C30.3281 36.6708 30.2707 36.8102 30.168 36.9131C30.0652 37.0159 29.9256 37.0741 29.7803 37.0742H26.418C26.2725 37.0742 26.1331 37.0159 26.0303 36.9131C25.9274 36.8102 25.8692 36.6708 25.8691 36.5254C25.8691 36.3799 25.9274 36.2406 26.0303 36.1377C26.1332 36.0348 26.2725 35.9766 26.418 35.9766H29.7803ZM23.582 31.6797C23.7275 31.6797 23.8678 31.7379 23.9707 31.8408C24.0733 31.9437 24.1309 32.0832 24.1309 32.2285C24.1308 32.3738 24.0734 32.5134 23.9707 32.6162C23.8678 32.7191 23.7275 32.7773 23.582 32.7773H20.2207C20.0752 32.7773 19.9349 32.7191 19.832 32.6162C19.7293 32.5134 19.6719 32.3739 19.6719 32.2285C19.6719 32.0832 19.7294 31.9437 19.832 31.8408C19.9349 31.7379 20.0752 31.6797 20.2207 31.6797H23.582ZM29.7803 31.6797C29.9256 31.6798 30.0652 31.738 30.168 31.8408C30.2707 31.9437 30.3281 32.0831 30.3281 32.2285C30.3281 32.3739 30.2707 32.5134 30.168 32.6162C30.0652 32.719 29.9256 32.7772 29.7803 32.7773H26.418C26.2725 32.7773 26.1331 32.719 26.0303 32.6162C25.9274 32.5134 25.8692 32.374 25.8691 32.2285C25.8691 32.083 25.9274 31.9437 26.0303 31.8408C26.1332 31.7379 26.2725 31.6797 26.418 31.6797H29.7803ZM23.582 27.3877C23.7275 27.3877 23.8678 27.4459 23.9707 27.5488C24.0733 27.6517 24.1309 27.7912 24.1309 27.9365C24.1308 28.0819 24.0734 28.2214 23.9707 28.3242C23.8678 28.4271 23.7275 28.4854 23.582 28.4854H20.2207C20.0752 28.4854 19.9349 28.4271 19.832 28.3242C19.7293 28.2214 19.6719 28.0819 19.6719 27.9365C19.6719 27.7912 19.7294 27.6517 19.832 27.5488C19.9349 27.4459 20.0752 27.3877 20.2207 27.3877H23.582ZM29.7803 27.3877C29.9256 27.3878 30.0652 27.446 30.168 27.5488C30.2707 27.6517 30.3281 27.7912 30.3281 27.9365C30.3281 28.0819 30.2707 28.2214 30.168 28.3242C30.0652 28.427 29.9256 28.4852 29.7803 28.4854H26.418C26.2725 28.4854 26.1331 28.427 26.0303 28.3242C25.9274 28.2214 25.8692 28.082 25.8691 27.9365C25.8691 27.791 25.9274 27.6517 26.0303 27.5488C26.1332 27.4459 26.2725 27.3877 26.418 27.3877H29.7803ZM23.582 23.0957C23.7275 23.0957 23.8678 23.1539 23.9707 23.2568C24.0733 23.3597 24.1309 23.4992 24.1309 23.6445C24.1308 23.7899 24.0734 23.9294 23.9707 24.0322C23.8678 24.1351 23.7275 24.1934 23.582 24.1934H20.2207C20.0752 24.1934 19.9349 24.1351 19.832 24.0322C19.7293 23.9294 19.6719 23.7899 19.6719 23.6445C19.6719 23.4992 19.7294 23.3597 19.832 23.2568C19.9349 23.1539 20.0752 23.0957 20.2207 23.0957H23.582ZM29.7803 23.0957C29.9256 23.0958 30.0652 23.154 30.168 23.2568C30.2707 23.3597 30.3281 23.4992 30.3281 23.6445C30.3281 23.7899 30.2707 23.9294 30.168 24.0322C30.0652 24.135 29.9256 24.1933 29.7803 24.1934H26.418C26.2725 24.1934 26.1331 24.135 26.0303 24.0322C25.9274 23.9294 25.8692 23.79 25.8691 23.6445C25.8691 23.499 25.9274 23.3597 26.0303 23.2568C26.1332 23.1539 26.2725 23.0957 26.418 23.0957H29.7803ZM23.582 18.8018C23.7275 18.8018 23.8678 18.859 23.9707 18.9619C24.0734 19.0647 24.1308 19.2043 24.1309 19.3496C24.1309 19.4951 24.0736 19.6354 23.9707 19.7383C23.8678 19.8412 23.7275 19.8984 23.582 19.8984H20.2207C20.0752 19.8984 19.9349 19.8411 19.832 19.7383C19.7291 19.6354 19.6719 19.4951 19.6719 19.3496C19.672 19.2043 19.7293 19.0647 19.832 18.9619C19.9349 18.859 20.0752 18.8018 20.2207 18.8018H23.582ZM29.7803 18.8018C29.9256 18.8019 30.0652 18.8591 30.168 18.9619C30.2708 19.0647 30.328 19.2042 30.3281 19.3496C30.3281 19.4951 30.2709 19.6354 30.168 19.7383C30.0652 19.841 29.9256 19.8983 29.7803 19.8984H26.418C26.2727 19.8984 26.1331 19.8409 26.0303 19.7383C25.9274 19.6354 25.8691 19.4951 25.8691 19.3496C25.8692 19.2042 25.9275 19.0647 26.0303 18.9619C26.1331 18.8592 26.2726 18.8018 26.418 18.8018H29.7803ZM15.6445 12.584V14.5049H34.3535V12.584H15.6445ZM17.6807 9.56738V11.4873H32.3203V9.56738H17.6807ZM21.6152 6.5498V8.46973H28.3857V6.5498H21.6152Z" fill="var(--fill-0, #720C10)"/>
<path d="M25 3.12207V2.87207L24.9998 2.87207L25 3.12207ZM25.3887 3.2832L25.5655 3.10647L25.5654 3.10643L25.3887 3.2832ZM25.5488 3.6709L25.7988 3.6709L25.7988 3.67076L25.5488 3.6709ZM25.5488 5.45215H25.2988V5.70215H25.5488V5.45215ZM29.3223 5.6123L29.499 5.43553L29.4988 5.43531L29.3223 5.6123ZM29.4834 8.46973H29.2334V8.71973H29.4834V8.46973ZM33.2588 8.62988L33.4356 8.45311L33.4354 8.4529L33.2588 8.62988ZM33.4199 11.4873H33.1699V11.7373H33.4199V11.4873ZM34.9072 11.4873L34.9074 11.2373H34.9072V11.4873ZM35.2949 11.6475L35.4717 11.4707L35.4717 11.4706L35.2949 11.6475ZM35.4551 15.0537L35.7051 15.0539V15.0537H35.4551ZM35.2949 15.4414L35.4717 15.6182L35.4717 15.6182L35.2949 15.4414ZM34.9072 15.6016L34.9072 15.8516L34.9074 15.8516L34.9072 15.6016ZM33.0859 15.6016V15.3516H32.8359V15.6016H33.0859ZM33.0859 45.7773H32.8359V46.0273H33.0859V45.7773ZM36.0527 45.9385L36.2297 45.7619L36.2295 45.7617L36.0527 45.9385ZM36.2129 46.3262L36.4629 46.3262V46.3262H36.2129ZM36.0527 46.7139L36.2295 46.8906L36.2296 46.8905L36.0527 46.7139ZM13.9482 46.7139L13.7714 46.8906L13.7715 46.8906L13.9482 46.7139ZM13.7881 46.3262L13.5381 46.3262L13.5381 46.3262L13.7881 46.3262ZM13.9482 45.9385L13.7715 45.7617L13.7713 45.7619L13.9482 45.9385ZM14.3369 45.7773L14.3369 46.0273L14.337 46.0273L14.3369 45.7773ZM16.917 45.7764L16.9171 46.0264L17.167 46.0263V45.7764H16.917ZM16.917 15.6016H17.167V15.3516H16.917V15.6016ZM14.708 15.4404L14.5311 15.617L14.5312 15.6172L14.708 15.4404ZM14.5479 12.0352L14.2979 12.0351V12.0352H14.5479ZM14.708 11.6475L14.5312 11.4707L14.5311 11.4708L14.708 11.6475ZM16.583 11.4863V11.7363H16.833V11.4863H16.583ZM16.583 9.01758L16.333 9.01751V9.01758H16.583ZM16.7441 8.62988L16.5674 8.45307L16.5674 8.45311L16.7441 8.62988ZM20.5176 8.46875V8.71875H20.7676V8.46875H20.5176ZM20.5176 6L20.2676 5.99991V6H20.5176ZM20.6777 5.6123L20.501 5.43553L20.5008 5.43565L20.6777 5.6123ZM24.4521 5.45117V5.70117H24.7021V5.45117H24.4521ZM24.4521 3.6709L24.2021 3.67076V3.6709H24.4521ZM24.6123 3.2832L24.4355 3.10643L24.4355 3.10646L24.6123 3.2832ZM18.0146 15.6016V15.3516H17.7646V15.6016H18.0146ZM18.0146 45.7773H17.7646V46.0273H18.0146V45.7773ZM31.9863 45.7773V46.0273H32.2363V45.7773H31.9863ZM31.9863 15.6016H32.2363V15.3516H31.9863V15.6016ZM23.9707 40.4316L24.1476 40.2549L24.1475 40.2549L23.9707 40.4316ZM24.1309 40.8193L24.3809 40.8193L24.3809 40.8192L24.1309 40.8193ZM23.9707 41.208L24.1475 41.3848L24.1475 41.3848L23.9707 41.208ZM19.832 41.208L19.6553 41.3848L19.6553 41.3848L19.832 41.208ZM19.6719 40.8193L19.4219 40.8192V40.8193H19.6719ZM19.832 40.4316L19.6553 40.2549L19.6552 40.2549L19.832 40.4316ZM29.7803 40.2715L29.7805 40.0215H29.7803V40.2715ZM30.168 40.4316L30.3448 40.2549L30.3447 40.2549L30.168 40.4316ZM30.3281 40.8193L30.5781 40.8193L30.5781 40.8192L30.3281 40.8193ZM30.168 41.208L30.3447 41.3848L30.3447 41.3848L30.168 41.208ZM29.7803 41.3682L29.7803 41.6182L29.7805 41.6182L29.7803 41.3682ZM26.0303 41.208L25.8535 41.3848L25.8537 41.385L26.0303 41.208ZM25.8691 40.8193L25.6191 40.8192V40.8193H25.8691ZM26.0303 40.4316L25.8536 40.2548L25.8535 40.2549L26.0303 40.4316ZM23.9707 36.1377L24.1477 35.9611L24.1475 35.9609L23.9707 36.1377ZM24.1309 36.5254L24.3809 36.5255V36.5254H24.1309ZM23.9707 36.9131L24.1475 37.0899L24.1476 37.0898L23.9707 36.9131ZM19.832 36.9131L19.6552 37.0898L19.6553 37.0899L19.832 36.9131ZM19.6719 36.5254L19.4219 36.5254L19.4219 36.5255L19.6719 36.5254ZM19.832 36.1377L19.6553 35.9609L19.6551 35.9611L19.832 36.1377ZM29.7803 35.9766L29.7805 35.7266H29.7803V35.9766ZM30.168 36.1377L30.3449 35.9611L30.3447 35.9609L30.168 36.1377ZM30.3281 36.5254L30.5781 36.5255V36.5254H30.3281ZM30.168 36.9131L30.3447 37.0899L30.3448 37.0898L30.168 36.9131ZM29.7803 37.0742L29.7803 37.3242L29.7805 37.3242L29.7803 37.0742ZM26.0303 36.9131L25.8535 37.0899L25.8536 37.0899L26.0303 36.9131ZM25.8691 36.5254L25.6191 36.5254L25.6191 36.5255L25.8691 36.5254ZM26.0303 36.1377L25.8535 35.9609L25.8535 35.9609L26.0303 36.1377ZM23.9707 31.8408L24.1477 31.6642L24.1475 31.664L23.9707 31.8408ZM24.1309 32.2285L24.3809 32.2286V32.2285H24.1309ZM23.9707 32.6162L24.1475 32.793L24.1476 32.7929L23.9707 32.6162ZM19.832 32.6162L19.6552 32.7929L19.6553 32.793L19.832 32.6162ZM19.6719 32.2285L19.4219 32.2285L19.4219 32.2286L19.6719 32.2285ZM19.832 31.8408L19.6553 31.664L19.6551 31.6642L19.832 31.8408ZM29.7803 31.6797L29.7805 31.4297H29.7803V31.6797ZM30.168 31.8408L30.3449 31.6642L30.3447 31.664L30.168 31.8408ZM30.3281 32.2285L30.5781 32.2286V32.2285H30.3281ZM30.168 32.6162L30.3447 32.793L30.3448 32.7929L30.168 32.6162ZM29.7803 32.7773L29.7803 33.0273L29.7805 33.0273L29.7803 32.7773ZM26.0303 32.6162L25.8535 32.793L25.8536 32.7931L26.0303 32.6162ZM25.8691 32.2285L25.6191 32.2285L25.6191 32.2286L25.8691 32.2285ZM26.0303 31.8408L25.8535 31.664L25.8535 31.664L26.0303 31.8408ZM23.9707 27.5488L24.1477 27.3722L24.1475 27.3721L23.9707 27.5488ZM24.1309 27.9365L24.3809 27.9366V27.9365H24.1309ZM23.9707 28.3242L24.1475 28.501L24.1476 28.5009L23.9707 28.3242ZM19.832 28.3242L19.6552 28.5009L19.6553 28.501L19.832 28.3242ZM19.6719 27.9365L19.4219 27.9365L19.4219 27.9366L19.6719 27.9365ZM19.832 27.5488L19.6553 27.3721L19.6551 27.3722L19.832 27.5488ZM29.7803 27.3877L29.7805 27.1377H29.7803V27.3877ZM30.168 27.5488L30.3449 27.3722L30.3447 27.3721L30.168 27.5488ZM30.3281 27.9365L30.5781 27.9366V27.9365H30.3281ZM30.168 28.3242L30.3447 28.501L30.3448 28.5009L30.168 28.3242ZM29.7803 28.4854L29.7803 28.7354L29.7805 28.7354L29.7803 28.4854ZM26.0303 28.3242L25.8535 28.501L25.8536 28.5011L26.0303 28.3242ZM25.8691 27.9365L25.6191 27.9365L25.6191 27.9366L25.8691 27.9365ZM26.0303 27.5488L25.8535 27.3721L25.8535 27.3721L26.0303 27.5488ZM23.9707 23.2568L24.1477 23.0802L24.1475 23.0801L23.9707 23.2568ZM24.1309 23.6445L24.3809 23.6446V23.6445H24.1309ZM23.9707 24.0322L24.1475 24.209L24.1476 24.2089L23.9707 24.0322ZM19.832 24.0322L19.6552 24.2089L19.6553 24.209L19.832 24.0322ZM19.6719 23.6445L19.4219 23.6445L19.4219 23.6446L19.6719 23.6445ZM19.832 23.2568L19.6553 23.0801L19.6551 23.0802L19.832 23.2568ZM29.7803 23.0957L29.7805 22.8457H29.7803V23.0957ZM30.168 23.2568L30.3449 23.0802L30.3447 23.0801L30.168 23.2568ZM30.3281 23.6445L30.5781 23.6446V23.6445H30.3281ZM30.168 24.0322L30.3447 24.209L30.3448 24.209L30.168 24.0322ZM29.7803 24.1934L29.7803 24.4434L29.7805 24.4434L29.7803 24.1934ZM26.0303 24.0322L25.8535 24.209L25.8536 24.2091L26.0303 24.0322ZM25.8691 23.6445L25.6191 23.6445L25.6191 23.6446L25.8691 23.6445ZM26.0303 23.2568L25.8535 23.0801L25.8535 23.0801L26.0303 23.2568ZM23.9707 18.9619L24.1476 18.7852L24.1475 18.7851L23.9707 18.9619ZM24.1309 19.3496L24.3809 19.3496L24.3809 19.3495L24.1309 19.3496ZM23.9707 19.7383L24.1475 19.9151L24.1475 19.9151L23.9707 19.7383ZM19.832 19.7383L19.6553 19.9151L19.6553 19.9151L19.832 19.7383ZM19.6719 19.3496L19.4219 19.3495V19.3496H19.6719ZM19.832 18.9619L19.6553 18.7851L19.6552 18.7852L19.832 18.9619ZM29.7803 18.8018L29.7805 18.5518H29.7803V18.8018ZM30.168 18.9619L30.3448 18.7852L30.3447 18.7851L30.168 18.9619ZM30.3281 19.3496L30.5781 19.3496L30.5781 19.3495L30.3281 19.3496ZM30.168 19.7383L30.3447 19.9151L30.3447 19.9151L30.168 19.7383ZM29.7803 19.8984L29.7803 20.1484L29.7805 20.1484L29.7803 19.8984ZM26.0303 19.7383L25.8535 19.9151L25.8537 19.9153L26.0303 19.7383ZM25.8691 19.3496L25.6191 19.3495V19.3496H25.8691ZM26.0303 18.9619L25.8536 18.785L25.8535 18.7851L26.0303 18.9619ZM15.6445 12.584V12.334H15.3945V12.584H15.6445ZM15.6445 14.5049H15.3945V14.7549H15.6445V14.5049ZM34.3535 14.5049V14.7549H34.6035V14.5049H34.3535ZM34.3535 12.584H34.6035V12.334H34.3535V12.584ZM17.6807 9.56738V9.31738H17.4307V9.56738H17.6807ZM17.6807 11.4873H17.4307V11.7373H17.6807V11.4873ZM32.3203 11.4873V11.7373H32.5703V11.4873H32.3203ZM32.3203 9.56738H32.5703V9.31738H32.3203V9.56738ZM21.6152 6.5498V6.2998H21.3652V6.5498H21.6152ZM21.6152 8.46973H21.3652V8.71973H21.6152V8.46973ZM28.3857 8.46973V8.71973H28.6357V8.46973H28.3857ZM28.3857 6.5498H28.6357V6.2998H28.3857V6.5498ZM25 3.12207V3.37207C25.079 3.37207 25.1558 3.40386 25.2119 3.45998L25.3887 3.2832L25.5654 3.10643C25.4158 2.95677 25.212 2.87207 25 2.87207V3.12207ZM25.3887 3.2832L25.2118 3.45993C25.2674 3.51548 25.2988 3.59134 25.2988 3.67104L25.5488 3.6709L25.7988 3.67076C25.7987 3.45976 25.7155 3.25654 25.5655 3.10647L25.3887 3.2832ZM25.5488 3.6709H25.2988V5.45215H25.5488H25.7988V3.6709H25.5488ZM25.5488 5.45215V5.70215H28.9346V5.45215V5.20215H25.5488V5.45215ZM28.9346 5.45215V5.70215C29.0138 5.70215 29.0899 5.73358 29.1457 5.7893L29.3223 5.6123L29.4988 5.43531C29.349 5.28584 29.1459 5.20215 28.9346 5.20215V5.45215ZM29.3223 5.6123L29.1455 5.78908C29.2016 5.8452 29.2334 5.92193 29.2334 6.00098H29.4834H29.7334C29.7334 5.789 29.6487 5.58519 29.499 5.43553L29.3223 5.6123ZM29.4834 6.00098H29.2334V8.46973H29.4834H29.7334V6.00098H29.4834ZM29.4834 8.46973V8.71973H32.8711V8.46973V8.21973H29.4834V8.46973ZM32.8711 8.46973V8.71973C32.9504 8.71973 33.0264 8.75115 33.0822 8.80686L33.2588 8.62988L33.4354 8.4529C33.2855 8.3034 33.0824 8.21973 32.8711 8.21973V8.46973ZM33.2588 8.62988L33.082 8.80666C33.1381 8.86278 33.1699 8.93951 33.1699 9.01855H33.4199H33.6699C33.6699 8.80658 33.5852 8.60277 33.4356 8.45311L33.2588 8.62988ZM33.4199 9.01855H33.1699V11.4873H33.4199H33.6699V9.01855H33.4199ZM33.4199 11.4873V11.7373H34.9072V11.4873V11.2373H33.4199V11.4873ZM34.9072 11.4873L34.907 11.7373C34.9868 11.7374 35.0627 11.7688 35.1182 11.8243L35.2949 11.6475L35.4717 11.4706C35.3216 11.3206 35.1183 11.2375 34.9074 11.2373L34.9072 11.4873ZM35.2949 11.6475L35.1181 11.8242C35.1735 11.8796 35.2051 11.9559 35.2051 12.0361H35.4551H35.7051C35.7051 11.8253 35.6222 11.6211 35.4717 11.4707L35.2949 11.6475ZM35.4551 12.0361H35.2051V15.0537H35.4551H35.7051V12.0361H35.4551ZM35.4551 15.0537L35.2051 15.0535C35.205 15.1333 35.1736 15.2092 35.1181 15.2647L35.2949 15.4414L35.4717 15.6182C35.6218 15.4681 35.7049 15.2648 35.7051 15.0539L35.4551 15.0537ZM35.2949 15.4414L35.1181 15.2646C35.0627 15.3201 34.9869 15.3515 34.907 15.3516L34.9072 15.6016L34.9074 15.8516C35.1183 15.8514 35.3216 15.7683 35.4717 15.6182L35.2949 15.4414ZM34.9072 15.6016V15.3516H33.0859V15.6016V15.8516H34.9072V15.6016ZM33.0859 15.6016H32.8359V45.7773H33.0859H33.3359V15.6016H33.0859ZM33.0859 45.7773V46.0273H35.6641V45.7773V45.5273H33.0859V45.7773ZM35.6641 45.7773V46.0273C35.7431 46.0273 35.8198 46.0591 35.876 46.1153L36.0527 45.9385L36.2295 45.7617C36.0799 45.612 35.876 45.5273 35.6641 45.5273V45.7773ZM36.0527 45.9385L35.8758 46.1151C35.9315 46.1709 35.9629 46.2468 35.9629 46.3262H36.2129H36.4629C36.4629 46.1149 36.3793 45.9118 36.2297 45.7619L36.0527 45.9385ZM36.2129 46.3262L35.9629 46.3261C35.9629 46.4056 35.9315 46.4815 35.8759 46.5372L36.0527 46.7139L36.2296 46.8905C36.3794 46.7405 36.4628 46.5374 36.4629 46.3262L36.2129 46.3262ZM36.0527 46.7139L35.876 46.5371C35.8198 46.5932 35.7431 46.625 35.6641 46.625V46.875V47.125C35.876 47.125 36.0799 47.0403 36.2295 46.8906L36.0527 46.7139ZM35.6641 46.875V46.625H14.3369V46.875V47.125H35.6641V46.875ZM14.3369 46.875V46.625C14.2579 46.625 14.1811 46.5932 14.125 46.5371L13.9482 46.7139L13.7715 46.8906C13.9211 47.0403 14.1249 47.125 14.3369 47.125V46.875ZM13.9482 46.7139L14.1251 46.5372C14.0695 46.4815 14.0381 46.4057 14.0381 46.3261L13.7881 46.3262L13.5381 46.3262C13.5381 46.5374 13.6215 46.7405 13.7714 46.8906L13.9482 46.7139ZM13.7881 46.3262H14.0381C14.0381 46.2468 14.0695 46.1709 14.1252 46.1151L13.9482 45.9385L13.7713 45.7619C13.6217 45.9118 13.5381 46.1149 13.5381 46.3262H13.7881ZM13.9482 45.9385L14.125 46.1153C14.1811 46.0591 14.2579 46.0273 14.3369 46.0273V45.7773V45.5273C14.1249 45.5273 13.9211 45.612 13.7715 45.7617L13.9482 45.9385ZM14.3369 45.7773L14.337 46.0273L16.9171 46.0264L16.917 45.7764L16.9169 45.5264L14.3368 45.5273L14.3369 45.7773ZM16.917 45.7764H17.167V15.6016H16.917H16.667V45.7764H16.917ZM16.917 15.6016V15.3516H15.0967V15.6016V15.8516H16.917V15.6016ZM15.0967 15.6016V15.3516C15.0176 15.3516 14.9409 15.3198 14.8848 15.2637L14.708 15.4404L14.5312 15.6172C14.6809 15.7669 14.8847 15.8516 15.0967 15.8516V15.6016ZM14.708 15.4404L14.8849 15.2638C14.8292 15.208 14.7979 15.1321 14.7979 15.0527H14.5479H14.2979C14.2979 15.264 14.3814 15.4671 14.5311 15.617L14.708 15.4404ZM14.5479 15.0527H14.7979V12.0352H14.5479H14.2979V15.0527H14.5479ZM14.5479 12.0352L14.7979 12.0352C14.7979 11.9557 14.8293 11.8798 14.8849 11.8241L14.708 11.6475L14.5311 11.4708C14.3814 11.6208 14.2979 11.8239 14.2979 12.0351L14.5479 12.0352ZM14.708 11.6475L14.8848 11.8242C14.9409 11.7681 15.0176 11.7363 15.0967 11.7363V11.4863V11.2363C14.8847 11.2363 14.6809 11.321 14.5312 11.4707L14.708 11.6475ZM15.0967 11.4863V11.7363H16.583V11.4863V11.2363H15.0967V11.4863ZM16.583 11.4863H16.833V9.01758H16.583H16.333V11.4863H16.583ZM16.583 9.01758L16.833 9.01765C16.833 8.93903 16.8645 8.86305 16.9209 8.80666L16.7441 8.62988L16.5674 8.45311C16.418 8.60243 16.3331 8.80521 16.333 9.01751L16.583 9.01758ZM16.7441 8.62988L16.9209 8.8067C16.9774 8.75023 17.0533 8.71875 17.1318 8.71875V8.46875V8.21875C16.9194 8.21875 16.7167 8.30386 16.5674 8.45307L16.7441 8.62988ZM17.1318 8.46875V8.71875H20.5176V8.46875V8.21875H17.1318V8.46875ZM20.5176 8.46875H20.7676V6H20.5176H20.2676V8.46875H20.5176ZM20.5176 6L20.7676 6.00009C20.7676 5.92057 20.799 5.84463 20.8546 5.78896L20.6777 5.6123L20.5008 5.43565C20.3511 5.58562 20.2677 5.7888 20.2676 5.99991L20.5176 6ZM20.6777 5.6123L20.8545 5.78908C20.9106 5.73296 20.9874 5.70117 21.0664 5.70117V5.45117V5.20117C20.8544 5.20117 20.6506 5.28587 20.501 5.43553L20.6777 5.6123ZM21.0664 5.45117V5.70117H24.4521V5.45117V5.20117H21.0664V5.45117ZM24.4521 5.45117H24.7021V3.6709H24.4521H24.2021V5.45117H24.4521ZM24.4521 3.6709L24.7021 3.67104C24.7022 3.59131 24.7336 3.51549 24.7891 3.45994L24.6123 3.2832L24.4355 3.10646C24.2855 3.25654 24.2023 3.45976 24.2021 3.67076L24.4521 3.6709ZM24.6123 3.2832L24.7891 3.45998C24.8453 3.40374 24.9215 3.37214 25.0002 3.37207L25 3.12207L24.9998 2.87207C24.7878 2.87225 24.5849 2.9571 24.4355 3.10643L24.6123 3.2832ZM18.0146 15.6016H17.7646V45.7773H18.0146H18.2646V15.6016H18.0146ZM18.0146 45.7773V46.0273H31.9863V45.7773V45.5273H18.0146V45.7773ZM31.9863 45.7773H32.2363V15.6016H31.9863H31.7363V45.7773H31.9863ZM31.9863 15.6016V15.3516H18.0146V15.6016V15.8516H31.9863V15.6016ZM23.582 40.2715V40.5215C23.6622 40.5215 23.7386 40.5531 23.7939 40.6084L23.9707 40.4316L24.1475 40.2549C23.997 40.1044 23.7929 40.0215 23.582 40.0215V40.2715ZM23.9707 40.4316L23.7938 40.6083C23.8494 40.6639 23.8808 40.7398 23.8809 40.8195L24.1309 40.8193L24.3809 40.8192C24.3807 40.6082 24.2974 40.405 24.1476 40.2549L23.9707 40.4316ZM24.1309 40.8193H23.8809C23.8809 40.8995 23.8492 40.9759 23.7939 41.0312L23.9707 41.208L24.1475 41.3848C24.2979 41.2343 24.3809 41.0302 24.3809 40.8193H24.1309ZM23.9707 41.208L23.7939 41.0312C23.7386 41.0865 23.6622 41.1182 23.582 41.1182V41.3682V41.6182C23.7929 41.6182 23.997 41.5352 24.1475 41.3848L23.9707 41.208ZM23.582 41.3682V41.1182H20.2207V41.3682V41.6182H23.582V41.3682ZM20.2207 41.3682V41.1182C20.1406 41.1182 20.0641 41.0865 20.0088 41.0312L19.832 41.208L19.6553 41.3848C19.8057 41.5352 20.0099 41.6182 20.2207 41.6182V41.3682ZM19.832 41.208L20.0088 41.0312C19.9535 40.9759 19.9219 40.8995 19.9219 40.8193H19.6719H19.4219C19.4219 41.0302 19.5048 41.2343 19.6553 41.3848L19.832 41.208ZM19.6719 40.8193L19.9219 40.8195C19.9219 40.7398 19.9533 40.6639 20.0089 40.6084L19.832 40.4316L19.6552 40.2549C19.5052 40.405 19.422 40.6082 19.4219 40.8192L19.6719 40.8193ZM19.832 40.4316L20.0088 40.6084C20.0641 40.5531 20.1405 40.5215 20.2207 40.5215V40.2715V40.0215C20.0099 40.0215 19.8057 40.1044 19.6553 40.2549L19.832 40.4316ZM20.2207 40.2715V40.5215H23.582V40.2715V40.0215H20.2207V40.2715ZM29.7803 40.2715L29.7801 40.5215C29.8599 40.5215 29.9357 40.553 29.9912 40.6084L30.168 40.4316L30.3447 40.2549C30.1946 40.1047 29.9914 40.0216 29.7805 40.0215L29.7803 40.2715ZM30.168 40.4316L29.9912 40.6084C30.0467 40.6639 30.0781 40.7397 30.0781 40.8195L30.3281 40.8193L30.5781 40.8192C30.578 40.6082 30.4948 40.405 30.3448 40.2549L30.168 40.4316ZM30.3281 40.8193H30.0781C30.0781 40.8995 30.0465 40.9759 29.9912 41.0312L30.168 41.208L30.3447 41.3848C30.4952 41.2343 30.5781 41.0302 30.5781 40.8193H30.3281ZM30.168 41.208L29.9913 41.0312C29.9357 41.0866 29.8598 41.1181 29.7801 41.1182L29.7803 41.3682L29.7805 41.6182C29.9914 41.618 30.1946 41.5348 30.3447 41.3848L30.168 41.208ZM29.7803 41.3682V41.1182H26.418V41.3682V41.6182H29.7803V41.3682ZM26.418 41.3682V41.1182C26.3387 41.1182 26.2627 41.0867 26.2069 41.031L26.0303 41.208L25.8537 41.385C26.0036 41.5345 26.2067 41.6182 26.418 41.6182V41.3682ZM26.0303 41.208L26.2071 41.0312C26.1509 40.9751 26.1191 40.8984 26.1191 40.8193H25.8691H25.6191C25.6191 41.0313 25.7038 41.2351 25.8535 41.3848L26.0303 41.208ZM25.8691 40.8193L26.1191 40.8195C26.1192 40.7408 26.1507 40.6647 26.2071 40.6084L26.0303 40.4316L25.8535 40.2549C25.7042 40.4042 25.6193 40.6071 25.6191 40.8192L25.8691 40.8193ZM26.0303 40.4316L26.2069 40.6085C26.2627 40.5528 26.3385 40.5215 26.418 40.5215V40.2715V40.0215C26.2067 40.0215 26.0036 40.105 25.8536 40.2548L26.0303 40.4316ZM26.418 40.2715V40.5215H29.7803V40.2715V40.0215H26.418V40.2715ZM23.582 35.9766V36.2266C23.6611 36.2266 23.7378 36.2584 23.7939 36.3145L23.9707 36.1377L24.1475 35.9609C23.9978 35.8113 23.794 35.7266 23.582 35.7266V35.9766ZM23.9707 36.1377L23.7937 36.3143C23.8494 36.3701 23.8809 36.4461 23.8809 36.5254H24.1309H24.3809C24.3809 36.3141 24.2972 36.111 24.1477 35.9611L23.9707 36.1377ZM24.1309 36.5254L23.8809 36.5253C23.8808 36.6049 23.8494 36.6808 23.7938 36.7364L23.9707 36.9131L24.1476 37.0898C24.2974 36.9398 24.3808 36.7366 24.3809 36.5255L24.1309 36.5254ZM23.9707 36.9131L23.7939 36.7363C23.7378 36.7924 23.6611 36.8242 23.582 36.8242V37.0742V37.3242C23.794 37.3242 23.9978 37.2395 24.1475 37.0899L23.9707 36.9131ZM23.582 37.0742V36.8242H20.2207V37.0742V37.3242H23.582V37.0742ZM20.2207 37.0742V36.8242C20.1417 36.8242 20.0649 36.7924 20.0088 36.7363L19.832 36.9131L19.6553 37.0899C19.8049 37.2395 20.0087 37.3242 20.2207 37.3242V37.0742ZM19.832 36.9131L20.0089 36.7364C19.9533 36.6808 19.9219 36.6049 19.9219 36.5253L19.6719 36.5254L19.4219 36.5255C19.4219 36.7366 19.5053 36.9398 19.6552 37.0898L19.832 36.9131ZM19.6719 36.5254H19.9219C19.9219 36.446 19.9533 36.3701 20.009 36.3143L19.832 36.1377L19.6551 35.9611C19.5055 36.111 19.4219 36.3141 19.4219 36.5254H19.6719ZM19.832 36.1377L20.0088 36.3145C20.0649 36.2584 20.1417 36.2266 20.2207 36.2266V35.9766V35.7266C20.0087 35.7266 19.8049 35.8113 19.6553 35.9609L19.832 36.1377ZM20.2207 35.9766V36.2266H23.582V35.9766V35.7266H20.2207V35.9766ZM29.7803 35.9766L29.7801 36.2266C29.8588 36.2266 29.9349 36.2582 29.9912 36.3145L30.168 36.1377L30.3447 35.9609C30.1954 35.8116 29.9925 35.7267 29.7805 35.7266L29.7803 35.9766ZM30.168 36.1377L29.9911 36.3143C30.0467 36.3701 30.0781 36.446 30.0781 36.5254H30.3281H30.5781C30.5781 36.3141 30.4946 36.111 30.3449 35.9611L30.168 36.1377ZM30.3281 36.5254L30.0781 36.5253C30.0781 36.605 30.0467 36.6807 29.9911 36.7364L30.168 36.9131L30.3448 37.0898C30.4948 36.9397 30.5781 36.7366 30.5781 36.5255L30.3281 36.5254ZM30.168 36.9131L29.9912 36.7363C29.9349 36.7926 29.8588 36.8242 29.7801 36.8242L29.7803 37.0742L29.7805 37.3242C29.9925 37.3241 30.1954 37.2392 30.3447 37.0899L30.168 36.9131ZM29.7803 37.0742V36.8242H26.418V37.0742V37.3242H29.7803V37.0742ZM26.418 37.0742V36.8242C26.3396 36.8242 26.2635 36.7927 26.207 36.7362L26.0303 36.9131L25.8536 37.0899C26.0028 37.239 26.2055 37.3242 26.418 37.3242V37.0742ZM26.0303 36.9131L26.2071 36.7363C26.1507 36.6799 26.1192 36.6039 26.1191 36.5253L25.8691 36.5254L25.6191 36.5255C25.6192 36.7377 25.7042 36.9405 25.8535 37.0899L26.0303 36.9131ZM25.8691 36.5254H26.1191C26.1191 36.4468 26.1506 36.3709 26.2071 36.3145L26.0303 36.1377L25.8535 35.9609C25.7042 36.1102 25.6191 36.3129 25.6191 36.5254H25.8691ZM26.0303 36.1377L26.2071 36.3145C26.2635 36.258 26.3394 36.2266 26.418 36.2266V35.9766V35.7266C26.2055 35.7266 26.0028 35.8116 25.8535 35.9609L26.0303 36.1377ZM26.418 35.9766V36.2266H29.7803V35.9766V35.7266H26.418V35.9766ZM23.582 31.6797V31.9297C23.6611 31.9297 23.7378 31.9615 23.7939 32.0176L23.9707 31.8408L24.1475 31.664C23.9978 31.5144 23.794 31.4297 23.582 31.4297V31.6797ZM23.9707 31.8408L23.7937 32.0174C23.8494 32.0732 23.8809 32.1492 23.8809 32.2285H24.1309H24.3809C24.3809 32.0172 24.2972 31.8141 24.1477 31.6642L23.9707 31.8408ZM24.1309 32.2285L23.8809 32.2284C23.8808 32.308 23.8494 32.3839 23.7938 32.4395L23.9707 32.6162L24.1476 32.7929C24.2974 32.6429 24.3808 32.4397 24.3809 32.2286L24.1309 32.2285ZM23.9707 32.6162L23.7939 32.4394C23.7378 32.4956 23.6611 32.5273 23.582 32.5273V32.7773V33.0273C23.794 33.0273 23.9978 32.9426 24.1475 32.793L23.9707 32.6162ZM23.582 32.7773V32.5273H20.2207V32.7773V33.0273H23.582V32.7773ZM20.2207 32.7773V32.5273C20.1417 32.5273 20.0649 32.4956 20.0088 32.4394L19.832 32.6162L19.6553 32.793C19.8049 32.9426 20.0087 33.0273 20.2207 33.0273V32.7773ZM19.832 32.6162L20.0089 32.4395C19.9533 32.3839 19.9219 32.308 19.9219 32.2284L19.6719 32.2285L19.4219 32.2286C19.4219 32.4397 19.5053 32.6429 19.6552 32.7929L19.832 32.6162ZM19.6719 32.2285H19.9219C19.9219 32.1492 19.9533 32.0732 20.009 32.0174L19.832 31.8408L19.6551 31.6642C19.5055 31.8141 19.4219 32.0172 19.4219 32.2285H19.6719ZM19.832 31.8408L20.0088 32.0176C20.0649 31.9615 20.1417 31.9297 20.2207 31.9297V31.6797V31.4297C20.0087 31.4297 19.8049 31.5144 19.6553 31.664L19.832 31.8408ZM20.2207 31.6797V31.9297H23.582V31.6797V31.4297H20.2207V31.6797ZM29.7803 31.6797L29.7801 31.9297C29.8588 31.9297 29.9349 31.9613 29.9912 32.0176L30.168 31.8408L30.3447 31.664C30.1954 31.5147 29.9925 31.4298 29.7805 31.4297L29.7803 31.6797ZM30.168 31.8408L29.9911 32.0175C30.0467 32.0732 30.0781 32.1491 30.0781 32.2285H30.3281H30.5781C30.5781 32.0172 30.4946 31.8141 30.3449 31.6642L30.168 31.8408ZM30.3281 32.2285L30.0781 32.2284C30.0781 32.3081 30.0467 32.3839 29.9911 32.4395L30.168 32.6162L30.3448 32.7929C30.4948 32.6429 30.5781 32.4397 30.5781 32.2286L30.3281 32.2285ZM30.168 32.6162L29.9912 32.4394C29.9349 32.4957 29.8588 32.5273 29.7801 32.5273L29.7803 32.7773L29.7805 33.0273C29.9925 33.0272 30.1954 32.9423 30.3447 32.793L30.168 32.6162ZM29.7803 32.7773V32.5273H26.418V32.7773V33.0273H29.7803V32.7773ZM26.418 32.7773V32.5273C26.3396 32.5273 26.2635 32.4958 26.207 32.4394L26.0303 32.6162L25.8536 32.7931C26.0028 32.9421 26.2055 33.0273 26.418 33.0273V32.7773ZM26.0303 32.6162L26.2071 32.4394C26.1507 32.3831 26.1192 32.3071 26.1191 32.2284L25.8691 32.2285L25.6191 32.2286C25.6192 32.4409 25.7042 32.6437 25.8535 32.793L26.0303 32.6162ZM25.8691 32.2285H26.1191C26.1191 32.1499 26.1506 32.0741 26.2071 32.0176L26.0303 31.8408L25.8535 31.664C25.7042 31.8134 25.6191 32.0161 25.6191 32.2285H25.8691ZM26.0303 31.8408L26.2071 32.0176C26.2635 31.9611 26.3394 31.9297 26.418 31.9297V31.6797V31.4297C26.2055 31.4297 26.0028 31.5147 25.8535 31.664L26.0303 31.8408ZM26.418 31.6797V31.9297H29.7803V31.6797V31.4297H26.418V31.6797ZM23.582 27.3877V27.6377C23.6611 27.6377 23.7378 27.6695 23.7939 27.7256L23.9707 27.5488L24.1475 27.3721C23.9978 27.2224 23.794 27.1377 23.582 27.1377V27.3877ZM23.9707 27.5488L23.7937 27.7254C23.8494 27.7812 23.8809 27.8572 23.8809 27.9365H24.1309H24.3809C24.3809 27.7252 24.2972 27.5221 24.1477 27.3722L23.9707 27.5488ZM24.1309 27.9365L23.8809 27.9364C23.8808 28.016 23.8494 28.0919 23.7938 28.1475L23.9707 28.3242L24.1476 28.5009C24.2974 28.3509 24.3808 28.1477 24.3809 27.9366L24.1309 27.9365ZM23.9707 28.3242L23.7939 28.1474C23.7378 28.2036 23.6611 28.2354 23.582 28.2354V28.4854V28.7354C23.794 28.7354 23.9978 28.6507 24.1475 28.501L23.9707 28.3242ZM23.582 28.4854V28.2354H20.2207V28.4854V28.7354H23.582V28.4854ZM20.2207 28.4854V28.2354C20.1417 28.2354 20.0649 28.2036 20.0088 28.1474L19.832 28.3242L19.6553 28.501C19.8049 28.6507 20.0087 28.7354 20.2207 28.7354V28.4854ZM19.832 28.3242L20.0089 28.1475C19.9533 28.0919 19.9219 28.016 19.9219 27.9364L19.6719 27.9365L19.4219 27.9366C19.4219 28.1477 19.5053 28.3509 19.6552 28.5009L19.832 28.3242ZM19.6719 27.9365H19.9219C19.9219 27.8572 19.9533 27.7812 20.009 27.7254L19.832 27.5488L19.6551 27.3722C19.5055 27.5221 19.4219 27.7252 19.4219 27.9365H19.6719ZM19.832 27.5488L20.0088 27.7256C20.0649 27.6695 20.1417 27.6377 20.2207 27.6377V27.3877V27.1377C20.0087 27.1377 19.8049 27.2224 19.6553 27.3721L19.832 27.5488ZM20.2207 27.3877V27.6377H23.582V27.3877V27.1377H20.2207V27.3877ZM29.7803 27.3877L29.7801 27.6377C29.8588 27.6378 29.9349 27.6693 29.9912 27.7256L30.168 27.5488L30.3447 27.3721C30.1954 27.2227 29.9925 27.1379 29.7805 27.1377L29.7803 27.3877ZM30.168 27.5488L29.9911 27.7255C30.0467 27.7812 30.0781 27.8571 30.0781 27.9365H30.3281H30.5781C30.5781 27.7252 30.4946 27.5221 30.3449 27.3722L30.168 27.5488ZM30.3281 27.9365L30.0781 27.9364C30.0781 28.0161 30.0467 28.0919 29.9911 28.1475L30.168 28.3242L30.3448 28.5009C30.4948 28.3509 30.5781 28.1477 30.5781 27.9366L30.3281 27.9365ZM30.168 28.3242L29.9912 28.1474C29.9349 28.2037 29.8588 28.2353 29.7801 28.2354L29.7803 28.4854L29.7805 28.7354C29.9925 28.7352 30.1954 28.6503 30.3447 28.501L30.168 28.3242ZM29.7803 28.4854V28.2354H26.418V28.4854V28.7354H29.7803V28.4854ZM26.418 28.4854V28.2354C26.3396 28.2354 26.2635 28.2038 26.207 28.1474L26.0303 28.3242L25.8536 28.5011C26.0028 28.6501 26.2055 28.7354 26.418 28.7354V28.4854ZM26.0303 28.3242L26.2071 28.1474C26.1507 28.0911 26.1192 28.0151 26.1191 27.9364L25.8691 27.9365L25.6191 27.9366C25.6192 28.1489 25.7042 28.3517 25.8535 28.501L26.0303 28.3242ZM25.8691 27.9365H26.1191C26.1191 27.858 26.1506 27.7821 26.2071 27.7256L26.0303 27.5488L25.8535 27.3721C25.7042 27.5214 25.6191 27.7241 25.6191 27.9365H25.8691ZM26.0303 27.5488L26.2071 27.7256C26.2635 27.6691 26.3394 27.6377 26.418 27.6377V27.3877V27.1377C26.2055 27.1377 26.0028 27.2227 25.8535 27.3721L26.0303 27.5488ZM26.418 27.3877V27.6377H29.7803V27.3877V27.1377H26.418V27.3877ZM23.582 23.0957V23.3457C23.6611 23.3457 23.7378 23.3775 23.7939 23.4336L23.9707 23.2568L24.1475 23.0801C23.9978 22.9304 23.794 22.8457 23.582 22.8457V23.0957ZM23.9707 23.2568L23.7937 23.4334C23.8494 23.4893 23.8809 23.5652 23.8809 23.6445H24.1309H24.3809C24.3809 23.4332 24.2972 23.2301 24.1477 23.0802L23.9707 23.2568ZM24.1309 23.6445L23.8809 23.6444C23.8808 23.724 23.8494 23.7999 23.7938 23.8556L23.9707 24.0322L24.1476 24.2089C24.2974 24.0589 24.3808 23.8557 24.3809 23.6446L24.1309 23.6445ZM23.9707 24.0322L23.7939 23.8554C23.7378 23.9116 23.6611 23.9434 23.582 23.9434V24.1934V24.4434C23.794 24.4434 23.9978 24.3587 24.1475 24.209L23.9707 24.0322ZM23.582 24.1934V23.9434H20.2207V24.1934V24.4434H23.582V24.1934ZM20.2207 24.1934V23.9434C20.1417 23.9434 20.0649 23.9116 20.0088 23.8554L19.832 24.0322L19.6553 24.209C19.8049 24.3587 20.0087 24.4434 20.2207 24.4434V24.1934ZM19.832 24.0322L20.0089 23.8555C19.9533 23.7999 19.9219 23.724 19.9219 23.6444L19.6719 23.6445L19.4219 23.6446C19.4219 23.8557 19.5053 24.0589 19.6552 24.2089L19.832 24.0322ZM19.6719 23.6445H19.9219C19.9219 23.5652 19.9533 23.4893 20.009 23.4334L19.832 23.2568L19.6551 23.0802C19.5055 23.2301 19.4219 23.4332 19.4219 23.6445H19.6719ZM19.832 23.2568L20.0088 23.4336C20.0649 23.3775 20.1417 23.3457 20.2207 23.3457V23.0957V22.8457C20.0087 22.8457 19.8049 22.9304 19.6553 23.0801L19.832 23.2568ZM20.2207 23.0957V23.3457H23.582V23.0957V22.8457H20.2207V23.0957ZM29.7803 23.0957L29.7801 23.3457C29.8588 23.3458 29.9349 23.3773 29.9912 23.4336L30.168 23.2568L30.3447 23.0801C30.1954 22.9307 29.9925 22.8459 29.7805 22.8457L29.7803 23.0957ZM30.168 23.2568L29.9911 23.4335C30.0467 23.4893 30.0781 23.5651 30.0781 23.6445H30.3281H30.5781C30.5781 23.4332 30.4946 23.2301 30.3449 23.0802L30.168 23.2568ZM30.3281 23.6445L30.0781 23.6444C30.0781 23.7241 30.0467 23.7999 29.9911 23.8555L30.168 24.0322L30.3448 24.209C30.4948 24.0589 30.5781 23.8557 30.5781 23.6446L30.3281 23.6445ZM30.168 24.0322L29.9912 23.8554C29.9349 23.9117 29.8588 23.9433 29.7801 23.9434L29.7803 24.1934L29.7805 24.4434C29.9925 24.4432 30.1954 24.3583 30.3447 24.209L30.168 24.0322ZM29.7803 24.1934V23.9434H26.418V24.1934V24.4434H29.7803V24.1934ZM26.418 24.1934V23.9434C26.3396 23.9434 26.2635 23.9118 26.207 23.8554L26.0303 24.0322L25.8536 24.2091C26.0028 24.3582 26.2055 24.4434 26.418 24.4434V24.1934ZM26.0303 24.0322L26.2071 23.8554C26.1507 23.7991 26.1192 23.7231 26.1191 23.6444L25.8691 23.6445L25.6191 23.6446C25.6192 23.8569 25.7042 24.0597 25.8535 24.209L26.0303 24.0322ZM25.8691 23.6445H26.1191C26.1191 23.566 26.1506 23.4901 26.2071 23.4336L26.0303 23.2568L25.8535 23.0801C25.7042 23.2294 25.6191 23.4321 25.6191 23.6445H25.8691ZM26.0303 23.2568L26.2071 23.4336C26.2635 23.3772 26.3394 23.3457 26.418 23.3457V23.0957V22.8457C26.2055 22.8457 26.0028 22.9307 25.8535 23.0801L26.0303 23.2568ZM26.418 23.0957V23.3457H29.7803V23.0957V22.8457H26.418V23.0957ZM23.582 18.8018V19.0518C23.6622 19.0518 23.7386 19.0834 23.7939 19.1387L23.9707 18.9619L24.1475 18.7851C23.997 18.6347 23.7929 18.5518 23.582 18.5518V18.8018ZM23.9707 18.9619L23.7938 19.1386C23.8494 19.1942 23.8808 19.2701 23.8809 19.3497L24.1309 19.3496L24.3809 19.3495C24.3807 19.1385 24.2974 18.9352 24.1476 18.7852L23.9707 18.9619ZM24.1309 19.3496H23.8809C23.8809 19.4298 23.8492 19.5062 23.7939 19.5615L23.9707 19.7383L24.1475 19.9151C24.2979 19.7646 24.3809 19.5604 24.3809 19.3496H24.1309ZM23.9707 19.7383L23.7939 19.5615C23.7386 19.6168 23.6622 19.6484 23.582 19.6484V19.8984V20.1484C23.7929 20.1484 23.997 20.0655 24.1475 19.9151L23.9707 19.7383ZM23.582 19.8984V19.6484H20.2207V19.8984V20.1484H23.582V19.8984ZM20.2207 19.8984V19.6484C20.1406 19.6484 20.0641 19.6168 20.0088 19.5615L19.832 19.7383L19.6553 19.9151C19.8057 20.0655 20.0099 20.1484 20.2207 20.1484V19.8984ZM19.832 19.7383L20.0088 19.5615C19.9535 19.5062 19.9219 19.4298 19.9219 19.3496H19.6719H19.4219C19.4219 19.5604 19.5048 19.7646 19.6553 19.9151L19.832 19.7383ZM19.6719 19.3496L19.9219 19.3497C19.9219 19.2701 19.9533 19.1942 20.0089 19.1386L19.832 18.9619L19.6552 18.7852C19.5052 18.9352 19.422 19.1385 19.4219 19.3495L19.6719 19.3496ZM19.832 18.9619L20.0088 19.1387C20.0641 19.0834 20.1405 19.0518 20.2207 19.0518V18.8018V18.5518C20.0099 18.5518 19.8057 18.6347 19.6553 18.7851L19.832 18.9619ZM20.2207 18.8018V19.0518H23.582V18.8018V18.5518H20.2207V18.8018ZM29.7803 18.8018L29.7801 19.0518C29.8599 19.0518 29.9357 19.0832 29.9912 19.1387L30.168 18.9619L30.3447 18.7851C30.1946 18.635 29.9914 18.5519 29.7805 18.5518L29.7803 18.8018ZM30.168 18.9619L29.9912 19.1387C30.0467 19.1942 30.0781 19.27 30.0781 19.3497L30.3281 19.3496L30.5781 19.3495C30.578 19.1385 30.4948 18.9353 30.3448 18.7852L30.168 18.9619ZM30.3281 19.3496H30.0781C30.0781 19.4298 30.0465 19.5062 29.9912 19.5615L30.168 19.7383L30.3447 19.9151C30.4952 19.7646 30.5781 19.5604 30.5781 19.3496H30.3281ZM30.168 19.7383L29.9913 19.5614C29.9357 19.6169 29.8598 19.6484 29.7801 19.6484L29.7803 19.8984L29.7805 20.1484C29.9914 20.1483 30.1946 20.0651 30.3447 19.9151L30.168 19.7383ZM29.7803 19.8984V19.6484H26.418V19.8984V20.1484H29.7803V19.8984ZM26.418 19.8984V19.6484C26.3387 19.6484 26.2627 19.617 26.2069 19.5613L26.0303 19.7383L25.8537 19.9153C26.0036 20.0648 26.2067 20.1484 26.418 20.1484V19.8984ZM26.0303 19.7383L26.2071 19.5615C26.1509 19.5054 26.1191 19.4287 26.1191 19.3496H25.8691H25.6191C25.6191 19.5616 25.7038 19.7654 25.8535 19.9151L26.0303 19.7383ZM25.8691 19.3496L26.1191 19.3497C26.1192 19.2711 26.1507 19.195 26.2071 19.1387L26.0303 18.9619L25.8535 18.7851C25.7042 18.9345 25.6193 19.1373 25.6191 19.3495L25.8691 19.3496ZM26.0303 18.9619L26.2069 19.1388C26.2627 19.0831 26.3385 19.0518 26.418 19.0518V18.8018V18.5518C26.2067 18.5518 26.0036 18.6352 25.8536 18.785L26.0303 18.9619ZM26.418 18.8018V19.0518H29.7803V18.8018V18.5518H26.418V18.8018ZM15.6445 12.584H15.3945V14.5049H15.6445H15.8945V12.584H15.6445ZM15.6445 14.5049V14.7549H34.3535V14.5049V14.2549H15.6445V14.5049ZM34.3535 14.5049H34.6035V12.584H34.3535H34.1035V14.5049H34.3535ZM34.3535 12.584V12.334H15.6445V12.584V12.834H34.3535V12.584ZM17.6807 9.56738H17.4307V11.4873H17.6807H17.9307V9.56738H17.6807ZM17.6807 11.4873V11.7373H32.3203V11.4873V11.2373H17.6807V11.4873ZM32.3203 11.4873H32.5703V9.56738H32.3203H32.0703V11.4873H32.3203ZM32.3203 9.56738V9.31738H17.6807V9.56738V9.81738H32.3203V9.56738ZM21.6152 6.5498H21.3652V8.46973H21.6152H21.8652V6.5498H21.6152ZM21.6152 8.46973V8.71973H28.3857V8.46973V8.21973H21.6152V8.46973ZM28.3857 8.46973H28.6357V6.5498H28.3857H28.1357V8.46973H28.3857ZM28.3857 6.5498V6.2998H21.6152V6.5498V6.7998H28.3857V6.5498Z" fill="var(--stroke-0, #720C10)"/>
</g>
</g>
</svg>
