<svg preserveAspectRatio="none" width="100%" height="100%" overflow="visible" style="display: block;" viewBox="0 0 42 30" fill="none" xmlns="http://www.w3.org/2000/svg">
<g id="Layer 1">
<path id="Vector" d="M20.0693 11.4863C19.8726 11.6751 19.7162 11.9018 19.6093 12.1526C19.5024 12.4034 19.4473 12.6732 19.4473 12.9458C19.4473 13.2185 19.5024 13.4883 19.6093 13.7391C19.7162 13.9899 19.8726 14.2165 20.0693 14.4053C20.2659 14.5953 20.4223 14.8229 20.5291 15.0746C20.6359 15.3262 20.6909 15.5968 20.6909 15.8702C20.6909 16.1436 20.6359 16.4142 20.5291 16.6659C20.4223 16.9176 20.2659 17.1452 20.0693 17.3351C19.8726 17.5239 19.7162 17.7505 19.6093 18.0013C19.5024 18.2521 19.4473 18.522 19.4473 18.7946C19.4473 19.0672 19.5024 19.3371 19.6093 19.5879C19.7162 19.8387 19.8726 20.0653 20.0693 20.2541" stroke="var(--stroke-0, #720C10)" stroke-width="1.75" stroke-linecap="round" stroke-linejoin="round"/>
<path id="Vector_2" d="M16.3882 11.4863C16.1915 11.6751 16.035 11.9018 15.9281 12.1526C15.8212 12.4034 15.7661 12.6732 15.7661 12.9458C15.7661 13.2185 15.8212 13.4883 15.9281 13.7391C16.035 13.9899 16.1915 14.2165 16.3882 14.4053C16.5848 14.5953 16.7412 14.8229 16.848 15.0746C16.9548 15.3262 17.0098 15.5968 17.0098 15.8702C17.0098 16.1436 16.9548 16.4142 16.848 16.6659C16.7412 16.9176 16.5848 17.1452 16.3882 17.3351" stroke="var(--stroke-0, #720C10)" stroke-width="1.75" stroke-linecap="round" stroke-linejoin="round"/>
<path id="Vector_3" d="M35.0151 11.1485C38.619 13.0296 40.848 15.6277 40.848 18.4975C40.848 24.2385 31.9278 28.8925 20.9242 28.8925C9.92066 28.8925 1.00049 24.2385 1.00049 18.4975C1.00049 12.7565 9.92066 8.10254 20.9242 8.10254C21.4717 8.10254 22.0138 8.11391 22.5504 8.13666" stroke="var(--stroke-0, #720C10)" stroke-width="1.75" stroke-linecap="round" stroke-linejoin="round"/>
<path id="Vector_4" d="M34.7321 15.6389C35.1369 16.0026 35.465 16.4433 35.6973 16.9354C35.9295 17.4274 36.0613 17.9609 36.0848 18.5045C36.0848 22.3317 29.2977 25.4345 20.9254 25.4345C12.5531 25.4345 5.76599 22.3317 5.76599 18.5045C5.76599 16.109 8.42482 13.9974 12.467 12.7527" stroke="var(--stroke-0, #720C10)" stroke-width="1.75" stroke-linecap="round" stroke-linejoin="round"/>
<path id="Vector_5" d="M25.2997 15.0017V4.50171C25.2997 3.57345 25.6684 2.68321 26.3248 2.02684C26.9812 1.37046 27.8714 1.00171 28.7997 1.00171C29.3011 1.00117 29.7967 1.1086 30.2528 1.31671C30.709 1.52481 31.1149 1.82871 31.4432 2.20772" stroke="var(--stroke-0, #720C10)" stroke-width="1.75" stroke-linecap="round" stroke-linejoin="round"/>
<path id="Vector_6" d="M32.298 18.4983V7.99829C32.298 7.07003 32.6667 6.17979 33.3231 5.52342C33.9795 4.86704 34.8697 4.49829 35.798 4.49829C36.7262 4.49829 37.6165 4.86704 38.2728 5.52342C38.9292 6.17979 39.298 7.07003 39.298 7.99829" stroke="var(--stroke-0, #720C10)" stroke-width="1.75" stroke-linecap="round" stroke-linejoin="round"/>
<path id="Vector_7" d="M25.2997 8.10254L32.3067 11.5885" stroke="var(--stroke-0, #720C10)" stroke-width="1.75" stroke-linecap="round" stroke-linejoin="round"/>
<path id="Vector_8" d="M25.2997 13.3525L32.3067 16.8385" stroke="var(--stroke-0, #720C10)" stroke-width="1.75" stroke-linecap="round" stroke-linejoin="round"/>
</g>
</svg>
