<svg preserveAspectRatio="none" width="100%" height="100%" overflow="visible" style="display: block;" viewBox="0 0 81 145" fill="none" xmlns="http://www.w3.org/2000/svg">
<g id="Container">
<path id="Vector" d="M61.0125 125.089C54.6032 134.967 43.3225 138.312 32.7877 133.55C32.9051 133.275 32.9443 132.921 33.1008 132.684C35.1843 130.126 37.4658 127.765 40.2169 125.955C43.7553 123.593 47.7634 123.121 51.8913 123.515C54.6032 123.79 57.3175 124.223 60.0686 124.617C60.3426 124.695 60.658 124.931 61.0125 125.089Z" fill="var(--fill-0, #720C10)"/>
<path id="Vector_2" d="M31.7887 132.64C26.5213 122.8 28.8004 110.637 38.785 103.828C38.9416 104.261 39.1395 104.655 39.2178 105.088C39.6898 107.607 40.1617 110.086 40.5922 112.605C41.497 118.116 40.6337 123.193 36.8581 127.484C35.7576 128.704 34.6963 129.963 33.5959 131.144C33.0456 131.695 32.378 132.128 31.7887 132.64Z" fill="var(--fill-0, #720C10)"/>
<path id="Vector_3" d="M75.1756 103.792C71.4806 114.26 61.2198 119.613 50.1348 117.33C50.2522 116.858 50.2913 116.307 50.5285 115.953C51.9811 113.788 53.3187 111.505 54.9694 109.498C57.7596 106.153 61.5743 104.697 65.8196 104.225C68.4924 103.91 71.1652 103.831 73.8381 103.674C74.2709 103.674 74.7037 103.753 75.1756 103.792Z" fill="var(--fill-0, #720C10)"/>
<path id="Vector_4" d="M48.9192 116.668C41.9228 107.261 42.3948 96.2401 50.0587 88.0137C50.2176 88.1711 50.4915 88.2892 50.5698 88.4861C51.7508 91.4775 52.9687 94.4294 54.03 97.4602C55.6415 102.105 55.2087 106.592 52.7316 110.882C51.9074 112.299 51.0809 113.716 50.2176 115.093C49.9022 115.644 49.4302 116.077 48.9192 116.668Z" fill="var(--fill-0, #720C10)"/>
<path id="Vector_5" d="M61.8781 97.2746C53.5051 94.4802 47.9246 78.5001 52.8374 71.5332C52.9548 71.5726 53.1528 71.5332 53.192 71.6119C55.706 74.3672 58.3811 76.965 60.6603 79.8777C63.5679 83.6167 63.8833 88.0645 63.0591 92.5908C62.7829 94.1653 62.7437 95.8579 61.8781 97.2746Z" fill="var(--fill-0, #720C10)"/>
<path id="Vector_6" d="M80.8136 76.5195C81.205 87.3828 73.8541 95.8059 63.3193 97.5769C63.2802 97.1441 63.1236 96.7111 63.1627 96.3174C63.4367 93.2474 64.0675 90.2166 65.4028 87.4222C66.9752 84.1158 69.648 81.833 72.8711 80.18C75.1525 79.0384 77.4317 77.9363 79.7523 76.8342C80.0262 76.6768 80.3416 76.6374 80.8136 76.5195Z" fill="var(--fill-0, #720C10)"/>
<path id="Vector_7" d="M52.4967 53.1019C52.7316 53.0625 52.8099 53.0625 52.8513 53.0625C56.27 55.2272 59.8867 57.156 62.7161 60.1079C64.6822 62.1547 66.0198 64.5557 66.372 67.3501C66.6874 69.6329 66.7265 71.916 66.8439 74.1989C66.8831 74.5529 66.7265 74.9466 66.6483 75.3009C57.9598 74.0807 50.2567 61.9579 52.4967 53.1019Z" fill="var(--fill-0, #720C10)"/>
<path id="Vector_8" d="M80.1783 51.7246C81.0416 56.2509 80.9242 60.5411 79.1561 64.7133C76.9944 69.7908 72.9448 72.9788 68.1102 75.5373C67.8731 74.9863 67.5991 74.5533 67.5991 74.1596C67.56 71.5618 67.4011 68.8856 67.6774 66.3271C68.0296 63.0995 69.602 60.3444 72.0009 58.1401C74.3192 56.0147 76.7964 54.0862 79.2344 52.1181C79.4301 51.9606 79.7063 51.9214 80.1783 51.7246Z" fill="var(--fill-0, #720C10)"/>
<path id="Vector_9" d="M38.8771 0C42.8069 2.28289 46.9347 3.69984 50.0404 6.84863C52.6741 9.5251 53.6571 12.8313 54.2073 16.4131C54.403 17.6726 54.875 18.9322 54.403 20.2703C44.6164 18.3417 38.0897 10.0762 38.8771 0Z" fill="var(--fill-0, #720C10)"/>
<path id="Vector_10" d="M47.3007 36.4823C47.6943 36.4823 47.9706 36.4035 48.1663 36.4823C50.526 37.4268 52.9226 38.2927 55.2824 39.3552C59.3296 41.1656 62.0438 44.196 63.2617 48.525C63.7336 50.2173 64.4013 51.8307 64.4404 53.6018C61.9242 54.0346 56.933 52.185 53.7882 49.6662C50.1715 46.8326 47.5378 41.5984 47.3007 36.4823Z" fill="var(--fill-0, #720C10)"/>
<path id="Vector_11" d="M71.8397 29.9961C76.0458 38.4978 73.6492 48.0623 65.7067 53.4547C65.5893 53.4153 65.4327 53.3759 65.3936 53.2578C63.8603 49.4399 62.9556 45.5432 63.9777 41.4497C64.4888 39.4031 65.511 37.5532 66.8071 35.9C68.1838 34.1287 69.5997 32.4364 71.0155 30.7438C71.1721 30.4683 71.446 30.3108 71.8397 29.9961Z" fill="var(--fill-0, #720C10)"/>
<path id="Vector_12" d="M41.0872 18.8574C44.5082 19.9594 48.0466 20.4711 51.15 22.2813C53.4314 23.6193 55.1995 25.3904 56.2608 27.7911C57.009 29.5226 57.6375 31.333 58.266 33.1041C58.3834 33.4582 58.3443 33.8518 58.4226 34.4815C54.2556 34.2846 50.5998 33.1041 47.4158 30.664C43.6426 27.7517 41.7962 23.6587 41.0872 18.8574Z" fill="var(--fill-0, #720C10)"/>
<path id="Vector_13" d="M63.8535 10.9766C68.4533 18.4943 66.9983 28.0983 59.6865 33.8841C59.5691 33.8447 59.3734 33.8447 59.3343 33.766C56.4635 28.0195 55.7567 22.3122 59.7671 16.7231C61.0633 14.8732 62.4008 13.0233 63.8535 10.9766Z" fill="var(--fill-0, #720C10)"/>
<path id="Vector_14" d="M30.4648 134.567C29.9537 135 29.6774 135.354 29.3252 135.63C22.6811 140.195 15.3694 142.989 7.38999 144.012C5.65875 144.249 3.89069 144.327 2.12261 144.406C1.02216 144.485 0.195686 144.052 0 142.911C0.313097 141.69 1.29612 141.73 2.20087 141.69C4.67802 141.533 7.15288 141.494 9.63004 141.218C16.3916 140.431 22.7203 138.267 28.5379 134.685C29.3644 134.134 29.3644 134.134 30.4648 134.567Z" fill="var(--fill-0, #720C10)"/>
</g>
</svg>
