<svg preserveAspectRatio="none" width="100%" height="100%" overflow="visible" style="display: block;" viewBox="0 0 35 32" fill="none" xmlns="http://www.w3.org/2000/svg">
<g id="Virtual Reality">
<path id="Vector" d="M35.0024 13.0977C35.0024 9.22266 27.3149 6.22266 17.5024 6.22266C7.68993 6.22266 0.0024272 9.22266 0.0024272 13.0977C-0.00763433 13.2463 0.0136595 13.3953 0.0649271 13.5352C0.0423131 13.5605 0.0251075 13.5902 0.0143615 13.6225C0.00361554 13.6547 -0.000445158 13.6888 0.0024272 13.7227V25.2852C0.0024272 27.7852 3.25243 29.9727 8.62743 31.2227C8.804 31.2474 8.98327 31.2026 9.12743 31.0977C9.20906 31.0433 9.27508 30.9686 9.31894 30.8809C9.36279 30.7932 9.38295 30.6956 9.37743 30.5977V22.6602C12.0479 22.0929 14.7725 21.8204 17.5024 21.8477C20.2323 21.8204 22.957 22.0929 25.6274 22.6602V30.5977C25.6219 30.6956 25.6421 30.7932 25.6859 30.8809C25.7298 30.9686 25.7958 31.0433 25.8774 31.0977L26.2524 31.2227H26.3774C31.7524 29.9727 35.0024 27.7852 35.0024 25.2852V13.0977ZM8.12743 29.7852C3.93993 28.7227 1.25243 26.9727 1.25243 25.2852V15.7227C2.56493 17.0352 4.93993 18.1602 8.12743 18.9102V29.7852ZM33.7524 25.2852C33.7524 26.9727 31.0649 28.7227 26.8774 29.7852V18.9102C30.0649 18.1602 32.4399 17.0352 33.7524 15.7227V25.2852ZM26.1274 17.8477C25.9893 17.8631 25.8618 17.9291 25.7695 18.033C25.6772 18.1368 25.6266 18.2712 25.6274 18.4102V21.3477C22.9501 20.833 20.2288 20.5818 17.5024 20.5977C14.7761 20.5818 12.0548 20.833 9.37743 21.3477V18.4102C9.37829 18.2712 9.32768 18.1368 9.23536 18.033C9.14303 17.9291 9.01553 17.8631 8.87743 17.8477C4.25243 16.7852 1.25243 14.9102 1.25243 13.0977C1.25243 11.2852 7.75243 7.47266 17.5024 7.47266C27.2524 7.47266 33.7524 10.4102 33.7524 13.0977C33.7524 15.7852 30.7524 16.7852 26.1274 17.8477Z" fill="var(--fill-0, black)"/>
<path id="Vector_2" d="M5.37733 3.65955L7.87733 4.90955C7.95303 4.96049 8.03896 4.99424 8.12909 5.00842C8.21922 5.0226 8.31137 5.01688 8.39905 4.99166C8.48674 4.96643 8.56783 4.92231 8.63665 4.8624C8.70546 4.80249 8.76032 4.72823 8.79738 4.64486C8.83444 4.56148 8.85279 4.471 8.85115 4.37977C8.84951 4.28855 8.82791 4.19879 8.78788 4.1168C8.74785 4.03481 8.69035 3.96258 8.61942 3.90518C8.54849 3.84778 8.46586 3.80661 8.37733 3.78455L7.18983 3.15955C10.5542 2.2682 14.0219 1.82686 17.5023 1.84705C20.9827 1.82686 24.4504 2.2682 27.8148 3.15955L26.6273 3.78455C26.4895 3.86312 26.3831 3.98695 26.3261 4.13504C26.2691 4.28313 26.2652 4.44636 26.3148 4.59705C26.3628 4.70692 26.4413 4.80068 26.541 4.86717C26.6407 4.93366 26.7575 4.97007 26.8773 4.97205H27.1273L29.6273 3.72205C29.7652 3.64348 29.8716 3.51965 29.9286 3.37156C29.9855 3.22348 29.9895 3.06024 29.9398 2.90955H29.8773L28.6898 0.347053C28.6078 0.225104 28.4854 0.135979 28.3441 0.0953394C28.2028 0.0546999 28.0518 0.0651467 27.9175 0.124844C27.7831 0.184541 27.6742 0.289669 27.6097 0.421753C27.5452 0.553837 27.5293 0.704424 27.5648 0.847053L28.1273 1.97205C24.6647 1.03255 21.09 0.569948 17.5023 0.597053C13.9146 0.569948 10.34 1.03255 6.87733 1.97205L7.43983 0.847053C7.50233 0.784553 7.50233 0.722053 7.50233 0.597053C7.50034 0.477206 7.46393 0.360458 7.39744 0.260725C7.33096 0.160992 7.23719 0.0824821 7.12733 0.0345531C6.97664 -0.0151148 6.8134 -0.0111324 6.66532 0.0458249C6.51723 0.102782 6.3934 0.209208 6.31483 0.347053L5.06483 2.84705C5.01516 2.99774 5.01914 3.16097 5.0761 3.30906C5.13306 3.45715 5.23948 3.58098 5.37733 3.65955Z" fill="var(--fill-0, black)"/>
<path id="Vector_3" d="M22.1899 9.34766C21.7573 9.34766 21.3344 9.47595 20.9746 9.71632C20.6149 9.95668 20.3345 10.2983 20.169 10.698C20.0034 11.0977 19.9601 11.5376 20.0445 11.9619C20.1289 12.3862 20.3372 12.776 20.6431 13.082C20.9491 13.3879 21.3388 13.5962 21.7632 13.6806C22.1875 13.765 22.6273 13.7217 23.0271 13.5561C23.4268 13.3906 23.7684 13.1102 24.0088 12.7505C24.2491 12.3907 24.3774 11.9678 24.3774 11.5352C24.3774 10.955 24.147 10.3986 23.7367 9.98836C23.3265 9.57812 22.7701 9.34766 22.1899 9.34766ZM22.1899 12.4727C22.0045 12.4727 21.8233 12.4177 21.6691 12.3147C21.5149 12.2116 21.3948 12.0652 21.3238 11.8939C21.2528 11.7226 21.2343 11.5341 21.2705 11.3523C21.3066 11.1704 21.3959 11.0034 21.527 10.8722C21.6581 10.7411 21.8252 10.6518 22.007 10.6157C22.1889 10.5795 22.3774 10.5981 22.5487 10.669C22.72 10.74 22.8664 10.8601 22.9694 11.0143C23.0725 11.1685 23.1274 11.3497 23.1274 11.5352C23.1274 11.7838 23.0287 12.0223 22.8529 12.1981C22.677 12.3739 22.4386 12.4727 22.1899 12.4727Z" fill="var(--fill-0, black)"/>
<path id="Vector_4" d="M21.065 15.1602C21.0168 15.1011 20.9572 15.0524 20.8896 15.0171C20.8221 14.9818 20.7481 14.9606 20.6721 14.9547C20.5961 14.9489 20.5197 14.9585 20.4476 14.9831C20.3755 15.0077 20.3091 15.0466 20.2525 15.0977L18.315 16.5352L15.5025 12.1602C15.4562 12.0669 15.385 11.9883 15.2967 11.9331C15.2084 11.878 15.1066 11.8484 15.0025 11.8477C14.8903 11.8499 14.7804 11.8796 14.6824 11.934C14.5843 11.9885 14.5011 12.0661 14.44 12.1602L10.69 18.4102C10.6178 18.5614 10.6034 18.7338 10.6495 18.8949C10.6955 19.0561 10.7988 19.1948 10.94 19.2852H11.2525C11.3635 19.2781 11.4716 19.2463 11.5689 19.1923C11.6662 19.1382 11.7503 19.0632 11.815 18.9727L15.0025 13.6602L17.6275 17.7852C17.69 17.9727 17.815 18.0352 18.0025 18.0977C18.179 18.1224 18.3583 18.0776 18.5025 17.9727L20.565 16.4102L23.315 19.1602C23.4353 19.2504 23.5842 19.2942 23.7343 19.2836C23.8843 19.2729 24.0255 19.2085 24.1319 19.1021C24.2383 18.9957 24.3027 18.8545 24.3134 18.7045C24.3241 18.5544 24.2802 18.4055 24.19 18.2852L21.065 15.1602Z" fill="var(--fill-0, black)"/>
</g>
</svg>
