<svg preserveAspectRatio="none" width="100%" height="100%" overflow="visible" style="display: block;" viewBox="0 0 37 33" fill="none" xmlns="http://www.w3.org/2000/svg">
<g id="Group">
<path id="Vector" d="M33 16H31.6899C31.1091 16 30.5521 16.2307 30.1414 16.6414C29.7307 17.0521 29.5 17.6091 29.5 18.1899V25.6559C29.5 25.9884 29.5887 26.3148 29.7569 26.6016C29.9252 26.8883 30.1669 27.125 30.4571 27.2872C30.7473 27.4493 31.0756 27.5311 31.408 27.5242C31.7404 27.5172 32.0649 27.4216 32.348 27.2474L34.5723 25.8786C35.0086 25.6101 35.3689 25.2343 35.6189 24.787C35.8688 24.3398 36 23.8359 36 23.3236V20.2426C36 19.8487 35.9224 19.4586 35.7716 19.0946C35.6209 18.7306 35.3999 18.3999 35.1213 18.1213L33 16ZM33 16V15.0909C33 13.2404 32.6355 11.4081 31.9274 9.69853C31.2193 7.98895 30.1813 6.43558 28.8729 5.12712C27.5644 3.81866 26.011 2.78074 24.3014 2.0726C22.5919 1.36447 20.7595 0.999999 18.9091 1H18.0909C14.3537 1 10.7697 2.48457 8.12711 5.12712C5.48455 7.76968 3.99998 11.3537 3.99998 15.0909V16M3.99998 16L1.87868 18.1213C1.60011 18.3999 1.37913 18.7306 1.22836 19.0946C1.0776 19.4586 1 19.8487 1 20.2426V23.3236C0.999996 23.836 1.13121 24.3398 1.38113 24.787C1.63106 25.2343 1.99136 25.6101 2.42771 25.8786L4.65197 27.2474C4.93511 27.4216 5.25962 27.5172 5.59201 27.5242C5.92441 27.5312 6.25265 27.4494 6.54287 27.2872C6.8331 27.125 7.0748 26.8883 7.24305 26.6016C7.4113 26.3148 7.5 25.9884 7.5 25.6559V18.1899C7.5 17.9024 7.44336 17.6176 7.3333 17.3519C7.22325 17.0862 7.06194 16.8448 6.85859 16.6414C6.65523 16.4381 6.41382 16.2768 6.14812 16.1667C5.88242 16.0566 5.59765 16 5.31007 16H3.99998Z" stroke="var(--stroke-0, black)" stroke-width="1.66667" stroke-linecap="round" stroke-linejoin="round"/>
<path id="Vector_2" d="M18.5 32.0012H20.5C24.4193 32.0012 28.0523 29.8276 30.4468 27.5156" stroke="var(--stroke-0, black)" stroke-width="1.66667" stroke-linecap="round" stroke-linejoin="round"/>
</g>
</svg>
