<svg preserveAspectRatio="none" width="100%" height="100%" overflow="visible" style="display: block;" viewBox="0 0 1227 1400" fill="none" xmlns="http://www.w3.org/2000/svg">
<g id="Layer_1" opacity="0.3" clip-path="url(#clip0_0_14)">
<path id="Vector" d="M795.953 461.782L797.439 469.568V1146.7C793.457 1165.66 790.901 1183.5 781.45 1200.56C776.814 1208.94 770.751 1220.59 761.062 1210.07C759.992 1209.83 760.111 1211.49 760.349 1212.15C768.492 1232.12 822.285 1264.63 842.673 1272.36C851.173 1275.57 872.393 1279.43 877.98 1284.13C880.476 1286.21 879.109 1298.15 878.336 1301.72C876.375 1310.64 866.508 1308.38 859.672 1306.71C835.599 1300.77 806.355 1287.1 785.551 1272.54C773.366 1264.04 762.727 1253.75 751.255 1244.36C730.332 1275.75 709.409 1307.43 684.148 1335.54C675.648 1344.99 665.9 1353.67 656.984 1362.59C651.04 1368.53 622.331 1399.14 617.04 1399.74C606.104 1396.35 596.474 1389.22 587.856 1381.9C560.573 1358.78 530.14 1320.33 508.861 1291.26C504.165 1284.9 479.498 1245.08 475.812 1244.42C463.806 1253.99 452.869 1265.28 440.149 1274.02C420.89 1287.22 390.695 1301.07 368.465 1306.36C364.363 1307.31 354.972 1309.69 352 1307.07C349.028 1304.46 344.867 1286.15 348.433 1283.53C367.751 1277.23 387.901 1272.24 405.911 1262.67C426.418 1251.79 447.46 1234.2 462.438 1216.6C459.526 1213.75 456.435 1214.88 453.106 1211.73C440.921 1200.02 430.995 1160.79 429.628 1143.97V469.687L431.114 461.901H456.078L458.218 464.041V1152.47C458.218 1157.7 467.253 1183.44 470.403 1188.73C474.386 1195.38 476.169 1197.17 481.578 1190.15C503.273 1162.28 517.717 1098.74 520.867 1064.08L521.7 200.902C526.811 199.475 543.454 197.573 545.832 202.507L546.605 1071.33C542.801 1117.52 529.07 1164.3 505.829 1204.42C503.571 1208.34 493.406 1218.27 494.476 1223.2L562.237 1316.46C575.195 1327.99 584.884 1343.57 597.842 1354.98C602.597 1359.14 611.275 1368.47 617.159 1364.31C658.41 1326.15 692.588 1284.96 723.021 1237.88C724.21 1236.04 724.329 1233.54 725.518 1231.82C727.301 1229.2 732.531 1225.7 733.066 1223.56C733.661 1221.12 713.63 1190.87 710.777 1185.04C696.689 1156.39 689.616 1125.78 682.008 1095.53C678.441 799.695 681.592 503.508 680.403 207.559C677.193 196.147 704.535 198.643 706.854 202.626L707.507 1064.32C708.993 1099.86 716.958 1131.84 730.035 1164.36L747.391 1195.44C752.087 1198.47 760.765 1183.56 762.013 1179.99C763.499 1175.95 768.789 1154.67 768.789 1151.16V464.159L770.929 462.02H795.894L795.953 461.782Z" fill="var(--fill-0, white)"/>
<path id="Vector_2" d="M627.739 1086.79C628.512 1092.26 632.256 1104.27 633.802 1110.63C642.539 1145.76 661.857 1196.69 692.528 1218.63C695.857 1221.01 705.961 1222.97 704.416 1228.97C704.059 1230.4 694.192 1247.28 693.241 1247.87C689.794 1250.07 678.381 1241.75 674.756 1239.19C646.165 1218.57 627.204 1180.35 616.981 1147.3L611.393 1145.81C600.278 1177.14 585.062 1210.31 559.919 1232.83C555.52 1236.76 539.174 1249.06 534.3 1248.65C530.674 1248.35 532.16 1244.01 530.437 1241.04C526.514 1234.14 517.598 1228.61 526.573 1222.25C535.548 1215.89 540.363 1214.94 548.625 1205.85C574.541 1177.08 588.093 1133.93 595.345 1097.19C595.88 1094.46 599.208 1087.68 599.208 1086.79V2.13982L601.348 0H625.599L627.739 2.13982V1086.79Z" fill="var(--fill-0, white)"/>
<path id="Vector_3" d="M1136.18 1306.66C1134.22 1308.56 1129.94 1308.33 1127.33 1308.5C1066.58 1312.72 999.117 1306.54 938.013 1306.72C898.129 1296.26 871.857 1263.69 859.969 1225.11C859.078 1096.3 861.336 967.5 860.088 838.694C859.85 812.779 855.987 784.902 858.483 758.867C858.721 756.192 858.483 753.28 861.396 751.794C864.903 750.07 882.972 749.951 884.934 753.934L885.588 1207.99C889.095 1245.44 914.594 1274.56 951.149 1282.11L1135.89 1284.07C1140.11 1287.76 1136.54 1292.16 1136.48 1296.32C1136.42 1299.47 1139.28 1303.57 1136.13 1306.66H1136.18Z" fill="var(--fill-0, white)"/>
<path id="Vector_4" d="M345.106 751.381C348.791 750.133 365.851 750.192 367.693 753.996L368.466 1209.48C363.77 1260.72 325.253 1306.9 272.293 1308.57L91.9535 1307.79C87.0795 1305.42 89.2193 1289.31 89.7543 1284.2L92.6668 1282.89L275.859 1282.23C361.69 1259.83 339.994 1180.3 342.848 1111.23V980.104C342.848 911.749 344.155 843.037 342.848 774.741C342.729 769.332 338.271 753.818 345.166 751.5L345.106 751.381Z" fill="var(--fill-0, white)"/>
<path id="Vector_5" d="M1224.51 1371.5C1227.07 1373.7 1228.73 1397.77 1221.3 1398.25H937.658C888.026 1393.61 843.268 1381.66 800.888 1354.08C780.262 1340.65 748.343 1313.25 736.039 1292.09C733.721 1288.16 734.018 1286.38 737.585 1283.53C739.13 1282.28 751.137 1274.25 752.207 1273.84C759.042 1271.46 766.71 1287.87 770.99 1292.74C799.937 1325.79 842.079 1348.61 882.974 1360.32C887.55 1361.63 891.771 1364.6 896.585 1365.26C998.643 1379.11 1110.98 1362.94 1214.35 1369.6C1217.86 1369.83 1221.36 1370.01 1224.63 1371.44L1224.51 1371.5Z" fill="var(--fill-0, white)"/>
<path id="Vector_6" d="M492.159 1284.42C493.169 1286.02 492.396 1289.47 491.624 1291.26C490.554 1293.81 480.033 1306.89 477.477 1309.86C439.376 1353.96 386.654 1379.46 331.791 1393.61C225.335 1403.12 117.155 1395.93 9.92606 1398.31C-3.21007 1399.32 -3.32895 1369.06 9.92606 1369.72H300.763C359.133 1362.17 417.978 1336.67 457.505 1291.37C461.191 1287.09 468.68 1271.88 473.911 1273.36L492.159 1284.42Z" fill="var(--fill-0, white)"/>
</g>
<defs>
<clipPath id="clip0_0_14">
<rect width="1226.71" height="1399.74" fill="white"/>
</clipPath>
</defs>
</svg>
