<svg preserveAspectRatio="none" width="100%" height="100%" overflow="visible" style="display: block;" viewBox="0 0 40 40" fill="none" xmlns="http://www.w3.org/2000/svg">
<g id="Layer_1">
<path id="Vector" d="M33.5267 20.454V12.0304C33.5267 11.9239 33.4843 11.8217 33.409 11.7465L29.9434 8.28284C29.8681 8.20762 29.7661 8.16533 29.6596 8.16533H26.7717V6.06513C26.7717 5.8434 26.592 5.66369 26.3702 5.66369H23.9671V3.5655C23.9671 3.34377 23.7874 3.16406 23.5656 3.16406H6.75692C6.53519 3.16406 6.35542 3.34377 6.35542 3.5655V18.0864C5.57338 18.312 4.99951 19.0338 4.99951 19.8875V34.9597C4.99951 35.9934 5.8406 36.8344 6.8743 36.8344H33.1251C34.1589 36.8344 34.9999 35.9934 34.9999 34.9597V22.2868C34.9999 21.3899 34.368 20.6385 33.5265 20.4539L33.5267 20.454ZM30.0611 9.53573L32.1556 11.629H30.0611V9.53573ZM29.6596 12.4319H32.7237V20.4102H21.5489C21.249 20.4102 21.0015 20.3077 20.791 20.0958L19.2563 18.563C18.8935 18.1979 18.4472 18.0127 17.9299 18.0127H16.718V8.96827H29.2581V12.0304C29.2581 12.2521 29.4378 12.4319 29.6596 12.4319ZM25.9688 8.16539H16.3165C16.0948 8.16539 15.915 8.3451 15.915 8.56683V18.0128H9.96303V6.46664H25.9688V8.16539ZM23.1642 3.96701V5.66376H9.56152C9.33979 5.66376 9.16002 5.84347 9.16002 6.0652V18.0127H7.15836V3.96694H23.1641L23.1642 3.96701ZM34.197 34.9597C34.197 35.5508 33.7162 36.0316 33.1252 36.0316H6.87437C6.28333 36.0316 5.80253 35.5508 5.80253 34.9597V19.8875C5.80253 19.2965 6.28333 18.8157 6.87437 18.8157H17.9299C18.2297 18.8157 18.4772 18.9182 18.6878 19.1301L20.2225 20.6629C20.5853 21.028 21.0315 21.2132 21.5489 21.2132H33.1252C33.7162 21.2132 34.197 21.6948 34.197 22.2869V34.9598V34.9597ZM18.856 13.981H30.6179C30.8396 13.981 31.0194 14.1607 31.0194 14.3824C31.0194 14.6041 30.8397 14.7838 30.6179 14.7838H18.856C18.6342 14.7838 18.4545 14.6041 18.4545 14.3824C18.4545 14.1607 18.6342 13.981 18.856 13.981ZM31.0194 16.3576C31.0194 16.5793 30.8396 16.759 30.6178 16.759H18.8559C18.6342 16.759 18.4544 16.5793 18.4544 16.3576C18.4544 16.1359 18.6341 15.9562 18.8559 15.9562H30.6178C30.8396 15.9562 31.0194 16.1359 31.0194 16.3576ZM31.0194 18.3309C31.0194 18.5526 30.8396 18.7323 30.6178 18.7323H21.5128C21.2911 18.7323 21.1113 18.5526 21.1113 18.3309C21.1113 18.1091 21.291 17.9294 21.5128 17.9294H30.6178C30.8396 17.9294 31.0194 18.1091 31.0194 18.3309ZM19.9998 23.4231C17.1324 23.4231 14.7996 25.7559 14.7996 28.6233C14.7996 31.4907 17.1324 33.8234 19.9998 33.8234C22.8672 33.8234 25.2 31.4907 25.2 28.6233C25.2 25.7559 22.8672 23.4231 19.9998 23.4231ZM19.9998 33.0205C17.5751 33.0205 15.6026 31.0479 15.6026 28.6233C15.6026 26.1986 17.5751 24.2261 19.9998 24.2261C22.4244 24.2261 24.397 26.1987 24.397 28.6233C24.397 31.0479 22.4244 33.0205 19.9998 33.0205ZM22.2493 26.9343C22.4061 27.0911 22.4061 27.3453 22.2493 27.5021L19.4391 30.3123C19.3633 30.3881 19.261 30.4299 19.1552 30.4299C19.1378 30.4299 19.1203 30.4288 19.1028 30.4265C18.9791 30.4102 18.87 30.3373 18.8075 30.2292L17.6865 28.2882C17.5756 28.0962 17.6413 27.8506 17.8333 27.7397C18.0256 27.6288 18.2709 27.6947 18.3818 27.8866L19.2412 29.3746L21.6816 26.9343C21.8383 26.7775 22.0926 26.7775 22.2493 26.9343Z" fill="var(--fill-0, black)"/>
</g>
</svg>
