<svg width="39" height="39" viewBox="0 0 39 39" fill="none" xmlns="http://www.w3.org/2000/svg">
<path d="M12.066 23.6183C14.5412 26.5659 17.5207 28.8867 20.9215 30.5288C22.2162 31.1401 23.9478 31.8653 25.877 31.9896C25.9966 31.9948 26.111 32 26.2306 32C27.5254 32 28.5653 31.5545 29.4129 30.6376C29.4181 30.6324 29.4285 30.622 29.4337 30.6117C29.7353 30.2491 30.0785 29.9227 30.4373 29.5756C30.6817 29.3425 30.9313 29.099 31.1705 28.8504C32.2781 27.7004 32.2781 26.2395 31.1601 25.1258L28.0349 22.0124C27.5046 21.4633 26.8702 21.1732 26.2046 21.1732C25.539 21.1732 24.8994 21.4633 24.3534 22.0073L22.4918 23.8618C22.3202 23.7634 22.1434 23.6753 21.977 23.5924C21.769 23.4888 21.5767 23.3904 21.4051 23.2816C19.7099 22.2093 18.1707 20.8106 16.6991 19.0131C15.9555 18.0754 15.4564 17.288 15.108 16.4851C15.5968 16.0448 16.0543 15.5837 16.4963 15.133C16.6523 14.9724 16.8135 14.8119 16.9747 14.6513C17.5363 14.0918 17.8379 13.4443 17.8379 12.7864C17.8379 12.1285 17.5415 11.4809 16.9747 10.9215L15.4252 9.37775C15.2432 9.19644 15.0716 9.02031 14.8948 8.839C14.5516 8.48674 14.1928 8.12412 13.8392 7.79776C13.3036 7.27455 12.6744 7 12.0088 7C11.3484 7 10.714 7.27455 10.1576 7.80294L8.21288 9.74037C7.50569 10.4449 7.1053 11.2996 7.0221 12.2891C6.9233 13.5271 7.1521 14.8429 7.74489 16.4333C8.65487 18.8939 10.0277 21.1784 12.066 23.6183ZM8.29088 12.3978C8.35328 11.7089 8.61847 11.1339 9.11767 10.6366L11.052 8.70949C11.3536 8.41939 11.6864 8.26917 12.0088 8.26917C12.326 8.26917 12.6484 8.41939 12.9448 8.71985C13.2932 9.04103 13.6208 9.37775 13.9744 9.73518C14.1512 9.91649 14.3332 10.0978 14.5152 10.2843L16.0647 11.828C16.3871 12.1492 16.5535 12.4755 16.5535 12.7967C16.5535 13.1179 16.3871 13.4443 16.0647 13.7654C15.9036 13.926 15.7424 14.0918 15.5812 14.2524C15.0976 14.7393 14.6452 15.2004 14.146 15.6407C14.1356 15.6511 14.1304 15.6562 14.12 15.6666C13.6884 16.0966 13.756 16.5058 13.86 16.8166C13.8652 16.8322 13.8704 16.8425 13.8756 16.8581C14.276 17.8164 14.8324 18.7281 15.7008 19.816C17.2607 21.7327 18.9039 23.2194 20.7135 24.3643C20.9371 24.5093 21.1763 24.6233 21.3999 24.7373C21.6079 24.8409 21.8002 24.9393 21.9718 25.0481C21.9926 25.0584 22.0082 25.0688 22.029 25.0792C22.2006 25.1672 22.367 25.2087 22.5334 25.2087C22.9494 25.2087 23.2198 24.9445 23.3082 24.8564L25.253 22.919C25.5546 22.6185 25.8822 22.4579 26.2046 22.4579C26.5998 22.4579 26.9222 22.7014 27.125 22.919L30.2605 26.0375C30.8845 26.6591 30.8793 27.3326 30.2449 27.9905C30.0265 28.2236 29.7977 28.4463 29.5533 28.6794C29.1893 29.0317 28.8097 29.3943 28.4665 29.8036C27.8685 30.4459 27.1562 30.7464 26.2358 30.7464C26.1474 30.7464 26.0538 30.7412 25.9654 30.736C24.2598 30.6272 22.6738 29.9642 21.4831 29.3995C18.2487 27.8402 15.4096 25.6283 13.054 22.8206C11.1144 20.4946 9.80925 18.3293 8.94607 16.0085C8.41048 14.5839 8.20768 13.4391 8.29088 12.3978Z" fill="#0C0D0D"/>
</svg>
