<svg preserveAspectRatio="none" width="100%" height="100%" overflow="visible" style="display: block;" viewBox="0 0 40 40" fill="none" xmlns="http://www.w3.org/2000/svg">
<g id="Image">
<path id="Vector" d="M14.4771 10.0614C15.3915 10.0223 16.2534 9.62287 16.8742 8.95029C17.4951 8.27771 17.8244 7.38673 17.7903 6.47205C17.8244 5.55737 17.4951 4.66638 16.8742 3.9938C16.2534 3.32123 15.3915 2.92176 14.4771 2.8827C13.5626 2.92176 12.7008 3.32123 12.0799 3.9938C11.4591 4.66638 11.1297 5.55737 11.1638 6.47205C11.1297 7.38673 11.4591 8.27771 12.0799 8.95029C12.7008 9.62287 13.5626 10.0223 14.4771 10.0614ZM14.4771 3.98711C15.0985 4.02652 15.6791 4.30972 16.0928 4.77508C16.5065 5.24044 16.7196 5.85033 16.6859 6.47205C16.7196 7.09377 16.5065 7.70365 16.0928 8.16901C15.6791 8.63438 15.0985 8.91757 14.4771 8.95698C13.8557 8.91757 13.275 8.63438 12.8613 8.16901C12.4477 7.70365 12.2345 7.09377 12.2682 6.47205C12.2345 5.85033 12.4477 5.24044 12.8613 4.77508C13.275 4.30972 13.8557 4.02652 14.4771 3.98711Z" fill="var(--fill-0, black)"/>
<path id="Vector_2" d="M29.3865 20.555C30.1474 20.5237 30.8649 20.1924 31.3823 19.6337C31.8996 19.0749 32.1748 18.3341 32.1476 17.5731C32.1771 17.1925 32.1276 16.81 32.0022 16.4494C31.8768 16.0889 31.6783 15.7582 31.419 15.478C31.1597 15.1979 30.8454 14.9744 30.4956 14.8215C30.1458 14.6686 29.7683 14.5897 29.3865 14.5897C29.0048 14.5897 28.6273 14.6686 28.2775 14.8215C27.9277 14.9744 27.6133 15.1979 27.3541 15.478C27.0948 15.7582 26.8963 16.0889 26.7709 16.4494C26.6455 16.81 26.596 17.1925 26.6255 17.5731C26.5983 18.3341 26.8735 19.0749 27.3908 19.6337C27.9082 20.1924 28.6257 20.5237 29.3865 20.555ZM29.3865 15.6956C29.8543 15.7272 30.2907 15.9422 30.6009 16.2937C30.911 16.6453 31.07 17.105 31.0432 17.5731C31.073 17.8082 31.0524 18.047 30.9828 18.2736C30.9131 18.5001 30.7961 18.7093 30.6394 18.8871C30.4827 19.0649 30.2899 19.2073 30.0739 19.3049C29.8579 19.4025 29.6236 19.4529 29.3865 19.4529C29.1495 19.4529 28.9152 19.4025 28.6992 19.3049C28.4832 19.2073 28.2904 19.0649 28.1337 18.8871C27.977 18.7093 27.86 18.5001 27.7903 18.2736C27.7207 18.047 27.7001 17.8082 27.7299 17.5731C27.7031 17.105 27.8621 16.6453 28.1722 16.2937C28.4824 15.9422 28.9188 15.7272 29.3865 15.6956Z" fill="var(--fill-0, black)"/>
<path id="Vector_3" d="M35.8232 28.0714L33.1334 22.9011C32.8609 22.3824 32.4568 21.9443 31.9616 21.6309C31.4665 21.3175 30.8977 21.1397 30.3122 21.1153C29.5987 21.0877 28.1089 21.1114 27.7301 21.1153C26.6074 21.1153 25.736 21.8944 25.0358 22.5206C24.0849 23.3705 23.9657 23.5146 22.6404 23.1054C22.1986 20.8198 20.5972 14.2972 19.2852 12.9829C18.6954 12.3921 17.4667 11.1639 13.3727 11.1639C9.27861 11.1639 8.04995 12.3921 7.46019 12.9824C5.91787 14.5241 3.98515 23.2391 3.98515 23.8647C3.98515 25.3303 4.54288 26.0736 5.64177 26.0736C7.2266 26.0736 7.89367 23.9807 8.83242 20.7779L8.40281 35.185C8.40164 35.6648 8.57896 36.1278 8.90029 36.4841C9.22162 36.8404 9.66397 37.0644 10.1413 37.1126C10.6187 37.1608 11.0969 37.0298 11.483 36.7449C11.869 36.4601 12.1354 36.0418 12.2302 35.5715L12.2092 35.5671C12.3064 35.2264 12.3378 35.0408 13.3727 29.9512C14.1491 33.7697 14.4219 35.1695 14.5362 35.5671L14.5152 35.5715C14.6101 36.0434 14.8777 36.4628 15.2656 36.7478C15.6535 37.0328 16.1337 37.1628 16.6124 37.1124C17.091 37.0619 17.5337 36.8347 17.8537 36.4752C18.1737 36.1157 18.348 35.6497 18.3425 35.1684L17.9129 20.7784C18.8517 23.9812 19.5187 26.0736 21.1036 26.0736C21.2716 26.0727 21.4388 26.0493 21.6006 26.004C23.16 27.0725 23.5946 27.178 23.8646 27.178C24.5978 27.0426 25.3063 26.7974 25.9663 26.4507C25.0795 34.3931 24.969 35.302 24.969 35.4611C24.9711 35.865 25.1206 36.2542 25.3895 36.5556C25.6584 36.857 26.0281 37.0498 26.4292 37.0977C26.8303 37.1456 27.235 37.0453 27.5673 36.8157C27.8996 36.5861 28.1366 36.243 28.2337 35.8509L28.8345 33.3804L29.4347 35.8487C29.5318 36.26 29.7824 36.6187 30.1353 36.8513C30.4881 37.0839 30.9165 37.1728 31.3328 37.1C31.749 37.0271 32.1217 36.7979 32.3745 36.4592C32.6274 36.1206 32.7412 35.6981 32.6928 35.2783L31.8716 27.9389L32.9468 29.706C33.1751 30.0638 33.532 30.3204 33.944 30.4227C34.3559 30.5251 34.7914 30.4654 35.1606 30.256C35.5299 30.0466 35.8046 29.7034 35.9282 29.2973C36.0518 28.8913 36.0148 28.4532 35.8249 28.0736L35.8232 28.0714ZM18.8705 20.1196C18.5535 19.0351 18.1934 17.8059 17.7611 16.5093C17.7187 16.3839 17.6327 16.2779 17.5188 16.2105C17.4048 16.1432 17.2705 16.119 17.1402 16.1425C17.0099 16.1659 16.8924 16.2353 16.809 16.3381C16.7256 16.4409 16.6819 16.5703 16.6859 16.7026L17.2381 35.185C17.239 35.3909 17.1632 35.5897 17.0255 35.7428C16.8877 35.8958 16.6979 35.992 16.493 36.0127C16.2882 36.0334 16.083 35.977 15.9174 35.8546C15.7518 35.7322 15.6378 35.5526 15.5975 35.3506L13.9133 27.0675C13.8874 26.9433 13.8195 26.8317 13.7211 26.7517C13.6226 26.6716 13.4996 26.6279 13.3727 26.6279C13.2458 26.6279 13.1227 26.6716 13.0243 26.7517C12.9258 26.8317 12.8579 26.9433 12.8321 27.0675C12.8321 27.0675 11.1638 35.2822 11.1473 35.3506C11.1068 35.5507 10.9939 35.7288 10.8303 35.8507C10.6666 35.9726 10.4637 36.0299 10.2604 36.0114C10.0571 35.9929 9.86785 35.9 9.72885 35.7506C9.58986 35.6011 9.51093 35.4056 9.50722 35.2015L10.0594 16.7026C10.0633 16.5702 10.0194 16.4408 9.93579 16.3381C9.85219 16.2353 9.73444 16.1661 9.60402 16.1429C9.47361 16.1197 9.33921 16.1442 9.22534 16.2119C9.11147 16.2796 9.02572 16.3859 8.98373 16.5115C8.55135 17.8081 8.19131 19.0373 7.87434 20.1219C7.11285 22.7233 6.45572 24.9691 5.64177 24.9691C5.26019 24.9691 5.08956 24.8095 5.08956 23.8752C5.13926 23.0044 7.04051 14.9637 8.24101 13.7632C8.7264 13.2778 9.73584 12.2684 13.3727 12.2684C17.0095 12.2684 18.0189 13.2778 18.5043 13.7632C19.6413 14.9002 21.5271 22.6322 21.6182 23.5798C21.7165 24.1751 21.7044 24.9691 21.1036 24.9691C20.2896 24.9691 19.6325 22.7233 18.871 20.1219L18.8705 20.1196ZM33.8833 29.1206L31.5248 25.2508C31.4627 25.1393 31.3638 25.0528 31.2451 25.006C31.1264 24.9592 30.9951 24.9549 30.8736 24.994C30.7521 25.033 30.6478 25.1129 30.5786 25.2202C30.5094 25.3274 30.4794 25.4553 30.4939 25.5821C31.6557 35.9719 31.5955 35.3771 31.5955 35.4611C31.5937 35.595 31.5433 35.7237 31.4536 35.8231C31.364 35.9226 31.2412 35.9862 31.1083 36.0019C30.9753 36.0176 30.8411 35.9845 30.7307 35.9087C30.6203 35.8329 30.5413 35.7195 30.5082 35.5897L29.3712 30.9131C29.3421 30.7927 29.2734 30.6856 29.176 30.6089C29.0787 30.5323 28.9584 30.4906 28.8345 30.4906C28.7106 30.4906 28.5903 30.5323 28.493 30.6089C28.3956 30.6856 28.3268 30.7927 28.2977 30.9131L27.1602 35.592C27.1267 35.7214 27.0473 35.8343 26.9369 35.9097C26.8264 35.9851 26.6923 36.0178 26.5596 36.0018C26.4268 35.9858 26.3044 35.9222 26.2149 35.8228C26.1255 35.7233 26.0753 35.5948 26.0734 35.4611C26.0734 35.3876 26.0663 35.5014 27.1745 25.5826C27.1856 25.4839 27.1699 25.384 27.1289 25.2935C27.088 25.2029 27.0234 25.1251 26.9419 25.0682C26.8604 25.0114 26.7651 24.9775 26.666 24.9703C26.5669 24.963 26.4677 24.9827 26.3788 25.0271C25.584 25.4513 24.7522 25.8025 23.8939 26.0763C23.3879 25.8802 22.914 25.6096 22.488 25.2734C22.6345 24.9594 22.72 24.6204 22.7398 24.2745C24.2307 24.6262 24.6443 24.354 25.7719 23.3445C26.3899 22.7923 27.0288 22.2202 27.7301 22.2202C27.8162 22.2202 29.5043 22.1932 30.2702 22.2202C30.6615 22.2369 31.0415 22.3559 31.3722 22.5656C31.703 22.7752 31.9729 23.068 32.1549 23.4147L34.8535 28.5955C34.9156 28.7233 34.9259 28.8702 34.8825 29.0055C34.839 29.1408 34.745 29.2541 34.6201 29.3219C34.4952 29.3897 34.349 29.4067 34.2119 29.3694C34.0747 29.3321 33.9573 29.2434 33.8839 29.1217L33.8833 29.1206Z" fill="var(--fill-0, black)"/>
</g>
</svg>
