<svg preserveAspectRatio="none" width="100%" height="100%" overflow="visible" style="display: block;" viewBox="0 0 39 39" fill="none" xmlns="http://www.w3.org/2000/svg">
<g id="email (1) 1">
<path id="Vector" d="M29.4037 27.8984H9.32635C8.67376 27.8977 8.0481 27.6279 7.58667 27.1484C7.12523 26.6689 6.8657 26.0187 6.86502 25.3406V12.4563C6.8657 11.7781 7.12523 11.128 7.58667 10.6485C8.0481 10.169 8.67376 9.89923 9.32635 9.89845H29.4037C30.0563 9.89923 30.6819 10.169 31.1434 10.6485C31.6048 11.128 31.8643 11.7781 31.865 12.4563V25.3406C31.8643 26.0187 31.6048 26.6689 31.1434 27.1484C30.6819 27.6279 30.0563 27.8977 29.4037 27.8984ZM9.32635 10.876C8.92317 10.8765 8.53663 11.0431 8.25156 11.3394C7.96649 11.6356 7.80618 12.0373 7.80581 12.4563V25.3406C7.80618 25.7596 7.96649 26.1613 8.25156 26.4575C8.53663 26.7538 8.92317 26.9204 9.32635 26.9209H29.4037C29.8069 26.9204 30.1934 26.7538 30.4785 26.4575C30.7635 26.1613 30.9239 25.7596 30.9242 25.3406V12.4563C30.9239 12.0373 30.7635 11.6356 30.4785 11.3394C30.1934 11.0431 29.8069 10.8765 29.4037 10.876H9.32635Z" fill="var(--fill-0, #0C0D0D)"/>
<path id="Vector_2" d="M19.3648 21.8984C19.2516 21.8985 19.1422 21.856 19.0573 21.779L7.86502 11.6151L8.47967 10.8984L19.3648 20.7843L30.2504 10.8996L30.865 11.6163L19.6727 21.7802C19.5876 21.857 19.478 21.8991 19.3648 21.8984Z" fill="var(--fill-0, #0C0D0D)"/>
<path id="Vector_3" d="M7.19778 26.0586L14.8958 17.2876L15.6109 17.9152L7.91289 26.6862L7.19778 26.0586Z" fill="var(--fill-0, #0C0D0D)"/>
<path id="Vector_4" d="M22.873 17.9062L23.5882 17.2786L31.2863 26.0498L30.5712 26.6774L22.873 17.9062Z" fill="var(--fill-0, #0C0D0D)"/>
</g>
</svg>
