<svg width="39" height="39" viewBox="0 0 39 39" fill="none" xmlns="http://www.w3.org/2000/svg">
<path d="M20.2927 32.5582C20.0727 32.5582 19.8615 32.4526 19.7295 32.2766C19.3775 31.7926 11.0615 20.291 11.0615 15.407C11.0615 10.3206 15.2063 6.17578 20.2927 6.17578C25.3791 6.17578 29.5239 10.3206 29.5239 15.407C29.5239 20.291 21.2079 31.7838 20.8559 32.2766C20.7151 32.4526 20.5127 32.5582 20.2927 32.5582ZM20.2927 7.56618C15.9719 7.56618 12.4519 11.0862 12.4519 15.407C12.4519 18.8214 17.6703 26.9438 20.2927 30.675C22.9151 26.9526 28.1335 18.8214 28.1335 15.407C28.1335 11.0774 24.6135 7.56618 20.2927 7.56618Z" fill="#0C0D0D"/>
<path d="M20.293 19.3594C18.1106 19.3594 16.3418 17.5906 16.3418 15.4082C16.3418 13.2258 18.1106 11.457 20.293 11.457C22.4754 11.457 24.2442 13.2258 24.2442 15.4082C24.2442 17.5906 22.4666 19.3594 20.293 19.3594ZM20.293 12.8474C18.8762 12.8474 17.7322 14.0002 17.7322 15.4082C17.7322 16.825 18.885 17.969 20.293 17.969C21.7098 17.969 22.8538 16.8162 22.8538 15.4082C22.8538 13.9914 21.701 12.8474 20.293 12.8474Z" fill="#0C0D0D"/>
</svg>
