<svg preserveAspectRatio="none" width="100%" height="100%" overflow="visible" style="display: block;" viewBox="0 0 47 47" fill="none" xmlns="http://www.w3.org/2000/svg">
<g id="Group 73">
<rect id="Social Media Icon" opacity="0.1" width="46.3279" height="46.3279" fill="var(--fill-0, white)"/>
<path id="YouTube" d="M23.7285 32.1446L18.5009 32.0469C16.8083 32.0129 15.1116 32.0808 13.4522 31.7281C10.9279 31.2011 10.749 28.6172 10.5619 26.4497C10.3041 23.4026 10.4039 20.3002 10.8905 17.2785C11.1652 15.583 12.2462 14.5713 13.9179 14.4612C19.5614 14.0616 25.2424 14.109 30.8733 14.2954C31.468 14.3125 32.0668 14.4059 32.6532 14.5122C35.5478 15.0307 35.6184 17.9588 35.806 20.4238C35.9931 22.9142 35.9141 25.4174 35.5565 27.8909C35.2695 29.9388 34.7205 31.6562 32.4036 31.822C29.5007 32.0388 26.6645 32.2134 23.7534 32.1578C23.7535 32.1446 23.7368 32.1446 23.7285 32.1446ZM20.6552 26.9598C22.8428 25.6762 24.9886 24.4141 27.1637 23.1391C24.972 21.8556 22.8303 20.5934 20.6552 19.3185V26.9598Z" fill="var(--fill-0, #720C10)"/>
</g>
</svg>
