<svg preserveAspectRatio="none" width="100%" height="100%" overflow="visible" style="display: block;" viewBox="0 0 47 47" fill="none" xmlns="http://www.w3.org/2000/svg">
<g id="Social Media Icon Square/Instagram">
<rect id="Social Media Icon" opacity="0.1" width="46.3279" height="46.3279" fill="var(--fill-0, white)"/>
<path id="Instagram" d="M23.1641 11.5781C27.7904 11.5781 30.1034 11.5783 31.7695 12.6807C32.5135 13.1729 33.1513 13.8097 33.6436 14.5537C34.746 16.2199 34.7461 18.5336 34.7461 23.1602C34.7461 27.7863 34.7459 30.0995 33.6436 31.7656C33.1513 32.5097 32.5136 33.1473 31.7695 33.6396C30.1034 34.7418 27.7902 34.7422 23.1641 34.7422C18.5375 34.7422 16.2238 34.7421 14.5576 33.6396C13.8137 33.1474 13.1768 32.5096 12.6846 31.7656C11.5822 30.0995 11.582 27.7864 11.582 23.1602C11.582 18.5336 11.5821 16.2199 12.6846 14.5537C13.1768 13.8099 13.8138 13.1729 14.5576 12.6807C16.2238 11.5782 18.5375 11.5781 23.1641 11.5781ZM23.1641 17.1641C19.8525 17.1641 17.168 19.8486 17.168 23.1602C17.168 26.4717 19.8525 29.1562 23.1641 29.1562C26.4755 29.1561 29.1602 26.4717 29.1602 23.1602C29.1601 19.8487 26.4755 17.1642 23.1641 17.1641ZM23.1641 19.1924C25.3551 19.1925 27.1308 20.9691 27.1309 23.1602C27.1309 25.3513 25.3551 27.1278 23.1641 27.1279C20.9729 27.1279 19.1963 25.3513 19.1963 23.1602C19.1963 20.969 20.9729 19.1924 23.1641 19.1924ZM29.3965 15.4531C28.6185 15.4533 27.9883 16.0843 27.9883 16.8623C27.9884 17.6402 28.6186 18.2704 29.3965 18.2705C30.1745 18.2705 30.8055 17.6403 30.8057 16.8623C30.8057 16.0842 30.1746 15.4531 29.3965 15.4531Z" fill="var(--fill-0, #720C10)"/>
</g>
</svg>
