<svg preserveAspectRatio="none" width="100%" height="100%" overflow="visible" style="display: block;" viewBox="0 0 541 612" fill="none" xmlns="http://www.w3.org/2000/svg">
<g id="Layer_1" clip-path="url(#clip0_0_54)">
<path id="Vector" d="M164.45 525.91V323.18H152.45V525.91C152.45 545.78 133.82 558.39 125.95 558.39H39.6602V570.39H125.95C139.52 570.39 164.45 553.5 164.45 525.91Z" fill="var(--fill-0, #E0BD75)"/>
<path id="Vector_2" d="M414.13 570.39H500.42V558.39H414.13C406.26 558.39 387.63 545.79 387.63 525.91V323.18H375.63V525.91C375.63 553.5 400.56 570.39 414.13 570.39Z" fill="var(--fill-0, #E0BD75)"/>
<path id="Vector_3" d="M413.35 599.64C370.7 599.64 344.39 583.88 322.82 565.35C321.08 567.58 319.28 569.85 317.41 572.17C316.72 573.03 316.02 573.88 315.33 574.73C338.04 594.12 367.16 611.65 413.34 611.65H540.07V599.65H413.34L413.35 599.64Z" fill="var(--fill-0, #E0BD75)"/>
<path id="Vector_4" d="M327.92 541.479C342.94 555.089 359.68 562.719 370.07 566.509L374.18 555.229C363.36 551.279 347.94 543.969 334.53 531.299C342.37 518.499 347.96 506.249 348.81 496.429L348.83 495.909V190.189H336.83V495.639C336.31 500.969 333.7 509.329 326.11 522.209C313.55 506.619 307.19 487.729 307.19 465.909V73.1895H295.19V465.919C295.19 495.599 305.73 517.239 319.39 532.829C314.15 540.599 307.43 549.639 298.84 560.149C287.95 573.469 277.09 585.369 270.04 592.879C262.98 585.369 252.13 573.469 241.24 560.149C232.65 549.639 225.93 540.599 220.69 532.829C234.34 517.249 244.89 495.609 244.89 465.919V73.1895H232.89V465.919C232.89 487.739 226.52 506.629 213.97 522.219C206.38 509.339 203.77 500.979 203.25 495.649V190.189H191.25V495.919L191.27 496.439C192.12 506.249 197.71 518.509 205.55 531.309C192.14 543.979 176.72 551.289 165.9 555.239L170.01 566.519C180.4 562.729 197.14 555.109 212.16 541.489C234.66 574.419 267.45 607.579 269.49 609.629L270.04 609.079L270.59 609.629C272.63 607.569 305.42 574.409 327.92 541.489V541.479Z" fill="var(--fill-0, #E0BD75)"/>
<path id="Vector_5" d="M217.26 565.35C195.69 583.88 169.38 599.64 126.73 599.64H0V611.64H126.73C172.91 611.64 202.04 594.11 224.74 574.72C224.05 573.87 223.36 573.02 222.66 572.16C220.79 569.85 218.99 567.58 217.25 565.34L217.26 565.35Z" fill="var(--fill-0, #E0BD75)"/>
<path id="Vector_6" d="M247.65 552.18C256.07 541.98 264.05 529.35 269.99 514.99H270.08C276.01 529.35 284 541.98 292.42 552.18C295.17 548.79 297.7 545.58 300.03 542.53C290.67 530.75 281.17 515.72 276.03 498.6V0H264.03V498.61C258.9 515.72 249.39 530.76 240.03 542.54C242.36 545.58 244.89 548.79 247.64 552.19L247.65 552.18Z" fill="var(--fill-0, #E0BD75)"/>
</g>
<defs>
<clipPath id="clip0_0_54">
<rect width="540.08" height="611.64" fill="white"/>
</clipPath>
</defs>
</svg>
