<svg preserveAspectRatio="none" width="100%" height="100%" overflow="visible" style="display: block;" viewBox="0 0 403 85" fill="none" xmlns="http://www.w3.org/2000/svg">
<path id="Union" d="M184.956 45H183.396C176.437 33.36 173.436 29.7598 166.356 29.7598C160.597 29.7598 156.036 33.5995 156.036 39.2393C156.036 44.3993 160.717 47.28 170.557 50.04C182.436 53.4 187.597 57.5997 187.597 66.5996C187.597 76.1996 181.716 84.5996 168.996 84.5996C164.556 84.5995 158.316 83.0394 154.477 80.5195L150.396 84.5996H149.076V65.1592H150.637C158.317 78.9592 161.797 82.4395 170.437 82.4395C177.756 82.4394 181.477 77.1597 181.477 72.7197C181.477 66.9597 177.876 63.5995 166.477 60.4795C154.477 57.2395 149.316 53.3996 149.316 44.6396C149.316 34.9196 156.757 27.5996 168.637 27.5996C173.197 27.5997 177.996 29.28 180.876 30.96L183.637 27.5996H184.956V45ZM233.237 45H231.678C224.718 33.36 221.718 29.7598 214.638 29.7598C208.878 29.7598 204.318 33.5995 204.317 39.2393C204.317 44.3993 208.998 47.28 218.838 50.04C230.718 53.4 235.878 57.5997 235.878 66.5996C235.878 76.1996 229.997 84.5996 217.277 84.5996C212.837 84.5995 206.598 83.0394 202.758 80.5195L198.678 84.5996H197.357V65.1592H198.918C206.598 78.9592 210.078 82.4395 218.718 82.4395C226.038 82.4394 229.758 77.1597 229.758 72.7197C229.758 66.9597 226.158 63.5995 214.758 60.4795C202.758 57.2395 197.598 53.3996 197.598 44.6396C197.598 34.9196 205.038 27.5996 216.918 27.5996C221.478 27.5997 226.277 29.28 229.157 30.96L231.918 27.5996H233.237V45ZM305.678 27.5996C320.198 27.5998 332.797 39.12 332.797 55.7998C332.797 72.5996 319.598 84.5994 305.678 84.5996C290.918 84.5996 278.438 73.0793 278.438 56.2793C278.438 39.5995 291.638 27.5996 305.678 27.5996ZM54.4795 67.0801H54.96L81.1201 0H106.68V1.43945C95.9998 1.79947 93.1201 4.9201 93.1201 10.0801V73.4395C93.1201 78.7194 95.9998 81.7201 106.68 82.0801V83.6396H69.2402V82.0801C80.5199 81.72 81.7197 78.9594 81.7197 73.4395V7.7998H81.1201L51.2402 83.8799H49.6797L18 7.55957H17.3994V63.8398C17.3994 75.4797 19.9202 80.2801 32.1602 82.0801V83.6396H0V82.0801C11.2798 80.1601 14.3994 75.4797 14.3994 63.8398V15.1201C14.3994 7.80016 10.3199 1.67953 0 1.43945V0H27.3594L54.4795 67.0801ZM133.078 77.3994C133.078 81.4794 134.638 82.0792 142.198 82.1992V83.6396H114.238V82.1992C121.198 82.0792 122.998 81.4793 122.998 77.3994V36.3594C122.998 32.7596 121.198 30.3593 114.238 30.2393V28.7998L133.078 28.3193V77.3994ZM263.039 77.3994C263.039 81.4794 264.599 82.0792 272.159 82.1992V83.6396H244.199V82.1992C251.159 82.0792 252.959 81.4793 252.959 77.3994V36.3594C252.959 32.7596 251.159 30.3593 244.199 30.2393V28.7998L263.039 28.3193V77.3994ZM378.93 27.96C387.81 27.96 393.45 33.3595 393.45 44.1592V77.3994C393.45 81.4794 395.13 82.0792 402.21 82.1992V83.6396H375.689V82.1992C381.809 82.0792 383.37 81.4794 383.37 77.3994V47.3994C383.37 37.7996 380.73 33.1201 372.81 33.1201C366.93 33.1202 361.77 37.8001 358.41 45V77.3994C358.41 81.4794 359.97 82.0792 365.97 82.1992V83.6396H339.569V82.1992C346.529 82.0792 348.33 81.4794 348.33 77.3994V36.3594C348.33 32.7595 346.529 30.3593 339.569 30.2393V28.7998L358.17 28.3193V41.8799C363.69 32.7599 370.77 27.96 378.93 27.96ZM305.077 29.7598C295.597 29.7598 289.957 36.2401 289.957 56.04C289.957 75.8397 296.557 82.4394 306.157 82.4395C315.517 82.4395 321.277 75.8397 321.277 56.04C321.277 36.24 314.677 29.7598 305.077 29.7598ZM127.318 3.12012C131.278 3.12032 133.918 5.88011 133.918 9.95996C133.918 14.0396 131.278 16.9197 127.318 16.9199C123.358 16.9199 120.718 14.2792 120.718 10.1992C120.718 6.11944 123.358 3.12012 127.318 3.12012ZM257.279 3.12012C261.239 3.12032 263.879 5.88011 263.879 9.95996C263.879 14.0396 261.239 16.9197 257.279 16.9199C253.319 16.9199 250.679 14.2792 250.679 10.1992C250.679 6.11944 253.319 3.12012 257.279 3.12012Z" fill="var(--fill-0, #E0BD75)"/>
</svg>
