<svg preserveAspectRatio="none" width="100%" height="100%" overflow="visible" style="display: block;" viewBox="0 0 325 87" fill="none" xmlns="http://www.w3.org/2000/svg">
<path id="Union" d="M36.4795 1.43945C25.1997 2.03949 23.6402 4.91981 26.1602 11.7598L47.5195 70.1992H48L67.7998 18.7197C71.9998 7.79972 70.4396 3.47946 59.6396 1.43945V0H87.3594V1.43945C79.1997 3.11949 75.5999 7.43979 70.0801 21.2393L44.3994 86.1592H41.7598L14.3994 14.04C11.0394 5.16012 9.23979 2.87946 0 1.43945V0H36.4795V1.43945ZM155.071 45H153.512C146.552 33.36 143.552 29.7598 136.472 29.7598C130.712 29.7598 126.152 33.5995 126.151 39.2393C126.151 44.3993 130.832 47.28 140.672 50.04C152.552 53.4 157.712 57.5997 157.712 66.5996C157.712 76.1996 151.831 84.5996 139.111 84.5996C134.671 84.5995 128.432 83.0394 124.592 80.5195L120.512 84.5996H119.191V65.1592H120.752C128.432 78.9592 131.912 82.4395 140.552 82.4395C147.872 82.4394 151.592 77.1597 151.592 72.7197C151.592 66.9597 147.992 63.5995 136.592 60.4795C124.592 57.2395 119.432 53.3996 119.432 44.6396C119.432 34.9196 126.872 27.5996 138.752 27.5996C143.312 27.5997 148.111 29.28 150.991 30.96L153.752 27.5996H155.071V45ZM227.512 27.5996C242.032 27.5998 254.631 39.12 254.631 55.7998C254.631 72.5996 241.432 84.5994 227.512 84.5996C212.752 84.5996 200.271 73.0793 200.271 56.2793C200.272 39.5995 213.472 27.5996 227.512 27.5996ZM103.193 77.3994C103.193 81.4794 104.753 82.0792 112.313 82.1992V83.6396H84.3535V82.1992C91.3132 82.0792 93.1133 81.4793 93.1133 77.3994V36.3594C93.1132 32.7596 91.3131 30.3593 84.3535 30.2393V28.7998L103.193 28.3193V77.3994ZM184.873 77.3994C184.873 81.4794 186.433 82.0792 193.993 82.1992V83.6396H166.033V82.1992C172.993 82.0792 174.793 81.4793 174.793 77.3994V36.3594C174.793 32.7596 172.993 30.3593 166.033 30.2393V28.7998L184.873 28.3193V77.3994ZM300.764 27.96C309.644 27.96 315.284 33.3595 315.284 44.1592V77.3994C315.284 81.4794 316.964 82.0792 324.044 82.1992V83.6396H297.523V82.1992C303.643 82.0792 305.204 81.4794 305.204 77.3994V47.3994C305.204 37.7996 302.563 33.1201 294.644 33.1201C288.764 33.1202 283.604 37.8001 280.244 45V77.3994C280.244 81.4794 281.804 82.0792 287.804 82.1992V83.6396H261.403V82.1992C268.363 82.0792 270.164 81.4794 270.164 77.3994V36.3594C270.164 32.7595 268.363 30.3593 261.403 30.2393V28.7998L280.004 28.3193V41.8799C285.524 32.7599 292.604 27.96 300.764 27.96ZM226.911 29.7598C217.431 29.7598 211.791 36.2401 211.791 56.04C211.791 75.8397 218.391 82.4394 227.991 82.4395C237.351 82.4395 243.111 75.8397 243.111 56.04C243.111 36.24 236.511 29.7598 226.911 29.7598ZM97.4336 3.12012C101.393 3.12032 104.033 5.88011 104.033 9.95996C104.033 14.0396 101.393 16.9197 97.4336 16.9199C93.4736 16.9199 90.833 14.2792 90.833 10.1992C90.8332 6.11944 93.4737 3.12012 97.4336 3.12012ZM179.113 3.12012C183.073 3.12032 185.713 5.88011 185.713 9.95996C185.713 14.0396 183.073 16.9197 179.113 16.9199C175.153 16.9199 172.513 14.2792 172.513 10.1992C172.513 6.11944 175.153 3.12012 179.113 3.12012Z" fill="var(--fill-0, #E0BD75)"/>
</svg>
